<?xml version="1.0" standalone="no"?>
<!DOCTYPE svg PUBLIC "-//W3C//DTD SVG 1.1//EN" "http://www.w3.org/Graphics/SVG/1.1/DTD/svg11.dtd" >
<svg xmlns="http://www.w3.org/2000/svg">
<metadata></metadata>
<defs>
<font id="utm_daxlinebold" horiz-adv-x="1282" >
<font-face units-per-em="2048" ascent="1638" descent="-410" />
<missing-glyph horiz-adv-x="394" />
<glyph horiz-adv-x="0" />
<glyph unicode="&#xd;" horiz-adv-x="571" />
<glyph unicode=" "  horiz-adv-x="394" />
<glyph unicode="&#x09;" horiz-adv-x="394" />
<glyph unicode="&#xa0;" horiz-adv-x="394" />
<glyph unicode="!" horiz-adv-x="575" d="M120 158q0 37 13.5 68.5t36 55t52 38t64.5 14.5t65.5 -14.5t54 -38t37 -55t13.5 -68.5t-13.5 -69t-37 -55.5t-54 -37.5t-65.5 -14t-64.5 14t-52 37.5t-36 55.5t-13.5 69zM128 1483h318l-41 -965h-234z" />
<glyph unicode="&#x22;" horiz-adv-x="925" d="M122 1436q23 32 56.5 48.5t70.5 16.5t68.5 -16.5t54.5 -48.5l-47 -623h-154zM550 1436q23 32 55.5 48.5t69.5 16.5q78 0 125 -65l-47 -623h-154z" />
<glyph unicode="#" horiz-adv-x="1484" d="M110 395v193h244l45 323h-217v193h243l52 379h206l-51 -379h305l52 379h206l-51 -379h215v-193h-243l-45 -323h217v-193h-242l-53 -395h-209l55 395h-305l-53 -395h-207l53 395h-217zM561 588h303l45 323h-303z" />
<glyph unicode="$" horiz-adv-x="1122" d="M104 55l98 248q52 -29 130.5 -50.5t146.5 -21.5q117 0 181.5 45.5t64.5 133.5q0 41 -17.5 72.5t-46.5 56t-66.5 45t-78.5 39.5q-64 28 -133.5 65t-127 89t-95.5 124t-38 170q0 174 100.5 284.5t274.5 139.5l-16 299h215l-33 -289q92 -4 170 -26.5t131 -51.5l-92 -229 q-41 23 -108.5 43.5t-139.5 20.5q-110 0 -166.5 -44t-56.5 -126q0 -39 18.5 -71t48 -58.5t68.5 -48t80 -42.5q61 -30 131 -66t128 -87t96 -122t38 -169q0 -178 -104.5 -294t-290.5 -146l14 -314h-219l31 303q-90 5 -183.5 27.5t-152.5 50.5z" />
<glyph unicode="%" horiz-adv-x="1931" d="M104 1042q0 101 21.5 186t64.5 147.5t107.5 97t148.5 34.5t148.5 -34.5t107.5 -97t64.5 -147.5t21.5 -186q0 -100 -21.5 -185t-64.5 -147.5t-107.5 -97t-148.5 -34.5t-148.5 34.5t-107.5 97t-64.5 147.5t-21.5 185zM311 1044q0 -278 135 -278t135 278q0 138 -34.5 209.5 t-100.5 71.5t-100.5 -71.5t-34.5 -209.5zM618 29l524 1478l168 -53l-524 -1479zM1142 440q0 101 21.5 186t63.5 147.5t105.5 97t149.5 34.5q84 0 148.5 -34.5t107.5 -97t64.5 -147.5t21.5 -186q0 -100 -21.5 -185t-64.5 -147.5t-107.5 -97.5t-148.5 -35q-86 0 -149.5 35 t-105.5 97.5t-63.5 147.5t-21.5 185zM1349 442q0 -278 133 -278q135 0 135 278q0 138 -34.5 209.5t-100.5 71.5q-65 0 -99 -71.5t-34 -209.5z" />
<glyph unicode="&#x26;" horiz-adv-x="1394" d="M88 399q0 152 81 248t200 139v5q-117 40 -171.5 127.5t-54.5 191.5q0 80 30 152.5t88 127t145.5 86t199.5 31.5q105 0 197 -22.5t153 -57.5l-86 -215q-45 25 -106.5 40.5t-124.5 15.5q-109 0 -168 -46t-59 -137q0 -86 57 -135t151 -49q29 0 63 2t77 10l536 97l33 -213 l-225 -39v-703q-70 -32 -185.5 -56t-257.5 -24q-272 0 -422.5 106.5t-150.5 317.5zM364 420q0 -119 79 -172t225 -53q47 0 97 7t75 17v494l-213 -37q-129 -23 -196 -85.5t-67 -170.5z" />
<glyph unicode="'" horiz-adv-x="499" d="M122 1436q23 32 56.5 48.5t70.5 16.5t68.5 -16.5t54.5 -48.5l-47 -623h-154z" />
<glyph unicode="(" horiz-adv-x="784" d="M104 608q0 316 115.5 580t310.5 481l199 -115q-74 -94 -134.5 -201.5t-105.5 -225t-69.5 -247.5t-24.5 -272q0 -141 24.5 -270t69.5 -248t105.5 -225.5t134.5 -200.5l-199 -115q-195 218 -310.5 481t-115.5 578z" />
<glyph unicode=")" horiz-adv-x="784" d="M55 -336q74 94 134.5 200.5t105.5 225.5t69.5 248t24.5 270q0 142 -24.5 272t-69.5 247.5t-105.5 225t-134.5 201.5l199 115q194 -217 310 -481t116 -580q0 -315 -116 -578t-310 -481z" />
<glyph unicode="*" horiz-adv-x="1140" d="M116 1237q0 45 21.5 83t62.5 56l293 -129l-27 334q41 53 113 53t115 -53l-29 -334l293 129q41 -18 63.5 -56t22.5 -83q0 -23 -4 -40t-15 -34l-317 -76l213 -253q-2 -29 -14.5 -54.5t-33 -46t-47 -32t-53.5 -11.5q-10 0 -16 1t-16 3l-162 285l-162 -285q-8 -2 -15 -3 t-18 -1q-26 0 -52 11.5t-46 32t-33.5 46t-15.5 54.5l215 253l-320 76q-16 31 -16 74z" />
<glyph unicode="+" horiz-adv-x="1077" d="M120 557v217h305v330h225v-330h308v-217h-308v-330h-225v330h-305z" />
<glyph unicode="," horiz-adv-x="532" d="M-14 -346l182 582q27 40 70 69t102 29q60 0 88.5 -29t36.5 -69l-293 -582h-186z" />
<glyph unicode="-" horiz-adv-x="786" d="M112 547v237h561v-237h-561z" />
<glyph unicode="." horiz-adv-x="534" d="M98 158q0 37 13.5 68.5t36 55t54 38t66.5 14.5t65.5 -14.5t53 -38t36 -55t13.5 -68.5t-13.5 -69t-36 -55.5t-53 -37.5t-65.5 -14t-66.5 14t-54 37.5t-36 55.5t-13.5 69z" />
<glyph unicode="/" horiz-adv-x="952" d="M-14 -338l653 1985l252 -78l-653 -1983z" />
<glyph unicode="0" horiz-adv-x="1175" d="M96 741q0 162 27.5 302.5t88 244t153.5 161.5t223 58q129 0 222 -58t153.5 -161.5t88 -244t27.5 -302.5q0 -163 -27.5 -302.5t-88 -243t-153.5 -162t-222 -58.5q-130 0 -223 58.5t-153.5 162t-88 243t-27.5 302.5zM368 743q0 -120 11.5 -219.5t38 -171t68.5 -111.5 t102 -40q59 0 101 40t68.5 111.5t39 171t12.5 219.5q0 121 -12.5 220.5t-39 171t-68.5 111.5t-101 40q-60 0 -102 -40t-68.5 -111.5t-38 -171t-11.5 -220.5z" />
<glyph unicode="1" horiz-adv-x="882" d="M24 1260q70 12 140.5 32.5t135 49t117.5 64.5t90 77h213v-1483h-272v1169q-35 -20 -80 -39.5t-97 -35t-105.5 -27.5t-102.5 -20z" />
<glyph unicode="2" horiz-adv-x="1144" d="M20 0l608 791q45 59 79 121.5t34 134.5q0 102 -70.5 164.5t-201.5 62.5q-74 0 -154 -17.5t-145 -46.5l-80 217q88 39 193.5 59.5t209.5 20.5q260 0 395.5 -119.5t135.5 -326.5q0 -60 -16.5 -115t-42 -105t-57.5 -94.5t-63 -80.5l-372 -435h581v-231h-1034z" />
<glyph unicode="3" horiz-adv-x="1079" d="M24 55l86 217q66 -28 154 -44.5t182 -16.5q129 0 200.5 59.5t71.5 157.5q0 57 -30.5 101t-85 73t-127 44.5t-156.5 15.5h-23v204q174 11 276.5 76.5t102.5 163.5q0 80 -58 125t-169 45q-74 0 -158 -18.5t-151 -47.5l-78 217q90 39 199.5 59.5t224.5 20.5 q231 0 347 -104.5t116 -276.5q0 -55 -20.5 -106t-54.5 -93t-77 -75t-90 -53v-4q55 -19 107.5 -49.5t93.5 -75.5t65.5 -105.5t24.5 -138.5q0 -102 -37 -185t-107.5 -141.5t-172 -91.5t-230.5 -33q-113 0 -225.5 21.5t-200.5 58.5z" />
<glyph unicode="4" horiz-adv-x="1155" d="M61 367v198l592 918h295v-918h141v-198h-141v-367h-250v367h-637zM294 565h412v477v70t2 64q2 32 4 61h-4q-14 -27 -29 -55q-26 -54 -65 -115z" />
<glyph unicode="5" horiz-adv-x="1083" d="M28 55l86 217q59 -28 148.5 -44.5t168.5 -16.5q138 0 214.5 60.5t76.5 168.5q0 58 -21.5 105t-68.5 80.5t-121.5 53t-179.5 19.5q-47 0 -100 -3t-113 -13l88 801h764v-232h-530l-41 -348h41q280 0 420.5 -120.5t140.5 -336.5q0 -116 -42 -204t-118 -147.5t-178.5 -89.5 t-222.5 -30q-111 0 -218.5 22.5t-193.5 57.5z" />
<glyph unicode="6" horiz-adv-x="1177" d="M92 553q0 186 62.5 344t172 279.5t258 205.5t320.5 125l66 -233q-211 -51 -348.5 -156.5t-204.5 -253.5q41 17 95 28t101 11q111 0 200 -30.5t150.5 -88t95 -139.5t33.5 -184q0 -103 -35.5 -191t-101 -153.5t-157 -103.5t-201.5 -38q-131 0 -226.5 46.5t-158 126t-92 184 t-29.5 221.5zM354 551q0 -154 61.5 -252t182.5 -98q53 0 95 20.5t71.5 56t46 82t16.5 97.5q0 123 -72.5 188.5t-187.5 65.5q-49 0 -105.5 -12.5t-97.5 -28.5q-4 -29 -7 -59.5t-3 -59.5z" />
<glyph unicode="7" horiz-adv-x="1105" d="M47 1251v232h1032l-622 -1483h-306l555 1251h-659z" />
<glyph unicode="8" horiz-adv-x="1171" d="M83 373q0 80 23.5 140t63.5 107.5t92 82t108 63.5q-51 27 -96.5 60.5t-79 75.5t-54 95.5t-20.5 120.5q0 90 34.5 163t96 123t146.5 76.5t188 26.5q98 0 184 -28.5t148.5 -79.5t98.5 -123t36 -158q0 -67 -20.5 -120.5t-55.5 -95.5t-80 -75.5t-96 -60.5q57 -29 109.5 -63.5 t92 -82t63.5 -107.5t24 -140q0 -90 -38 -164t-104.5 -126t-159 -80t-202.5 -28q-111 0 -203 27t-158.5 77t-103.5 123.5t-37 170.5zM349 383q0 -92 65.5 -147.5t170.5 -55.5q104 0 169.5 55.5t65.5 147.5q0 51 -19.5 92t-51 74t-74.5 59.5t-90 50.5q-47 -24 -90 -50.5 t-76 -59.5t-51.5 -74t-18.5 -92zM374 1118q0 -47 16.5 -84t45 -67.5t67.5 -55t82 -45.5q43 21 82 45.5t67.5 55t45 67.5t16.5 84q0 78 -53.5 135.5t-157.5 57.5q-105 0 -158 -57.5t-53 -135.5z" />
<glyph unicode="9" horiz-adv-x="1177" d="M83 1022q0 100 36 189t100.5 155t155.5 103.5t202 37.5q131 0 226 -46t157.5 -126t93 -184t30.5 -221q0 -187 -62 -344.5t-172 -279.5t-258.5 -207t-320.5 -124l-65 234q211 51 348 156.5t205 252.5q-41 -16 -94.5 -27t-100.5 -11q-223 0 -352 117.5t-129 324.5z M349 1028q0 -123 73 -188.5t187 -65.5q49 0 106.5 13.5t96.5 29.5q4 29 7 58.5t3 58.5q0 153 -62.5 252.5t-182.5 99.5q-54 0 -96 -21.5t-71.5 -57.5t-45 -82t-15.5 -97z" />
<glyph unicode=":" horiz-adv-x="587" d="M124 158q0 37 13.5 68.5t37 55t54 38t65.5 14.5t65.5 -14.5t54 -38t37 -55t13.5 -68.5t-13.5 -69t-37 -55.5t-54 -37.5t-65.5 -14t-65.5 14t-54 37.5t-37 55.5t-13.5 69zM124 825q0 37 13.5 69t37 55.5t54 37.5t65.5 14t65.5 -14t54 -37.5t37 -55.5t13.5 -69t-13.5 -68.5 t-37 -55t-54 -37t-65.5 -13.5t-65.5 13.5t-54 37t-37 55t-13.5 68.5z" />
<glyph unicode=";" horiz-adv-x="587" d="M-4 -346l180 582q29 40 72 69t102 29q60 0 88.5 -29t34.5 -69l-291 -582h-186zM133 825q0 37 13.5 69t36 55.5t53 37.5t65.5 14t65.5 -14t53 -37.5t36 -55.5t13.5 -69t-13.5 -68.5t-36 -55t-53 -37t-65.5 -13.5t-65.5 13.5t-53 37t-36 55t-13.5 68.5z" />
<glyph unicode="&#x3c;" horiz-adv-x="1077" d="M120 573v185l838 420v-254l-592 -258l592 -258v-254z" />
<glyph unicode="=" horiz-adv-x="1077" d="M120 332v215h838v-215h-838zM120 784v215h838v-215h-838z" />
<glyph unicode="&#x3e;" horiz-adv-x="1077" d="M120 154v254l592 258l-592 258v254l838 -420v-185z" />
<glyph unicode="?" horiz-adv-x="985" d="M51 1427q74 35 176.5 57.5t206.5 22.5q229 0 351 -97t122 -290q0 -78 -29.5 -139t-77 -108.5t-105.5 -81t-114 -54.5l-16 -219h-221l-23 356q60 15 114 35.5t96 50t66.5 65.5t24.5 81q0 82 -53 127t-172 45q-65 0 -139 -18.5t-123 -42.5zM287 158q0 37 13 68.5t36.5 55 t54.5 38t66 14.5q34 0 65 -14.5t53.5 -38t35.5 -55t13 -68.5t-13 -69t-35.5 -55.5t-53.5 -37.5t-65 -14q-35 0 -66 14t-54.5 37.5t-36.5 55.5t-13 69z" />
<glyph unicode="@" horiz-adv-x="2023" d="M98 518q0 211 66.5 392.5t192.5 313.5t304 207.5t404 75.5q209 0 369.5 -64.5t269 -177t165 -262t56.5 -319.5q0 -186 -58.5 -319.5t-159 -219.5t-234.5 -127t-288 -41q-286 0 -444 145.5t-158 416.5q0 125 34 225t96.5 168.5t151.5 105.5t200 37q123 0 205.5 -35.5 t130.5 -78.5v-752q63 22 117.5 60t92 95.5t59 136.5t21.5 183q0 131 -37.5 243.5t-115.5 195.5t-196 131.5t-277 48.5q-172 0 -308.5 -58.5t-230.5 -162t-144.5 -248t-50.5 -316.5q0 -170 54.5 -311t161 -243.5t262 -160t358.5 -57.5q178 0 331.5 48t254.5 120l114 -178 q-120 -86 -294.5 -143.5t-405.5 -57.5q-248 0 -446.5 71.5t-337 202t-212 311.5t-73.5 398zM817 539q0 -185 92 -271t248 -86h16v670q-16 10 -48 19.5t-69 9.5q-116 0 -177.5 -86t-61.5 -256z" />
<glyph unicode="A" horiz-adv-x="1304" d="M14 0l475 1483h326l477 -1483h-289l-104 346h-492l-104 -346h-289zM463 559h380l-149 506q-10 31 -17.5 62.5t-11.5 58.5q-6 31 -10 59h-4q-4 -28 -10 -59q-4 -27 -11.5 -58.5t-17.5 -62.5z" />
<glyph unicode="B" horiz-adv-x="1210" d="M131 55v1372q80 35 193.5 57.5t236.5 22.5q135 0 234.5 -30.5t166 -84t98.5 -128t32 -162.5q0 -64 -18.5 -118t-50.5 -97t-72 -72t-83 -41v-4q43 -14 89 -44t84 -75t62.5 -106.5t24.5 -141.5q0 -200 -141 -314t-422 -114q-61 0 -122.5 6.5t-118 16.5t-106.5 25.5 t-87 31.5zM395 219q29 -10 76 -17t92 -7q293 0 293 227q0 125 -90 182q-35 23 -78 35t-115 12h-178v-432zM395 856h174q72 0 115 11.5t76 37.5q30 27 48.5 71t18.5 99q0 101 -64.5 157t-201.5 56q-47 0 -92 -7t-74 -17v-408z" />
<glyph unicode="C" horiz-adv-x="1030" d="M90 741q0 193 44 337.5t121 239.5t180.5 142t219.5 47q94 0 176 -22.5t131 -57.5l-86 -231q-28 23 -78.5 41t-109.5 18q-137 0 -225 -129t-88 -383t88 -382t225 -128q59 0 109.5 17.5t78.5 40.5l86 -236q-49 -35 -128.5 -57.5t-178.5 -22.5q-116 0 -219.5 47.5 t-180.5 142.5t-121 238.5t-44 337.5z" />
<glyph unicode="D" horiz-adv-x="1243" d="M131 55v1372q68 35 171 57.5t220 22.5q299 0 465 -195.5t166 -570.5q0 -374 -166 -570t-465 -196q-119 0 -222 22.5t-169 57.5zM410 240q40 -21 129 -21q73 0 134.5 30t106.5 93.5t69.5 161.5t24.5 237q0 138 -24.5 237t-69.5 162.5t-106.5 93.5t-134.5 30 q-82 0 -129 -21v-1003z" />
<glyph unicode="E" horiz-adv-x="976" d="M131 0v1483h758v-242h-486v-371h439v-237h-439v-391h486v-242h-758z" />
<glyph unicode="F" horiz-adv-x="956" d="M131 0v1483h750v-242h-478v-371h433v-237h-433v-633h-272z" />
<glyph unicode="G" horiz-adv-x="1253" d="M90 741q0 177 48 318t136 241.5t212 153.5t276 53q110 0 205.5 -22.5t148.5 -57.5l-86 -225q-41 25 -107.5 42.5t-152.5 17.5q-84 0 -156.5 -31t-127 -95.5t-86 -161.5t-31.5 -231q0 -133 28.5 -231t76.5 -163.5t111.5 -97.5t131.5 -32q53 0 93 6t58 17v413h-217v219h477 v-819q-57 -32 -159.5 -56t-231.5 -24q-149 0 -269 53.5t-204 154t-129 241.5t-45 317z" />
<glyph unicode="H" horiz-adv-x="1253" d="M131 0v1483h279v-613h436v613h276v-1483h-276v633h-436v-633h-279z" />
<glyph unicode="I" horiz-adv-x="540" d="M131 0v1483h279v-1483h-279z" />
<glyph unicode="J" horiz-adv-x="540" d="M-116 -201q113 29 180.5 115t67.5 250v1319h278v-1319q0 -283 -140 -431.5t-386 -181.5v248z" />
<glyph unicode="K" horiz-adv-x="1200" d="M131 0v1483h279v-672h4l446 672h311l-477 -709l488 -774h-316l-452 737h-4v-737h-279z" />
<glyph unicode="L" horiz-adv-x="911" d="M131 0v1483h279v-1241h442v-242h-721z" />
<glyph unicode="M" horiz-adv-x="1712" d="M73 0l178 1483h314l247 -867q11 -32 18 -65t13 -62q8 -32 12 -63h4q2 31 11 63q4 29 12 62t18 65l246 867h313l179 -1483h-258l-101 944q-4 35 -6 71t-4 64q-2 35 -4 66h-4q-4 -31 -12 -66l-16 -64t-19 -71l-269 -944h-178l-270 944q-10 35 -19.5 71t-15.5 64 q-8 35 -12 66h-4q-2 -31 -4 -66q-2 -28 -4.5 -64t-6.5 -71l-100 -944h-258z" />
<glyph unicode="N" horiz-adv-x="1320" d="M131 0v1483h238l497 -856q17 -31 32 -61.5t28 -55.5q14 -29 26 -57h4q-2 28 -2 63q-2 29 -2 64.5v70.5v832h238v-1483h-230l-507 879q-19 30 -34.5 61t-25.5 55l-24 58h-5q0 -29 3 -62q0 -28 1 -62t1 -69v-860h-238z" />
<glyph unicode="O" d="M90 741q0 162 34 302.5t102.5 243t172 161.5t242.5 59t242.5 -59t172 -161.5t102.5 -243t34 -302.5q0 -161 -34 -301.5t-102.5 -243t-172 -162t-242.5 -59.5t-242.5 59.5t-172 162t-102.5 243t-34 301.5zM369 741q0 -114 17 -208.5t51 -161t85 -103.5t119 -37 q67 0 118.5 37t85 103.5t51 161t17.5 208.5q0 115 -17.5 209t-51 161t-85 103.5t-118.5 36.5q-68 0 -119 -36.5t-85 -103.5t-51 -161t-17 -209z" />
<glyph unicode="P" horiz-adv-x="1157" d="M131 0v1427q82 37 185.5 58.5t226.5 21.5q268 0 408.5 -129t140.5 -346q0 -100 -35 -186t-105.5 -148.5t-175 -97.5t-242.5 -35q-34 0 -71 3t-60 7v-575h-272zM403 795q45 -11 117 -11q148 0 223.5 67t75.5 183q0 252 -272 252q-41 0 -80 -6t-64 -16v-469z" />
<glyph unicode="Q" d="M90 741q0 162 34 302.5t102.5 243t172 161.5t242.5 59t242.5 -59t172 -161.5t102.5 -243t34 -302.5q0 -206 -55.5 -374t-165.5 -271l223 -321l-211 -176l-227 389q-56 -13 -115 -13q-139 0 -242.5 59.5t-172 162t-102.5 243t-34 301.5zM369 741q0 -114 17 -208.5t51 -161 t85 -103.5t119 -37q67 0 118.5 37t85 103.5t51 161t17.5 208.5q0 115 -17.5 209t-51 161t-85 103.5t-118.5 36.5q-68 0 -119 -36.5t-85 -103.5t-51 -161t-17 -209z" />
<glyph unicode="R" horiz-adv-x="1218" d="M131 0v1427q86 39 197.5 59.5t230.5 20.5q268 0 402.5 -118.5t134.5 -327.5q0 -80 -22.5 -141.5t-61.5 -106.5t-89.5 -74.5t-105.5 -46.5v-4q57 -33 97 -89t69 -128l190 -471h-292l-179 455q-28 67 -73 107t-119 40h-105v-602h-274zM405 807h148q131 0 200.5 57.5 t69.5 179.5q0 117 -61.5 180.5t-196.5 63.5q-45 0 -88 -7t-72 -17v-457z" />
<glyph unicode="S" horiz-adv-x="1007" d="M73 55l90 250q47 -29 118 -49t142 -20q101 0 159 49t58 131q0 39 -15 69.5t-42 55t-62.5 44t-74.5 38.5q-60 28 -123.5 65t-115.5 89t-86 123t-34 169t33 179t92.5 138.5t145.5 89t192 31.5q105 0 192 -22.5t140 -57.5l-86 -233q-39 23 -102.5 44.5t-131.5 21.5 q-92 0 -144 -48.5t-52 -126.5q0 -38 16.5 -68t44 -55.5t63.5 -46t75 -41.5q57 -30 120.5 -66t116.5 -87t87 -122t34 -169q0 -102 -33 -185t-95.5 -143.5t-152.5 -93.5t-204 -33q-105 0 -205.5 22.5t-159.5 57.5z" />
<glyph unicode="T" horiz-adv-x="999" d="M61 1241v242h877v-242h-299v-1241h-277v1241h-301z" />
<glyph unicode="U" horiz-adv-x="1234" d="M131 438v1045h279v-1047q0 -98 60 -153.5t146 -55.5q88 0 148.5 55.5t60.5 153.5v1047h279v-1045q0 -110 -37 -195t-102.5 -143.5t-154.5 -89t-194 -30.5q-104 0 -192 30.5t-153.5 89t-102.5 143.5t-37 195z" />
<glyph unicode="V" horiz-adv-x="1214" d="M24 1483h299l242 -965q8 -35 15 -72.5t13 -68.5q9 -37 13 -72h4q2 35 10 72q4 31 12 68.5t19 72.5l239 965h301l-436 -1483h-293z" />
<glyph unicode="W" horiz-adv-x="1794" d="M45 1483h279l186 -932q6 -35 11 -68.5t9 -62.5q7 -35 11 -66h4q2 31 8 66q4 29 9 62.5t13 68.5l207 932h230l207 -932q8 -35 14 -68.5t10 -62.5q6 -35 8 -66h2q4 31 11 66q4 29 9 62.5t13 68.5l184 932h279l-350 -1483h-271l-194 860q-10 37 -16.5 74t-10.5 67 q-6 37 -8 70h-4q-4 -33 -10 -70q-4 -30 -10.5 -67t-14.5 -74l-194 -860h-269z" />
<glyph unicode="X" horiz-adv-x="1181" d="M16 0l410 768l-381 715h303l241 -486h5l239 486h303l-381 -715l410 -768h-305l-266 539h-5l-270 -539h-303z" />
<glyph unicode="Y" horiz-adv-x="1150" d="M14 1483h299l258 -611h4l262 611h299l-424 -901v-582h-276v582z" />
<glyph unicode="Z" horiz-adv-x="1019" d="M40 0l516 1241h-469v242h848l-514 -1241h518v-242h-899z" />
<glyph unicode="[" horiz-adv-x="751" d="M147 -399v2007h516v-217h-254v-1573h254v-217h-516z" />
<glyph unicode="\" horiz-adv-x="952" d="M61 1569l252 78l653 -1985l-254 -76z" />
<glyph unicode="]" horiz-adv-x="751" d="M88 -182h254v1573h-254v217h516v-2007h-516v217z" />
<glyph unicode="^" horiz-adv-x="1191" d="M137 926l338 430q49 59 121 59q71 0 119 -59l340 -430l-166 -140l-293 377l-293 -377z" />
<glyph unicode="_" horiz-adv-x="1163" d="M-8 -254h1180v-190h-1180v190z" />
<glyph unicode="`" horiz-adv-x="673" d="M79 1501q10 29 41 45.5t70 16.5t78.5 -14.5t68.5 -47.5l137 -270h-182z" />
<glyph unicode="a" horiz-adv-x="1062" d="M71 332q0 112 52 183t138 112t198 59.5t233 24.5v57q0 86 -53.5 122t-145.5 36q-76 0 -159 -20.5t-138 -45.5l-68 189q68 28 172.5 53.5t221.5 25.5q204 0 313.5 -91t109.5 -302v-680q-30 -16 -73 -30.5t-95.5 -25.5t-110.5 -17.5t-118 -6.5q-241 0 -359 93.5t-118 263.5 zM321 338q0 -78 57.5 -121t161.5 -43q43 0 86 6t66 17v335q-74 -4 -141.5 -11t-118 -27.5t-81 -57.5t-30.5 -98z" />
<glyph unicode="b" horiz-adv-x="1118" d="M120 55v1553h266v-527q35 17 87.5 27t99.5 10q104 0 189 -35.5t145.5 -105.5t94 -169t33.5 -226q0 -312 -143 -459.5t-397 -147.5q-111 0 -210 24t-165 56zM386 217q21 -10 54.5 -16t70.5 -6q115 0 184.5 90t69.5 274q0 164 -64.5 255t-179.5 91q-36 0 -73 -8t-62 -20 v-660z" />
<glyph unicode="c" horiz-adv-x="899" d="M81 553q0 147 39 256t105.5 179.5t152.5 105t178 34.5q94 0 162 -20.5t119 -54.5l-84 -201q-64 47 -158 47q-98 0 -166.5 -85t-68.5 -259q0 -86 18 -150.5t51 -107.5t75 -64.5t91 -21.5q92 0 158 49l84 -209q-54 -35 -120.5 -55.5t-160.5 -20.5q-92 0 -178 35 t-152.5 106.5t-105.5 180.5t-39 256z" />
<glyph unicode="d" horiz-adv-x="1118" d="M81 545q0 127 31.5 232.5t94 180t156 115.5t214.5 41q43 0 85 -6t66 -16v516h271v-1553q-60 -32 -163.5 -56t-224.5 -24q-258 0 -394 149.5t-136 420.5zM349 549q0 -168 65.5 -261t190.5 -93q35 0 71 6t52 16v666q-16 8 -52 14t-71 6q-127 0 -191.5 -98t-64.5 -256z" />
<glyph unicode="e" horiz-adv-x="1112" d="M81 553q0 127 34 232.5t97.5 182t154.5 118.5t206 42q110 0 195 -35.5t143.5 -102t88 -159t29.5 -204.5v-46.5t-4 -48.5l-682 -96q19 -123 97.5 -182t195.5 -59q80 0 160 19t135 50l76 -209q-66 -35 -170.5 -57.5t-220.5 -22.5q-132 0 -231 42t-166.5 119t-102.5 183.5 t-35 233.5zM325 612l444 64q0 125 -54 187.5t-149 62.5q-104 0 -170.5 -79t-70.5 -235z" />
<glyph unicode="f" horiz-adv-x="727" d="M61 895v209h131v123q0 100 29.5 173t84 120t128 70.5t159.5 23.5q21 0 45.5 -1t40.5 -5v-217q-4 0 -12 1t-22 1q-80 0 -134.5 -38t-54.5 -128v-123h205v-209h-205v-895h-264v895h-131z" />
<glyph unicode="g" horiz-adv-x="1118" d="M81 569q0 140 38 245.5t108.5 175t171 104t225.5 34.5q112 0 210.5 -22.5t164.5 -56.5v-1035q0 -116 -33 -205.5t-94.5 -148.5t-148.5 -90t-193 -31q-127 0 -229.5 24.5t-174.5 61.5l78 219q53 -28 131 -47.5t168 -19.5q119 0 174 60.5t55 176.5v68q-39 -19 -91 -29 t-105 -10q-101 0 -185 36t-143 103.5t-93 164.5t-34 222zM349 580q0 -164 66.5 -245t177.5 -81q37 0 77 9t62 22v606q-20 10 -55 16t-76 6q-110 0 -181 -79.5t-71 -253.5z" />
<glyph unicode="h" horiz-adv-x="1122" d="M120 0v1608h266v-537q47 23 105.5 37t117.5 14q189 0 291.5 -95t102.5 -277v-750h-271v721q0 92 -50 137t-142 45q-41 0 -82 -11t-72 -30v-862h-266z" />
<glyph unicode="i" horiz-adv-x="516" d="M104 1432q0 63 44 106t110 43q63 0 108 -43t45 -106q0 -64 -45 -108t-108 -44q-66 0 -110 44t-44 108zM122 0v1104h269v-1104h-269z" />
<glyph unicode="j" horiz-adv-x="516" d="M-92 -225q43 14 82 40.5t68.5 69.5t47 105.5t17.5 148.5v965h268v-965q0 -153 -38.5 -260.5t-105.5 -177.5t-154 -106.5t-185 -51.5v232zM105 1432q0 63 44 106t109 43q64 0 109 -43t45 -106q0 -64 -45 -108t-109 -44q-65 0 -109 44t-44 108z" />
<glyph unicode="k" horiz-adv-x="1089" d="M122 0v1608h264v-987h4l350 483h310l-383 -516l407 -588h-303l-381 557h-4v-557h-264z" />
<glyph unicode="l" horiz-adv-x="516" d="M122 0v1608h268v-1608h-268z" />
<glyph unicode="m" horiz-adv-x="1708" d="M120 0v1049q80 34 182.5 56.5t214.5 22.5q129 0 212 -34.5t130 -77.5q49 41 142.5 76.5t212.5 35.5q178 0 277 -98t99 -266v-764h-270v735q0 82 -47 126t-127 44q-98 0 -158 -55v-850h-270v748q0 73 -49 115t-135 42q-88 0 -148 -26v-879h-266z" />
<glyph unicode="n" horiz-adv-x="1122" d="M120 0v1049q84 34 187.5 56.5t234.5 22.5q237 0 349 -96t112 -276v-756h-271v727q0 84 -47 131t-139 47q-47 0 -90 -8t-70 -18v-879h-266z" />
<glyph unicode="o" horiz-adv-x="1124" d="M81 553q0 123 31.5 228.5t93 182t151 120.5t205.5 44q115 0 204 -44t150.5 -120.5t93.5 -182t32 -228.5t-32 -229.5t-93.5 -183.5t-150.5 -121t-204 -44q-116 0 -205.5 44t-151 121t-93 183.5t-31.5 229.5zM349 555q0 -166 52.5 -259t160.5 -93q107 0 159 93t52 259 t-52 260t-159 94q-108 0 -160.5 -94t-52.5 -260z" />
<glyph unicode="p" horiz-adv-x="1118" d="M120 -440v1489q59 32 162.5 55.5t224.5 23.5q258 0 393 -150.5t135 -420.5q0 -127 -31.5 -232.5t-94 -180t-155.5 -115.5t-214 -41q-43 0 -86 7t-68 17v-452h-266zM386 221q17 -8 54.5 -14t72.5 -6q62 0 109 26.5t78.5 73.5t48 112.5t16.5 143.5q0 168 -65.5 261 t-188.5 93q-37 0 -71.5 -6t-53.5 -16v-668z" />
<glyph unicode="q" horiz-adv-x="1118" d="M81 522q0 309 144.5 457.5t398.5 148.5q110 0 209.5 -23.5t165.5 -55.5v-1489h-271v463q-35 -17 -87 -27t-99 -10q-103 0 -188 35.5t-145 105.5t-94 169t-34 226zM349 547q0 -164 64.5 -255t179.5 -91q37 0 74 8t61 20v660q-18 10 -52 16t-71 6q-116 0 -186 -90t-70 -274 z" />
<glyph unicode="r" horiz-adv-x="735" d="M120 0v1049q82 34 192.5 56.5t239.5 22.5q80 0 137 -10l-49 -231q-53 16 -121 16q-37 0 -72.5 -6t-60.5 -16v-881h-266z" />
<glyph unicode="s" horiz-adv-x="909" d="M61 55l86 213q20 -12 51 -25.5t65 -23.5t68.5 -16t63.5 -6q72 0 116 32.5t44 87.5q0 62 -46.5 93.5t-117.5 58.5q-49 18 -103.5 43t-98.5 61.5t-72.5 92t-28.5 137.5q0 147 101 236t288 89q104 0 185 -22.5t142 -56.5l-84 -191q-34 23 -94.5 43.5t-113.5 20.5 q-72 0 -111 -33t-39 -82q0 -64 45 -94.5t115 -57.5q53 -20 108.5 -43.5t100.5 -61.5t73.5 -93.5t28.5 -139.5q0 -155 -108.5 -248.5t-321.5 -93.5q-100 0 -191.5 24t-150.5 56z" />
<glyph unicode="t" horiz-adv-x="722" d="M55 895v209h135v246l264 80v-326h199v-209h-199v-545q0 -67 35 -94t86 -27q23 0 43.5 5.5t34.5 11.5v-232q-25 -12 -69 -21t-93 -9q-153 0 -227 87t-74 261v563h-135z" />
<glyph unicode="u" horiz-adv-x="1107" d="M120 385v719h266v-725q0 -174 178 -174q54 0 94 7t62 17v875h268v-1049q-69 -35 -184 -57.5t-240 -22.5q-219 0 -331.5 97.5t-112.5 312.5z" />
<glyph unicode="v" horiz-adv-x="1136" d="M28 1104h303l195 -688q18 -68 28 -121q6 -31 11 -57h4q2 26 10 57q4 27 12 57.5t19 63.5l194 688h301l-383 -1104h-309z" />
<glyph unicode="w" horiz-adv-x="1656" d="M47 1104h270l150 -676q6 -31 11 -62.5t9 -58.5q4 -31 9 -59h4q4 28 10 59q4 27 10 58.5t14 62.5l172 676h246l170 -676q8 -31 14.5 -62.5t10.5 -58.5q6 -31 10 -59h4q4 28 8 59q4 27 8.5 58.5t12.5 62.5l151 676h269l-308 -1104h-278l-164 629q-8 28 -12 57t-8 53 q-5 29 -9 56h-4q-2 -27 -8 -56q-4 -24 -10 -53t-12 -57l-164 -629h-277z" />
<glyph unicode="x" horiz-adv-x="1083" d="M14 0l360 571l-331 533h303l192 -352h4l195 352h301l-330 -533l361 -571h-307l-220 383h-4l-217 -383h-307z" />
<glyph unicode="y" horiz-adv-x="1134" d="M28 1104h303l199 -694q10 -31 16 -63t10 -56q7 -29 9 -55h4q2 26 8 55q4 24 11 56t18 63l198 694h301l-555 -1544h-280l157 440z" />
<glyph unicode="z" horiz-adv-x="931" d="M49 0l426 885h-391v219h766l-426 -885h434v-219h-809z" />
<glyph unicode="{" horiz-adv-x="759" d="M67 492v225q72 4 115 52t43 132q0 49 -5.5 87t-10.5 74t-10 75t-5 92q0 178 92 278.5t285 100.5h86v-217h-43q-74 0 -116 -40t-42 -122q0 -53 5 -92t10.5 -75t10.5 -74t5 -87q0 -117 -51.5 -191.5t-143.5 -103.5v-4q92 -29 143.5 -103.5t51.5 -191.5q0 -49 -5 -87 t-10.5 -73.5t-10.5 -75.5t-5 -91q0 -82 42 -122t116 -40h43v-217h-86q-193 0 -285 100t-92 279q0 51 5 91t10 75.5t10.5 73.5t5.5 87q0 84 -43 132t-115 53z" />
<glyph unicode="|" horiz-adv-x="522" d="M126 -440v2048h268v-2048h-268z" />
<glyph unicode="}" horiz-adv-x="759" d="M102 -182h43q74 0 116 40t42 122q0 51 -5.5 91t-11.5 75.5t-11 73.5t-5 87q0 117 52 191.5t145 103.5v4q-93 29 -145 103.5t-52 191.5q0 49 5 87t11 74t11.5 75t5.5 92q0 82 -42 122t-116 40h-43v217h84q192 0 285.5 -100.5t93.5 -278.5q0 -53 -5 -92t-11.5 -75 t-11.5 -74t-5 -87q0 -84 44 -132t116 -52v-225q-72 -5 -116 -53t-44 -132q0 -49 5 -87t11.5 -73.5t11.5 -75.5t5 -91q0 -179 -93.5 -279t-285.5 -100h-84v217z" />
<glyph unicode="~" horiz-adv-x="1191" d="M131 664q20 108 92 178.5t182 70.5q56 0 100 -18t84 -41t77.5 -41t85.5 -18q59 0 105 35.5t67 93.5l133 -105q-19 -108 -89.5 -179t-181.5 -71q-55 0 -99 18.5t-84 41t-80 41t-85 18.5q-59 0 -104 -36t-66 -93z" />
<glyph unicode="&#xad;" horiz-adv-x="786" d="M112 547v237h561v-237h-561z" />
<glyph unicode="&#xc0;" horiz-adv-x="1304" d="M14 0l475 1483h326l477 -1483h-289l-104 346h-492l-104 -346h-289zM396 1828q19 62 114 62t136 -62l118 -269l-129 -1zM463 559h380l-149 506q-10 31 -17.5 62.5t-11.5 58.5q-6 31 -10 59h-4q-4 -28 -10 -59q-4 -27 -11.5 -58.5t-17.5 -62.5z" />
<glyph unicode="&#xc1;" horiz-adv-x="1304" d="M14 0l475 1483h326l477 -1483h-289l-104 346h-492l-104 -346h-289zM463 559h380l-149 506q-10 31 -17.5 62.5t-11.5 58.5q-6 31 -10 59h-4q-4 -28 -10 -59q-4 -27 -11.5 -58.5t-17.5 -62.5zM540 1559l118 269q40 62 136 62q95 0 114 -62l-239 -270z" />
<glyph unicode="&#xc2;" horiz-adv-x="1304" d="M14 0l475 1483h326l477 -1483h-289l-104 346h-492l-104 -346h-289zM336 1616l222 223q39 43 96 43q55 0 94 -43l222 -223l-83 -83l-230 178l-231 -179zM463 559h380l-149 506q-10 31 -17.5 62.5t-11.5 58.5q-6 31 -10 59h-4q-4 -28 -10 -59q-4 -27 -11.5 -58.5 t-17.5 -62.5z" />
<glyph unicode="&#xc3;" horiz-adv-x="1304" d="M14 0l475 1483h326l477 -1483h-289l-104 346h-492l-104 -346h-289zM368 1598q4 81 41 144t109 76q31 6 77 -8.5t85.5 -37.5t71 -28t51.5 9t41 66l95 -18q1 -83 -44.5 -150t-96.5 -74t-120 27q-48 25 -103.5 46.5t-83 -14.5t-35.5 -63zM463 559h380l-149 506 q-10 31 -17.5 62.5t-11.5 58.5q-6 31 -10 59h-4q-4 -28 -10 -59q-4 -27 -11.5 -58.5t-17.5 -62.5z" />
<glyph unicode="&#xc8;" horiz-adv-x="976" d="M131 0v1483h758v-242h-486v-371h439v-237h-439v-391h486v-242h-758zM241 1828q20 62 115 62t136 -62l118 -269l-129 -1z" />
<glyph unicode="&#xc9;" horiz-adv-x="976" d="M131 0v1483h758v-242h-486v-371h439v-237h-439v-391h486v-242h-758zM395 1559l119 269q40 62 135 62q96 0 115 -62l-239 -270z" />
<glyph unicode="&#xca;" horiz-adv-x="976" d="M131 0v1483h758v-242h-486v-371h439v-237h-439v-391h486v-242h-758zM193 1616l222 223q39 43 96 43q54 0 94 -43l222 -223l-83 -83l-230 178l-231 -179z" />
<glyph unicode="&#xcc;" horiz-adv-x="540" d="M28 1828q19 62 115 62q95 0 135 -62l119 -269l-130 -1zM132 0v1483h278v-1483h-278z" />
<glyph unicode="&#xcd;" horiz-adv-x="540" d="M131 0v1483h279v-1483h-279zM171 1559l119 269q40 62 135 62q96 0 115 -62l-239 -270z" />
<glyph unicode="&#xd2;" d="M90 741q0 162 34 302.5t102.5 243t172 161.5t242.5 59t242.5 -59t172 -161.5t102.5 -243t34 -302.5q0 -161 -34 -301.5t-102.5 -243t-172 -162t-242.5 -59.5t-242.5 59.5t-172 162t-102.5 243t-34 301.5zM369 741q0 -114 17 -208.5t51 -161t85 -103.5t119 -37 q67 0 118.5 37t85 103.5t51 161t17.5 208.5q0 115 -17.5 209t-51 161t-85 103.5t-118.5 36.5q-68 0 -119 -36.5t-85 -103.5t-51 -161t-17 -209zM378 1828q20 62 115 62t136 -62l118 -269l-129 -1z" />
<glyph unicode="&#xd3;" d="M90 741q0 162 34 302.5t102.5 243t172 161.5t242.5 59t242.5 -59t172 -161.5t102.5 -243t34 -302.5q0 -161 -34 -301.5t-102.5 -243t-172 -162t-242.5 -59.5t-242.5 59.5t-172 162t-102.5 243t-34 301.5zM369 741q0 -114 17 -208.5t51 -161t85 -103.5t119 -37 q67 0 118.5 37t85 103.5t51 161t17.5 208.5q0 115 -17.5 209t-51 161t-85 103.5t-118.5 36.5q-68 0 -119 -36.5t-85 -103.5t-51 -161t-17 -209zM514 1559l119 269q40 62 135 62q96 0 115 -62l-239 -270z" />
<glyph unicode="&#xd4;" d="M90 741q0 162 34 302.5t102.5 243t172 161.5t242.5 59t242.5 -59t172 -161.5t102.5 -243t34 -302.5q0 -161 -34 -301.5t-102.5 -243t-172 -162t-242.5 -59.5t-242.5 59.5t-172 162t-102.5 243t-34 301.5zM324 1616l222 223q39 43 96 43q54 0 94 -43l222 -223l-83 -83 l-230 178l-231 -179zM369 741q0 -114 17 -208.5t51 -161t85 -103.5t119 -37q67 0 118.5 37t85 103.5t51 161t17.5 208.5q0 115 -17.5 209t-51 161t-85 103.5t-118.5 36.5q-68 0 -119 -36.5t-85 -103.5t-51 -161t-17 -209z" />
<glyph unicode="&#xd5;" d="M90 741q0 162 34 302.5t102.5 243t172 161.5t242.5 59t242.5 -59t172 -161.5t102.5 -243t34 -302.5q0 -161 -34 -301.5t-102.5 -243t-172 -162t-242.5 -59.5t-242.5 59.5t-172 162t-102.5 243t-34 301.5zM358 1598q4 81 41 144t109 76q31 6 77 -8.5t85.5 -37.5t71 -28 t51.5 9t41 66l95 -18q1 -83 -44.5 -150t-96.5 -74t-120 27q-48 25 -103.5 46.5t-83 -14.5t-35.5 -63zM369 741q0 -114 17 -208.5t51 -161t85 -103.5t119 -37q67 0 118.5 37t85 103.5t51 161t17.5 208.5q0 115 -17.5 209t-51 161t-85 103.5t-118.5 36.5q-68 0 -119 -36.5 t-85 -103.5t-51 -161t-17 -209z" />
<glyph unicode="&#xd9;" horiz-adv-x="1234" d="M131 438v1045h279v-1047q0 -98 60 -153.5t146 -55.5q88 0 148.5 55.5t60.5 153.5v1047h279v-1045q0 -110 -37 -195t-102.5 -143.5t-154.5 -89t-194 -30.5q-104 0 -192 30.5t-153.5 89t-102.5 143.5t-37 195zM378 1828q20 62 115 62t136 -62l118 -269l-129 -1z" />
<glyph unicode="&#xda;" horiz-adv-x="1234" d="M131 438v1045h279v-1047q0 -98 60 -153.5t146 -55.5q88 0 148.5 55.5t60.5 153.5v1047h279v-1045q0 -110 -37 -195t-102.5 -143.5t-154.5 -89t-194 -30.5q-104 0 -192 30.5t-153.5 89t-102.5 143.5t-37 195zM514 1559l119 269q40 62 135 62q96 0 115 -62l-239 -270z" />
<glyph unicode="&#xdd;" horiz-adv-x="1150" d="M14 1483h299l258 -611h4l262 611h299l-424 -901v-582h-276v582zM514 1559l119 269q40 62 135 62t115 -62l-239 -270z" />
<glyph unicode="&#xe0;" horiz-adv-x="1062" d="M71 332q0 112 52 183t138 112t198 59.5t233 24.5v57q0 86 -53.5 122t-145.5 36q-76 0 -159 -20.5t-138 -45.5l-68 189q68 28 172.5 53.5t221.5 25.5q204 0 313.5 -91t109.5 -302v-680q-30 -16 -73 -30.5t-95.5 -25.5t-110.5 -17.5t-118 -6.5q-241 0 -359 93.5t-118 263.5 zM258 1469q19 62 115 62q95 0 135 -62l119 -269l-130 -1zM321 338q0 -78 57.5 -121t161.5 -43q43 0 86 6t66 17v335q-74 -4 -141.5 -11t-118 -27.5t-81 -57.5t-30.5 -98z" />
<glyph unicode="&#xe1;" horiz-adv-x="1062" d="M71 332q0 112 52 183t138 112t198 59.5t233 24.5v57q0 86 -53.5 122t-145.5 36q-76 0 -159 -20.5t-138 -45.5l-68 189q68 28 172.5 53.5t221.5 25.5q204 0 313.5 -91t109.5 -302v-680q-30 -16 -73 -30.5t-95.5 -25.5t-110.5 -17.5t-118 -6.5q-241 0 -359 93.5t-118 263.5 zM321 338q0 -78 57.5 -121t161.5 -43q43 0 86 6t66 17v335q-74 -4 -141.5 -11t-118 -27.5t-81 -57.5t-30.5 -98zM403 1200l118 269q41 62 136 62t115 -62l-240 -270z" />
<glyph unicode="&#xe2;" horiz-adv-x="1062" d="M71 332q0 112 52 183t138 112t198 59.5t233 24.5v57q0 86 -53.5 122t-145.5 36q-76 0 -159 -20.5t-138 -45.5l-68 189q68 28 172.5 53.5t221.5 25.5q204 0 313.5 -91t109.5 -302v-680q-30 -16 -73 -30.5t-95.5 -25.5t-110.5 -17.5t-118 -6.5q-241 0 -359 93.5t-118 263.5 zM193 1256l222 223q40 43 96 43q55 0 94 -43l222 -223l-83 -83l-230 178l-230 -179zM321 338q0 -78 57.5 -121t161.5 -43q43 0 86 6t66 17v335q-74 -4 -141.5 -11t-118 -27.5t-81 -57.5t-30.5 -98z" />
<glyph unicode="&#xe3;" horiz-adv-x="1062" d="M71 332q0 112 52 183t138 112t198 59.5t233 24.5v57q0 86 -53.5 122t-145.5 36q-76 0 -159 -20.5t-138 -45.5l-68 189q68 28 172.5 53.5t221.5 25.5q204 0 313.5 -91t109.5 -302v-680q-30 -16 -73 -30.5t-95.5 -25.5t-110.5 -17.5t-118 -6.5q-241 0 -359 93.5t-118 263.5 zM238 1222q4 81 41.5 144t108.5 76q32 6 77.5 -8.5t85.5 -37.5t71.5 -28t51 9t40.5 66l95 -18q1 -83 -44 -150t-96 -74t-120 27q-49 25 -104.5 46.5t-82.5 -14.5t-36 -63zM321 338q0 -78 57.5 -121t161.5 -43q43 0 86 6t66 17v335q-74 -4 -141.5 -11t-118 -27.5t-81 -57.5 t-30.5 -98z" />
<glyph unicode="&#xe8;" horiz-adv-x="1112" d="M81 553q0 127 34 232.5t97.5 182t154.5 118.5t206 42q110 0 195 -35.5t143.5 -102t88 -159t29.5 -204.5v-46.5t-4 -48.5l-682 -96q19 -123 97.5 -182t195.5 -59q80 0 160 19t135 50l76 -209q-66 -35 -170.5 -57.5t-220.5 -22.5q-132 0 -231 42t-166.5 119t-102.5 183.5 t-35 233.5zM298 1469q19 62 114 62t136 -62l118 -269l-129 -1zM325 612l444 64q0 125 -54 187.5t-149 62.5q-104 0 -170.5 -79t-70.5 -235z" />
<glyph unicode="&#xe9;" horiz-adv-x="1112" d="M81 553q0 127 34 232.5t97.5 182t154.5 118.5t206 42q110 0 195 -35.5t143.5 -102t88 -159t29.5 -204.5v-46.5t-4 -48.5l-682 -96q19 -123 97.5 -182t195.5 -59q80 0 160 19t135 50l76 -209q-66 -35 -170.5 -57.5t-220.5 -22.5q-132 0 -231 42t-166.5 119t-102.5 183.5 t-35 233.5zM325 612l444 64q0 125 -54 187.5t-149 62.5q-104 0 -170.5 -79t-70.5 -235zM458 1200l118 269q40 62 136 62q95 0 114 -62l-239 -270z" />
<glyph unicode="&#xea;" horiz-adv-x="1112" d="M81 553q0 127 34 232.5t97.5 182t154.5 118.5t206 42q110 0 195 -35.5t143.5 -102t88 -159t29.5 -204.5v-46.5t-4 -48.5l-682 -96q19 -123 97.5 -182t195.5 -59q80 0 160 19t135 50l76 -209q-66 -35 -170.5 -57.5t-220.5 -22.5q-132 0 -231 42t-166.5 119t-102.5 183.5 t-35 233.5zM263 1256l222 223q39 43 96 43q55 0 94 -43l222 -223l-83 -83l-230 178l-231 -179zM325 612l444 64q0 125 -54 187.5t-149 62.5q-104 0 -170.5 -79t-70.5 -235z" />
<glyph unicode="&#xec;" horiz-adv-x="516" d="M8 1469q19 62 115 62q95 0 135 -62l119 -269l-130 -1zM123 0v1104h269v-1104h-269z" />
<glyph unicode="&#xed;" horiz-adv-x="516" d="M123 0v1104h268v-1104h-268zM159 1200l118 269q41 62 136 62t114 -62l-239 -270z" />
<glyph unicode="&#xf2;" horiz-adv-x="1124" d="M81 553q0 123 31.5 228.5t93 182t151 120.5t205.5 44q115 0 204 -44t150.5 -120.5t93.5 -182t32 -228.5t-32 -229.5t-93.5 -183.5t-150.5 -121t-204 -44q-116 0 -205.5 44t-151 121t-93 183.5t-31.5 229.5zM281 1469q19 62 114 62t136 -62l118 -269l-129 -1zM349 555 q0 -166 52.5 -259t160.5 -93q107 0 159 93t52 259t-52 260t-159 94q-108 0 -160.5 -94t-52.5 -260z" />
<glyph unicode="&#xf3;" horiz-adv-x="1124" d="M81 553q0 123 31.5 228.5t93 182t151 120.5t205.5 44q115 0 204 -44t150.5 -120.5t93.5 -182t32 -228.5t-32 -229.5t-93.5 -183.5t-150.5 -121t-204 -44q-116 0 -205.5 44t-151 121t-93 183.5t-31.5 229.5zM349 555q0 -166 52.5 -259t160.5 -93q107 0 159 93t52 259 t-52 260t-159 94q-108 0 -160.5 -94t-52.5 -260zM443 1200l118 269q40 62 136 62q95 0 114 -62l-239 -270z" />
<glyph unicode="&#xf4;" horiz-adv-x="1124" d="M81 553q0 123 31.5 228.5t93 182t151 120.5t205.5 44q115 0 204 -44t150.5 -120.5t93.5 -182t32 -228.5t-32 -229.5t-93.5 -183.5t-150.5 -121t-204 -44q-116 0 -205.5 44t-151 121t-93 183.5t-31.5 229.5zM244 1256l222 223q40 43 96 43q55 0 94 -43l222 -223l-83 -83 l-230 178l-230 -179zM349 555q0 -166 52.5 -259t160.5 -93q107 0 159 93t52 259t-52 260t-159 94q-108 0 -160.5 -94t-52.5 -260z" />
<glyph unicode="&#xf5;" horiz-adv-x="1124" d="M81 553q0 123 31.5 228.5t93 182t151 120.5t205.5 44q115 0 204 -44t150.5 -120.5t93.5 -182t32 -228.5t-32 -229.5t-93.5 -183.5t-150.5 -121t-204 -44q-116 0 -205.5 44t-151 121t-93 183.5t-31.5 229.5zM298 1222q4 81 41 144t109 76q31 6 77 -8.5t85.5 -37.5t71 -28 t51.5 9t41 66l95 -18q1 -83 -44.5 -150t-96.5 -74t-119 27q-49 25 -104.5 46.5t-82.5 -14.5t-36 -63zM349 555q0 -166 52.5 -259t160.5 -93q107 0 159 93t52 259t-52 260t-159 94q-108 0 -160.5 -94t-52.5 -260z" />
<glyph unicode="&#xf9;" horiz-adv-x="582" />
<glyph unicode="&#xfa;" horiz-adv-x="580" />
<glyph unicode="&#xfd;" horiz-adv-x="629" />
<glyph unicode="&#x102;" horiz-adv-x="1304" d="M14 0l475 1483h326l477 -1483h-289l-104 346h-492l-104 -346h-289zM371 1759l153 36q11 -31 28 -51q34 -40 101 -40q68 0 100 40q17 22 28 55l154 -36q-19 -79 -69 -134q-73 -79 -213 -79q-141 0 -213 79q-49 53 -69 130zM463 559h380l-149 506q-10 31 -17.5 62.5 t-11.5 58.5q-6 31 -10 59h-4q-4 -28 -10 -59q-4 -27 -11.5 -58.5t-17.5 -62.5z" />
<glyph unicode="&#x103;" horiz-adv-x="1062" d="M71 332q0 112 52 183t138 112t198 59.5t233 24.5v57q0 86 -53.5 122t-145.5 36q-76 0 -159 -20.5t-138 -45.5l-68 189q68 28 172.5 53.5t221.5 25.5q204 0 313.5 -91t109.5 -302v-680q-30 -16 -73 -30.5t-95.5 -25.5t-110.5 -17.5t-118 -6.5q-241 0 -359 93.5t-118 263.5 zM236 1397l153 36q11 -31 28 -51q34 -40 101 -40q68 0 100 40q17 22 28 55l154 -36q-19 -79 -69 -134q-73 -79 -213 -79q-141 0 -213 79q-49 53 -69 130zM321 338q0 -78 57.5 -121t161.5 -43q43 0 86 6t66 17v335q-74 -4 -141.5 -11t-118 -27.5t-81 -57.5t-30.5 -98z" />
<glyph unicode="&#x110;" horiz-adv-x="1261" d="M51 651v207h100v569q66 35 170.5 57.5t221.5 22.5q299 0 463.5 -195.5t164.5 -570.5q0 -374 -164.5 -570t-463.5 -196q-121 0 -223.5 22.5t-168.5 57.5v596h-100zM422 236q20 -11 57 -15t80 -4q74 0 136.5 29.5t107.5 94.5t70.5 163t25.5 237q0 138 -25.5 237 t-70.5 163.5t-107.5 94.5t-136.5 30q-41 0 -78 -5.5t-59 -15.5v-387h192v-207h-192v-415z" />
<glyph unicode="&#x111;" horiz-adv-x="1118" d="M81 545q0 127 31.5 232.5t94 180t156 115.5t214.5 41q43 0 85 -6t66 -16v172h-293v166h293v178h271v-178h131v-166h-131v-1209q-60 -32 -163.5 -56t-224.5 -24q-258 0 -394 149.5t-136 420.5zM349 549q0 -168 65.5 -261t190.5 -93q35 0 71 6t52 16v666q-16 8 -52 14 t-71 6q-127 0 -191.5 -98t-64.5 -256z" />
<glyph unicode="&#x128;" horiz-adv-x="540" d="M8 1641q10 91 54 149t120 58q39 0 65.5 -14t50 -31.5t44 -32t47.5 -14.5q37 0 59.5 27.5t30.5 75.5l123 -74q-10 -90 -56 -148.5t-122 -58.5q-39 0 -65.5 14.5t-49 31.5t-43 31.5t-47.5 14.5q-37 0 -60.5 -27.5t-31.5 -74.5zM131 0v1483h279v-1483h-279z" />
<glyph unicode="&#x129;" horiz-adv-x="516" d="M17 1222q4 81 41 144t109 76q31 6 77 -8.5t85.5 -37.5t71 -28t51.5 9t41 66l95 -18q1 -83 -44.5 -150t-96.5 -74t-120 27q-48 25 -103.5 46.5t-83 -14.5t-35.5 -63zM123 0v1104h268v-1104h-268z" />
<glyph unicode="&#x168;" horiz-adv-x="1234" d="M131 438v1045h279v-1047q0 -98 60 -153.5t146 -55.5q88 0 148.5 55.5t60.5 153.5v1047h279v-1045q0 -110 -37 -195t-102.5 -143.5t-154.5 -89t-194 -30.5q-104 0 -192 30.5t-153.5 89t-102.5 143.5t-37 195zM332 1638q13 81 57 139t117 62q32 3 75.5 -16.5t80.5 -47 t67.5 -36t51.5 3t49 61.5l92 -29q-9 -82 -61.5 -144t-104 -62.5t-115.5 40.5q-46 30 -98.5 57.5t-83.5 -5t-43 -57.5z" />
<glyph unicode="&#x169;" horiz-adv-x="1107" d="M120 385v719h266v-725q0 -174 178 -174q54 0 94 7t62 17v875h268v-1049q-69 -35 -184 -57.5t-240 -22.5q-219 0 -331.5 97.5t-112.5 312.5zM298 1222q4 81 41 144t109 76q32 6 77.5 -8.5t85.5 -37.5t71.5 -28t51 9t40.5 66l95 -18q1 -83 -44.5 -150t-96.5 -74t-119 27 q-49 25 -104.5 46.5t-82.5 -14.5t-36 -63z" />
<glyph unicode="&#x1a0;" d="M90 741q0 162 34 302.5t102.5 243t172 161.5t242.5 59q138 0 241 -58l78 139q27 19 69 31t100 8q53 -5 85.5 -24.5t34.5 -35.5l-235 -226q22 -26 42 -54q68 -103 102 -243.5t34 -302.5q0 -161 -34 -301.5t-102.5 -243t-172 -162t-242.5 -59.5t-242.5 59.5t-172 162 t-102.5 243t-34 301.5zM369 741q0 -114 17 -208.5t51 -161t85 -103.5t119 -37q67 0 118.5 37t85 103.5t51 161t17.5 208.5q0 115 -17.5 209t-51 161t-85 103.5t-118.5 36.5q-68 0 -119 -36.5t-85 -103.5t-51 -161t-17 -209z" />
<glyph unicode="&#x1a1;" horiz-adv-x="1124" d="M81 553q0 123 31.5 228.5t93 182t151 120.5t205.5 44q114 0 203 -44l66 118q27 19 69 31t100 8q53 -5 85.5 -24.5t34.5 -35.5l-213 -206q5 -6 10 -11q61 -77 93 -182.5t32 -228.5t-32 -229.5t-93.5 -183.5t-150.5 -121t-204 -44q-116 0 -205.5 44t-151 121t-93 183.5 t-31.5 229.5zM349 555q0 -166 52.5 -259t160.5 -93q107 0 159 93t52 259t-52 260t-159 94q-108 0 -160.5 -94t-52.5 -260z" />
<glyph unicode="&#x1af;" horiz-adv-x="1234" d="M131 438v1045h279v-1047q0 -98 60 -153.5t146 -55.5q88 0 148.5 55.5t60.5 153.5v1047h162l59 105q27 19 69 31t100 8q53 -5 85.5 -24.5t34.5 -35.5l-231 -223v-906q0 -110 -37 -195t-102.5 -143.5t-154.5 -89t-194 -30.5q-104 0 -192 30.5t-153.5 89t-102.5 143.5 t-37 195z" />
<glyph unicode="&#x1b0;" horiz-adv-x="1107" d="M120 385v719h266v-725q0 -174 178 -174q54 0 94 7t62 17v875h167l55 98q28 19 69.5 31t99.5 8q53 -5 85.5 -24.5t34.5 -35.5l-243 -235v-891q-69 -35 -184 -57.5t-240 -22.5q-219 0 -331.5 97.5t-112.5 312.5z" />
<glyph unicode="&#x1ea0;" horiz-adv-x="1304" d="M14 0l475 1483h326l477 -1483h-289l-104 346h-492l-104 -346h-289zM463 559h380l-149 506q-10 31 -17.5 62.5t-11.5 58.5q-6 31 -10 59h-4q-4 -28 -10 -59q-4 -27 -11.5 -58.5t-17.5 -62.5zM521 -191q0 53 38.5 90t94.5 37q53 0 92 -37t39 -90t-39 -91t-92 -38 q-56 0 -94.5 38t-38.5 91z" />
<glyph unicode="&#x1ea1;" horiz-adv-x="1062" d="M71 332q0 112 52 183t138 112t198 59.5t233 24.5v57q0 86 -53.5 122t-145.5 36q-76 0 -159 -20.5t-138 -45.5l-68 189q68 28 172.5 53.5t221.5 25.5q204 0 313.5 -91t109.5 -302v-680q-30 -16 -73 -30.5t-95.5 -25.5t-110.5 -17.5t-118 -6.5q-241 0 -359 93.5t-118 263.5 zM321 338q0 -78 57.5 -121t161.5 -43q43 0 86 6t66 17v335q-74 -4 -141.5 -11t-118 -27.5t-81 -57.5t-30.5 -98zM412 -208q0 53 39 90t94 37q54 0 93 -37t39 -90t-39 -91t-93 -38q-55 0 -94 38t-39 91z" />
<glyph unicode="&#x1ea2;" horiz-adv-x="1304" d="M19 0l475 1483h326l477 -1483h-289l-104 346h-492l-104 -346h-289zM468 559h380l-149 506q-10 31 -17.5 62.5t-11.5 58.5q-6 31 -10 59h-4q-4 -28 -10 -59q-4 -27 -11.5 -58.5t-17.5 -62.5zM480 1918q33 31 79 48t86 17q97 8 161 -43t64 -141q0 -37 -14 -66t-36.5 -51.5 t-50 -38.5t-51.5 -26l-18 -80h-104l-9 147q31 7 56 16.5t43.5 23t30 30.5t11.5 38q0 38 -26 62t-77 15t-104 -54z" />
<glyph unicode="&#x1ea3;" horiz-adv-x="1062" d="M71 332q0 112 52 183t138 112t198 59.5t233 24.5v57q0 86 -53.5 122t-145.5 36q-76 0 -159 -20.5t-138 -45.5l-68 189q68 28 172.5 53.5t221.5 25.5q204 0 313.5 -91t109.5 -302v-680q-30 -16 -73 -30.5t-95.5 -25.5t-110.5 -17.5t-118 -6.5q-241 0 -359 93.5t-118 263.5 zM321 338q0 -78 57.5 -121t161.5 -43q43 0 86 6t66 17v335q-74 -4 -141.5 -11t-118 -27.5t-81 -57.5t-30.5 -98zM341 1559q33 31 79 48t86 17q97 8 161 -43t64 -141q0 -37 -14 -66t-36 -51.5t-50 -38.5t-52 -26l-18 -80h-103l-9 147q30 7 55 16.5t43.5 23t30 30.5t11.5 38 q0 38 -26 62t-77 15t-104 -54z" />
<glyph unicode="&#x1ea4;" horiz-adv-x="1304" d="M14 0l475 1483h326l477 -1483h-289l-104 346h-492l-104 -346h-289zM336 1616l222 223q39 43 96 43q55 0 94 -43l222 -223l-83 -83l-230 178l-231 -179zM463 559h380l-149 506q-10 31 -17.5 62.5t-11.5 58.5q-6 31 -10 59h-4q-4 -28 -10 -59q-4 -27 -11.5 -58.5 t-17.5 -62.5zM875 1739l118 269q40 62 136 62q95 0 114 -62l-239 -270z" />
<glyph unicode="&#x1ea5;" horiz-adv-x="1062" d="M71 332q0 112 52 183t138 112t198 59.5t233 24.5v57q0 86 -53.5 122t-145.5 36q-76 0 -159 -20.5t-138 -45.5l-68 189q68 28 172.5 53.5t221.5 25.5q204 0 313.5 -91t109.5 -302v-680q-30 -16 -73 -30.5t-95.5 -25.5t-110.5 -17.5t-118 -6.5q-241 0 -359 93.5t-118 263.5 zM193 1256l222 223q40 43 96 43q55 0 94 -43l222 -223l-83 -83l-230 178l-230 -179zM321 338q0 -78 57.5 -121t161.5 -43q43 0 86 6t66 17v335q-74 -4 -141.5 -11t-118 -27.5t-81 -57.5t-30.5 -98zM754 1388l118 269q41 62 136 62t115 -62l-240 -270z" />
<glyph unicode="&#x1ea6;" horiz-adv-x="1304" d="M14 0l475 1483h326l477 -1483h-289l-104 346h-492l-104 -346h-289zM336 1616l222 223q39 43 96 43q55 0 94 -43l222 -223l-83 -83l-230 178l-231 -179zM463 559h380l-149 506q-10 31 -17.5 62.5t-11.5 58.5q-6 31 -10 59h-4q-4 -28 -10 -59q-4 -27 -11.5 -58.5 t-17.5 -62.5zM695 2008q19 62 114 62t136 -62l118 -269l-129 -1z" />
<glyph unicode="&#x1ea7;" horiz-adv-x="1062" d="M71 332q0 112 52 183t138 112t198 59.5t233 24.5v57q0 86 -53.5 122t-145.5 36q-76 0 -159 -20.5t-138 -45.5l-68 189q68 28 172.5 53.5t221.5 25.5q204 0 313.5 -91t109.5 -302v-680q-30 -16 -73 -30.5t-95.5 -25.5t-110.5 -17.5t-118 -6.5q-241 0 -359 93.5t-118 263.5 zM193 1256l222 223q40 43 96 43q55 0 94 -43l222 -223l-83 -83l-230 178l-230 -179zM321 338q0 -78 57.5 -121t161.5 -43q43 0 86 6t66 17v335q-74 -4 -141.5 -11t-118 -27.5t-81 -57.5t-30.5 -98zM540 1657q19 62 115 62q95 0 135 -62l119 -269l-130 -1z" />
<glyph unicode="&#x1ea8;" horiz-adv-x="1304" d="M19 0l475 1483h326l477 -1483h-289l-104 346h-492l-104 -346h-289zM336 1616l222 223q39 43 96 43q55 0 94 -43l222 -223l-83 -83l-230 178l-231 -179zM468 559h380l-149 506q-10 31 -17.5 62.5t-11.5 58.5q-6 31 -10 59h-4q-4 -28 -10 -59q-4 -27 -11.5 -58.5 t-17.5 -62.5zM762 2140q33 31 79 48t86 17q97 8 161 -43t64 -141q0 -37 -14 -66t-36.5 -51.5t-50 -38.5t-51.5 -26l-18 -80h-104l-9 147q31 7 56 16.5t43.5 23t30 30.5t11.5 38q0 38 -26 62t-77 15t-104 -54z" />
<glyph unicode="&#x1ea9;" horiz-adv-x="1062" d="M71 332q0 112 52 183t138 112t198 59.5t233 24.5v57q0 86 -53.5 122t-145.5 36q-76 0 -159 -20.5t-138 -45.5l-68 189q68 28 172.5 53.5t221.5 25.5q204 0 313.5 -91t109.5 -302v-680q-30 -16 -73 -30.5t-95.5 -25.5t-110.5 -17.5t-118 -6.5q-241 0 -359 93.5t-118 263.5 zM193 1256l222 223q40 43 96 43q55 0 94 -43l222 -223l-83 -83l-230 178l-230 -179zM321 338q0 -78 57.5 -121t161.5 -43q43 0 86 6t66 17v335q-74 -4 -141.5 -11t-118 -27.5t-81 -57.5t-30.5 -98zM614 1782q33 31 79 48t86 17q97 8 161 -43t64 -141q0 -37 -14 -66 t-36 -51.5t-50 -38.5t-52 -26l-18 -80h-103l-9 147q30 7 55 16.5t43.5 23t30 30.5t11.5 38q0 38 -26 62t-77 15t-104 -54z" />
<glyph unicode="&#x1eaa;" horiz-adv-x="1304" d="M14 0l475 1483h326l477 -1483h-289l-104 346h-492l-104 -346h-289zM336 1616l222 223q39 43 96 43q55 0 94 -43l222 -223l-83 -83l-230 178l-231 -179zM419 1893q4 81 41 144t109 76q31 6 77 -8.5t85.5 -37.5t71 -28t51.5 9t41 66l95 -18q1 -83 -44.5 -150t-96.5 -74 t-120 27q-48 25 -103.5 46.5t-83 -14.5t-35.5 -63zM463 559h380l-149 506q-10 31 -17.5 62.5t-11.5 58.5q-6 31 -10 59h-4q-4 -28 -10 -59q-4 -27 -11.5 -58.5t-17.5 -62.5z" />
<glyph unicode="&#x1eab;" horiz-adv-x="1062" d="M71 332q0 112 52 183t138 112t198 59.5t233 24.5v57q0 86 -53.5 122t-145.5 36q-76 0 -159 -20.5t-138 -45.5l-68 189q68 28 172.5 53.5t221.5 25.5q204 0 313.5 -91t109.5 -302v-680q-30 -16 -73 -30.5t-95.5 -25.5t-110.5 -17.5t-118 -6.5q-241 0 -359 93.5t-118 263.5 zM193 1256l222 223q40 43 96 43q55 0 94 -43l222 -223l-83 -83l-230 178l-230 -179zM298 1539q4 81 41.5 144t108.5 76q32 6 77.5 -8.5t85.5 -37.5t71.5 -28t51 9t40.5 66l95 -18q1 -83 -44 -150t-96 -74t-120 27q-49 25 -104.5 46.5t-82.5 -14.5t-36 -63zM321 338 q0 -78 57.5 -121t161.5 -43q43 0 86 6t66 17v335q-74 -4 -141.5 -11t-118 -27.5t-81 -57.5t-30.5 -98z" />
<glyph unicode="&#x1eac;" horiz-adv-x="1304" d="M14 0l475 1483h326l477 -1483h-289l-104 346h-492l-104 -346h-289zM336 1616l222 223q39 43 96 43q55 0 94 -43l222 -223l-83 -83l-230 178l-231 -179zM463 559h380l-149 506q-10 31 -17.5 62.5t-11.5 58.5q-6 31 -10 59h-4q-4 -28 -10 -59q-4 -27 -11.5 -58.5 t-17.5 -62.5zM521 -191q0 53 38.5 90t94.5 37q53 0 92 -37t39 -90t-39 -91t-92 -38q-56 0 -94.5 38t-38.5 91z" />
<glyph unicode="&#x1ead;" horiz-adv-x="1062" d="M71 332q0 112 52 183t138 112t198 59.5t233 24.5v57q0 86 -53.5 122t-145.5 36q-76 0 -159 -20.5t-138 -45.5l-68 189q68 28 172.5 53.5t221.5 25.5q204 0 313.5 -91t109.5 -302v-680q-30 -16 -73 -30.5t-95.5 -25.5t-110.5 -17.5t-118 -6.5q-241 0 -359 93.5t-118 263.5 zM193 1256l222 223q40 43 96 43q55 0 94 -43l222 -223l-83 -83l-230 178l-230 -179zM321 338q0 -78 57.5 -121t161.5 -43q43 0 86 6t66 17v335q-74 -4 -141.5 -11t-118 -27.5t-81 -57.5t-30.5 -98zM412 -208q0 53 39 90t94 37q54 0 93 -37t39 -90t-39 -91t-93 -38 q-55 0 -94 38t-39 91z" />
<glyph unicode="&#x1eae;" horiz-adv-x="1304" d="M14 0l475 1483h326l477 -1483h-289l-104 346h-492l-104 -346h-289zM371 1759l153 36q11 -31 28 -51q34 -40 101 -40q68 0 100 40q17 22 28 55l154 -36q-19 -79 -69 -134q-73 -79 -213 -79q-141 0 -213 79q-49 53 -69 130zM463 559h380l-149 506q-10 31 -17.5 62.5 t-11.5 58.5q-6 31 -10 59h-4q-4 -28 -10 -59q-4 -27 -11.5 -58.5t-17.5 -62.5zM592 1791l118 269q40 62 136 62q95 0 114 -62l-239 -270z" />
<glyph unicode="&#x1eaf;" horiz-adv-x="1062" d="M71 332q0 112 52 183t138 112t198 59.5t233 24.5v57q0 86 -53.5 122t-145.5 36q-76 0 -159 -20.5t-138 -45.5l-68 189q68 28 172.5 53.5t221.5 25.5q204 0 313.5 -91t109.5 -302v-680q-30 -16 -73 -30.5t-95.5 -25.5t-110.5 -17.5t-118 -6.5q-241 0 -359 93.5t-118 263.5 zM236 1397l153 36q11 -31 28 -51q34 -40 101 -40q68 0 100 40q17 22 28 55l154 -36q-19 -79 -69 -134q-73 -79 -213 -79q-141 0 -213 79q-49 53 -69 130zM321 338q0 -78 57.5 -121t161.5 -43q43 0 86 6t66 17v335q-74 -4 -141.5 -11t-118 -27.5t-81 -57.5t-30.5 -98z M455 1431l118 269q41 62 136 62t115 -62l-240 -270z" />
<glyph unicode="&#x1eb0;" horiz-adv-x="1304" d="M14 0l475 1483h326l477 -1483h-289l-104 346h-492l-104 -346h-289zM371 1759l153 36q11 -31 28 -51q34 -40 101 -40q68 0 100 40q17 22 28 55l154 -36q-19 -79 -69 -134q-73 -79 -213 -79q-141 0 -213 79q-49 53 -69 130zM372 2060q19 62 114 62t136 -62l118 -269 l-129 -1zM463 559h380l-149 506q-10 31 -17.5 62.5t-11.5 58.5q-6 31 -10 59h-4q-4 -28 -10 -59q-4 -27 -11.5 -58.5t-17.5 -62.5z" />
<glyph unicode="&#x1eb1;" horiz-adv-x="1062" d="M71 332q0 112 52 183t138 112t198 59.5t233 24.5v57q0 86 -53.5 122t-145.5 36q-76 0 -159 -20.5t-138 -45.5l-68 189q68 28 172.5 53.5t221.5 25.5q204 0 313.5 -91t109.5 -302v-680q-30 -16 -73 -30.5t-95.5 -25.5t-110.5 -17.5t-118 -6.5q-241 0 -359 93.5t-118 263.5 zM236 1397l153 36q11 -31 28 -51q34 -40 101 -40q68 0 100 40q17 22 28 55l154 -36q-19 -79 -69 -134q-73 -79 -213 -79q-141 0 -213 79q-49 53 -69 130zM239 1708q19 62 115 62q95 0 135 -62l119 -269l-130 -1zM321 338q0 -78 57.5 -121t161.5 -43q43 0 86 6t66 17v335 q-74 -4 -141.5 -11t-118 -27.5t-81 -57.5t-30.5 -98z" />
<glyph unicode="&#x1eb2;" horiz-adv-x="1304" d="M19 0l475 1483h326l477 -1483h-289l-104 346h-492l-104 -346h-289zM371 1759l153 36q11 -31 28 -51q34 -40 101 -40q68 0 100 40q17 22 28 55l154 -36q-19 -79 -69 -134q-73 -79 -213 -79q-141 0 -213 79q-49 53 -69 130zM468 559h380l-149 506q-10 31 -17.5 62.5 t-11.5 58.5q-6 31 -10 59h-4q-4 -28 -10 -59q-4 -27 -11.5 -58.5t-17.5 -62.5zM488 2166q33 31 79 48t86 17q97 8 161 -43t64 -141q0 -37 -14 -66t-36.5 -51.5t-50 -38.5t-51.5 -26l-18 -80h-104l-9 147q31 7 56 16.5t43.5 23t30 30.5t11.5 38q0 38 -26 62t-77 15t-104 -54z " />
<glyph unicode="&#x1eb3;" horiz-adv-x="1062" d="M71 332q0 112 52 183t138 112t198 59.5t233 24.5v57q0 86 -53.5 122t-145.5 36q-76 0 -159 -20.5t-138 -45.5l-68 189q68 28 172.5 53.5t221.5 25.5q204 0 313.5 -91t109.5 -302v-680q-30 -16 -73 -30.5t-95.5 -25.5t-110.5 -17.5t-118 -6.5q-241 0 -359 93.5t-118 263.5 zM236 1397l153 36q11 -31 28 -51q34 -40 101 -40q68 0 100 40q17 22 28 55l154 -36q-19 -79 -69 -134q-73 -79 -213 -79q-141 0 -213 79q-49 53 -69 130zM321 338q0 -78 57.5 -121t161.5 -43q43 0 86 6t66 17v335q-74 -4 -141.5 -11t-118 -27.5t-81 -57.5t-30.5 -98z M358 1806q33 31 79 48t86 17q97 8 161 -43t64 -141q0 -37 -14 -66t-36 -51.5t-50 -38.5t-52 -26l-18 -80h-103l-9 147q30 7 55 16.5t43.5 23t30 30.5t11.5 38q0 38 -26 62t-77 15t-104 -54z" />
<glyph unicode="&#x1eb4;" horiz-adv-x="1304" d="M14 0l475 1483h326l477 -1483h-289l-104 346h-492l-104 -346h-289zM371 1759l153 36q11 -31 28 -51q34 -40 101 -40q68 0 100 40q17 22 28 55l154 -36q-19 -79 -69 -134q-73 -79 -213 -79q-141 0 -213 79q-49 53 -69 130zM389 1857q4 81 41 144t109 76q31 6 77 -8.5 t85.5 -37.5t71 -28t51.5 9t41 66l95 -18q1 -83 -44.5 -150t-96.5 -74t-120 27q-48 25 -103.5 46.5t-83 -14.5t-35.5 -63zM463 559h380l-149 506q-10 31 -17.5 62.5t-11.5 58.5q-6 31 -10 59h-4q-4 -28 -10 -59q-4 -27 -11.5 -58.5t-17.5 -62.5z" />
<glyph unicode="&#x1eb5;" horiz-adv-x="1062" d="M71 332q0 112 52 183t138 112t198 59.5t233 24.5v57q0 86 -53.5 122t-145.5 36q-76 0 -159 -20.5t-138 -45.5l-68 189q68 28 172.5 53.5t221.5 25.5q204 0 313.5 -91t109.5 -302v-680q-30 -16 -73 -30.5t-95.5 -25.5t-110.5 -17.5t-118 -6.5q-241 0 -359 93.5t-118 263.5 zM236 1397l153 36q11 -31 28 -51q34 -40 101 -40q68 0 100 40q17 22 28 55l154 -36q-19 -79 -69 -134q-73 -79 -213 -79q-141 0 -213 79q-49 53 -69 130zM298 1497q4 81 41.5 144t108.5 76q32 6 77.5 -8.5t85.5 -37.5t71.5 -28t51 9t40.5 66l95 -18q1 -83 -44 -150t-96 -74 t-120 27q-49 25 -104.5 46.5t-82.5 -14.5t-36 -63zM321 338q0 -78 57.5 -121t161.5 -43q43 0 86 6t66 17v335q-74 -4 -141.5 -11t-118 -27.5t-81 -57.5t-30.5 -98z" />
<glyph unicode="&#x1eb6;" horiz-adv-x="1304" d="M14 0l475 1483h326l477 -1483h-289l-104 346h-492l-104 -346h-289zM371 1759l153 36q11 -31 28 -51q34 -40 101 -40q68 0 100 40q17 22 28 55l154 -36q-19 -79 -69 -134q-73 -79 -213 -79q-141 0 -213 79q-49 53 -69 130zM463 559h380l-149 506q-10 31 -17.5 62.5 t-11.5 58.5q-6 31 -10 59h-4q-4 -28 -10 -59q-4 -27 -11.5 -58.5t-17.5 -62.5zM521 -191q0 53 38.5 90t94.5 37q53 0 92 -37t39 -90t-39 -91t-92 -38q-56 0 -94.5 38t-38.5 91z" />
<glyph unicode="&#x1eb7;" horiz-adv-x="1062" d="M71 332q0 112 52 183t138 112t198 59.5t233 24.5v57q0 86 -53.5 122t-145.5 36q-76 0 -159 -20.5t-138 -45.5l-68 189q68 28 172.5 53.5t221.5 25.5q204 0 313.5 -91t109.5 -302v-680q-30 -16 -73 -30.5t-95.5 -25.5t-110.5 -17.5t-118 -6.5q-241 0 -359 93.5t-118 263.5 zM236 1397l153 36q11 -31 28 -51q34 -40 101 -40q68 0 100 40q17 22 28 55l154 -36q-19 -79 -69 -134q-73 -79 -213 -79q-141 0 -213 79q-49 53 -69 130zM321 338q0 -78 57.5 -121t161.5 -43q43 0 86 6t66 17v335q-74 -4 -141.5 -11t-118 -27.5t-81 -57.5t-30.5 -98z M412 -208q0 53 39 90t94 37q54 0 93 -37t39 -90t-39 -91t-93 -38q-55 0 -94 38t-39 91z" />
<glyph unicode="&#x1eb8;" horiz-adv-x="976" d="M131 0v1483h758v-242h-486v-371h439v-237h-439v-391h486v-242h-758zM378 -191q0 53 39 90t94 37q53 0 92 -37t39 -90t-39 -91t-92 -38q-55 0 -94 38t-39 91z" />
<glyph unicode="&#x1eb9;" horiz-adv-x="1112" d="M81 553q0 127 34 232.5t97.5 182t154.5 118.5t206 42q110 0 195 -35.5t143.5 -102t88 -159t29.5 -204.5v-46.5t-4 -48.5l-682 -96q19 -123 97.5 -182t195.5 -59q80 0 160 19t135 50l76 -209q-66 -35 -170.5 -57.5t-220.5 -22.5q-132 0 -231 42t-166.5 119t-102.5 183.5 t-35 233.5zM325 612l444 64q0 125 -54 187.5t-149 62.5q-104 0 -170.5 -79t-70.5 -235zM442 -208q0 53 39 90t94 37q54 0 92.5 -37t38.5 -90t-38.5 -91t-92.5 -38q-55 0 -94 38t-39 91z" />
<glyph unicode="&#x1eba;" horiz-adv-x="976" d="M131 0v1483h758v-242h-486v-371h439v-237h-439v-391h486v-242h-758zM334 1918q33 31 79 48t86 17q97 8 161 -43t64 -141q0 -37 -14 -66t-36.5 -51.5t-50 -38.5t-51.5 -26l-18 -80h-104l-9 147q31 7 55.5 16.5t43.5 23t30.5 30.5t11.5 38q0 38 -26 62t-77 15t-104 -54z " />
<glyph unicode="&#x1ebb;" horiz-adv-x="1112" d="M81 553q0 127 34 232.5t97.5 182t154.5 118.5t206 42q110 0 195 -35.5t143.5 -102t88 -159t29.5 -204.5v-46.5t-4 -48.5l-682 -96q19 -123 97.5 -182t195.5 -59q80 0 160 19t135 50l76 -209q-66 -35 -170.5 -57.5t-220.5 -22.5q-132 0 -231 42t-166.5 119t-102.5 183.5 t-35 233.5zM325 612l444 64q0 125 -54 187.5t-149 62.5q-104 0 -170.5 -79t-70.5 -235zM391 1559q33 31 79 48t86 17q97 8 161 -43t64 -141q0 -37 -14 -66t-36.5 -51.5t-50 -38.5t-51.5 -26l-18 -80h-103l-10 147q31 7 56 16.5t43.5 23t30 30.5t11.5 38q0 38 -26 62t-77 15 t-104 -54z" />
<glyph unicode="&#x1ebc;" horiz-adv-x="976" d="M131 0v1483h758v-242h-486v-371h439v-237h-439v-391h486v-242h-758zM218 1598q4 81 41 144t109 76q31 6 77 -8.5t85.5 -37.5t71 -28t51.5 9t41 66l95 -18q1 -83 -44.5 -150t-96.5 -74t-120 27q-48 25 -103.5 46.5t-83 -14.5t-35.5 -63z" />
<glyph unicode="&#x1ebd;" horiz-adv-x="1112" d="M81 553q0 127 34 232.5t97.5 182t154.5 118.5t206 42q110 0 195 -35.5t143.5 -102t88 -159t29.5 -204.5v-46.5t-4 -48.5l-682 -96q19 -123 97.5 -182t195.5 -59q80 0 160 19t135 50l76 -209q-66 -35 -170.5 -57.5t-220.5 -22.5q-132 0 -231 42t-166.5 119t-102.5 183.5 t-35 233.5zM298 1222q4 81 41 144t109 76q31 6 77 -8.5t85.5 -37.5t71 -28t51.5 9t41 66l95 -18q1 -83 -44.5 -150t-96.5 -74t-119 27q-49 25 -104.5 46.5t-82.5 -14.5t-36 -63zM325 612l444 64q0 125 -54 187.5t-149 62.5q-104 0 -170.5 -79t-70.5 -235z" />
<glyph unicode="&#x1ebe;" horiz-adv-x="976" d="M131 0v1483h758v-242h-486v-371h439v-237h-439v-391h486v-242h-758zM193 1616l222 223q39 43 96 43q54 0 94 -43l222 -223l-83 -83l-230 178l-231 -179zM746 1747l119 269q40 62 135 62q96 0 115 -62l-239 -270z" />
<glyph unicode="&#x1ebf;" horiz-adv-x="1112" d="M81 553q0 127 34 232.5t97.5 182t154.5 118.5t206 42q110 0 195 -35.5t143.5 -102t88 -159t29.5 -204.5v-46.5t-4 -48.5l-682 -96q19 -123 97.5 -182t195.5 -59q80 0 160 19t135 50l76 -209q-66 -35 -170.5 -57.5t-220.5 -22.5q-132 0 -231 42t-166.5 119t-102.5 183.5 t-35 233.5zM263 1256l222 223q39 43 96 43q55 0 94 -43l222 -223l-83 -83l-230 178l-231 -179zM325 612l444 64q0 125 -54 187.5t-149 62.5q-104 0 -170.5 -79t-70.5 -235zM801 1387l118 269q40 62 136 62q95 0 114 -62l-239 -270z" />
<glyph unicode="&#x1ec0;" horiz-adv-x="976" d="M131 0v1483h758v-242h-486v-371h439v-237h-439v-391h486v-242h-758zM193 1616l222 223q39 43 96 43q54 0 94 -43l222 -223l-83 -83l-230 178l-231 -179zM559 2008q20 62 115 62t136 -62l118 -269l-129 -1z" />
<glyph unicode="&#x1ec1;" horiz-adv-x="1112" d="M81 553q0 127 34 232.5t97.5 182t154.5 118.5t206 42q110 0 195 -35.5t143.5 -102t88 -159t29.5 -204.5v-46.5t-4 -48.5l-682 -96q19 -123 97.5 -182t195.5 -59q80 0 160 19t135 50l76 -209q-66 -35 -170.5 -57.5t-220.5 -22.5q-132 0 -231 42t-166.5 119t-102.5 183.5 t-35 233.5zM263 1256l222 223q39 43 96 43q55 0 94 -43l222 -223l-83 -83l-230 178l-231 -179zM325 612l444 64q0 125 -54 187.5t-149 62.5q-104 0 -170.5 -79t-70.5 -235zM614 1649q19 62 114 62t136 -62l118 -269l-129 -1z" />
<glyph unicode="&#x1ec2;" horiz-adv-x="976" d="M131 0v1483h758v-242h-486v-371h439v-237h-439v-391h486v-242h-758zM193 1616l222 223q39 43 96 43q54 0 94 -43l222 -223l-83 -83l-230 178l-231 -179zM643 2107q33 31 79 48t86 17q97 8 161 -43t64 -141q0 -37 -14 -66t-36.5 -51.5t-50 -38.5t-51.5 -26l-18 -80h-104 l-9 147q31 7 55.5 16.5t43.5 23t30.5 30.5t11.5 38q0 38 -26 62t-77 15t-104 -54z" />
<glyph unicode="&#x1ec3;" horiz-adv-x="1112" d="M81 553q0 127 34 232.5t97.5 182t154.5 118.5t206 42q110 0 195 -35.5t143.5 -102t88 -159t29.5 -204.5v-46.5t-4 -48.5l-682 -96q19 -123 97.5 -182t195.5 -59q80 0 160 19t135 50l76 -209q-66 -35 -170.5 -57.5t-220.5 -22.5q-132 0 -231 42t-166.5 119t-102.5 183.5 t-35 233.5zM263 1256l222 223q39 43 96 43q55 0 94 -43l222 -223l-83 -83l-230 178l-231 -179zM325 612l444 64q0 125 -54 187.5t-149 62.5q-104 0 -170.5 -79t-70.5 -235zM708 1764q33 31 79 48t86 17q97 8 161 -43t64 -141q0 -37 -14 -66t-36.5 -51.5t-50 -38.5t-51.5 -26 l-18 -80h-103l-10 147q31 7 56 16.5t43.5 23t30 30.5t11.5 38q0 38 -26 62t-77 15t-104 -54z" />
<glyph unicode="&#x1ec4;" horiz-adv-x="976" d="M131 0v1483h758v-242h-486v-371h439v-237h-439v-391h486v-242h-758zM193 1616l222 223q39 43 96 43q54 0 94 -43l222 -223l-83 -83l-230 178l-231 -179zM272 1894q4 81 41 144t109 76q31 6 77 -8.5t85.5 -37.5t71 -28t51.5 9t41 66l95 -18q1 -83 -44.5 -150t-96.5 -74 t-120 27q-48 25 -103.5 46.5t-83 -14.5t-35.5 -63z" />
<glyph unicode="&#x1ec5;" horiz-adv-x="1112" d="M81 553q0 127 34 232.5t97.5 182t154.5 118.5t206 42q110 0 195 -35.5t143.5 -102t88 -159t29.5 -204.5v-46.5t-4 -48.5l-682 -96q19 -123 97.5 -182t195.5 -59q80 0 160 19t135 50l76 -209q-66 -35 -170.5 -57.5t-220.5 -22.5q-132 0 -231 42t-166.5 119t-102.5 183.5 t-35 233.5zM263 1256l222 223q39 43 96 43q55 0 94 -43l222 -223l-83 -83l-230 178l-231 -179zM325 612l444 64q0 125 -54 187.5t-149 62.5q-104 0 -170.5 -79t-70.5 -235zM366 1530q4 81 41 144t109 76q31 6 77 -8.5t85.5 -37.5t71 -28t51.5 9t41 66l95 -18 q1 -83 -44.5 -150t-96.5 -74t-119 27q-49 25 -104.5 46.5t-82.5 -14.5t-36 -63z" />
<glyph unicode="&#x1ec6;" horiz-adv-x="976" d="M131 0v1483h758v-242h-486v-371h439v-237h-439v-391h486v-242h-758zM193 1616l222 223q39 43 96 43q54 0 94 -43l222 -223l-83 -83l-230 178l-231 -179zM378 -191q0 53 39 90t94 37q53 0 92 -37t39 -90t-39 -91t-92 -38q-55 0 -94 38t-39 91z" />
<glyph unicode="&#x1ec7;" horiz-adv-x="1112" d="M81 553q0 127 34 232.5t97.5 182t154.5 118.5t206 42q110 0 195 -35.5t143.5 -102t88 -159t29.5 -204.5v-46.5t-4 -48.5l-682 -96q19 -123 97.5 -182t195.5 -59q80 0 160 19t135 50l76 -209q-66 -35 -170.5 -57.5t-220.5 -22.5q-132 0 -231 42t-166.5 119t-102.5 183.5 t-35 233.5zM263 1256l222 223q39 43 96 43q55 0 94 -43l222 -223l-83 -83l-230 178l-231 -179zM325 612l444 64q0 125 -54 187.5t-149 62.5q-104 0 -170.5 -79t-70.5 -235zM442 -208q0 53 39 90t94 37q54 0 92.5 -37t38.5 -90t-38.5 -91t-92.5 -38q-55 0 -94 38t-39 91z" />
<glyph unicode="&#x1ec8;" horiz-adv-x="540" d="M85 1918q33 31 79 48t86 17q97 8 161 -43t64 -141q0 -37 -14 -66t-36 -51.5t-50 -38.5t-52 -26l-18 -80h-103l-9 147q30 7 55 16.5t43.5 23t30 30.5t11.5 38q0 38 -26 62t-77 15t-104 -54zM131 0v1483h279v-1483h-279z" />
<glyph unicode="&#x1ec9;" horiz-adv-x="516" d="M101 1559q33 31 79 48t86 17q97 8 161 -43t64 -141q0 -37 -14 -66t-36 -51.5t-50 -38.5t-52 -26l-18 -80h-103l-9 147q30 7 55 16.5t43.5 23t30 30.5t11.5 38q0 38 -26 62t-77 15t-104 -54zM123 0v1104h269v-1104h-269z" />
<glyph unicode="&#x1eca;" horiz-adv-x="540" d="M132 0v1483h279v-1483h-279zM139 -191q0 53 39 90t94 37q54 0 92.5 -37t38.5 -90t-38.5 -91t-92.5 -38q-55 0 -94 38t-39 91z" />
<glyph unicode="&#x1ecb;" horiz-adv-x="516" d="M104 1432q0 63 44 106t110 43q63 0 108 -43t45 -106q0 -64 -45 -108t-108 -44q-66 0 -110 44t-44 108zM116 0v1104h268v-1104h-268zM118 -208q0 53 38.5 90t94.5 37q53 0 92 -37t39 -90t-39 -91t-92 -38q-56 0 -94.5 38t-38.5 91z" />
<glyph unicode="&#x1ecc;" d="M90 741q0 162 34 302.5t102.5 243t172 161.5t242.5 59t242.5 -59t172 -161.5t102.5 -243t34 -302.5q0 -161 -34 -301.5t-102.5 -243t-172 -162t-242.5 -59.5t-242.5 59.5t-172 162t-102.5 243t-34 301.5zM369 741q0 -114 17 -208.5t51 -161t85 -103.5t119 -37 q67 0 118.5 37t85 103.5t51 161t17.5 208.5q0 115 -17.5 209t-51 161t-85 103.5t-118.5 36.5q-68 0 -119 -36.5t-85 -103.5t-51 -161t-17 -209zM509 -208q0 53 39 90t94 37q53 0 92 -37t39 -90t-39 -91t-92 -38q-55 0 -94 38t-39 91z" />
<glyph unicode="&#x1ecd;" horiz-adv-x="1124" d="M81 553q0 123 31.5 228.5t93 182t151 120.5t205.5 44q115 0 204 -44t150.5 -120.5t93.5 -182t32 -228.5t-32 -229.5t-93.5 -183.5t-150.5 -121t-204 -44q-116 0 -205.5 44t-151 121t-93 183.5t-31.5 229.5zM349 555q0 -166 52.5 -259t160.5 -93q107 0 159 93t52 259 t-52 260t-159 94q-108 0 -160.5 -94t-52.5 -260zM429 -208q0 53 39 90t94 37q54 0 92.5 -37t38.5 -90t-38.5 -91t-92.5 -38q-55 0 -94 38t-39 91z" />
<glyph unicode="&#x1ece;" d="M90 741q0 162 34 302.5t102.5 243t172 161.5t242.5 59t242.5 -59t172 -161.5t102.5 -243t34 -302.5q0 -161 -34 -301.5t-102.5 -243t-172 -162t-242.5 -59.5t-242.5 59.5t-172 162t-102.5 243t-34 301.5zM369 741q0 -114 17 -208.5t51 -161t85 -103.5t119 -37 q67 0 118.5 37t85 103.5t51 161t17.5 208.5q0 115 -17.5 209t-51 161t-85 103.5t-118.5 36.5q-68 0 -119 -36.5t-85 -103.5t-51 -161t-17 -209zM453 1918q33 31 78.5 48t86.5 17q97 8 161 -43t64 -141q0 -37 -14 -66t-36.5 -51.5t-50 -38.5t-51.5 -26l-18 -80h-104l-9 147 q31 7 55.5 16.5t43.5 23t30 30.5t11 38q0 38 -25.5 62t-76.5 15t-104 -54z" />
<glyph unicode="&#x1ecf;" horiz-adv-x="1124" d="M81 553q0 123 31.5 228.5t93 182t151 120.5t205.5 44q115 0 204 -44t150.5 -120.5t93.5 -182t32 -228.5t-32 -229.5t-93.5 -183.5t-150.5 -121t-204 -44q-116 0 -205.5 44t-151 121t-93 183.5t-31.5 229.5zM349 555q0 -166 52.5 -259t160.5 -93q107 0 159 93t52 259 t-52 260t-159 94q-108 0 -160.5 -94t-52.5 -260zM408 1559q33 31 79 48t86 17q97 8 161 -43t64 -141q0 -37 -14 -66t-36.5 -51.5t-50 -38.5t-51.5 -26l-18 -80h-103l-10 147q31 7 56 16.5t43.5 23t30 30.5t11.5 38q0 38 -26 62t-77 15t-104 -54z" />
<glyph unicode="&#x1ed0;" d="M90 741q0 162 34 302.5t102.5 243t172 161.5t242.5 59t242.5 -59t172 -161.5t102.5 -243t34 -302.5q0 -161 -34 -301.5t-102.5 -243t-172 -162t-242.5 -59.5t-242.5 59.5t-172 162t-102.5 243t-34 301.5zM324 1616l222 223q39 43 96 43q54 0 94 -43l222 -223l-83 -83 l-230 178l-231 -179zM369 741q0 -114 17 -208.5t51 -161t85 -103.5t119 -37q67 0 118.5 37t85 103.5t51 161t17.5 208.5q0 115 -17.5 209t-51 161t-85 103.5t-118.5 36.5q-68 0 -119 -36.5t-85 -103.5t-51 -161t-17 -209zM864 1758l119 269q40 62 135 62q96 0 115 -62 l-239 -270z" />
<glyph unicode="&#x1ed1;" horiz-adv-x="1124" d="M81 553q0 123 31.5 228.5t93 182t151 120.5t205.5 44q115 0 204 -44t150.5 -120.5t93.5 -182t32 -228.5t-32 -229.5t-93.5 -183.5t-150.5 -121t-204 -44q-116 0 -205.5 44t-151 121t-93 183.5t-31.5 229.5zM244 1256l222 223q40 43 96 43q55 0 94 -43l222 -223l-83 -83 l-230 178l-230 -179zM349 555q0 -166 52.5 -259t160.5 -93q107 0 159 93t52 259t-52 260t-159 94q-108 0 -160.5 -94t-52.5 -260zM785 1388l118 269q40 62 136 62q95 0 114 -62l-239 -270z" />
<glyph unicode="&#x1ed2;" d="M90 741q0 162 34 302.5t102.5 243t172 161.5t242.5 59t242.5 -59t172 -161.5t102.5 -243t34 -302.5q0 -161 -34 -301.5t-102.5 -243t-172 -162t-242.5 -59.5t-242.5 59.5t-172 162t-102.5 243t-34 301.5zM324 1616l222 223q39 43 96 43q54 0 94 -43l222 -223l-83 -83 l-230 178l-231 -179zM369 741q0 -114 17 -208.5t51 -161t85 -103.5t119 -37q67 0 118.5 37t85 103.5t51 161t17.5 208.5q0 115 -17.5 209t-51 161t-85 103.5t-118.5 36.5q-68 0 -119 -36.5t-85 -103.5t-51 -161t-17 -209zM678 2024q20 62 115 62t136 -62l118 -269l-129 -1z " />
<glyph unicode="&#x1ed3;" horiz-adv-x="1124" d="M81 553q0 123 31.5 228.5t93 182t151 120.5t205.5 44q115 0 204 -44t150.5 -120.5t93.5 -182t32 -228.5t-32 -229.5t-93.5 -183.5t-150.5 -121t-204 -44q-116 0 -205.5 44t-151 121t-93 183.5t-31.5 229.5zM244 1256l222 223q40 43 96 43q55 0 94 -43l222 -223l-83 -83 l-230 178l-230 -179zM349 555q0 -166 52.5 -259t160.5 -93q107 0 159 93t52 259t-52 260t-159 94q-108 0 -160.5 -94t-52.5 -260zM597 1647q19 62 114 62t136 -62l118 -269l-129 -1z" />
<glyph unicode="&#x1ed4;" d="M90 741q0 162 34 302.5t102.5 243t172 161.5t242.5 59t242.5 -59t172 -161.5t102.5 -243t34 -302.5q0 -161 -34 -301.5t-102.5 -243t-172 -162t-242.5 -59.5t-242.5 59.5t-172 162t-102.5 243t-34 301.5zM324 1616l222 223q39 43 96 43q54 0 94 -43l222 -223l-83 -83 l-230 178l-231 -179zM369 741q0 -114 17 -208.5t51 -161t85 -103.5t119 -37q67 0 118.5 37t85 103.5t51 161t17.5 208.5q0 115 -17.5 209t-51 161t-85 103.5t-118.5 36.5q-68 0 -119 -36.5t-85 -103.5t-51 -161t-17 -209zM744 2141q33 31 78.5 48t86.5 17q97 8 161 -43 t64 -141q0 -37 -14 -66t-36.5 -51.5t-50 -38.5t-51.5 -26l-18 -80h-104l-9 147q31 7 55.5 16.5t43.5 23t30 30.5t11 38q0 38 -25.5 62t-76.5 15t-104 -54z" />
<glyph unicode="&#x1ed5;" horiz-adv-x="1124" d="M81 553q0 123 31.5 228.5t93 182t151 120.5t205.5 44q115 0 204 -44t150.5 -120.5t93.5 -182t32 -228.5t-32 -229.5t-93.5 -183.5t-150.5 -121t-204 -44q-116 0 -205.5 44t-151 121t-93 183.5t-31.5 229.5zM244 1256l222 223q40 43 96 43q55 0 94 -43l222 -223l-83 -83 l-230 178l-230 -179zM349 555q0 -166 52.5 -259t160.5 -93q107 0 159 93t52 259t-52 260t-159 94q-108 0 -160.5 -94t-52.5 -260zM691 1765q33 31 79 48t86 17q97 8 161 -43t64 -141q0 -37 -14 -66t-36.5 -51.5t-50 -38.5t-51.5 -26l-18 -80h-103l-10 147q31 7 56 16.5 t43.5 23t30 30.5t11.5 38q0 38 -26 62t-77 15t-104 -54z" />
<glyph unicode="&#x1ed6;" d="M90 741q0 162 34 302.5t102.5 243t172 161.5t242.5 59t242.5 -59t172 -161.5t102.5 -243t34 -302.5q0 -161 -34 -301.5t-102.5 -243t-172 -162t-242.5 -59.5t-242.5 59.5t-172 162t-102.5 243t-34 301.5zM324 1616l222 223q39 43 96 43q54 0 94 -43l222 -223l-83 -83 l-230 178l-231 -179zM369 741q0 -114 17 -208.5t51 -161t85 -103.5t119 -37q67 0 118.5 37t85 103.5t51 161t17.5 208.5q0 115 -17.5 209t-51 161t-85 103.5t-118.5 36.5q-68 0 -119 -36.5t-85 -103.5t-51 -161t-17 -209zM410 1935q13 81 57 139t117 62q32 3 75.5 -16.5 t80.5 -47t67.5 -36t51.5 3t49 61.5l92 -29q-9 -82 -61.5 -144t-104 -62.5t-115.5 40.5q-46 30 -98.5 57.5t-83.5 -5t-43 -57.5z" />
<glyph unicode="&#x1ed7;" horiz-adv-x="1124" d="M81 553q0 123 31.5 228.5t93 182t151 120.5t205.5 44q115 0 204 -44t150.5 -120.5t93.5 -182t32 -228.5t-32 -229.5t-93.5 -183.5t-150.5 -121t-204 -44q-116 0 -205.5 44t-151 121t-93 183.5t-31.5 229.5zM244 1256l222 223q40 43 96 43q55 0 94 -43l222 -223l-83 -83 l-230 178l-230 -179zM339 1538q4 81 41 144t109 76q31 6 77 -8.5t85.5 -37.5t71 -28t51.5 9t41 66l95 -18q1 -83 -44.5 -150t-96.5 -74t-119 27q-49 25 -104.5 46.5t-82.5 -14.5t-36 -63zM349 555q0 -166 52.5 -259t160.5 -93q107 0 159 93t52 259t-52 260t-159 94 q-108 0 -160.5 -94t-52.5 -260z" />
<glyph unicode="&#x1ed8;" d="M90 741q0 162 34 302.5t102.5 243t172 161.5t242.5 59t242.5 -59t172 -161.5t102.5 -243t34 -302.5q0 -161 -34 -301.5t-102.5 -243t-172 -162t-242.5 -59.5t-242.5 59.5t-172 162t-102.5 243t-34 301.5zM324 1616l222 223q39 43 96 43q54 0 94 -43l222 -223l-83 -83 l-230 178l-231 -179zM369 741q0 -114 17 -208.5t51 -161t85 -103.5t119 -37q67 0 118.5 37t85 103.5t51 161t17.5 208.5q0 115 -17.5 209t-51 161t-85 103.5t-118.5 36.5q-68 0 -119 -36.5t-85 -103.5t-51 -161t-17 -209zM509 -208q0 53 39 90t94 37q53 0 92 -37t39 -90 t-39 -91t-92 -38q-55 0 -94 38t-39 91z" />
<glyph unicode="&#x1ed9;" horiz-adv-x="1124" d="M81 553q0 123 31.5 228.5t93 182t151 120.5t205.5 44q115 0 204 -44t150.5 -120.5t93.5 -182t32 -228.5t-32 -229.5t-93.5 -183.5t-150.5 -121t-204 -44q-116 0 -205.5 44t-151 121t-93 183.5t-31.5 229.5zM244 1256l222 223q40 43 96 43q55 0 94 -43l222 -223l-83 -83 l-230 178l-230 -179zM349 555q0 -166 52.5 -259t160.5 -93q107 0 159 93t52 259t-52 260t-159 94q-108 0 -160.5 -94t-52.5 -260zM429 -208q0 53 39 90t94 37q54 0 92.5 -37t38.5 -90t-38.5 -91t-92.5 -38q-55 0 -94 38t-39 91z" />
<glyph unicode="&#x1eda;" d="M90 741q0 162 34 302.5t102.5 243t172 161.5t242.5 59q138 0 241 -58l78 139q27 19 69 31t100 8q53 -5 85.5 -24.5t34.5 -35.5l-235 -226q22 -26 42 -54q68 -103 102 -243.5t34 -302.5q0 -161 -34 -301.5t-102.5 -243t-172 -162t-242.5 -59.5t-242.5 59.5t-172 162 t-102.5 243t-34 301.5zM369 741q0 -114 17 -208.5t51 -161t85 -103.5t119 -37t119 37t85 103.5t51 161t17 208.5q0 115 -17 209t-51 161t-85 103.5t-119 36.5t-119 -36.5t-85 -103.5t-51 -161t-17 -209zM515 1559l118 269q40 62 136 62q95 0 114 -62l-239 -270z" />
<glyph unicode="&#x1edb;" horiz-adv-x="1124" d="M81 553q0 123 31.5 228.5t93 182t150.5 120.5t206 44q114 0 203 -44l66 118q27 19 69 31t100 8q53 -5 85.5 -24.5t34.5 -35.5l-213 -206q5 -6 10 -11q61 -77 92.5 -182.5t31.5 -228.5t-31.5 -229.5t-93 -183.5t-150.5 -121t-204 -44q-117 0 -206 44t-150.5 121t-93 183.5 t-31.5 229.5zM349 555q0 -166 52.5 -259t160.5 -93q107 0 159 93t52 259t-52 260t-159 94q-108 0 -160.5 -94t-52.5 -260zM443 1200l118 269q40 62 136 62q95 0 114 -62l-239 -270z" />
<glyph unicode="&#x1edc;" d="M90 741q0 162 34 302.5t102.5 243t172 161.5t242.5 59q138 0 241 -58l78 139q27 19 69 31t100 8q53 -5 85.5 -24.5t34.5 -35.5l-235 -226q22 -26 42 -54q68 -103 102 -243.5t34 -302.5q0 -161 -34 -301.5t-102.5 -243t-172 -162t-242.5 -59.5t-242.5 59.5t-172 162 t-102.5 243t-34 301.5zM369 741q0 -114 17 -208.5t51 -161t85 -103.5t119 -37t119 37t85 103.5t51 161t17 208.5q0 115 -17 209t-51 161t-85 103.5t-119 36.5t-119 -36.5t-85 -103.5t-51 -161t-17 -209zM379 1828q19 62 114 62t136 -62l118 -269l-129 -1z" />
<glyph unicode="&#x1edd;" horiz-adv-x="1124" d="M81 553q0 123 31.5 228.5t93 182t150.5 120.5t206 44q114 0 203 -44l66 118q27 19 69 31t100 8q53 -5 85.5 -24.5t34.5 -35.5l-213 -206q5 -6 10 -11q61 -77 92.5 -182.5t31.5 -228.5t-31.5 -229.5t-93 -183.5t-150.5 -121t-204 -44q-117 0 -206 44t-150.5 121t-93 183.5 t-31.5 229.5zM281 1469q19 62 114 62t136 -62l118 -269l-129 -1zM349 555q0 -166 52.5 -259t160.5 -93q107 0 159 93t52 259t-52 260t-159 94q-108 0 -160.5 -94t-52.5 -260z" />
<glyph unicode="&#x1ede;" d="M90 741q0 162 34 302.5t102.5 243t172 161.5t242.5 59q138 0 241 -58l78 139q27 19 69 31t100 8q53 -5 85.5 -24.5t34.5 -35.5l-235 -226q22 -26 42 -54q68 -103 102 -243.5t34 -302.5q0 -161 -34 -301.5t-102.5 -243t-172 -162t-242.5 -59.5t-242.5 59.5t-172 162 t-102.5 243t-34 301.5zM369 741q0 -114 17 -208.5t51 -161t85 -103.5t119 -37t119 37t85 103.5t51 161t17 208.5q0 115 -17 209t-51 161t-85 103.5t-119 36.5t-119 -36.5t-85 -103.5t-51 -161t-17 -209zM453 1918q33 31 79 48t86 17q97 8 161 -43t64 -141q0 -37 -14 -66 t-36.5 -51.5t-50 -38.5t-51.5 -26l-18 -80h-104l-9 147q31 7 56 16.5t43.5 23t30 30.5t11.5 38q0 38 -26 62t-77 15t-104 -54z" />
<glyph unicode="&#x1edf;" horiz-adv-x="1124" d="M81 553q0 123 31.5 228.5t93 182t150.5 120.5t206 44q114 0 203 -44l66 118q27 19 69 31t100 8q53 -5 85.5 -24.5t34.5 -35.5l-213 -206q5 -6 10 -11q61 -77 92.5 -182.5t31.5 -228.5t-31.5 -229.5t-93 -183.5t-150.5 -121t-204 -44q-117 0 -206 44t-150.5 121t-93 183.5 t-31.5 229.5zM349 555q0 -166 52.5 -259t160.5 -93q107 0 159 93t52 259t-52 260t-159 94q-108 0 -160.5 -94t-52.5 -260zM408 1559q33 31 79 48t86 17q97 8 161 -43t64 -141q0 -37 -14 -66t-36.5 -51.5t-50 -38.5t-51.5 -26l-18 -80h-104l-9 147q31 7 56 16.5t43.5 23 t30 30.5t11.5 38q0 38 -26 62t-77 15t-104 -54z" />
<glyph unicode="&#x1ee0;" d="M90 741q0 162 34 302.5t102.5 243t172 161.5t242.5 59q138 0 241 -58l78 139q27 19 69 31t100 8q53 -5 85.5 -24.5t34.5 -35.5l-235 -226q22 -26 42 -54q68 -103 102 -243.5t34 -302.5q0 -161 -34 -301.5t-102.5 -243t-172 -162t-242.5 -59.5t-242.5 59.5t-172 162 t-102.5 243t-34 301.5zM369 741q0 -114 17 -208.5t51 -161t85 -103.5t119 -37t119 37t85 103.5t51 161t17 208.5q0 115 -17 209t-51 161t-85 103.5t-119 36.5t-119 -36.5t-85 -103.5t-51 -161t-17 -209zM375 1646q13 81 57 139t117 62q32 3 75.5 -16.5t80.5 -47t67.5 -36 t51.5 3t49 61.5l92 -29q-9 -82 -61.5 -144t-104 -62.5t-115.5 40.5q-46 30 -98.5 57.5t-83.5 -5t-43 -57.5z" />
<glyph unicode="&#x1ee1;" horiz-adv-x="1124" d="M81 553q0 123 31.5 228.5t93 182t150.5 120.5t206 44q114 0 203 -44l66 118q27 19 69 31t100 8q53 -5 85.5 -24.5t34.5 -35.5l-213 -206q5 -6 10 -11q61 -77 92.5 -182.5t31.5 -228.5t-31.5 -229.5t-93 -183.5t-150.5 -121t-204 -44q-117 0 -206 44t-150.5 121t-93 183.5 t-31.5 229.5zM298 1222q4 81 41 144t109 76q31 6 77 -8.5t85.5 -37.5t71 -28t51.5 9t41 66l95 -18q1 -83 -44.5 -150t-96.5 -74t-120 27q-48 25 -103.5 46.5t-83 -14.5t-35.5 -63zM349 555q0 -166 52.5 -259t160.5 -93q107 0 159 93t52 259t-52 260t-159 94 q-108 0 -160.5 -94t-52.5 -260z" />
<glyph unicode="&#x1ee2;" d="M90 741q0 162 34 302.5t102.5 243t172 161.5t242.5 59q138 0 241 -58l78 139q27 19 69 31t100 8q53 -5 85.5 -24.5t34.5 -35.5l-235 -226q22 -26 42 -54q68 -103 102 -243.5t34 -302.5q0 -161 -34 -301.5t-102.5 -243t-172 -162t-242.5 -59.5t-242.5 59.5t-172 162 t-102.5 243t-34 301.5zM369 741q0 -114 17 -208.5t51 -161t85 -103.5t119 -37t119 37t85 103.5t51 161t17 208.5q0 115 -17 209t-51 161t-85 103.5t-119 36.5t-119 -36.5t-85 -103.5t-51 -161t-17 -209zM509 -208q0 53 39 90t94 37q53 0 92 -37t39 -90t-39 -91t-92 -38 q-55 0 -94 38t-39 91z" />
<glyph unicode="&#x1ee3;" horiz-adv-x="1124" d="M81 553q0 123 31.5 228.5t93 182t150.5 120.5t206 44q114 0 203 -44l66 118q27 19 69 31t100 8q53 -5 85.5 -24.5t34.5 -35.5l-213 -206q5 -6 10 -11q61 -77 92.5 -182.5t31.5 -228.5t-31.5 -229.5t-93 -183.5t-150.5 -121t-204 -44q-117 0 -206 44t-150.5 121t-93 183.5 t-31.5 229.5zM349 555q0 -166 52.5 -259t160.5 -93q107 0 159 93t52 259t-52 260t-159 94q-108 0 -160.5 -94t-52.5 -260zM429 -208q0 53 39 90t94 37q53 0 92 -37t39 -90t-39 -91t-92 -38q-55 0 -94 38t-39 91z" />
<glyph unicode="&#x1ee4;" horiz-adv-x="1234" d="M131 438v1045h279v-1047q0 -98 60 -153.5t146 -55.5q88 0 148.5 55.5t60.5 153.5v1047h279v-1045q0 -110 -37 -195t-102.5 -143.5t-154.5 -89t-194 -30.5q-104 0 -192 30.5t-153.5 89t-102.5 143.5t-37 195zM485 -208q0 53 39 90t94 37q54 0 92.5 -37t38.5 -90t-38.5 -91 t-92.5 -38q-55 0 -94 38t-39 91z" />
<glyph unicode="&#x1ee5;" horiz-adv-x="1107" d="M120 385v719h266v-725q0 -174 178 -174q54 0 94 7t62 17v875h268v-1049q-69 -35 -184 -57.5t-240 -22.5q-219 0 -331.5 97.5t-112.5 312.5zM429 -208q0 53 39 90t94 37q54 0 92.5 -37t38.5 -90t-38.5 -91t-92.5 -38q-55 0 -94 38t-39 91z" />
<glyph unicode="&#x1ee6;" horiz-adv-x="1234" d="M131 438v1045h279v-1047q0 -98 60 -153.5t146 -55.5q88 0 148.5 55.5t60.5 153.5v1047h279v-1045q0 -110 -37 -195t-102.5 -143.5t-154.5 -89t-194 -30.5q-104 0 -192 30.5t-153.5 89t-102.5 143.5t-37 195zM453 1918q33 31 79 48t86 17q97 8 161 -43t64 -141 q0 -37 -14 -66t-36.5 -51.5t-50 -38.5t-51.5 -26l-18 -80h-104l-9 147q31 7 55.5 16.5t43.5 23t30.5 30.5t11.5 38q0 38 -26 62t-77 15t-104 -54z" />
<glyph unicode="&#x1ee7;" horiz-adv-x="1107" d="M120 385v719h266v-725q0 -174 178 -174q54 0 94 7t62 17v875h268v-1049q-69 -35 -184 -57.5t-240 -22.5q-219 0 -331.5 97.5t-112.5 312.5zM408 1559q33 31 79 48t86 17q97 8 161 -43t64 -141q0 -37 -14 -66t-36.5 -51.5t-50 -38.5t-51.5 -26l-18 -80h-103l-9 147 q30 7 55 16.5t43.5 23t30 30.5t11.5 38q0 38 -26 62t-77 15t-104 -54z" />
<glyph unicode="&#x1ee8;" horiz-adv-x="1234" d="M131 438v1045h279v-1047q0 -98 60 -153.5t146 -55.5q89 0 149 55.5t60 153.5v1047h162l59 105q27 19 69 31t100 8q53 -5 85.5 -24.5t34.5 -35.5l-231 -223v-906q0 -110 -37 -195t-102.5 -143.5t-154.5 -89t-194 -30.5q-104 0 -192 30.5t-153.5 89t-102.5 143.5t-37 195z M515 1559l118 269q40 62 136 62q95 0 114 -62l-239 -270z" />
<glyph unicode="&#x1ee9;" horiz-adv-x="1107" d="M120 385v719h266v-725q0 -174 178 -174q53 0 93 7t63 17v875h167l55 98q27 19 69 31t100 8q53 -5 85.5 -24.5t34.5 -35.5l-243 -235v-891q-69 -35 -184 -57.5t-240 -22.5q-219 0 -331.5 97.5t-112.5 312.5zM477 1200l118 269q40 62 136 62q95 0 114 -62l-239 -270z" />
<glyph unicode="&#x1eea;" horiz-adv-x="1234" d="M131 438v1045h279v-1047q0 -98 60 -153.5t146 -55.5q89 0 149 55.5t60 153.5v1047h162l59 105q27 19 69 31t100 8q53 -5 85.5 -24.5t34.5 -35.5l-231 -223v-906q0 -110 -37 -195t-102.5 -143.5t-154.5 -89t-194 -30.5q-104 0 -192 30.5t-153.5 89t-102.5 143.5t-37 195z M379 1828q19 62 114 62t136 -62l118 -269l-129 -1z" />
<glyph unicode="&#x1eeb;" horiz-adv-x="1107" d="M120 385v719h266v-725q0 -174 178 -174q53 0 93 7t63 17v875h167l55 98q27 19 69 31t100 8q53 -5 85.5 -24.5t34.5 -35.5l-243 -235v-891q-69 -35 -184 -57.5t-240 -22.5q-219 0 -331.5 97.5t-112.5 312.5zM281 1469q19 62 114 62t136 -62l118 -269l-129 -1z" />
<glyph unicode="&#x1eec;" horiz-adv-x="1234" d="M131 438v1045h279v-1047q0 -98 60 -153.5t146 -55.5q89 0 149 55.5t60 153.5v1047h162l59 105q27 19 69 31t100 8q53 -5 85.5 -24.5t34.5 -35.5l-231 -223v-906q0 -110 -37 -195t-102.5 -143.5t-154.5 -89t-194 -30.5q-104 0 -192 30.5t-153.5 89t-102.5 143.5t-37 195z M453 1918q33 31 79 48t86 17q97 8 161 -43t64 -141q0 -37 -14 -66t-36.5 -51.5t-50 -38.5t-51.5 -26l-18 -80h-104l-9 147q31 7 56 16.5t43.5 23t30 30.5t11.5 38q0 38 -26 62t-77 15t-104 -54z" />
<glyph unicode="&#x1eed;" horiz-adv-x="1107" d="M120 385v719h266v-725q0 -174 178 -174q53 0 93 7t63 17v875h167l55 98q27 19 69 31t100 8q53 -5 85.5 -24.5t34.5 -35.5l-243 -235v-891q-69 -35 -184 -57.5t-240 -22.5q-219 0 -331.5 97.5t-112.5 312.5zM408 1559q33 31 79 48t86 17q97 8 161 -43t64 -141 q0 -37 -14 -66t-36.5 -51.5t-50 -38.5t-51.5 -26l-18 -80h-104l-9 147q31 7 56 16.5t43.5 23t30 30.5t11.5 38q0 38 -26 62t-77 15t-104 -54z" />
<glyph unicode="&#x1eee;" horiz-adv-x="1234" d="M131 438v1045h279v-1047q0 -98 60 -153.5t146 -55.5q89 0 149 55.5t60 153.5v1047h162l59 105q27 19 69 31t100 8q53 -5 85.5 -24.5t34.5 -35.5l-231 -223v-906q0 -110 -37 -195t-102.5 -143.5t-154.5 -89t-194 -30.5q-104 0 -192 30.5t-153.5 89t-102.5 143.5t-37 195z M332 1638q13 81 57 139t117 62q32 3 75.5 -16.5t80.5 -47t67.5 -36t51.5 3t49 61.5l92 -29q-9 -82 -61.5 -144t-104 -62.5t-115.5 40.5q-46 30 -98.5 57.5t-83.5 -5t-43 -57.5z" />
<glyph unicode="&#x1eef;" horiz-adv-x="1107" d="M120 385v719h266v-725q0 -174 178 -174q53 0 93 7t63 17v875h167l55 98q27 19 69 31t100 8q53 -5 85.5 -24.5t34.5 -35.5l-243 -235v-891q-69 -35 -184 -57.5t-240 -22.5q-219 0 -331.5 97.5t-112.5 312.5zM298 1222q4 81 41 144t109 76q31 6 77 -8.5t85.5 -37.5t71 -28 t51.5 9t41 66l95 -18q1 -83 -44.5 -150t-96.5 -74t-120 27q-48 25 -103.5 46.5t-83 -14.5t-35.5 -63z" />
<glyph unicode="&#x1ef0;" horiz-adv-x="1234" d="M131 438v1045h279v-1047q0 -98 60 -153.5t146 -55.5q89 0 149 55.5t60 153.5v1047h162l59 105q27 19 69 31t100 8q53 -5 85.5 -24.5t34.5 -35.5l-231 -223v-906q0 -110 -37 -195t-102.5 -143.5t-154.5 -89t-194 -30.5q-104 0 -192 30.5t-153.5 89t-102.5 143.5t-37 195z M485 -208q0 53 39 90t94 37q54 0 93 -37t39 -90t-39 -91t-93 -38q-55 0 -94 38t-39 91z" />
<glyph unicode="&#x1ef1;" horiz-adv-x="1107" d="M120 385v719h266v-725q0 -174 178 -174q53 0 93 7t63 17v875h167l55 98q27 19 69 31t100 8q53 -5 85.5 -24.5t34.5 -35.5l-243 -235v-891q-69 -35 -184 -57.5t-240 -22.5q-219 0 -331.5 97.5t-112.5 312.5zM429 -208q0 53 39 90t94 37q53 0 92 -37t39 -90t-39 -91 t-92 -38q-55 0 -94 38t-39 91z" />
<glyph unicode="&#x1ef2;" horiz-adv-x="1150" d="M14 1483h299l258 -611h4l262 611h299l-424 -901v-582h-276v582zM344 1828q20 62 115 62t135 -62l119 -269l-130 -1z" />
<glyph unicode="&#x1ef3;" horiz-adv-x="1134" d="M28 1104h303l199 -694q10 -31 16 -63t10 -56q7 -29 9 -55h4q2 26 8 55q4 24 11 56t18 63l198 694h301l-555 -1544h-280l157 440zM281 1469q19 62 115 62q95 0 135 -62l119 -269l-130 -1z" />
<glyph unicode="&#x1ef4;" horiz-adv-x="1150" d="M14 1483h299l258 -611h4l262 611h299l-424 -901v-582h-276v582zM443 -208q0 53 39 90t94 37q53 0 92 -37t39 -90t-39 -91t-92 -38q-55 0 -94 38t-39 91z" />
<glyph unicode="&#x1ef5;" horiz-adv-x="1134" d="M28 1104h303l199 -694q10 -31 16 -63t10 -56q7 -29 9 -55h4q2 26 8 55q4 24 11 56t18 63l198 694h301l-555 -1544h-280l157 440zM679 -208q0 53 39 90t95 37q53 0 92 -37t39 -90t-39 -91t-92 -38q-56 0 -95 38t-39 91z" />
<glyph unicode="&#x1ef6;" horiz-adv-x="1150" d="M14 1483h299l258 -611h4l262 611h299l-424 -901v-582h-276v582zM426 1918q34 31 79.5 48t85.5 17q98 8 161.5 -43t63.5 -141q0 -37 -13.5 -66t-36 -51.5t-50 -38.5t-51.5 -26l-18 -80h-104l-9 147q31 7 55.5 16.5t43 23t30 30.5t11.5 38q0 38 -25.5 62t-76.5 15t-105 -54 z" />
<glyph unicode="&#x1ef7;" horiz-adv-x="1134" d="M28 1104h303l199 -694q10 -31 16 -63t10 -56q7 -29 9 -55h4q2 26 8 55q4 24 11 56t18 63l198 694h301l-555 -1544h-280l157 440zM408 1559q33 31 79 48t86 17q97 8 161 -43t64 -141q0 -37 -14 -66t-36 -51.5t-50 -38.5t-52 -26l-18 -80h-103l-9 147q30 7 55 16.5t43.5 23 t30 30.5t11.5 38q0 38 -26 62t-77 15t-104 -54z" />
<glyph unicode="&#x1ef8;" horiz-adv-x="1150" d="M14 1483h299l258 -611h4l262 611h299l-424 -901v-582h-276v582zM328 1598q4 81 41 144t109 76q31 6 77 -8.5t85.5 -37.5t71 -28t51.5 9t41 66l95 -18q1 -83 -44.5 -150t-96.5 -74t-120 27q-48 25 -103.5 46.5t-83 -14.5t-35.5 -63z" />
<glyph unicode="&#x1ef9;" horiz-adv-x="1134" d="M28 1104h303l199 -694q10 -31 16 -63t10 -56q7 -29 9 -55h4q2 26 8 55q4 24 11 56t18 63l198 694h301l-555 -1544h-280l157 440zM298 1222q4 81 41.5 144t108.5 76q32 6 77.5 -8.5t85.5 -37.5t71.5 -28t51 9t40.5 66l95 -18q1 -83 -44 -150t-96 -74t-120 27 q-49 25 -104.5 46.5t-82.5 -14.5t-36 -63z" />
<glyph unicode="&#x2000;" horiz-adv-x="1116" />
<glyph unicode="&#x2001;" horiz-adv-x="2232" />
<glyph unicode="&#x2002;" horiz-adv-x="1116" />
<glyph unicode="&#x2003;" horiz-adv-x="2232" />
<glyph unicode="&#x2004;" horiz-adv-x="744" />
<glyph unicode="&#x2005;" horiz-adv-x="558" />
<glyph unicode="&#x2006;" horiz-adv-x="372" />
<glyph unicode="&#x2007;" horiz-adv-x="372" />
<glyph unicode="&#x2008;" horiz-adv-x="279" />
<glyph unicode="&#x2009;" horiz-adv-x="446" />
<glyph unicode="&#x200a;" horiz-adv-x="124" />
<glyph unicode="&#x2010;" horiz-adv-x="786" d="M112 547v237h561v-237h-561z" />
<glyph unicode="&#x2011;" horiz-adv-x="786" d="M112 547v237h561v-237h-561z" />
<glyph unicode="&#x2012;" horiz-adv-x="786" d="M112 547v237h561v-237h-561z" />
<glyph unicode="&#x2013;" horiz-adv-x="823" d="M-8 557v217h840v-217h-840z" />
<glyph unicode="&#x2014;" horiz-adv-x="1646" d="M139 557v217h1368v-217h-1368z" />
<glyph unicode="&#x2018;" horiz-adv-x="608" d="M73 1026l281 582h180l-182 -582q-27 -41 -68 -69.5t-96 -28.5q-54 0 -82.5 30.5t-32.5 67.5z" />
<glyph unicode="&#x2019;" horiz-adv-x="608" d="M73 942l182 582q27 41 67 69.5t95 28.5q53 0 83 -30.5t34 -67.5l-281 -582h-180z" />
<glyph unicode="&#x201c;" horiz-adv-x="1038" d="M73 1026l281 582h180l-182 -582q-27 -41 -68 -69.5t-96 -28.5q-54 0 -82.5 30.5t-32.5 67.5zM503 1026l281 582h180l-182 -582q-27 -41 -67 -69.5t-95 -28.5q-53 0 -83 30.5t-34 67.5z" />
<glyph unicode="&#x201d;" horiz-adv-x="1038" d="M73 942l182 582q27 41 67 69.5t95 28.5q53 0 83 -30.5t34 -67.5l-281 -582h-180zM503 942l182 582q27 41 67 69.5t95 28.5q53 0 83 -30.5t34 -67.5l-281 -582h-180z" />
<glyph unicode="&#x2026;" horiz-adv-x="1599" d="M98 158q0 37 13.5 68.5t36 55t54 38t66.5 14.5t65.5 -14.5t53 -38t36 -55t13.5 -68.5t-13.5 -69t-36 -55.5t-53 -37.5t-65.5 -14t-66.5 14t-54 37.5t-36 55.5t-13.5 69zM630 158q0 37 13.5 68.5t37 55t54.5 38t65 14.5q35 0 66 -14.5t53.5 -38t35.5 -55t13 -68.5t-13 -69 t-35.5 -55.5t-53.5 -37.5t-66 -14q-34 0 -65 14t-54.5 37.5t-37 55.5t-13.5 69zM1163 158q0 37 13.5 68.5t37 55t54 38t65.5 14.5t65.5 -14.5t53 -38t36 -55t13.5 -68.5t-13.5 -69t-36 -55.5t-53 -37.5t-65.5 -14t-65.5 14t-54 37.5t-37 55.5t-13.5 69z" />
<glyph unicode="&#x202f;" horiz-adv-x="446" />
<glyph unicode="&#x205f;" horiz-adv-x="558" />
<glyph unicode="&#x25fc;" horiz-adv-x="1105" d="M0 0v1105h1105v-1105h-1105z" />
</font>
</defs>
</svg>
