<?xml version="1.0" standalone="no"?>
<!DOCTYPE svg PUBLIC "-//W3C//DTD SVG 1.1//EN" "http://www.w3.org/Graphics/SVG/1.1/DTD/svg11.dtd" >
<svg>
<metadata>
Created by FontForge 20110222 at Fri Sep 12 11:02:33 2014
 By deploy user
Copyright (c) 2011 by RMA. All rights reserved.
</metadata>
<defs>
<font id="JambonoVNMedium" horiz-adv-x="300" >
  <font-face 
    font-family="JambonoVN Medium"
    font-weight="400"
    font-stretch="normal"
    units-per-em="1000"
    panose-1="2 0 6 3 5 0 0 2 0 4"
    ascent="800"
    descent="-200"
    x-height="542.5"
    cap-height="771"
    bbox="-90 -251 1217 1268.27"
    underline-thickness="50"
    underline-position="-50"
    unicode-range="U+0020-FB04"
  />
<missing-glyph horiz-adv-x="1000" 
 />
    <glyph glyph-name=".notdef" horiz-adv-x="1000" 
 />
    <glyph glyph-name=".null" horiz-adv-x="0" 
 />
    <glyph glyph-name="nonmarkingreturn" horiz-adv-x="202" 
 />
    <glyph glyph-name="space" unicode=" " horiz-adv-x="253" 
 />
    <glyph glyph-name="numbersign" unicode="#" horiz-adv-x="600" 
d="M574 351q-22 -7 -52 -11t-53 -6q-5 -27 -9 -49t-9 -51q31 2 55 7t49 11l1 -104q-23 -7 -49 -10.5t-65 -6.5q-3 -34 -2 -64.5t4 -53.5l-117 -11q-3 21 -4.5 53.5t1.5 71.5q-29 0 -48.5 0.5t-47.5 1.5q-2 -35 -1 -68.5t4 -48.5l-117 -11q-4 23 -6 57t2 72q-25 0 -44.5 -1.5
t-42.5 -5.5l1 104q24 3 45.5 4.5t49.5 1.5q4 27 9 48.5t10 50.5q-28 0 -50 -1.5t-45 -5.5l1 104q27 4 52 5t56 1q5 34 8 60.5t2 48.5l119 12q0 -26 -3.5 -57.5t-8.5 -64.5q29 -1 49 -2t47 0q6 35 9 62t2 51l118 11q0 -27 -2.5 -56t-7.5 -62q7 1 19.5 2.5t26 3.5t26 4t19.5 4
zM351 330h-49.5t-47.5 1q-5 -27 -9 -48.5t-9 -49.5q29 -1 49.5 -1.5t48.5 -0.5q4 27 8 48.5t9 50.5z" />
    <glyph glyph-name="dollar" unicode="$" horiz-adv-x="530" 
d="M492 172q-1 -36 -18 -66t-45.5 -51.5t-67.5 -35t-84 -17.5l-6 -68h-102l6 66q-37 2 -77.5 9.5t-82.5 22.5l25 116q17 -8 42 -14.5t52 -12t54.5 -9t49.5 -3.5q46 -1 73 13.5t28 36.5t-20.5 35.5t-54.5 23.5t-71 21t-70.5 29.5t-53.5 47.5t-19 75q1 34 17 61.5t43 48t62 33
t74 15.5l6 64h101l-5 -64q33 -2 61 -5.5t62 -11.5l-2 -120q-22 8 -46.5 14t-48.5 10t-46 6.5t-40 2.5q-47 1 -67 -12.5t-21 -29.5q-1 -20 21 -31.5t55 -21t71.5 -20.5t71 -30t54 -49.5t19.5 -78.5z" />
    <glyph glyph-name="percent" unicode="%" horiz-adv-x="848" 
d="M804 186q0 -50 -15 -87.5t-40.5 -63t-60.5 -38.5t-75 -13q-66 0 -105 34.5t-39 109.5q0 47 13.5 84t38.5 63t60.5 39.5t78.5 13.5q64 0 104 -34t40 -108zM381 415q0 -50 -15 -87.5t-40.5 -63t-60.5 -38.5t-75 -13q-66 0 -105 34.5t-39 109.5q0 47 14 84t39 63t60.5 39.5
t78.5 13.5q64 0 103.5 -34t39.5 -108zM697 557q-55 -84 -108 -150.5t-106.5 -129t-109 -128.5t-114.5 -149l-107 -14q58 87 117 160t116 140t109 130.5t97 131.5zM268 415q-1 38 -12.5 55t-33.5 17q-26 0 -43.5 -33t-16.5 -99q0 -32 11 -52t34 -20q27 0 45 31t16 101z
M691 186q-1 38 -12.5 55t-33.5 17q-26 0 -43.5 -33t-16.5 -99q0 -32 11 -52t34 -20q27 0 45 31t16 101z" />
    <glyph glyph-name="ampersand" unicode="&#x26;" horiz-adv-x="847" 
d="M839 75q-5 -6 -29.5 -21t-52.5 -31q-33 -18 -73 -40q-9 5 -28.5 16.5t-40.5 25t-40.5 26.5t-28.5 21q-51 -42 -120.5 -65.5t-159.5 -23.5q-54 0 -97 16t-73 45t-46.5 71t-16.5 95q0 68 30 121.5t80 84.5q5 1 15.5 2.5t22.5 3t23.5 2.5t17.5 1q-19 36 -25.5 73t-6.5 60
q0 51 16.5 90.5t45.5 67.5t68.5 42.5t85.5 14.5q51 0 97 -9t88 -32l-48 -115q-26 18 -58 28.5t-61 10.5t-50.5 -21t-23.5 -63q-2 -58 53 -142t162 -178q36 38 71 89.5t70 120.5l95 -103q-29 -54 -61.5 -99t-69.5 -83q36 -26 76.5 -51t92.5 -51zM442 157q-52 45 -97.5 97.5
t-79.5 103.5q-16 -10 -29 -25.5t-22.5 -34.5t-14.5 -39.5t-5 -39.5q0 -53 32.5 -81.5t80.5 -28.5q35 0 71 12.5t64 35.5z" />
    <glyph glyph-name="quoteright" unicode="&#x2019;" horiz-adv-x="270" 
d="M247 755q5 -41 0.5 -81.5t-19 -77t-39 -65.5t-57.5 -47l-87 32q23 22 36.5 48.5t19.5 54.5t7 56t-1 53l140 27v0z" />
    <glyph glyph-name="parenleft" unicode="(" horiz-adv-x="343" 
d="M329 763q-52 -130 -86.5 -266t-34.5 -277q0 -90 17 -177t49 -171l-129 -40q-47 95 -71.5 196.5t-24.5 207.5q0 131 36.5 256.5t100.5 239.5l143 31v0z" />
    <glyph glyph-name="parenright" unicode=")" horiz-adv-x="343" 
d="M289 361q0 -132 -36 -257.5t-101 -239.5l-143 -32q53 131 87 266.5t34 276.5q0 180 -65 348l129 41q47 -94 71 -195.5t24 -207.5z" />
    <glyph glyph-name="asterisk" unicode="*" horiz-adv-x="550" 
d="M357 545l107 -99l-117 -82l-75 123l-97 -123l-103 83l121 99l-134 66l75 99l99 -78l-7 139l136 2l-31 -141l110 71l59 -98z" />
    <glyph glyph-name="plus" unicode="+" horiz-adv-x="611" 
d="M543 217q-44 -2 -90 -1.5t-90 1.5q-5 -54 -9 -105.5t-6 -104.5l-134 -14q1 58 4 114t8 114q-43 2 -85.5 1.5t-91.5 0.5l1 116q52 2 97.5 1.5t91.5 -1.5q5 48 8.5 99t7.5 99l132 6q-2 -54 -5 -104.5t-8 -102.5q15 0 37.5 -0.5t46.5 -0.5h48h43z" />
    <glyph glyph-name="comma" unicode="," horiz-adv-x="285" 
d="M226 126q8 -81 -20 -152t-93 -119l-96 48q36 38 48 92t7 106l154 25v0z" />
    <glyph glyph-name="hyphen" unicode="-" horiz-adv-x="391" 
d="M323 231q-35 -5 -70 -3.5t-70 4.5t-70 4.5t-71 -2.5l17 128q35 6 70 5t70.5 -4t70.5 -5.5t70 0.5z" />
    <glyph glyph-name="period" unicode="." horiz-adv-x="280" 
d="M218 59q0 -22 -8.5 -38.5t-23 -28t-32 -17t-33.5 -5.5q-15 0 -29 4t-25.5 13t-19 22.5t-7.5 32.5q0 22 8 39.5t21.5 29t30.5 17.5t35 6q32 0 57 -18.5t26 -56.5z" />
    <glyph glyph-name="slash" unicode="/" horiz-adv-x="477" 
d="M488 742q-36 -102 -86 -192t-105 -177.5t-110.5 -178.5t-101.5 -194l-102 9q34 102 84.5 192.5t105.5 178.5t110 179t100 195l105 -12v0z" />
    <glyph glyph-name="zero" unicode="0" horiz-adv-x="739" 
d="M710 455q0 -90 -25.5 -175t-76 -150.5t-125 -105.5t-172.5 -40q-75 0 -128.5 24t-87.5 67t-50 102t-16 129q0 91 25 175.5t75 149.5t124.5 104t173.5 39q73 0 126.5 -24t88.5 -66.5t51.5 -101t16.5 -127.5zM537 451q0 34 -5.5 71t-21 67.5t-42.5 50t-70 19.5
q-40 0 -70 -18t-52 -47t-36.5 -66.5t-23 -76.5t-12 -77t-3.5 -68q0 -32 5 -68t19 -66t39.5 -50t66.5 -20q43 0 75 17t54.5 44.5t37.5 64t23.5 75t12 77t3.5 71.5z" />
    <glyph glyph-name="one" unicode="1" horiz-adv-x="553" 
d="M487 1l-424 -13l5 118q7 0 28 1t46 2t48 2t34 1q1 20 4 58.5t6.5 86t7.5 99.5t8 97.5t6.5 80.5t4.5 49l-143 -40l-29 112l215 73l127 11q-1 -34 -4 -85t-8 -109.5t-11 -121.5t-11 -120.5t-9 -106.5t-5 -80q10 0 27 0.5t35 1.5t33 1.5t20 0.5z" />
    <glyph glyph-name="two" unicode="2" horiz-adv-x="565" 
d="M491 -10q-23 -2 -50.5 -2.5t-50.5 -0.5q-85 0 -171 6t-170 19l-12 108q55 30 112.5 70.5t102 89.5t69 105.5t14.5 119.5q-7 41 -33.5 62t-63.5 28.5t-78 4t-76 -10.5l26 126q28 5 63.5 7t64.5 2q49 0 93 -10.5t78.5 -33t57.5 -57t30 -83.5q8 -56 0.5 -105.5t-25.5 -91.5
t-43.5 -77t-54 -63t-57 -49.5t-52.5 -35.5q63 -6 126 -8t126 3z" />
    <glyph glyph-name="three" unicode="3" horiz-adv-x="579" 
d="M534 224q-1 -60 -33.5 -104.5t-83.5 -74t-114 -44t-126 -14.5q-30 0 -66.5 2.5t-63.5 10.5l-5 134q14 -6 32 -10.5t37.5 -7.5t38.5 -4.5t35 -1.5q25 0 54.5 5.5t55 18t42.5 33.5t18 52q1 35 -21.5 56.5t-55.5 33t-69.5 14.5t-63.5 0l-3 121q8 -1 19 -1h19q33 0 64.5 5
t56 16t40 28.5t16.5 42.5q1 28 -17 44.5t-43.5 25.5t-54 12t-49.5 3q-46 0 -89 -6l26 120q31 5 68.5 7.5t69.5 2.5q50 0 98 -9t84.5 -29t59 -52t21.5 -78q-1 -35 -15 -64.5t-38.5 -52t-57.5 -38.5t-70 -23q38 -2 71.5 -14.5t59 -35t40 -53.5t13.5 -71z" />
    <glyph glyph-name="four" unicode="4" horiz-adv-x="638" 
d="M590 186q-4 -1 -17.5 -1.5t-31.5 -1t-37 -1t-32 -1.5q-2 -17 -4 -41t-4.5 -49t-4 -47t-1.5 -35l-145 -19q0 17 1.5 40.5t4 50t5.5 52.5t5 47q-40 1 -81.5 2.5t-79.5 4t-70.5 6t-55.5 6.5l-7 117q21 60 51.5 109.5t61 96t57 93.5t39.5 104l152 26q-14 -76 -43.5 -135
t-62 -109t-62 -95.5t-44.5 -94.5q14 -2 35.5 -3t44.5 -1.5t45.5 -1t39.5 -0.5q12 65 21.5 113.5t16.5 87.5l138 11q-2 -20 -5.5 -47t-8 -55.5t-9 -56.5t-8.5 -50h21.5t32 0.5t30.5 1t19 1.5z" />
    <glyph glyph-name="five" unicode="5" horiz-adv-x="596" 
d="M560 745q-1 -4 -5 -24t-9.5 -42.5t-9.5 -42.5t-5 -24q-29 -5 -63 -7t-69.5 -3t-71 -1.5t-65.5 -2.5q-10 -38 -17.5 -75.5t-9.5 -68.5q7 0 13.5 0.5t13.5 0.5q49 0 98.5 -9.5t88 -32t62 -60t22.5 -93.5q-2 -70 -33.5 -121.5t-80.5 -85t-110.5 -50t-123.5 -16.5
q-16 0 -33.5 1t-35.5 3t-34.5 6t-29.5 9l-6 132q26 -12 61.5 -18t67.5 -6q29 0 61 7.5t59 23t45 40t19 57.5t-16.5 54t-44 33t-57.5 16.5t-56 4.5q-58 0 -111 -14q5 94 19.5 191t40.5 191q51 6 104 8.5t107 4.5t108 4.5t107 9.5z" />
    <glyph glyph-name="six" unicode="6" horiz-adv-x="624" 
d="M580 667q-50 -9 -97.5 -30.5t-89 -52t-75 -68.5t-53.5 -79q21 9 51.5 18t53.5 17q46 0 84 -17t64.5 -46.5t40.5 -69.5t14 -86q-1 -63 -23.5 -112.5t-61.5 -84t-92.5 -53t-114.5 -18.5q-59 0 -103 20t-73 55t-43 82t-13 101q1 97 37.5 184t96 156t135.5 116t157 63z
M407 230q0 24 -7 50t-21 47.5t-35.5 35t-50.5 13.5q-14 0 -26.5 -2.5t-25.5 -6.5q-11 -30 -16.5 -61t-5.5 -63q0 -20 3.5 -45.5t13 -48.5t26.5 -39t44 -16t46 13t31.5 33t18 44t5.5 46z" />
    <glyph glyph-name="seven" unicode="7" horiz-adv-x="574" 
d="M546 593q-61 -47 -118 -111t-103.5 -141.5t-80.5 -167.5t-50 -190l-138 31q7 82 34.5 165.5t67 160t88 142t97.5 111.5q-31 4 -68 5t-76 -0.5t-79 -5t-76 -8.5l17 135q132 14 246 10.5t228 -22.5l11 -114v0z" />
    <glyph glyph-name="eight" unicode="8" horiz-adv-x="632" 
d="M587 583q-1 -24 -8 -48.5t-20 -46.5t-30 -39.5t-37 -27.5q-2 0 -11.5 -1.5t-21.5 -3t-23.5 -3t-15.5 -2.5q76 -38 118 -90t38 -121q-2 -47 -23.5 -86.5t-59.5 -68t-90.5 -44.5t-117.5 -16q-54 0 -99 12t-76.5 36.5t-48.5 61.5t-15 85q2 55 25 97.5t55 67.5q18 6 34 10
q14 4 27.5 8t21.5 8q-57 35 -85.5 82.5t-26.5 103.5q1 50 22 89t56.5 65.5t83 40.5t102.5 14q51 0 93.5 -12.5t72.5 -35.5t45.5 -57.5t14.5 -77.5zM414 185q1 28 -10.5 49.5t-31 38.5t-43.5 30.5t-48 25.5q-15 -10 -28 -24.5t-22.5 -31t-16 -34.5t-7.5 -35
q-4 -51 23.5 -80.5t72.5 -29.5q48 0 78.5 25t32.5 66zM436 573q0 21 -7.5 36.5t-20.5 26.5t-29 16.5t-33 5.5q-37 0 -65 -21t-31 -63q-3 -44 23 -73t76 -55q39 19 62.5 52t24.5 75z" />
    <glyph glyph-name="nine" unicode="9" horiz-adv-x="624" 
d="M575 489q-1 -97 -36.5 -183t-94 -153t-133.5 -111.5t-156 -57.5l-110 96q48 10 95 31t89 50t75.5 64.5t53.5 74.5q-10 -5 -23 -10t-27 -10t-28 -9.5t-26 -8.5q-46 0 -83.5 17t-64.5 46.5t-41 69.5t-14 85q1 62 24 111.5t63 84.5t93 53.5t113 18.5q59 0 103 -20.5
t72.5 -55.5t42.5 -82t13 -101zM405 493q0 19 -4 44.5t-13.5 48.5t-26.5 39t-43 16q-27 0 -46 -13.5t-31 -33.5t-18 -44t-6 -46q0 -25 6.5 -50t20 -45.5t34.5 -33.5t51 -13q27 0 53 9q11 29 17 60t6 62z" />
    <glyph glyph-name="colon" unicode=":" horiz-adv-x="299" 
d="M248 426q0 -22 -8.5 -38.5t-23 -28t-32 -17t-33.5 -5.5q-15 0 -29 4t-25.5 13t-19 22.5t-7.5 32.5q0 22 8 39.5t21.5 29t30.5 17.5t35 6q32 0 57 -18.5t26 -56.5zM213 58q0 -22 -8.5 -38.5t-23 -28t-32 -17t-33.5 -5.5q-15 0 -29 4t-25.5 13t-19 22.5t-7.5 32.5
q0 22 8 39.5t21.5 29t30.5 17.5t35 6q32 0 57 -18.5t26 -56.5z" />
    <glyph glyph-name="semicolon" unicode=";" horiz-adv-x="299" 
d="M220 126q8 -81 -20 -152t-93 -119l-96 48q36 38 48 92t7 106zM256 426q0 -22 -8.5 -38.5t-23 -28t-32 -17t-33.5 -5.5q-15 0 -29 4t-25.5 13t-19 22.5t-7.5 32.5q0 22 8 39.5t21.5 29t30.5 17.5t35 6q32 0 57 -18.5t26 -56.5z" />
    <glyph glyph-name="less" unicode="&#x3c;" horiz-adv-x="438" 
d="M399 453q-57 -40 -115.5 -84t-101.5 -86q19 -23 43.5 -47t51.5 -48t55 -48t54 -47l-95 -83q-25 19 -58 45.5t-67 55.5t-63.5 58.5t-47.5 53.5l-6 104q25 23 58.5 51t69 56t70 54t61.5 45l91 -80v0z" />
    <glyph glyph-name="equal" unicode="=" horiz-adv-x="608" 
d="M530 322q-59 -3 -111.5 -3t-105 1.5t-107.5 4t-118 3.5l11 113q62 2 115.5 1t104 -3t102.5 -3.5t111 0.5zM516 89q-58 -3 -110.5 -2.5t-105 2t-107.5 4t-118 3.5l10 112q62 2 115.5 1t104.5 -2.5t103 -3t112 0.5z" />
    <glyph glyph-name="greater" unicode="&#x3e;" horiz-adv-x="438" 
d="M389 216q-25 -23 -58.5 -51t-69 -56t-70 -54t-61.5 -45l-91 80q57 40 115.5 84t101.5 86q-19 23 -43.5 47t-51.5 48t-55 48t-54 47l95 83q25 -19 58 -45.5t67 -56t63.5 -58.5t47.5 -53l6 -104v0z" />
    <glyph glyph-name="question" unicode="?" horiz-adv-x="388" 
d="M393 521q-2 -46 -21 -83t-45.5 -72t-54.5 -71.5t-47 -80.5l-131 33q14 41 36 74t42.5 63.5t35 60.5t13.5 65q0 29 -14.5 50.5t-39 36t-57.5 21.5t-71 7l37 117q67 0 126 -13.5t102 -40.5t67 -68.5t22 -98.5zM222 59q0 -22 -8.5 -38.5t-23 -28t-32 -17t-33.5 -5.5
q-15 0 -29 4t-25.5 13t-19 22.5t-7.5 32.5q0 22 8 39.5t21.5 29t30.5 17.5t35 6q32 0 57 -18.5t26 -56.5z" />
    <glyph glyph-name="at" unicode="@" horiz-adv-x="853" 
d="M827 346q1 -60 -17.5 -111t-51.5 -88t-78 -58t-96 -21q-43 0 -75 16.5t-49 50.5q-14 -15 -32 -29.5t-33 -23.5q-36 -4 -65 5t-49 28.5t-31 47t-11 59.5q0 54 18 99.5t49 77.5t72 50t86 18q29 0 63 -6.5t65 -20.5q-4 -24 -9 -54.5t-10 -60.5t-8.5 -57.5t-4.5 -46.5
q-2 -30 5 -48t32 -18q14 0 32.5 11.5t34 34.5t26.5 58.5t10 83.5q-1 57 -20.5 95.5t-51 62.5t-72.5 34.5t-84 10.5q-65 0 -121.5 -22.5t-98.5 -64t-66 -101t-24 -133.5q0 -63 21 -105t53 -67t70 -35.5t73 -10.5q24 0 49 3t47 9l18 -95q-28 -10 -61 -14.5t-68 -4.5
q-70 0 -131.5 18.5t-107.5 57.5t-72.5 100t-26.5 147q0 95 35 171.5t96.5 130t145 82t179.5 28.5q65 0 126.5 -17.5t109.5 -54t77.5 -92t31.5 -130.5zM473 395q-8 3 -16.5 4.5t-16.5 1.5q-17 0 -32 -14.5t-26 -38t-17.5 -54t-6.5 -63.5q0 -40 12.5 -58t35.5 -18q13 0 23 6.5
t18 17.5q1 24 4 51.5t6.5 55.5t7.5 56t8 53z" />
    <glyph glyph-name="A" unicode="A" horiz-adv-x="662" 
d="M490 -20q-17 32 -32 79.5t-29 107.5q-23 0 -49 -1.5t-52 -3.5t-50 -4.5t-43 -5.5l-40 62q-12 -27 -22 -51.5t-19 -48.5t-18.5 -49.5t-19.5 -54.5l-160 -23q29 96 70.5 198t90 203t100.5 196.5t101 177.5l136 20q27 -92 48.5 -197t43.5 -207.5t47 -194t59 -154.5zM405 295
q-6 28 -11.5 56t-11.5 59t-13 66.5t-16 79.5q-35 -67 -67.5 -133.5t-65.5 -142.5q40 5 88.5 10t96.5 5z" />
    <glyph glyph-name="B" unicode="B" horiz-adv-x="684" 
d="M648 236q0 -68 -25.5 -116.5t-68.5 -80t-99.5 -46.5t-118.5 -15q-24 0 -55.5 3t-56.5 9l-45 43q-10 -5 -28.5 -12.5t-39 -14.5t-40 -13t-31.5 -7q10 76 22.5 162t25 171t22 163t13.5 139q-6 -1 -14.5 -2.5t-17.5 -3t-16 -3t-10 -2.5q-4 29 -5.5 61.5t-0.5 60.5
q79 20 157.5 31.5t156.5 11.5q47 0 92 -8.5t80.5 -28.5t57 -54t21.5 -86q0 -35 -11 -66.5t-31 -55.5t-48.5 -40.5t-63.5 -21.5v-6q38 -2 70.5 -15.5t56.5 -36t37.5 -53t13.5 -67.5zM482 219q0 33 -13 55t-34 35.5t-47.5 19t-53.5 6.5h-24t-24 -1l-37 38q-4 -30 -8.5 -65.5
t-9.5 -71t-10.5 -68.5t-9.5 -58q21 -9 51 -14.5t56 -5.5q31 0 60.5 7t52.5 23t37 40.5t14 59.5zM466 572q0 26 -10 42.5t-26.5 25.5t-37 12.5t-42.5 3.5q-16 0 -35.5 -2.5t-37.5 -6.5q-2 -40 -6 -89.5t-11 -99.5q34 -5 70.5 -1t66.5 17.5t49.5 37.5t19.5 60z" />
    <glyph glyph-name="C" unicode="C" horiz-adv-x="613" 
d="M492 559q-14 42 -40 69t-71 27q-32 0 -63 -23t-56 -65t-41 -101t-19 -130q-2 -50 6.5 -91t28 -70t50.5 -45t74 -16q24 0 50.5 5.5t52.5 15t50 22.5t43 28l9 -134q-55 -37 -125 -52t-148 -15q-63 0 -112 23.5t-82.5 66.5t-51.5 102.5t-18 130.5q0 107 30.5 193.5t82 147
t119 93.5t142.5 33q88 0 143 -32.5t72 -110.5z" />
    <glyph glyph-name="D" unicode="D" horiz-adv-x="771" 
d="M743 433q1 -92 -29.5 -174.5t-87 -144.5t-136 -98.5t-176.5 -36.5q-18 0 -42 1.5t-44 4.5l-41 47l-147 -50q27 162 48 320t35 324l-58 -13q-4 30 -5 63.5t-1 54.5q72 21 155.5 32t161.5 11q83 0 150 -22t115 -65.5t74 -107t28 -146.5zM575 420q-2 115 -65 175.5
t-181 60.5q-8 0 -21.5 -0.5t-27.5 -2t-28 -3.5t-24 -5q9 -9 18 -17q8 -8 16 -15.5t14 -14.5q-11 -128 -26 -249.5t-38 -245.5q10 -3 23 -5t25 -3t21.5 -1.5t12.5 -0.5q69 0 121.5 28t88.5 74t54 104.5t17 120.5z" />
    <glyph glyph-name="E" unicode="E" horiz-adv-x="598" 
d="M577 653q-42 3 -81 1.5t-75.5 -6.5t-72.5 -11.5t-73 -12.5q-3 -46 -7.5 -88.5t-11.5 -91.5q22 2 53 5.5t66 7t71 6t69 4.5l5 -128q-29 -2 -62 -4.5t-65 -5.5t-62 -6t-53 -5l-35 36q-4 -28 -6.5 -54t-3.5 -52q-1 -34 5 -59t21 -41t39.5 -23.5t61.5 -7.5q27 0 57 5t58 13.5
t52 18.5t41 21l4 -143q-20 -10 -50 -19t-65 -15.5t-74.5 -10t-78.5 -3.5q-49 0 -92.5 11.5t-75.5 38t-50.5 68.5t-16.5 104q1 39 7 85t14 94.5t16 97.5t13 94q12 7 22 14q8 6 16 11.5t12 9.5q-8 -2 -21.5 -4t-28.5 -4.5t-30 -3.5t-25 -1q-3 27 -5 60.5t0 60.5q61 6 122 18
t121.5 22.5t122 16t123.5 -0.5l29 -123v0z" />
    <glyph glyph-name="F" unicode="F" horiz-adv-x="527" 
d="M539 662q-39 -1 -75 -5.5t-71.5 -10.5t-72 -12t-76.5 -10q31 -10 60 -28l-24 -165q22 0 49.5 1.5t56.5 3.5t57.5 4t52.5 5l-14 -124q-21 -3 -48 -4.5t-55.5 -3t-57.5 -2.5t-55 -1q-5 -45 -9.5 -84.5t-6.5 -78.5q-2 -35 -1.5 -74.5t5.5 -67.5l-154 -17q-8 37 -9 79.5
t1 82.5q2 37 6 75t10 85h-59l26 120h47l28 180q-28 -4 -48.5 -4.5t-46.5 -1.5l-24 124q51 3 93.5 8.5t81 12t75.5 13t79.5 12.5t91.5 10t112 6z" />
    <glyph glyph-name="G" unicode="G" horiz-adv-x="691" 
d="M657 301q-24 -101 -29 -200t15 -197l-152 -13q-4 18 -7 33.5t-4.5 32.5t-2.5 36t-1 45q-39 -29 -78.5 -40.5t-93.5 -11.5q-70 0 -121.5 26.5t-85 70.5t-50.5 102t-18 120q-2 83 22.5 166.5t72.5 151t119.5 109.5t164.5 42q41 0 78 -7t68 -23.5t53.5 -44t35.5 -69.5
l-125 -71q-14 45 -46 71t-82 26q-34 0 -61 -17.5t-48 -45.5t-36.5 -63.5t-25 -73t-14.5 -74t-5 -64.5q0 -36 7.5 -72.5t25.5 -66.5t47.5 -49t73.5 -19q37 0 69 15.5t55 47.5q4 43 11 76t20 72l148 -21v0z" />
    <glyph glyph-name="H" unicode="H" horiz-adv-x="755" 
d="M724 772q-18 -89 -32.5 -186.5t-22 -195.5t-8 -191.5t8.5 -172.5l-155 -38q-8 68 -10.5 148t2.5 176q-24 -5 -56.5 -7.5t-65.5 -4t-63 -1.5h-49l-38 66q-11 -89 -16.5 -181.5t-1.5 -172.5l-155 -26q-8 97 -2.5 191t17.5 186.5t25.5 185t20.5 188.5l152 35
q-1 -82 -9 -162.5t-20 -168.5q31 -3 65.5 -3.5t70 1t70.5 4t65 7.5q10 84 22.5 162t29.5 138l155 23v0z" />
    <glyph glyph-name="I" unicode="I" horiz-adv-x="318" 
d="M278 771q0 -97 -11.5 -191t-23.5 -187.5t-20 -187.5t-2 -191l-157 -29q-9 97 -3.5 190.5t17.5 186.5t26 186t21 188l153 35v0z" />
    <glyph glyph-name="J" unicode="J" horiz-adv-x="424" 
d="M399 674q-14 -16 -24 -51t-16.5 -82t-10 -103t-4.5 -115q-2 -69 -11 -138.5t-28.5 -132.5t-51.5 -117t-80 -92l-128 50q32 31 55 68.5t38.5 79.5t25 87.5t14.5 92.5q4 45 7.5 91t6.5 91.5t5.5 88.5t6.5 81q16 17 36 34t36 32q-79 -5 -133 -14.5t-97 -21.5l-28 128
q62 17 149 26.5t184 4.5l48 -88v0z" />
    <glyph glyph-name="K" unicode="K" horiz-adv-x="668" 
d="M667 711q-32 -26 -70.5 -60t-78.5 -73t-78.5 -81.5t-70.5 -83.5q32 -35 64.5 -74t67 -80.5t72.5 -84t81 -82.5l-121 -108q-43 42 -82 88t-76 93.5t-74 94.5t-75 89q-11 -91 -17.5 -171.5t-1.5 -165.5l-151 -28q-9 97 -3 191t18 187t25.5 186t20.5 189l149 34
q-2 -72 -9 -148t-18 -162q72 97 149.5 176.5t149.5 135.5l129 -62v0z" />
    <glyph glyph-name="L" unicode="L" horiz-adv-x="535" 
d="M522 22q-25 -10 -57.5 -17t-67 -11.5t-69 -7t-63.5 -2.5q-46 0 -85.5 11.5t-68 38t-44 69t-13.5 103.5q2 59 11 129t20 141t20 138.5t11 121.5l153 34q-1 -78 -9 -153t-17 -144t-16.5 -129.5t-8.5 -108.5q-2 -55 24.5 -84.5t94.5 -29.5q21 0 46.5 3.5t50.5 9.5t47 13.5
t36 15.5l5 -141v0z" />
    <glyph glyph-name="M" unicode="M" horiz-adv-x="889" 
d="M692 -17q-16 36 -24 83.5t-10.5 104.5t0 122.5t8.5 136.5h-6q-31 -59 -60.5 -119.5t-54 -113t-42 -93.5t-23.5 -61l-126 -34q-16 40 -29 86t-25 100.5t-25 118.5t-29 140h-6q-33 -128 -55 -237t-27 -210q-3 -1 -19 -3t-38 -5.5t-46 -7t-43 -7.5q0 101 18.5 195t43.5 186
t51.5 184t42.5 189l132 33q21 -60 37.5 -124.5t31.5 -132t30.5 -138.5t35.5 -143q31 58 67.5 129.5t71.5 143t66 135t50 104.5l153 27q-7 -57 -14.5 -124t-12.5 -137.5t-7.5 -141.5t0 -136.5t10.5 -122.5t24 -100z" />
    <glyph glyph-name="N" unicode="N" horiz-adv-x="774" 
d="M727 741q2 -91 -6.5 -182t-21.5 -182t-27 -181t-24 -178l-123 -39q-52 139 -127 273.5t-154 259.5q-28 -142 -44.5 -268.5t-15.5 -234.5q-3 -1 -18.5 -3.5t-36.5 -6.5t-44.5 -8t-42.5 -8q-3 99 8.5 193t28 187t35 186t30.5 189l129 31q23 -50 55.5 -108t69 -122
t74.5 -132t72 -138q20 150 30 275t11 220l142 -23v0z" />
    <glyph glyph-name="O" unicode="O" horiz-adv-x="738" 
d="M710 455q0 -90 -25.5 -175t-76 -150.5t-125 -105.5t-172.5 -40q-75 0 -128.5 24t-87.5 67t-50 102t-16 129q0 91 25 175.5t75 149.5t124.5 104t173.5 39q73 0 126.5 -24t88.5 -66.5t51.5 -101t16.5 -127.5zM537 451q0 34 -5.5 71t-21 67.5t-42.5 50t-70 19.5
q-40 0 -70 -18t-52 -47t-36.5 -66.5t-23 -76.5t-12 -77t-3.5 -68q0 -32 5 -68t19 -66t39.5 -50t66.5 -20q43 0 75 17t54.5 44.5t37.5 64t23.5 75t12 77t3.5 71.5z" />
    <glyph glyph-name="P" unicode="P" horiz-adv-x="649" 
d="M630 560q0 -67 -24 -119.5t-65 -89t-95 -55.5t-115 -19h-16.5t-21.5 2q-12 11 -27.5 27.5t-22.5 24.5q-11 -74 -18.5 -155t2.5 -161l-156 -32q-8 69 -4.5 144.5t12.5 152.5t20.5 154.5t20.5 149.5q7 7 18 17t21 18q11 10 24 20q-39 -8 -65 -14t-51 -12q-4 31 -5.5 62.5
t-0.5 57.5q73 21 153 31t161 10q51 0 97 -13.5t81.5 -40t56 -66.5t20.5 -94zM468 546q0 30 -11 51t-29 34t-42 18.5t-50 5.5q-11 0 -28 -1.5t-28 -3.5q-2 -32 -4.5 -61.5t-6 -58.5t-8 -58.5t-8.5 -62.5q8 -5 22.5 -8.5t27.5 -3.5q31 0 61 9.5t53 29t37 47t14 63.5z" />
    <glyph glyph-name="Q" unicode="Q" horiz-adv-x="738" 
d="M715 -183q-86 -11 -167.5 0t-161.5 28t-160 33.5t-163 17.5l30 121q20 0 39 -3t37 -5l2 8q-77 35 -109.5 111t-32.5 178q0 91 25 175.5t75 149.5t124.5 104t173.5 39q73 0 126.5 -24t88.5 -66.5t51.5 -101t16.5 -127.5q0 -87 -24 -169t-71 -146.5t-117.5 -104
t-164.5 -42.5q-2 0 -3.5 0.5t-3.5 0.5l-2 -9q40 -8 86.5 -17t95 -16t98 -10.5t97.5 -0.5zM537 451q0 34 -5.5 71t-21 67.5t-42.5 50t-70 19.5q-40 0 -70 -18t-52 -47t-36.5 -66.5t-23 -76.5t-12 -77t-3.5 -68q0 -32 5 -67.5t19 -65.5t39.5 -49.5t66.5 -19.5q43 0 75 16.5
t54.5 44t37.5 63.5t23.5 74.5t12 77t3.5 71.5z" />
    <glyph glyph-name="R" unicode="R" horiz-adv-x="673" 
d="M529 -24q-40 22 -78.5 65t-75 93t-70.5 100t-64 87q-6 -45 -11 -85t-9 -77.5t-6.5 -74t-3.5 -73.5l-153 -28q-2 71 4.5 147.5t17 154t22.5 153.5t21 146q1 2 8.5 9.5t16.5 16t17 16t11 9.5q-8 -2 -24 -5t-33 -6.5t-31.5 -7t-20.5 -5.5q-3 25 -4 59.5t1 60.5
q73 18 152.5 30.5t157.5 12.5q45 0 91 -10.5t83.5 -34.5t61.5 -63t24 -96q0 -44 -14.5 -83t-41.5 -69.5t-66 -52t-87 -30.5q54 -81 115.5 -152.5t125.5 -122.5zM469 556q0 49 -33 74t-90 25q-14 0 -32 -1.5t-33 -3.5q-3 -60 -11 -124.5t-20 -139.5q17 19 25 28.5t18 20.5
q11 -5 25 -7.5t20 -2.5q27 1 51 10t41.5 26t28 41t10.5 54z" />
    <glyph glyph-name="S" unicode="S" horiz-adv-x="438" 
d="M404 674q-89 -20 -135.5 -56t-47.5 -73q-1 -25 11.5 -50t31.5 -50t41 -51.5t41.5 -54.5t32 -59t12.5 -65q0 -63 -29.5 -109t-78 -77t-112 -47t-131.5 -18l-30 114q40 1 77.5 10t66.5 24.5t47 37t18 48.5q0 26 -12 50.5t-30 48.5t-39 49t-39.5 53t-30.5 60t-12 71
q0 47 21 88t59 73.5t89.5 56t113.5 35.5l65 -109v0z" />
    <glyph glyph-name="T" unicode="T" horiz-adv-x="546" 
d="M587 677q-17 -12 -37 -21t-48 -15t-68 -9t-97 -2q5 -4 14.5 -9t18.5 -10.5t17 -10t10 -7.5q-4 -30 -10.5 -73.5t-13 -95.5t-13 -108t-11 -111t-6 -104.5t0.5 -88.5l-161 -22q-2 34 -1.5 75.5t3.5 87t7.5 93.5t10.5 95q5 42 11 83.5t11.5 79.5t10 69.5t7.5 54.5
q-29 1 -55 0.5t-51.5 -3.5t-53 -9t-60.5 -18l-13 126q44 17 96 24t102 7h115q73 0 141.5 11.5t116.5 33.5l6 -123v0z" />
    <glyph glyph-name="U" unicode="U" horiz-adv-x="744" 
d="M707 771q-11 -61 -19 -126.5t-14 -130t-9.5 -123.5t-3.5 -106q0 -30 1.5 -66t6 -72.5t12 -70.5t18.5 -61l-158 -32q-3 8 -6 16.5t-6 20.5t-6 28t-6 40q-60 -57 -121.5 -80t-124.5 -23q-51 0 -91 16t-68 49t-41 84t-10 120q3 61 12.5 121t18.5 119.5t15 119.5t3 122
l156 34q4 -34 4 -71t-3 -73.5t-8 -72t-9 -67.5q-9 -64 -16.5 -120t-7.5 -113q0 -66 24.5 -105.5t83.5 -39.5q22 0 45 7.5t45 21t40.5 31t32.5 38.5q0 66 4 140t10.5 147t15.5 139.5t19 116.5l161 22v0z" />
    <glyph glyph-name="V" unicode="V" horiz-adv-x="651" 
d="M667 772q-15 -111 -46.5 -219t-75 -209t-97 -192t-112.5 -167l-116 23q-34 85 -57 175.5t-43.5 183.5t-43.5 187.5t-57 187.5l157 30q26 -65 45 -138t35.5 -147.5t31 -147t31.5 -135.5q30 56 59.5 122t54 136.5t42.5 142.5t27 141l165 26v0z" />
    <glyph glyph-name="W" unicode="W" horiz-adv-x="1086" 
d="M1097 767q-9 -114 -37.5 -225t-70.5 -212.5t-94 -189.5t-107 -156l-117 22q-15 37 -30.5 88.5t-30.5 111.5t-29 124.5t-25 126.5h-8q-43 -134 -103.5 -258t-126.5 -215l-117 22q-35 88 -56 181t-38.5 187t-37 186t-51.5 178l157 32q27 -71 43 -143t29 -145t25 -146
t30 -146q30 57 59 125.5t53 141.5t41 145.5t24 136.5l153 28q9 -59 23.5 -133.5t32.5 -153.5t38.5 -155.5t41.5 -137.5q28 57 56 127t51 144.5t39.5 147.5t21.5 135l161 26v0z" />
    <glyph glyph-name="X" unicode="X" horiz-adv-x="671" 
d="M692 725q-74 -83 -135 -168t-125 -170q57 -94 113.5 -181t122.5 -164l-149 -55q-57 62 -101.5 133t-89.5 144q-71 -94 -130.5 -164.5t-113.5 -115.5l-139 55q74 72 148 162.5t152 189.5q-54 95 -102.5 177.5t-99.5 154.5l145 53q35 -49 75 -112t88 -153q62 85 110 152
t90 115l141 -53v0z" />
    <glyph glyph-name="Y" unicode="Y" horiz-adv-x="610" 
d="M652 770q-15 -78 -41.5 -147t-59.5 -133t-71 -125t-76 -122.5t-75 -125t-67 -132.5l-157 15q30 75 67.5 142t78.5 130l-58 -6q-18 54 -42 109.5t-49.5 114t-50 120t-43.5 126.5l160 32q13 -44 32.5 -94t41 -101.5t43 -101.5t37.5 -95q27 43 52.5 90.5t46.5 94.5t36.5 93
t23.5 88l171 28v0z" />
    <glyph glyph-name="Z" unicode="Z" horiz-adv-x="594" 
d="M598 650q-49 -78 -102 -145t-106 -130t-103 -124t-93 -127q43 -2 89 -1.5t92 3.5t90.5 8.5t83.5 13.5l17 -139q-54 -8 -127 -12.5t-149.5 -6t-149.5 -1t-128 3.5l-25 100q46 76 99 144.5t107 133t105 128t93 128.5q-44 2 -84.5 2.5t-79.5 -2t-78 -8t-81 -14.5l3 134
q61 11 121 15.5t119.5 4.5t119 -3t120.5 -7q14 -29 23.5 -50t23.5 -49z" />
    <glyph glyph-name="bracketleft" unicode="[" horiz-adv-x="343" 
d="M254 641q-4 -42 -9 -97.5t-11.5 -118.5t-13 -129.5t-12 -129.5t-10 -120t-5.5 -100l99 4l18 -101l-260 -20q0 61 4 137t10 158.5t13.5 168t15 165.5t14 150t11.5 122l219 27l17 -103z" />
    <glyph glyph-name="backslash" unicode="\" horiz-adv-x="464" 
d="M368 -1q-38 96 -87.5 186t-100.5 179t-97 180t-75 191l112 12q36 -97 86.5 -188t101.5 -181t97 -181.5t73 -189.5z" />
    <glyph glyph-name="bracketright" unicode="]" horiz-adv-x="343" 
d="M289 756q0 -61 -4 -137t-10 -159t-13.5 -168.5t-15 -165.5t-14.5 -150t-11 -122l-219 -27l-17 103l100 13q3 42 8.5 97.5t12 118.5t13 129.5t12 130t9.5 120.5t6 100l-99 -5l-18 102l260 20v0z" />
    <glyph glyph-name="asciicircum" unicode="^" horiz-adv-x="569" 
d="M394 233l-61 61t-64 59q-11 -8 -33 -25t-46 -35.5t-46 -36t-31 -27.5l-79 97q20 22 43.5 45t48 46t48.5 44t45 39l118 13q19 -21 42 -46t47 -51.5t47 -52.5t43 -48z" />
    <glyph glyph-name="underscore" unicode="_" horiz-adv-x="569" 
d="M518 -205q-60 -4 -119 -3.5t-118.5 1.5t-119.5 0.5t-123 -6.5l16 104q63 6 122.5 6t118 -1t118 -1.5t122.5 2.5z" />
    <glyph glyph-name="quoteleft" unicode="&#x2018;" horiz-adv-x="270" 
d="M278 729q-23 -22 -36.5 -48.5t-19.5 -54.5t-7 -56t1 -53l-140 -27q-5 40 -0.5 81t19 77.5t39 65.5t57.5 47l87 -32v0z" />
    <glyph glyph-name="a" unicode="a" horiz-adv-x="551" 
d="M521 516q-6 -31 -13.5 -71.5t-14 -83.5t-12 -83t-7.5 -69q-5 -55 2.5 -105t36.5 -79l-134 -42q-12 12 -25 35t-20 50q-23 -25 -47.5 -45t-46.5 -33q-11 -3 -25 -4t-22 -1q-42 0 -74.5 15.5t-54 43t-32.5 65.5t-11 82q0 75 23.5 141.5t65 116.5t97.5 79t121 29
q49 0 97 -9.5t96 -31.5zM358 452q-9 5 -21 8.5t-23 3.5q-26 0 -49.5 -22t-41.5 -58t-28.5 -82t-10.5 -94q0 -54 16 -89t53 -35q21 0 39.5 14t27.5 31q0 35 3 76.5t8.5 84t12.5 84.5t14 78z" />
    <glyph glyph-name="b" unicode="b" horiz-adv-x="541" 
d="M520 361q1 -83 -19.5 -152.5t-58 -119.5t-89.5 -77.5t-113 -27.5q-22 0 -48.5 2t-52.5 8t-50.5 15.5t-43.5 24.5q-4 28 -4 69t3 88t8 98t11 101q12 105 19.5 188.5t5.5 140.5l149 23q7 -65 0 -133.5t-15 -132.5q26 23 57.5 46t65.5 35q33 0 64 -11t55.5 -34.5t39.5 -60.5
t16 -90zM358 320q0 37 -5.5 63t-14.5 42.5t-20 23.5t-23 7q-22 0 -44.5 -19t-37.5 -50q-5 -37 -9 -77t-7 -79.5t-5 -76t-2 -66.5q19 -21 53 -21q27 0 48.5 22t36 57.5t22 81t8.5 92.5z" />
    <glyph glyph-name="c" unicode="c" horiz-adv-x="475" 
d="M354 381q-2 11 -5.5 23.5t-10.5 23t-17.5 17.5t-26.5 7q-21 0 -40.5 -15.5t-34.5 -44.5t-24.5 -70.5t-9.5 -93.5q0 -57 26 -89.5t80 -32.5q15 0 31.5 3.5t33 9.5t31.5 13.5t27 15.5l21 -112q-41 -27 -94 -39.5t-107 -12.5q-103 0 -157.5 56.5t-54.5 156.5q0 78 22 144
t60 114t89.5 75t112.5 27q32 0 61 -6t51.5 -19.5t36.5 -36t17 -55.5z" />
    <glyph glyph-name="d" unicode="d" horiz-adv-x="554" 
d="M535 741q1 -30 0 -59t-3.5 -59t-6.5 -62t-8 -68q-8 -72 -17.5 -141.5t-14.5 -124.5q-5 -63 2.5 -115t29.5 -84l-140 -44q-11 14 -22.5 36t-19.5 45q-24 -23 -50.5 -43.5t-47.5 -32.5q-8 -2 -20.5 -3.5t-20.5 -1.5q-43 0 -75.5 16t-54.5 43.5t-33 64t-12 77.5
q-1 79 23 147t65.5 118t96.5 78.5t115 28.5q24 0 51 -8q5 42 7.5 85t1.5 86zM360 452q-7 5 -18 9t-24 4q-26 0 -50 -20t-42.5 -55t-30 -83t-11.5 -104q0 -53 17 -86t52 -33q16 0 39 11t36 32q-3 58 7.5 144t24.5 181z" />
    <glyph glyph-name="e" unicode="e" horiz-adv-x="498" 
d="M476 414q0 -45 -19.5 -82.5t-51.5 -65t-72.5 -43t-81.5 -15.5q-5 0 -10.5 0.5t-7.5 0.5q-4 2 -11 7t-14.5 11t-14.5 11.5t-10 8.5q-6 -72 19 -111.5t73 -39.5q35 0 74 17t68 40l19 -113q-21 -15 -46.5 -25.5t-53 -17t-55 -10t-52.5 -3.5q-94 0 -150.5 56t-56.5 163
q0 72 22.5 136t60.5 112.5t89.5 77t110.5 28.5q34 0 65 -7.5t54.5 -24.5t37.5 -44.5t14 -66.5zM330 417q0 22 -10.5 38t-31.5 16t-38.5 -17.5t-30.5 -44.5t-21.5 -59t-11.5 -61q24 -2 49.5 7.5t46.5 26.5t34.5 41t13.5 53z" />
    <glyph glyph-name="f" unicode="f" horiz-adv-x="437" 
d="M467 619q-20 7 -38.5 11.5t-39.5 4.5q-49 0 -78 -30t-37 -77h183l-11 -108h-184q-5 -62 -9 -125.5t-12 -129.5q-7 -63 -21 -121t-35.5 -108t-52.5 -90t-72 -67l-113 52q61 56 92.5 139t45.5 183q9 68 13.5 134.5t10.5 132.5h-79l21 100l24 4q22 3 43 5q15 106 80.5 166
t174.5 60q55 0 111 -17z" />
    <glyph glyph-name="g" unicode="g" horiz-adv-x="549" 
d="M528 519q-7 -35 -15 -87t-16 -110.5t-15 -118t-11 -109.5q-6 -68 -25 -125.5t-53 -99t-83.5 -64.5t-115.5 -23q-19 0 -52 4.5t-71 17.5l4 123q106 -38 167.5 -0.5t82.5 140.5q-34 -28 -67.5 -44t-46.5 -22q-8 -2 -19 -3.5t-19 -1.5q-40 0 -68.5 16t-47 42.5t-27.5 61.5
t-9 73q0 75 23 142t63.5 117t96.5 79.5t123 29.5q44 0 98.5 -9t102.5 -29zM364 450q-11 5 -24 9t-26 4q-29 0 -53 -22.5t-41 -59t-26.5 -82t-9.5 -90.5q0 -60 16.5 -91t53.5 -31q17 0 38 13t32 35q2 38 6 80t9.5 83.5t11.5 80.5t13 71z" />
    <glyph glyph-name="h" unicode="h" horiz-adv-x="552" 
d="M512 402q-2 -18 -6 -43t-9.5 -52t-10.5 -55.5t-8 -53.5q-5 -45 -1 -92t24 -79l-148 -41q-27 36 -32 89t6 125l25 165q8 47 -0.5 66.5t-30.5 19.5q-16 0 -34 -16.5t-35 -48.5t-31 -79t-22 -108l-26 -198l-157 -5q7 42 16 101t17.5 126.5t16 139.5t13 139t7.5 125t0 99
l149 15q6 -51 2.5 -132.5t-15.5 -177.5q30 37 66 70t74 54q4 1 11.5 1.5t11.5 0.5q33 0 58 -12t41.5 -32.5t23.5 -49t4 -61.5z" />
    <glyph glyph-name="i" unicode="i" horiz-adv-x="288" 
d="M241 557q3 -47 -1 -96t-10 -98t-12.5 -97t-9.5 -92q-3 -48 -3 -89t7 -74l-156 -27q-8 31 -9.5 69.5t0.5 78.5q2 46 9 98t13.5 104.5t10.5 103.5t1 96zM279 713q0 -21 -9.5 -38t-24.5 -29.5t-34 -19t-38 -6.5q-16 0 -31.5 4.5t-28 13.5t-20 23t-7.5 33q0 22 9.5 38.5
t25 27.5t34.5 17t39 6q15 0 30 -4t27.5 -13t20 -22t7.5 -31z" />
    <glyph glyph-name="j" unicode="j" horiz-adv-x="284" 
d="M246 557q-1 -60 -4.5 -132t-12 -147.5t-23 -150t-37 -141t-54 -120t-74.5 -85.5l-125 47q36 34 62.5 83.5t45.5 108t30.5 124t19 132.5t11 132.5t5.5 124.5zM272 713q0 -21 -9 -38t-24 -29.5t-34 -19t-38 -6.5q-16 0 -31.5 4.5t-28 13.5t-20 23t-7.5 33q0 22 9.5 38.5
t24.5 27.5t34 17t39 6q15 0 30 -4t27.5 -13t20 -22t7.5 -31z" />
    <glyph glyph-name="k" unicode="k" horiz-adv-x="537" 
d="M521 447q0 -33 -10.5 -62.5t-31 -54t-48.5 -43.5t-62 -32q21 -56 57 -103t79 -76l-84 -100q-29 9 -59.5 33t-57.5 59.5t-48 81.5t-31 99q25 10 49.5 26t43 37t30 46.5t11.5 54.5q0 21 -10 31.5t-24 10.5q-15 0 -33.5 -15.5t-36.5 -45t-33 -70.5t-23 -92
q-8 -53 -14.5 -116t-12.5 -115l-157 -6l14.5 101.5t17.5 127t17 139.5t13.5 139.5t7.5 125.5t-1 99l151 14q8 -48 5.5 -125t-17.5 -190q28 40 64.5 73t65.5 53q8 2 20.5 3.5t19.5 1.5q32 0 56 -9t40 -24t24 -35t8 -42z" />
    <glyph glyph-name="l" unicode="l" horiz-adv-x="283" 
d="M249 741q3 -49 -0.5 -103.5t-10 -111.5t-13.5 -114t-11 -109q-2 -34 -5 -74.5t-4 -81t0.5 -79t7.5 -68.5l-150 -14q-6 25 -8.5 58t-2.5 70.5t2.5 78t5.5 79.5q4 55 11.5 113t14 116.5t10 115t0.5 109.5l153 15v0z" />
    <glyph glyph-name="m" unicode="m" horiz-adv-x="814" 
d="M776 398q-2 -17 -6 -41.5t-9.5 -51.5t-10 -55.5t-7.5 -53.5q-5 -45 -1.5 -90t23.5 -79l-148 -41q-16 21 -23.5 47.5t-9.5 55.5t1 60t8 61l25 155q8 45 -1 65t-28 20q-15 0 -32 -15.5t-33 -45t-29 -72.5t-20 -97l-27 -218l-156 -6q2 12 6 43.5t9 64.5q5 39 11 84
q2 17 6 42.5t8 52t7.5 49t5.5 33.5q5 37 0 61t-28 24q-17 0 -34.5 -20t-33 -54.5t-28.5 -81.5t-20 -101l-25 -193l-155 -4q10 58 20.5 128t18 141.5t11.5 140t1 124.5l142 28q5 -26 7 -60.5t0 -66.5q26 37 59.5 69t68.5 55q8 2 14.5 2h13.5q52 0 85.5 -30t36.5 -87
q29 35 61 63t68 51q15 3 29 3q63 0 94 -43.5t25 -115.5z" />
    <glyph glyph-name="n" unicode="n" horiz-adv-x="546" 
d="M506 384q-5 -37 -15 -83.5t-16 -97.5q-2 -21 -3 -45t1 -47.5t7.5 -45.5t16.5 -38l-148 -41q-16 19 -23.5 45.5t-9 56t1 61t7.5 61.5l24 155q7 47 -2.5 65.5t-25.5 18.5q-18 0 -36 -19t-33.5 -52.5t-28.5 -79t-20 -99.5l-26 -199l-156 -4q10 58 20.5 131.5t18.5 147.5
t12 141t0 114l142 28q5 -21 6.5 -57t-0.5 -71q29 39 62.5 70.5t71.5 54.5q7 1 13 1h13q69 0 103 -47t23 -125z" />
    <glyph glyph-name="o" unicode="o" horiz-adv-x="534" 
d="M513 348q0 -71 -19.5 -137t-57.5 -116.5t-96 -80.5t-134 -30q-93 0 -139 55.5t-46 148.5q0 68 18.5 134.5t56 118.5t93.5 84t131 32q94 0 143.5 -57t49.5 -152zM351 343q0 62 -15.5 93t-50.5 31q-21 0 -39.5 -20t-32 -55t-21.5 -84.5t-8 -107.5q0 -59 13.5 -91t51.5 -32
q24 0 43 19.5t32 54.5t20 84t7 108z" />
    <glyph glyph-name="p" unicode="p" horiz-adv-x="581" 
d="M560 361q0 -83 -20.5 -152t-58.5 -118.5t-91 -77t-117 -27.5q-16 0 -31.5 1t-29.5 4q-3 -23 -6 -50.5t-5.5 -55t-4.5 -54t-2 -48.5q-37 3 -75.5 7.5t-73.5 9.5q1 69 9.5 142t17.5 148t16.5 150.5t8.5 147.5q-11 -5 -29 -12.5t-24 -11.5l-14 94q16 8 31 15t32 14
q-3 20 -4.5 31t-4.5 22l144 35q1 -3 4 -16t5 -34q32 15 64 21.5t64 6.5q40 0 76 -11.5t62 -35.5t41.5 -60t15.5 -85zM395 312q0 28 -4 52.5t-14 43t-26 29t-40 10.5q-14 0 -32 -6t-32 -13q5 -81 -1 -167.5t-17 -162.5q20 -23 50 -23q27 0 48.5 17.5t36.5 48.5t23 74.5
t8 96.5z" />
    <glyph glyph-name="q" unicode="q" horiz-adv-x="560" 
d="M526 520q-5 -59 -15 -125.5t-20.5 -133t-20 -128.5t-13.5 -111q-5 -56 -5.5 -111t6.5 -102l-147 -27q-11 53 -11 118.5t10 142.5q-17 -16 -38 -31.5t-39 -23.5q-53 -11 -93 2.5t-66.5 42.5t-39.5 70.5t-13 86.5q0 78 24 145t65.5 116.5t97.5 77.5t120 28q49 0 97 -8.5
t101 -28.5zM365 450q-17 11 -37 11q-40 0 -67.5 -29t-44.5 -69.5t-24.5 -84.5t-7.5 -73q0 -53 16 -88t53 -35q17 0 35 10.5t28 29.5q10 83 25 164t24 164z" />
    <glyph glyph-name="r" unicode="r" horiz-adv-x="379" 
d="M398 542q1 -14 0 -33t-3.5 -39.5t-7 -40t-9.5 -35.5q-16 6 -33.5 10t-34.5 3q-27 -1 -51.5 -29.5t-42.5 -80t-27.5 -125t-6.5 -165.5l-147 -19q-4 82 3 159t16 162q5 50 9 105t1 112l145 33q5 -24 5 -61t-4 -74q10 20 23 40t27.5 37.5t29 32t27.5 24.5q16 -2 40.5 -5.5
t40.5 -10.5z" />
    <glyph glyph-name="s" unicode="s" horiz-adv-x="352" 
d="M338 483q-74 -19 -105 -45.5t-32 -48.5q-2 -24 15.5 -49t39.5 -53.5t40 -60.5t18 -70q0 -42 -20.5 -76t-57 -58.5t-87 -39.5t-110.5 -20l-43 102q80 5 119 28.5t40 55.5q0 27 -18 51t-40 50t-40 57t-18 72q0 36 18.5 67.5t49.5 57t72 45t86 31.5l73 -96v0z" />
    <glyph glyph-name="t" unicode="t" horiz-adv-x="369" 
d="M367 420h-118q-8 -58 -13 -114.5t-3 -101.5q2 -42 21 -75t61 -50l-58 -94q-48 3 -82 22.5t-56 49.5t-32 68t-10 79q1 45 6.5 102t13.5 114h-76l20 100q6 1 17 2.5l22 3t20.5 2.5t13.5 1q1 9 4.5 28.5t7.5 41t7 41t5 27.5l151 18q-2 -9 -5 -31t-7 -47t-7.5 -47.5
t-4.5 -32.5h113z" />
    <glyph glyph-name="u" unicode="u" horiz-adv-x="558" 
d="M528 557q-7 -39 -13.5 -83.5t-13 -90t-12 -90.5t-10.5 -85q-6 -51 -3 -106t17 -94l-154 -23q-5 19 -8 47t-5 57q-27 -31 -59 -57.5t-61 -43.5q-8 -2 -19.5 -2.5t-23.5 -0.5q-125 0 -119 151q2 44 10.5 94.5t14.5 104.5q5 48 6 96.5t-10 92.5l149 34q11 -38 12.5 -88.5
t-2.5 -110.5q-2 -23 -5 -52.5t-6.5 -58t-6.5 -53.5t-4 -40q-2 -29 5 -48.5t31 -19.5q19 0 35 18t29 49.5t22.5 73.5t16.5 91l31 218l156 20v0z" />
    <glyph glyph-name="v" unicode="v" horiz-adv-x="533" 
d="M513 557q8 -92 -7.5 -173.5t-49.5 -151t-83 -126t-108 -99.5l-137 -23q-3 54 -12 127.5t-22 150t-30 147.5t-36 119l149 29q15 -35 29 -85t25 -107t18 -115.5t8 -109.5q30 34 51.5 79.5t35 96t18.5 103t0 101.5l151 37v0z" />
    <glyph glyph-name="w" unicode="w" horiz-adv-x="860" 
d="M816 557q27 -124 14 -228.5t-52.5 -181t-100.5 -119.5t-130 -43q-30 0 -55.5 10t-46 32.5t-33.5 58.5t-17 87q-14 -23 -32.5 -46t-38.5 -44.5t-39.5 -40.5t-35.5 -33l-144 -26q1 64 -2 133.5t-11 140t-21.5 139.5t-33.5 131l149 31q13 -35 24.5 -81.5t19 -100
t11.5 -111.5t4 -116q59 61 98 156t41 224l149 28q-2 -19 -5.5 -61t-6 -93t-2 -105.5t7 -99.5t21 -74t39.5 -29q20 0 38 19.5t31.5 54t21.5 81.5t8 102q0 18 -1.5 39.5t-4 44t-6 45t-7.5 41.5l149 35v0z" />
    <glyph glyph-name="x" unicode="x" horiz-adv-x="532" 
d="M520 417q-20 -6 -39 -17t-38.5 -28t-41 -41.5t-46.5 -58.5q28 -77 70 -124t94 -56l-64 -106q-35 -2 -65.5 6.5t-56.5 30.5t-48.5 59.5t-42.5 94.5q-57 -91 -115.5 -137t-108.5 -56l-23 132q43 15 91.5 61t91.5 114q-27 76 -61 136t-69 94l148 40q25 -18 50 -59.5
t48 -121.5q29 45 56 77t53 53t52.5 32.5t54.5 15.5l10 -141v0z" />
    <glyph glyph-name="y" unicode="y" horiz-adv-x="535" 
d="M542 557q-4 -71 -22 -136t-44.5 -126.5t-58 -121t-62 -119.5t-56.5 -121.5t-41 -126.5l-143 -20q7 50 25.5 107t38.5 99q-5 1 -16 2.5t-22 2.5q-13 1 -29 2q-19 31 -28 71.5t-12.5 86t-4 95t-1.5 97.5t-5 93.5t-16 83.5l151 31q18 -61 21.5 -128t2.5 -130.5t-1.5 -118
t10.5 -89.5q20 40 45.5 97.5t48.5 118.5t40 119.5t20 102.5l159 28v0z" />
    <glyph glyph-name="z" unicode="z" horiz-adv-x="461" 
d="M452 449q-32 -44 -67 -85.5t-70.5 -82t-70 -80t-65.5 -80.5q51 -5 110.5 -0.5t112.5 17.5l14 -127q-42 -9 -95.5 -13.5t-108 -5t-106.5 2t-91 7.5l-21 90q30 45 63.5 86t68 81t69 79t65.5 80q-51 2 -101 0.5t-107 -12.5l2 122q91 16 180.5 14.5t181.5 -7.5
q5 -11 11 -24.5t11 -26t8.5 -22t5.5 -13.5z" />
    <glyph glyph-name="braceleft" unicode="{" horiz-adv-x="356" 
d="M370 713q-41 -20 -63 -49t-33 -62.5t-14.5 -69.5t-6.5 -70q-3 -29 -8.5 -55.5t-18 -47.5t-34 -35.5t-56.5 -20.5q55 -12 79 -48.5t24 -90.5q0 -37 -4.5 -74t-2 -72t18.5 -66.5t57 -55.5l-94 -61q-45 11 -71.5 29.5t-39.5 43t-16.5 53.5t-1.5 60t5.5 63.5t3.5 64.5
q0 38 -14 64.5t-54 34.5l-8 93q37 8 57 28.5t29.5 49t12.5 62.5t7 70q3 33 10 65t23 60t43.5 50.5t72.5 35.5l97 -49v0z" />
    <glyph glyph-name="bar" unicode="|" horiz-adv-x="304" 
d="M236 765q-5 -90 -15 -188t-20.5 -197.5t-19 -196t-9.5 -183.5l-109 -14q0 94 7.5 194t18 199t21 194.5t16.5 180.5l110 11v0z" />
    <glyph glyph-name="braceright" unicode="}" horiz-adv-x="356" 
d="M330 255q-37 -8 -57 -28.5t-29.5 -49t-12.5 -62.5t-7 -70q-3 -33 -10 -65t-23 -60t-43.5 -50.5t-72.5 -35.5l-97 49q40 20 62.5 49t33.5 62.5t14.5 69.5t6.5 70q3 29 8.5 55.5t18 47.5t34 35.5t56.5 20.5q-55 12 -79 48.5t-24 90.5q0 37 4.5 74t2 72t-18.5 66.5t-57 55.5
l94 61q67 -16 94.5 -49.5t33 -76.5t-1 -92t-6.5 -96q0 -38 14 -64.5t54 -34.5l8 -93v0z" />
    <glyph glyph-name="asciitilde" unicode="~" horiz-adv-x="569" 
d="M500 391q-35 -43 -63.5 -63.5t-53 -27t-45.5 -1.5t-41 13q-25 10 -49 20t-53 10q-24 0 -50 -11t-57 -37l-42 87q34 34 63.5 50.5t55 21.5t47.5 1.5t43 -10.5q25 -8 49 -16.5t49 -7.5q23 1 47.5 12.5t50.5 40.5l49 -82v0z" />
    <glyph glyph-name="exclamdown" unicode="&#xa1;" horiz-adv-x="277" 
d="M214 318q3 -69 -1.5 -135t-11 -129.5l-13 -127t-8.5 -128.5l-158 -31q0 74 9 139.5t20 128t21.5 125.5t14.5 132zM249 482q0 -23 -8 -40t-21.5 -28.5t-30.5 -17.5t-35 -6q-32 0 -57 18.5t-26 56.5q0 22 8.5 38.5t23 27.5t31.5 17t34 6q15 0 29 -4t25.5 -13t19 -22.5
t7.5 -32.5z" />
    <glyph glyph-name="cent" unicode="&#xa2;" horiz-adv-x="541" 
d="M394 374q-5 35 -24 51.5t-47 16.5q-20 0 -41.5 -13t-39 -38.5t-29 -64.5t-11.5 -91q0 -63 30.5 -92t77.5 -29q16 0 35.5 3.5t39 9.5t38 14t31.5 17l21 -113q-33 -21 -75.5 -34t-85.5 -18l-4 -71h-93l4 70q-87 6 -135.5 62t-48.5 150q0 67 17 125t47.5 102.5t73 74
t95.5 38.5l5 76h93l-4 -73q26 -2 50.5 -8t44 -19.5t33 -34.5t18.5 -53z" />
    <glyph glyph-name="sterling" unicode="&#xa3;" horiz-adv-x="559" 
d="M492 0q-57 -5 -119.5 -4t-124 2.5t-119.5 1.5t-104 -7l-5 85q36 10 58.5 23t35 32t16 44.5t0.5 60.5h-88l3 99h81q-4 64 21.5 111t76 74.5t123.5 33.5t164 -12l-13 -109q-57 14 -99.5 12.5t-70 -15t-41 -38t-11.5 -57.5h202l-14 -99h-185q1 -8 1.5 -20t-1.5 -25
q-3 -28 -17.5 -50t-47.5 -38q28 1 65.5 1.5t79 0.5t83.5 1t78 5z" />
    <glyph glyph-name="fraction" unicode="&#x2044;" horiz-adv-x="354" 
d="M437 762q-41 -96 -93.5 -190t-108 -188.5t-109.5 -188.5t-99 -190l-105 -13q44 103 97.5 202.5t108.5 194.5t107.5 186t95.5 178l106 9v0z" />
    <glyph glyph-name="yen" unicode="&#xa5;" horiz-adv-x="590" 
d="M576 555q-14 -79 -55.5 -156.5t-104.5 -140.5h142l-3 -105h-188q-4 -28 -6 -70.5t-9 -92.5l-155 5q7 41 9.5 83.5t3.5 74.5h-185l3 105h137q-46 57 -82 131t-55 152l151 16q7 -29 18.5 -64t26.5 -71.5t33 -73t37 -69.5q25 30 46.5 64.5t38.5 69t29 67.5t18 60l150 15v0z
" />
    <glyph glyph-name="florin" unicode="&#x192;" horiz-adv-x="569" 
d="M544 431q-20 6 -40.5 10t-41.5 4q-31 0 -53.5 -11t-37.5 -29.5t-23.5 -43t-9.5 -51.5h198l-7 -109h-198q-2 -20 -3.5 -37.5t-4 -37t-6.5 -43t-10 -54.5q-10 -49 -29.5 -91t-51 -72.5t-76.5 -47.5t-105 -17q-46 0 -86 10l15 110q11 -3 23.5 -5t27.5 -2q54 0 86 36.5
t43 99.5q5 29 8 50.5t5 38.5t3 31.5t2 30.5h-142l9 109h140q4 53 22.5 98t51.5 78t80 52t109 19q61 0 115 -16z" />
    <glyph glyph-name="section" unicode="&#xa7;" horiz-adv-x="582" 
d="M540 266q0 -33 -12.5 -60.5t-33.5 -49t-48.5 -38t-57.5 -26.5q9 -16 12 -33.5t3 -36.5q0 -39 -18.5 -74t-51.5 -62t-79 -44.5t-101 -20.5l-52 108q19 3 44.5 9t48 16.5t38 26.5t15.5 39q0 25 -15.5 45.5t-39 39.5t-51 38.5t-51 43.5t-39 54.5t-15.5 71.5q0 34 13 62
t34.5 50.5t49.5 40t57 29.5q-14 30 -14 63q0 41 18 72t46.5 54t63 38t68.5 23l80 -84q-20 -7 -42 -16t-40.5 -21t-31 -27t-12.5 -33q0 -25 16 -46.5t39.5 -42t51.5 -41.5t51.5 -46t39.5 -54.5t16 -67.5zM397 247q0 24 -17.5 46.5t-41.5 43t-49.5 39t-40.5 35.5
q-11 -5 -23 -12.5t-22 -17t-16.5 -22t-6.5 -26.5q0 -23 16.5 -45t40 -42.5t48 -38.5t39.5 -34q12 4 25 10.5t23.5 15.5t17.5 21t7 27z" />
    <glyph glyph-name="currency" unicode="&#xa4;" horiz-adv-x="597" 
d="M564 490q-5 -6 -14.5 -17t-19.5 -22.5t-18.5 -21.5t-12.5 -14q17 -23 25.5 -51.5t9.5 -56.5q1 -44 -13.5 -88.5t-48.5 -88.5q17 -20 36 -39t31 -26q-7 -8 -18 -18.5t-23.5 -20t-25 -18.5t-22.5 -14q-10 11 -25.5 31.5t-35.5 45.5q-30 -16 -62 -22.5t-61 -6.5t-55.5 6.5
t-53.5 24.5q-16 -18 -34 -39.5t-27 -32.5q-9 5 -20.5 13t-23 17.5t-22 19t-17.5 16.5q12 12 35 34t42 42q-14 27 -19 51.5t-6 48.5q-1 38 10.5 75t42.5 79q-19 21 -36.5 41.5t-28.5 31.5q7 7 18 16.5t22.5 18.5t23 17t20.5 13q5 -6 13.5 -18t17.5 -24.5t17 -23.5t12 -15
q35 19 69 25t69 6q15 0 37 -3.5t44 -12.5q17 21 32 43t23 35q21 -8 47.5 -26t45.5 -31zM382 289q0 15 -4 31t-13 29t-23 21t-35 8q-23 0 -41.5 -12.5t-31 -32.5t-19 -44.5t-6.5 -49.5q0 -16 4 -32t13 -28.5t23 -20t34 -7.5q27 0 45.5 14.5t30.5 35.5t17.5 45t5.5 43z" />
    <glyph glyph-name="quotesingle" unicode="'" horiz-adv-x="239" 
d="M214 750q1 -29 -1.5 -62t-8 -68.5t-14.5 -70.5t-21 -66l-90 25q-4 60 -3.5 117t5.5 105l133 20v0z" />
    <glyph glyph-name="quotedblleft" unicode="&#x201c;" horiz-adv-x="461" 
d="M468 729q-23 -22 -36.5 -48.5t-19.5 -54.5t-7 -56t1 -53l-140 -27q-5 40 -0.5 81t19 77.5t39 65.5t57.5 47zM279 729q-23 -22 -36.5 -48.5t-19.5 -54.5t-7 -56t1 -53l-140 -27q-5 40 -0.5 81t19 77.5t39 65.5t57.5 47z" />
    <glyph glyph-name="guillemotleft" unicode="&#xab;" horiz-adv-x="630" 
d="M600 455q-41 -31 -86.5 -76t-81.5 -89q22 -41 62 -87.5t82 -84.5l-98 -73q-24 18 -48 41t-46.5 48t-42 50t-32.5 47l-10 98q24 26 50.5 52.5t54.5 51.5t56 48t54 42zM338 455q-41 -31 -86.5 -76t-81.5 -89q22 -41 62 -87.5t82 -84.5l-98 -73q-24 18 -48 41t-46.5 48
t-42 50t-32.5 47l-10 98q24 26 50.5 52.5t54.5 51.5t56 48t54 42z" />
    <glyph glyph-name="guilsinglleft" unicode="&#x2039;" horiz-adv-x="367" 
d="M338 455q-41 -31 -86.5 -76t-81.5 -89q22 -41 62 -87.5t82 -84.5l-98 -73q-24 18 -48 41t-46.5 48t-42 50t-32.5 47l-10 98q24 26 50.5 52.5t54.5 51.5t56 48t54 42l86 -68v0z" />
    <glyph glyph-name="guilsinglright" unicode="&#x203a;" horiz-adv-x="366" 
d="M330 238q-47 -52 -104.5 -104t-109.5 -90l-87 68q41 31 86.5 76t81.5 89q-22 41 -62 87.5t-82 84.5l98 73q24 -18 48 -41.5t46.5 -48t41.5 -49.5t33 -47l10 -98v0z" />
    <glyph glyph-name="fi" horiz-adv-x="697" 
d="M622 534q0 -46 -4.5 -92.5t-10.5 -92t-11.5 -88.5t-8.5 -81q-3 -49 -2.5 -91.5t7.5 -77.5l-156 -27q-8 32 -10.5 73t0.5 84q2 31 6 66.5t9 72t9.5 72.5t7.5 68h-196q-8 -69 -12 -149t-16 -158q-8 -49 -21.5 -98t-35 -93t-50.5 -81t-67 -62l-113 52q61 58 92.5 142
t45.5 178q4 30 7 63.5t6 68.5t5.5 70t5.5 67h-79l21 99q12 2 23 4q10 2 22 3.5t23 3.5q8 46 25 86.5t45 71t68 48.5t94 18q17 0 36 -1t39 -5l-12 -121q-12 3 -23 4t-21 1q-46 0 -70.5 -29t-32.5 -76q88 0 177.5 0.5t177.5 6.5zM659 709q0 -20 -9 -36.5t-23 -28t-32 -18
t-37 -6.5q-34 0 -59 18.5t-25 55.5q0 21 9 38t23.5 28t33 17t38.5 6q35 0 58 -19t23 -55z" />
    <glyph glyph-name="fl" horiz-adv-x="719" 
d="M467 619q-20 7 -38.5 11.5t-39.5 4.5q-49 0 -78 -30t-37 -77h183l-11 -108h-184q-5 -62 -9 -125.5t-12 -129.5q-7 -63 -21 -121t-35.5 -108t-52.5 -90t-72 -67l-113 52q61 56 92.5 139t45.5 183q9 68 13.5 134.5t10.5 132.5h-79l21 100l24 4q22 3 43 5q15 106 80.5 166
t174.5 60q55 0 111 -17zM685 741q3 -49 -0.5 -103.5t-10 -111.5t-13.5 -114t-11 -109q-2 -34 -5 -74.5t-4 -81t0.5 -79t7.5 -68.5l-150 -14q-6 25 -8.5 58t-2.5 70.5t2.5 78t5.5 79.5q4 55 11.5 113t14 116.5t10 115t0.5 109.5z" />
    <glyph glyph-name="endash" unicode="&#x2013;" horiz-adv-x="525" 
d="M465 249q-57 -3 -111.5 -3t-107 1t-103.5 0t-101 -5l16 104q50 5 102.5 5.5t106 0t107.5 -1.5t108 1z" />
    <glyph glyph-name="dagger" unicode="&#x2020;" horiz-adv-x="475" 
d="M460 449q-13 -4 -31.5 -6.5t-39.5 -4t-44 -2t-44 0.5q-17 -103 -28.5 -210t2.5 -211l-133 -15q-9 54 -9.5 108.5t4.5 109.5t13.5 110t16.5 108q-10 -1 -26.5 -3.5t-36 -5.5t-40.5 -6t-40 -4l13 133q16 1 35 1t38.5 -1t37.5 -2.5t33 -2.5q6 47 9.5 85t1.5 78l136 15
q0 -50 -3 -90t-9 -86q35 5 67.5 12.5t74.5 18.5l2 -130v0z" />
    <glyph glyph-name="daggerdbl" unicode="&#x2021;" horiz-adv-x="475" 
d="M464 458q-35 -11 -74.5 -12.5t-84.5 0.5q-8 -46 -13.5 -85t-10.5 -88q38 5 74.5 13t81.5 21l2 -119q-35 -11 -76 -13.5t-89 -0.5q-2 -43 -1.5 -79.5t6.5 -78.5l-133 -15q-7 40 -8 80.5t2 92.5q-33 -4 -68 -9.5t-69 -5.5l10 117q15 1 33 1.5t36 0.5t34.5 -1t29.5 -2
q5 46 11 85t14 86q-10 -1 -26.5 -3t-36 -4.5t-40.5 -4t-39 -1.5l18 121q34 3 72 -0.5t67 -7.5q6 47 9 84.5t1 78.5l136 15q0 -50 -3.5 -90t-9.5 -86q35 5 68 12.5t75 18.5l2 -121v0z" />
    <glyph glyph-name="periodcentered" unicode="&#xb7;" horiz-adv-x="280" 
d="M231 332q0 -22 -8.5 -38.5t-23 -28t-32 -17t-33.5 -5.5q-15 0 -29 4t-25.5 13t-19 22.5t-7.5 32.5q0 22 8 39.5t21.5 29t30.5 17.5t35 6q32 0 57 -18.5t26 -56.5z" />
    <glyph glyph-name="paragraph" unicode="&#xb6;" horiz-adv-x="674" 
d="M634 522q-6 -73 -17 -151t-21.5 -154t-18 -148t-7.5 -133q0 -32 1 -63t7 -63l-235 -26q-13 60 -13.5 125t5.5 132q-5 -2 -17 -10t-24 -17q-14 -11 -31 -24q-8 -1 -19 -2.5t-25 -1.5q-44 0 -78.5 16t-58.5 43t-36.5 63.5t-12.5 78.5q0 82 26.5 150t75 117t117 76.5
t151.5 27.5q59 0 117 -8t114 -28zM389 462q-6 1 -11.5 1.5t-11.5 0.5q-41 -1 -71.5 -28t-50.5 -66.5t-30 -84t-10 -80.5q0 -24 3.5 -46.5t12.5 -40t24.5 -28t40.5 -10.5q14 0 30 7t25 19q12 86 26.5 178t22.5 178zM467 474q-9 -77 -21 -156t-22 -157t-14.5 -154t1.5 -149
l68 8q-3 75 3 150t15.5 149.5t20 148.5t18.5 149z" />
    <glyph glyph-name="bullet" unicode="&#x2022;" horiz-adv-x="466" 
d="M393 300q1 -39 -14 -71.5t-40 -55.5t-58 -36t-69 -13q-57 0 -95.5 34t-39.5 91q-1 40 14.5 72t41 54t58.5 33.5t69 11.5q27 0 51 -8.5t42 -24.5t29 -38t11 -49z" />
    <glyph glyph-name="quotesinglbase" unicode="&#x201a;" horiz-adv-x="270" 
d="M223 205q5 -41 0.5 -81.5t-19 -77t-39 -65.5t-57.5 -47l-87 32q23 22 36.5 48.5t19.5 54.5t7 56t-1 53l140 27v0z" />
    <glyph glyph-name="quotedblbase" unicode="&#x201e;" horiz-adv-x="461" 
d="M412 205q5 -41 0.5 -81.5t-19 -77t-39 -65.5t-57.5 -47l-87 32q23 22 36.5 48.5t19.5 54.5t7 56t-1 53zM223 205q5 -41 0.5 -81.5t-19 -77t-39 -65.5t-57.5 -47l-87 32q23 22 36.5 48.5t19.5 54.5t7 56t-1 53z" />
    <glyph glyph-name="quotedblright" unicode="&#x201d;" horiz-adv-x="461" 
d="M436 755q5 -41 0.5 -81.5t-19 -77t-39 -65.5t-57.5 -47l-87 32q23 22 36.5 48.5t19.5 54.5t7 56t-1 53zM247 755q5 -41 0.5 -81.5t-19 -77t-39 -65.5t-57.5 -47l-87 32q23 22 36.5 48.5t19.5 54.5t7 56t-1 53z" />
    <glyph glyph-name="guillemotright" unicode="&#xbb;" horiz-adv-x="630" 
d="M592 238q-24 -26 -50.5 -52.5t-54.5 -51.5t-56 -48t-54 -42l-86 68q41 31 86.5 76t81.5 89q-22 41 -62 87.5t-82 84.5l98 73q24 -18 48 -41.5t46.5 -48t41.5 -49.5t33 -47zM330 238q-24 -26 -50.5 -52.5t-54.5 -51.5t-56 -48t-54 -42l-86 68q41 31 86.5 76t81.5 89
q-22 41 -62 87.5t-82 84.5l98 73q24 -18 48 -41.5t46.5 -48t41.5 -49.5t33 -47z" />
    <glyph glyph-name="ellipsis" unicode="&#x2026;" horiz-adv-x="903" 
d="M218 59q0 -22 -8.5 -38.5t-23 -28t-32 -17t-33.5 -5.5q-15 0 -29 4t-25.5 13t-19 22.5t-7.5 32.5q0 22 8 39.5t21.5 29t30.5 17.5t35 6q32 0 57 -18.5t26 -56.5zM842 59q0 -22 -8.5 -38.5t-23 -28t-32 -17t-33.5 -5.5q-15 0 -29 4t-25.5 13t-19 22.5t-7.5 32.5
q0 22 8 39.5t21.5 29t30.5 17.5t35 6q32 0 57 -18.5t26 -56.5zM530 59q0 -22 -8.5 -38.5t-23 -28t-32 -17t-33.5 -5.5q-15 0 -29 4t-25.5 13t-19 22.5t-7.5 32.5q0 22 8 39.5t21.5 29t30.5 17.5t35 6q32 0 57 -18.5t26 -56.5z" />
    <glyph glyph-name="perthousand" unicode="&#x2030;" horiz-adv-x="1216" 
d="M1172 186q0 -50 -15 -87.5t-40.5 -63t-60.5 -38.5t-75 -13q-66 0 -105 34.5t-39 109.5q0 47 13.5 84t38.5 63t60.5 39.5t78.5 13.5q64 0 104 -34t40 -108zM804 186q0 -50 -15 -87.5t-40.5 -63t-60.5 -38.5t-75 -13q-66 0 -105 34.5t-39 109.5q0 47 13.5 84t38.5 63
t60.5 39.5t78.5 13.5q64 0 104 -34t40 -108zM381 415q0 -50 -15 -87.5t-40.5 -63t-60.5 -38.5t-75 -13q-66 0 -105 34.5t-39 109.5q0 47 14 84t39 63t60.5 39.5t78.5 13.5q64 0 103.5 -34t39.5 -108zM697 557q-55 -84 -108 -150.5t-106.5 -129t-109 -128.5t-114.5 -149
l-107 -14q58 87 117 160t116 140t109 130.5t97 131.5zM691 186q-1 38 -12.5 55t-33.5 17q-26 0 -43.5 -33t-16.5 -99q0 -32 11 -52t34 -20q27 0 45 31t16 101zM1059 186q-1 38 -12.5 55t-33.5 17q-26 0 -43.5 -33t-16.5 -99q0 -32 11 -52t34 -20q27 0 45 31t16 101zM268 415
q-1 38 -12.5 55t-33.5 17q-26 0 -43.5 -33t-16.5 -99q0 -32 11 -52t34 -20q27 0 45 31t16 101z" />
    <glyph glyph-name="questiondown" unicode="&#xbf;" horiz-adv-x="388" 
d="M329 -216q-68 0 -126.5 13.5t-101.5 40.5t-67 68.5t-22 98.5q1 46 20.5 83t46 72t54.5 71.5t47 80.5l131 -33q-14 -41 -36 -74t-42.5 -63.5t-35 -60.5t-13.5 -65q0 -29 14.5 -50.5t39 -36t57.5 -21.5t71 -7zM361 484q0 -23 -8 -40t-21.5 -28.5t-30.5 -17.5t-35 -6
q-32 0 -57 18.5t-26 56.5q0 22 8.5 38.5t23 27.5t31.5 17t34 6q15 0 29 -4t25.5 -13t19 -22.5t7.5 -32.5z" />
    <glyph glyph-name="grave" unicode="`" horiz-adv-x="544" 
d="M323 596q-26 15 -49 39.5t-42 54t-32.5 62t-20.5 65.5l142 8q6 -24 16.5 -49.5t24 -50t29.5 -46.5t33 -40z" />
    <glyph glyph-name="acute" unicode="&#xb4;" horiz-adv-x="544" 
d="M471 814q-10 -33 -28.5 -65.5t-42 -61t-50.5 -52t-54 -38.5l-94 46q19 16 38 37t36 45t31 49.5t24 50.5l140 -11v0z" />
    <glyph glyph-name="circumflex" unicode="&#x2c6;" horiz-adv-x="544" 
d="M367 592q-21 23 -43 48.5t-48 55.5q-27 -20 -53.5 -47t-51.5 -53l-77 62q34 44 69 82.5t67 65.5l118 9q10 -20 24 -42.5t29.5 -45.5t32.5 -44t32 -36z" />
    <glyph glyph-name="tilde" unicode="&#x2dc;" horiz-adv-x="544" 
d="M481 679q-20 -20 -48.5 -32t-55.5 -12q-21 0 -39.5 6.5t-36.5 15t-36 15t-36 6.5q-22 0 -41.5 -11t-36.5 -25l-34 90q23 21 49 33.5t58 12.5q19 0 38.5 -6.5t38.5 -14.5t37.5 -14.5t37.5 -6.5q17 0 32.5 7t28.5 18l44 -82v0z" />
    <glyph glyph-name="macron" unicode="&#xaf;" horiz-adv-x="544" 
d="M443 674q-37 -15 -74.5 -16.5t-76 0.5t-76.5 3t-76 -9l-9 109q37 10 74 10.5t74.5 -1t74.5 -2t74 8.5l15 -103v0z" />
    <glyph glyph-name="breve" unicode="&#x2d8;" horiz-adv-x="544" 
d="M482 781q-6 -41 -24.5 -71.5t-46 -50.5t-62 -30t-73.5 -10q-66 1 -113.5 37t-67.5 94l90 52q17 -35 44 -54t55 -19q31 0 55.5 17t36.5 59l106 -24v0z" />
    <glyph glyph-name="dotaccent" unicode="&#x2d9;" horiz-adv-x="544" 
d="M387 718q0 -22 -9.5 -40t-25.5 -30.5t-35.5 -19.5t-38.5 -7q-15 0 -30.5 4.5t-27.5 13.5t-19.5 22t-7.5 30q0 22 10 39.5t25.5 29.5t35.5 18t40 6q15 0 29.5 -4.5t26.5 -12.5t19.5 -20.5t7.5 -28.5z" />
    <glyph glyph-name="dieresis" unicode="&#xa8;" horiz-adv-x="544" 
d="M250 713q0 -19 -8.5 -33.5t-20.5 -24.5t-26 -15.5t-26 -5.5q-11 0 -23 3.5t-21.5 11t-15 20t-5.5 29.5q0 19 8 33t20 24t26.5 15t27.5 6q10 0 21.5 -3.5t21 -11t15.5 -20t6 -28.5zM473 713q0 -19 -8.5 -33.5t-20.5 -24.5t-26 -15.5t-26 -5.5q-11 0 -23 3.5t-21.5 11
t-15 20t-5.5 29.5q0 19 8 33t20 24t26 15t27 6q10 0 22 -3.5t21.5 -11t15.5 -20t6 -28.5z" />
    <glyph glyph-name="ring" unicode="&#x2da;" horiz-adv-x="544" 
d="M458 736q0 -34 -13.5 -58t-35.5 -39.5t-49.5 -22.5t-55.5 -7q-25 0 -48.5 5.5t-41.5 18t-29 32t-11 47.5q0 33 13.5 57t35 39.5t48.5 23t55 7.5q23 0 46.5 -6t42.5 -18.5t31 -32t12 -46.5zM357 739q-1 20 -9.5 32t-25.5 12q-21 0 -36 -21t-13 -54q1 -20 10 -32.5
t27 -12.5q24 0 36.5 23.5t10.5 52.5z" />
    <glyph glyph-name="cedilla" unicode="&#xb8;" horiz-adv-x="544" 
d="M353 -134q0 -30 -14.5 -51.5t-37 -36t-49.5 -21.5t-52 -7q-26 0 -55 4.5t-52 15.5l23 56q14 -6 31.5 -8.5t32.5 -2.5q9 0 19.5 2.5t19.5 8t14.5 13.5t5.5 19t-6 18.5t-15.5 11.5t-20.5 5.5t-20 1.5q-16 0 -31 -2.5t-30 -6.5l4 53q25 8 51 13.5t53 5.5q25 0 48 -5t41 -16
t29 -28.5t11 -42.5z" />
    <glyph glyph-name="hungarumlaut" unicode="&#x2dd;" horiz-adv-x="544" 
d="M586 814q-9 -33 -26.5 -65.5t-39.5 -61.5t-47.5 -52.5t-50.5 -38.5l-88 46q18 16 35.5 37t33.5 45t29.5 50t22.5 51zM358 814q-9 -33 -26.5 -65.5t-39.5 -61.5t-47.5 -52.5t-50.5 -38.5l-88 46q18 16 35.5 37t33.5 45t29.5 50t22.5 51z" />
    <glyph glyph-name="ogonek" unicode="&#x2db;" horiz-adv-x="544" 
d="M327 -119q-14 6 -31.5 8.5t-32.5 2.5q-9 0 -19.5 -2.5t-19.5 -8t-14.5 -13.5t-5.5 -19t6 -18.5t15.5 -11.5t20.5 -5.5t20 -1.5q16 0 31 2.5t30 6.5l-4 -53q-25 -8 -51 -13.5t-53 -5.5q-25 0 -48 5t-41 16t-29 28.5t-11 42.5q0 30 14.5 51.5t37 36t49.5 21.5t52 7
q26 0 55 -4.5t52 -15.5z" />
    <glyph glyph-name="caron" unicode="&#x2c7;" horiz-adv-x="544" 
d="M461 773q-34 -44 -69 -82.5t-67 -65.5l-118 -9q-10 19 -24 42t-30 46t-32.5 44t-31.5 36l99 55q21 -23 43 -48.5t48 -55.5q27 20 53.5 47t51.5 53l77 -62v0z" />
    <glyph glyph-name="emdash" unicode="&#x2014;" horiz-adv-x="1050" 
d="M987 246q-44 -4 -117.5 -4.5t-162.5 0.5t-186.5 3t-187.5 3t-166.5 0t-124.5 -5l16 103q45 3 119 4t163.5 0t186 -2.5t187 -2t166.5 0.5t124 5z" />
    <glyph glyph-name="AE" unicode="&#xc6;" horiz-adv-x="989" 
d="M969 653q-75 5 -149.5 -3.5t-153.5 -22.5q-3 -43 -7.5 -90.5t-11.5 -92.5q24 3 58 6.5t70 6.5t70.5 6t60.5 4l5 -129q-24 -1 -56.5 -3.5t-66.5 -5.5t-65.5 -6t-52.5 -6l-36 37q-5 -32 -7 -55t-3 -52q-1 -33 5 -57t21 -40.5t39.5 -24.5t61.5 -8q25 0 53 4.5t55.5 12.5
t53.5 18.5t46 22.5l5 -142q-26 -12 -58.5 -21.5t-69 -15.5t-75.5 -9t-77 -3q-48 0 -87 11.5t-66 35.5t-41.5 61t-14.5 87q-47 2 -93.5 -3.5t-86.5 -10.5l-33 55q-31 -48 -61.5 -103t-53.5 -105l-166 -22q88 193 213.5 383.5t280.5 353.5q58 6 115.5 16.5t115.5 19t116 13
t117 0.5zM519 599q-59 -72 -118 -153.5t-106 -155.5q44 4 93 8t91 4q7 61 18 131.5t22 165.5z" />
    <glyph glyph-name="ordfeminine" unicode="&#xaa;" horiz-adv-x="472" 
d="M425 576q-5 -24 -11 -53t-11.5 -59.5t-9.5 -60t-5 -53.5q-2 -36 4 -64t23 -49l-107 -35q-11 12 -20 31.5t-11 27.5q-11 -11 -26 -25.5t-29 -23.5q-9 -3 -22.5 -5.5t-24.5 -2.5q-58 0 -91.5 39t-33.5 105q0 57 17 103.5t48 80.5t73 52.5t93 18.5q38 0 75 -8t69 -19z
M297 530q-6 5 -15 6.5t-16 1.5q-18 0 -35 -13.5t-30.5 -37.5t-21.5 -57t-8 -71q0 -33 10.5 -53.5t32.5 -21.5q14 0 29.5 8.5t25.5 27.5q3 49 11 105.5t17 104.5z" />
    <glyph glyph-name="Lslash" unicode="&#x141;" horiz-adv-x="548" 
d="M536 23q-25 -10 -57.5 -17.5t-67 -12t-69 -7t-63.5 -2.5q-46 0 -85.5 11.5t-68.5 38t-44.5 69t-13.5 103.5q1 34 5 71.5t9 76.5l-64 -20l-2 88l79 26q11 78 22 153t13 135l153 34q-2 -69 -7.5 -136.5t-14.5 -133.5l138 46l2 -90l-151 -49q-7 -49 -12 -92t-6 -80
q-2 -55 24.5 -84.5t94.5 -29.5q21 0 46 3t49.5 9t46.5 13.5t38 16.5l6 -140v0z" />
    <glyph glyph-name="Oslash" unicode="&#xd8;" horiz-adv-x="738" 
d="M709 454q0 -90 -25.5 -174.5t-75.5 -150t-124 -105.5t-172 -40q-77 0 -135 27l-51 -85h-60l67 110q-30 22 -50 52.5t-32 65.5t-17.5 74t-5.5 79q0 90 25 174.5t75 149.5t124.5 104t173.5 39q76 0 136 -29l60 100h64l-78 -128q28 -23 47.5 -52t31.5 -63t17 -71.5t5 -76.5z
M487 625q-17 17 -39 26.5t-51 9.5q-40 0 -70.5 -18t-52.5 -47.5t-36.5 -67t-23.5 -77t-12.5 -77.5t-3.5 -68q0 -32 5 -65t19 -61zM539 451q0 32 -4 63.5t-17 58.5l-265 -442q15 -14 34.5 -22.5t44.5 -8.5q64 0 104.5 36.5t63 90t31 114.5t8.5 110z" />
    <glyph glyph-name="OE" unicode="&#x152;" horiz-adv-x="1029" 
d="M1009 653q-76 5 -168 -8t-195 -31q10 -5 19.5 -10t17.5 -10q9 -5 17 -10q-2 -32 -4.5 -67t-7.5 -73q25 3 58.5 6.5t69 7t70 6t60.5 3.5l5 -128q-24 -1 -57 -3.5t-67.5 -5.5t-65.5 -6.5t-51 -5.5l-35 36q-3 -16 -4.5 -28.5t-2.5 -25.5t-2 -26.5t-1 -30.5q0 -28 5.5 -51
t19.5 -39.5t38.5 -26t62.5 -9.5q19 0 45 3.5t54 10.5t56 18t53 26l4 -142q-23 -11 -54 -20t-65.5 -15.5t-71 -10t-70.5 -3.5q-33 0 -63 5.5t-54.5 19t-42.5 37t-27 59.5q-42 -59 -105 -90t-142 -31q-59 0 -110 17t-88.5 56t-59 102t-21.5 154q0 106 30 191.5t83.5 145.5
t126.5 92t159 32q43 0 90 -12.5t80 -38.5q39 12 86 23.5t97.5 19.5t102.5 11t100 -1zM542 442q3 65 -7 107t-29.5 66.5t-47 34t-59.5 9.5t-67 -18t-64 -59t-47.5 -107.5t-18.5 -162.5q0 -109 34.5 -159.5t96.5 -50.5q39 0 75 16.5t64 55.5t46.5 104.5t23.5 163.5z" />
    <glyph glyph-name="ordmasculine" unicode="&#xba;" horiz-adv-x="472" 
d="M419 439q-2 -61 -22.5 -105.5t-51.5 -73.5t-69.5 -43t-76.5 -15q-34 -1 -62 7t-48 27.5t-30 52t-8 81.5q3 52 20.5 94.5t47 73.5t69 48t85.5 17q33 0 60.5 -9t47 -28.5t29.5 -51t9 -75.5zM294 431q3 98 -44 98q-28 0 -48.5 -38t-25.5 -105q-2 -22 -0.5 -42t6.5 -35.5
t14 -25t23 -9.5q31 0 52 35.5t23 121.5z" />
    <glyph glyph-name="ae" unicode="&#xe6;" horiz-adv-x="790" 
d="M768 414q0 -40 -17.5 -77t-48 -65.5t-72 -46t-90.5 -17.5q-4 0 -7.5 0.5t-7.5 0.5q-3 2 -19.5 13.5t-30.5 24.5q-3 -26 -0.5 -52.5t12.5 -48.5t29.5 -36t51.5 -14q29 0 67 14t74 43l19 -113q-21 -15 -46.5 -25.5t-53.5 -17t-56 -10t-55 -3.5q-63 0 -104.5 27t-67.5 69
q-23 -24 -54.5 -49.5t-55.5 -42.5q-11 -2 -28 -2.5t-27 0.5q-40 2 -69.5 19t-49.5 44t-30 63t-10 77q0 75 23.5 142t65 117.5t97.5 79.5t121 29q30 0 66.5 -5.5t65.5 -16.5l-2 -37q13 12 30.5 23t36.5 19t38 12.5t35 4.5q36 0 67 -8.5t54 -26t36 -44.5t13 -64zM357 452
q-17 11 -37 11q-25 0 -44.5 -13.5t-34.5 -35.5t-26 -50t-18 -56t-10.5 -54t-3.5 -43q0 -54 16 -90.5t54 -36.5q22 0 39.5 13.5t29.5 32.5q-3 31 -1 72t7 84.5t12.5 87t16.5 78.5zM622 416q0 24 -10.5 39.5t-30.5 15.5t-36.5 -14t-29.5 -38.5t-22.5 -57.5t-14.5 -72
q26 -2 51.5 7.5t46 27.5t33.5 42t13 50z" />
    <glyph glyph-name="dotlessi" unicode="&#x131;" horiz-adv-x="288" 
d="M241 557q3 -47 -1 -96t-10 -98t-12.5 -97t-9.5 -92q-3 -48 -3 -89t7 -74l-156 -27q-8 31 -9.5 69.5t0.5 78.5q2 46 9 98t13.5 104.5t10.5 103.5t1 96l160 23v0z" />
    <glyph glyph-name="lslash" unicode="&#x142;" horiz-adv-x="317" 
d="M278 771q0 -78 -7.5 -153t-17.5 -150l47 16v-85l-58 -17q-12 -91 -19.5 -182t-1.5 -186l-157 -29q-8 89 -4 174.5t14 170.5l-53 -16v83l64 18q11 80 22.5 159.5t17.5 161.5l153 35v0z" />
    <glyph glyph-name="oslash" unicode="&#xf8;" horiz-adv-x="534" 
d="M513 348q0 -71 -19.5 -137t-57.5 -116.5t-96 -80.5t-134 -30q-37 0 -68 11l-41 -76h-48l50 93q-39 26 -58.5 71t-19.5 105q0 68 18.5 134.5t56 118.5t93.5 84t131 32q37 0 67 -9l45 83h51l-55 -101q42 -26 63.5 -72.5t21.5 -109.5zM353 322q0 19 -0.5 40t-2.5 34
l-153 -294q7 -14 20.5 -22.5t30.5 -8.5q24 0 43 18.5t32.5 51.5t21 79t8.5 102zM331 449q-15 22 -45 22q-21 0 -39 -17t-31.5 -48t-22 -73t-10.5 -93q-1 -19 -1.5 -42.5t1.5 -37.5z" />
    <glyph glyph-name="oe" unicode="&#x153;" horiz-adv-x="819" 
d="M797 414q0 -46 -20.5 -84t-53 -65t-73.5 -42t-83 -15q-5 0 -8.5 0.5t-10.5 0.5q-3 2 -9 7.5t-13 11.5t-13.5 11.5t-8.5 7.5q-3 -24 -0.5 -51t12 -49t29 -36.5t51.5 -14.5q35 0 74 17t68 40l19 -113q-21 -15 -46.5 -25.5t-53 -17t-55 -10t-52.5 -3.5q-110 0 -155 86
q-41 -50 -90 -68t-100 -18q-92 0 -138 55.5t-46 145.5q0 85 23 154t63 117.5t93.5 74.5t114.5 26q43 0 81 -19t58 -65q33 40 77 62t95 22q34 0 65 -7.5t54.5 -24.5t37.5 -44.5t14 -66.5zM351 330q2 71 -14 104t-51 33q-20 0 -38 -18t-32.5 -52t-23 -83t-8.5 -111
q0 -66 15.5 -96t47.5 -30q20 0 38.5 15t32.5 46.5t22.5 79t10.5 112.5zM651 417q0 22 -10.5 38t-31.5 16t-38.5 -17.5t-30.5 -44.5t-21.5 -59t-11.5 -61q24 -2 49.5 7.5t46.5 26.5t34.5 41t13.5 53z" />
    <glyph glyph-name="germandbls" unicode="&#xdf;" horiz-adv-x="616" 
d="M582 160q0 -47 -21.5 -82.5t-59 -60t-87.5 -38t-106 -17.5l-37 102q75 5 114 30.5t39 55.5q0 27 -18.5 50t-40 49t-40 57.5t-18.5 75.5q0 33 16.5 61t36 52.5t36.5 48t18 47.5q1 23 -14 40t-47 16q-44 -2 -74 -46t-41 -116q-5 -35 -9.5 -85t-8.5 -104.5t-8 -108.5t-9 -97
q-11 -97 -34 -175.5t-67 -132.5l-121 53q34 60 50.5 127.5t25.5 155.5q4 41 7 92t6 103t6.5 100.5t9.5 85.5q9 60 35 106.5t63.5 78t84 48t97.5 16.5q94 0 151.5 -36t57.5 -106q0 -37 -16.5 -64.5t-37 -51t-37 -46.5t-16.5 -51t18 -54t39 -53.5t39 -58t18 -67.5z" />
    <glyph glyph-name="onesuperior" unicode="&#xb9;" horiz-adv-x="421" 
d="M333 295l-261 -9l2 88q19 1 39.5 1.5t38.5 1.5q2 64 11 133.5t18 133.5l-87 -27l-15 79l134 59l96 16q-1 -47 -5.5 -95t-10.5 -97t-11.5 -98.5t-8.5 -99.5q15 1 30.5 1.5t36.5 0.5z" />
    <glyph glyph-name="logicalnot" unicode="&#xac;" horiz-adv-x="686" 
d="M622 376q-1 -41 -4.5 -85.5t-7.5 -89t-7.5 -88.5t-3.5 -83l-127 -16q2 62 5 123.5t6 123.5q-41 0 -101 1t-123 1t-121.5 -1t-96.5 -4l14 113q64 4 136 4t146.5 -1.5t147 -2t137.5 4.5z" />
    <glyph glyph-name="mu" unicode="&#xb5;" horiz-adv-x="572" 
d="M540 556q-5 -34 -13 -78.5t-15.5 -94.5t-14 -102.5t-8.5 -102t1 -93.5t14 -76l-147 -25q-7 17 -10.5 47t-5.5 55q-23 -41 -50.5 -66.5t-59.5 -30.5q-19 -2 -26 -0.5t-14 3.5q-8 -59 -12 -113t-6 -96q-11 1 -31 3t-42 5t-43.5 7t-34.5 7q0 27 3 65t8.5 81t12 88.5t13 87
t11.5 76t7 56.5q3 32 6 68.5t4 72t-1 68t-8 56.5l147 34q13 -40 14 -93t-4 -115q-2 -21 -5 -45.5t-6 -48.5t-5.5 -45.5t-3.5 -36.5q-3 -37 5.5 -61t34.5 -24q38 0 62 64t39 179l27 205l157 19v0z" />
    <glyph glyph-name="trademark" unicode="&#x2122;" horiz-adv-x="884" 
d="M715 386q-8 16 -12 38.5t-6.5 49t-2.5 54.5t1 55q-15 -25 -28 -51t-23.5 -48.5t-17.5 -40t-9 -24.5l-80 -22q-15 32 -26.5 83.5t-23.5 102.5q-5 -18 -10.5 -41t-10.5 -47.5t-8.5 -48t-4.5 -43.5q-3 0 -17.5 -3t-32 -6t-33.5 -5.5t-20 -3.5q-1 50 8 94t22.5 86.5t28 86
t23.5 93.5l95 21q23 -54 34.5 -114t27.5 -114q16 24 33 53.5t33.5 59t30.5 55.5t23 43l112 19q-7 -45 -13 -94t-8 -97t2.5 -92t18.5 -80zM370 698q-18 -8 -39 -13t-56 -7q-6 -32 -12.5 -67.5t-11 -72t-6 -71t1.5 -62.5l-107 -15q-7 72 5 143t23 141q-26 0 -56 -4.5
t-54 -12.5l4 87q39 12 80 15t81.5 4.5t79.5 6t76 18.5z" />
    <glyph glyph-name="Eth" unicode="&#xd0;" horiz-adv-x="789" 
d="M755 433q1 -92 -29.5 -174.5t-87 -144.5t-136 -98.5t-176.5 -36.5q-18 0 -42 1.5t-43 4.5l-42 47l-147 -50q14 88 27.5 174t24.5 174h-82l10 82h81q6 53 11.5 106t10.5 108l-58 -13q-4 30 -6 61t0 57q79 21 159 32t158 11q83 0 150 -22t115 -65.5t74 -107t28 -146.5z
M587 420q-2 115 -65 175.5t-181 60.5q-9 0 -21.5 -0.5t-26.5 -2t-28 -3.5t-26 -5q4 -3 10.5 -9t13.5 -13t13.5 -14t10.5 -11q-4 -48 -8.5 -94t-9.5 -92h155l-10 -82h-155q-8 -55 -16.5 -110.5t-19.5 -115.5q21 -6 42.5 -8.5t40.5 -2.5q69 0 121.5 28t88.5 74t54 104.5
t17 120.5z" />
    <glyph glyph-name="onehalf" unicode="&#xbd;" horiz-adv-x="931" 
d="M867 -9q-80 -3 -158.5 -0.5t-157.5 15.5l-11 85q32 15 68.5 38t67 50t51 56.5t20.5 56.5q0 32 -26 48t-68 16q-19 0 -42.5 -3t-40.5 -8l21 100q27 5 49.5 7.5t42.5 2.5q35 0 71 -8t64.5 -25.5t46.5 -45t18 -67.5q0 -32 -15 -62t-39 -57.5t-54.5 -51.5t-62.5 -43
q37 -2 85 -1.5t93 4.5zM691 762q-41 -96 -93.5 -190t-108 -188.5t-109.5 -188.5t-99 -190l-105 -13q44 103 97.5 202.5t108.5 194.5t107.5 186t95.5 178zM286 294l-261 -8l2 87q19 1 39.5 2t38.5 2q2 64 11 133t18 133l-87 -27l-15 80l134 59l96 15q-1 -47 -5.5 -95
t-10.5 -96.5t-11.5 -98t-8.5 -99.5q15 1 30.5 1h36.5z" />
    <glyph glyph-name="plusminus" unicode="&#xb1;" horiz-adv-x="545" 
d="M477 321q-42 -2 -78.5 -3t-76.5 0q-5 -37 -7.5 -70t-4.5 -68l-121 -3q1 38 3 72t7 75q-35 2 -68 2.5t-71 1.5l2 105q41 2 77.5 1.5t74.5 -1.5q5 35 8.5 67t7.5 67l119 9q-2 -38 -4.5 -74t-7.5 -75q35 -1 67 -0.5t68 1.5zM457 -3q-53 -3 -103 -2.5t-100.5 2t-103 4
t-110.5 3.5l13 102q57 2 107.5 1t99.5 -3t99 -3.5t104 0.5z" />
    <glyph glyph-name="Thorn" unicode="&#xde;" horiz-adv-x="633" 
d="M612 427q1 -59 -21 -112.5t-65.5 -93.5t-108 -61t-148.5 -14q-5 4 -11.5 12t-12.5 16t-11 15t-7 10q-2 -19 -3.5 -43t-2.5 -49.5t-1.5 -50t1.5 -43.5l-157 -29q-5 78 2.5 175.5t20 200.5t26.5 203.5t23 184.5q20 5 37.5 8.5t36 6.5t39.5 5t48 3q-2 -32 -4.5 -64t-7.5 -71
q23 3 41 4t36 1q55 0 100.5 -16t78.5 -44.5t51.5 -68t19.5 -85.5zM447 410q-1 64 -48.5 92t-127.5 13q-8 -66 -17 -124t-17 -119q42 -9 80 -3t67 25t46 48.5t17 67.5z" />
    <glyph glyph-name="onequarter" unicode="&#xbc;" horiz-adv-x="931" 
d="M868 75q-6 -1 -24.5 -1.5t-40.5 -2.5q-2 -19 -3.5 -43.5t-1.5 -34.5l-114 -9q0 5 1 16t2.5 23.5t3 25.5t2.5 21q-57 2 -107 5t-85 8l-7 92q16 42 37.5 75.5t42.5 65t38 63t25 68.5l116 18q-3 -48 -19 -85t-37.5 -70t-44.5 -66.5t-40 -74.5q21 -2 47 -3t49 -1
q6 35 11.5 64t10.5 61l105 7q-5 -43 -9 -71t-9 -56q15 1 33 2t26 2zM708 762q-41 -96 -93.5 -190t-108 -188.5t-109.5 -188.5t-99 -190l-105 -13q44 103 97.5 202.5t108.5 194.5t107.5 186t95.5 178zM296 295l-261 -9l2 88q19 1 39.5 1.5t38.5 1.5q2 64 11 133.5t18 133.5
l-87 -27l-15 79l134 59l96 16q-1 -47 -5.5 -95t-10.5 -97t-11.5 -98.5t-8.5 -99.5q15 1 30.5 1.5t36.5 0.5z" />
    <glyph glyph-name="divide" unicode="&#xf7;" horiz-adv-x="590" 
d="M521 218q-59 -3 -113.5 -2.5t-109.5 2t-112.5 4t-120.5 3.5l8 87q63 2 118.5 1t109.5 -3t108.5 -3.5t113.5 0.5zM390 473q0 -22 -8.5 -38.5t-23 -28t-32 -17t-33.5 -5.5q-15 0 -29 4t-25.5 13t-19 22.5t-7.5 32.5q0 22 8 39.5t21.5 29t30.5 17.5t35 6q32 0 57 -18.5
t26 -56.5zM352 67q0 -22 -8.5 -38.5t-23 -28t-32 -17t-33.5 -5.5q-15 0 -29 4t-25.5 13t-19 22.5t-7.5 32.5q0 22 8 39.5t21.5 29t30.5 17.5t35 6q32 0 57 -18.5t26 -56.5z" />
    <glyph glyph-name="brokenbar" unicode="&#xa6;" horiz-adv-x="283" 
d="M200 296q-8 -81 -13.5 -152.5t-6.5 -142.5l-125 -17q0 79 5 154.5t13 157.5h127zM245 766q-4 -68 -10 -137.5t-14 -141.5h-127q8 72 14 138t11 128z" />
    <glyph glyph-name="degree" unicode="&#xb0;" horiz-adv-x="462" 
d="M436 590q0 -45 -17.5 -80t-47 -60t-69 -38t-84.5 -13q-39 0 -71 10.5t-55.5 30.5t-36.5 49.5t-13 67.5q0 45 17.5 81t48 60.5t71 37.5t85.5 13q37 0 68.5 -11.5t54.5 -32.5t36 -50t13 -65zM305 583q0 12 -2.5 26t-9.5 25.5t-18 19t-28 7.5q-21 0 -35 -10t-22.5 -25
t-12 -32t-3.5 -32q0 -12 3 -25t9.5 -23.5t17.5 -17.5t27 -7q20 0 34 9t23 23t13 30.5t4 31.5z" />
    <glyph glyph-name="thorn" unicode="&#xfe;" horiz-adv-x="610" 
d="M580 358q0 -80 -22 -147.5t-60.5 -117t-91.5 -77t-115 -27.5q-28 0 -42.5 2.5t-25.5 5.5q-3 -27 -6.5 -57.5t-6.5 -59.5t-5 -54.5t-2 -42.5q-37 3 -74 7.5t-72 9.5q1 56 6.5 128t13.5 151t17 160t17 155q-16 -8 -27.5 -14t-22.5 -11l-11 92q17 9 35.5 17.5t37.5 16.5
q3 29 6.5 60t6.5 61.5t5.5 58.5t3.5 50l148 13q-2 -35 -6.5 -88.5t-13.5 -120.5q36 12 68.5 17t59.5 3q38 -3 70.5 -15.5t56.5 -36t38 -58.5t14 -81zM414 284q2 30 0 58.5t-10.5 51.5t-23 37.5t-38.5 16.5q-17 2 -36 -3.5t-42 -14.5q-4 -40 -8 -83.5t-8 -87.5t-8.5 -86.5
t-8.5 -79.5q12 -14 26.5 -19.5t34.5 -6.5q26 -1 47 17.5t37 49t25.5 69.5t12.5 81z" />
    <glyph glyph-name="threequarters" unicode="&#xbe;" horiz-adv-x="931" 
d="M373 440q0 -41 -22.5 -69.5t-57 -47.5t-76 -27.5t-80.5 -8.5q-26 0 -56 6t-47 14l9 93q7 -3 19.5 -6.5t25.5 -6.5t25 -4.5t20 -1.5q45 0 74.5 15t29.5 43q0 17 -16 27.5t-38.5 16t-47 7t-42.5 0.5l1 86q14 -1 28 -1h19q19 0 36.5 3t31 9t22 15t8.5 21t-9 21t-23.5 14
t-33.5 7.5t-38 2.5q-36 0 -69 -6l21 89q26 4 50.5 5.5t44.5 1.5q27 0 59.5 -5t61 -17.5t48 -33.5t19.5 -54q0 -38 -29 -66.5t-86 -37.5q58 -7 88 -35.5t30 -68.5zM882 75q-6 -1 -24 -1.5t-40 -2.5q-2 -19 -4 -43.5t-2 -34.5l-113 -9q0 5 1 16t2.5 23.5t2.5 25.5t2 21
q-57 2 -107 5t-85 8l-7 92q16 42 38 75.5t43 65t38 63t25 68.5l116 18q-3 -48 -19 -85t-37.5 -70t-44.5 -66.5t-40 -74.5q21 -2 47 -3t49 -1q6 35 11 64t10 61q5 0 22.5 1t36.5 3q22 2 47 3q-5 -43 -9.5 -71t-9.5 -56q15 1 33 2t26 2zM728 762q-41 -96 -93.5 -190
t-108 -188.5t-109.5 -188.5t-99 -190l-105 -13q44 103 97.5 202.5t108.5 194.5t107.5 186t95.5 178z" />
    <glyph glyph-name="twosuperior" unicode="&#xb2;" horiz-adv-x="421" 
d="M360 300q-80 -3 -158.5 0t-157.5 16l-11 85q32 15 68.5 37.5t67 49.5t50.5 56t20 56q0 32 -25.5 48.5t-67.5 16.5q-19 0 -42.5 -3t-40.5 -8l21 100q27 5 49.5 8t42.5 3q35 0 71 -8t64.5 -25.5t46.5 -45.5t18 -68q0 -32 -15 -62t-39 -57.5t-55 -51.5t-63 -43
q37 -2 85 -1.5t93 4.5z" />
    <glyph glyph-name="registered" unicode="&#xae;" horiz-adv-x="828" 
d="M786 372q0 -81 -29.5 -150.5t-80 -121t-118 -81t-144.5 -29.5t-144.5 29.5t-118 81t-79.5 121t-29 150.5t29 150.5t79.5 120.5t118 80.5t144.5 29.5t144.5 -29.5t118 -80.5t80 -120.5t29.5 -150.5zM728 372q0 69 -24 129.5t-66 105.5t-99.5 70.5t-124.5 25.5t-124 -25.5
t-99 -70.5t-65.5 -105.5t-23.5 -129.5t23.5 -129.5t65.5 -105.5t99 -71t124 -26t124.5 26t99.5 71t66 105.5t24 129.5zM506 180q-20 15 -37.5 35.5t-33.5 42t-31 43.5t-30 40q-5 -35 -9.5 -71t-2.5 -72l-88 -19q-4 37 -1 77.5t8 80.5t11.5 78.5t9.5 73.5q-7 -2 -12 -3
t-15 -2q-2 20 -3.5 36t0.5 31q37 12 82.5 17.5t82.5 5.5q20 0 43 -4.5t42.5 -16t33 -30.5t15.5 -48q2 -45 -25.5 -77.5t-71.5 -41.5q25 -38 51.5 -69.5t54.5 -54.5zM479 462q0 25 -17.5 35.5t-40.5 10.5h-14t-14 -2q-2 -29 -5 -57.5t-8 -56.5q17 -2 34.5 1t32 11.5t23.5 23
t9 34.5z" />
    <glyph glyph-name="minus" unicode="&#x2212;" horiz-adv-x="500" 
d="M417 231q-36 -3 -79.5 -2.5t-90 2t-92.5 3t-86 0.5l14 111q42 1 86.5 -0.5t89.5 -2.5t89 -1.5t84 1.5z" />
    <glyph glyph-name="eth" unicode="&#xf0;" horiz-adv-x="558" 
d="M517 389q0 -90 -21 -164.5t-60 -127.5t-95 -82.5t-125 -29.5q-91 0 -142.5 55t-51.5 152q0 64 18.5 118.5t49.5 96t70 68t80 34.5q5 -1 17 -3.5t27 -6t31 -9.5t30 -14q-17 53 -55.5 89.5t-89.5 58.5l-37 -69l-73 6l43 81q-17 4 -34.5 6.5t-35.5 3.5q8 31 22 65t27 58
q37 0 77 -8l35 67l72 -7l-39 -74q55 -17 103 -49t82.5 -78t54.5 -105.5t20 -131.5zM354 349q0 22 -1.5 40.5t-3.5 38.5q-8 3 -19.5 5t-21.5 2q-26 -1 -48 -25t-39 -60t-26.5 -77.5t-9.5 -76.5q0 -21 3.5 -42t11.5 -37.5t20.5 -26t29.5 -8.5q27 1 46.5 30t32.5 70t19 86.5
t6 80.5z" />
    <glyph glyph-name="multiply" unicode="&#xd7;" horiz-adv-x="611" 
d="M442 31q-44 40 -80.5 82t-73.5 84q-78 -77 -150 -165l-91 74q38 51 77.5 92.5t80.5 80.5q-32 36 -66.5 74t-69.5 74l87 86q38 -35 73.5 -72.5t70.5 -75.5q38 37 71.5 74t65.5 80l97 -71q-34 -45 -72.5 -85.5t-78.5 -79.5q37 -41 73.5 -81t80.5 -82z" />
    <glyph glyph-name="threesuperior" unicode="&#xb3;" horiz-adv-x="421" 
d="M369 440q0 -41 -22.5 -69.5t-57 -47.5t-76 -27.5t-80.5 -8.5q-26 0 -56 6t-47 14l9 93q7 -3 19.5 -6.5t25.5 -6.5t25 -4.5t20 -1.5q45 0 74.5 15t29.5 43q0 17 -16 27.5t-38.5 16t-47 7t-42.5 0.5l1 86q14 -1 28 -1h19q19 0 36.5 3t31 9t22 15t8.5 21t-9 21t-23.5 14
t-33.5 7.5t-38 2.5q-36 0 -69 -6l21 89q26 4 50.5 5.5t44.5 1.5q27 0 59.5 -5t61 -17.5t48 -33.5t19.5 -54q0 -38 -29 -66.5t-86 -37.5q58 -7 88 -35.5t30 -68.5z" />
    <glyph glyph-name="copyright" unicode="&#xa9;" horiz-adv-x="827" 
d="M785 372q0 -81 -29 -150.5t-79.5 -121t-118 -81t-144.5 -29.5t-144.5 29.5t-118 81t-79.5 121t-29 150.5t29 150.5t79.5 120.5t118 80.5t144.5 29.5t144.5 -29.5t118 -80.5t79.5 -120.5t29 -150.5zM728 372q0 69 -24 129.5t-66 105.5t-99.5 70.5t-124.5 25.5t-124 -25.5
t-99 -70.5t-65.5 -105.5t-23.5 -129.5t23.5 -129.5t65.5 -105.5t99 -71t124 -26t124.5 26t99.5 71t66 105.5t24 129.5zM499 451q-7 21 -22.5 36t-38.5 15q-26 0 -43.5 -15.5t-29 -38.5t-16.5 -49t-5 -46q0 -42 20 -67.5t64 -25.5q26 0 56 9t53 22l16 -71q-32 -20 -69 -29
t-75 -9q-78 0 -124.5 44t-46.5 124q0 45 15 85.5t42 71.5t65.5 49t85.5 18q44 0 78 -16t46 -62z" />
    <glyph glyph-name="Aacute" unicode="&#xc1;" horiz-adv-x="662" 
d="M490 -20q-17 32 -32 79.5t-29 107.5q-23 0 -49 -1.5t-52 -3.5t-50 -4.5t-43 -5.5l-40 62q-12 -27 -22 -51.5t-19 -48.5t-18.5 -49.5t-19.5 -54.5l-160 -23q29 96 70.5 198t90 203t100.5 196.5t101 177.5l136 20q27 -92 48.5 -197t43.5 -207.5t47 -194t59 -154.5zM405 295
q-6 28 -11.5 56t-11.5 59t-13 66.5t-16 79.5q-35 -67 -67.5 -133.5t-65.5 -142.5q40 5 88.5 10t96.5 5zM505 960q-9 -26 -26 -52t-39 -49t-46.5 -41.5t-49.5 -30.5l-86 37q35 26 67.5 65.5t50.5 79.5z" />
    <glyph glyph-name="Acircumflex" unicode="&#xc2;" horiz-adv-x="662" 
d="M490 -20q-17 32 -32 79.5t-29 107.5q-23 0 -49 -1.5t-52 -3.5t-50 -4.5t-43 -5.5l-40 62q-12 -27 -22 -51.5t-19 -48.5t-18.5 -49.5t-19.5 -54.5l-160 -23q29 96 70.5 198t90 203t100.5 196.5t101 177.5l136 20q27 -92 48.5 -197t43.5 -207.5t47 -194t59 -154.5zM476 796
q-20 18 -40 38l-44 44q-25 -15 -50 -37t-48 -42l-72 49q32 35 64.5 65.5t62.5 51.5l109 7q9 -15 22 -33t28 -36t30.5 -34.5t29.5 -28.5zM405 295q-6 28 -11.5 56t-11.5 59t-13 66.5t-16 79.5q-35 -67 -67.5 -133.5t-65.5 -142.5q40 5 88.5 10t96.5 5z" />
    <glyph glyph-name="Adieresis" unicode="&#xc4;" horiz-adv-x="662" 
d="M490 -20q-17 32 -32 79.5t-29 107.5q-23 0 -49 -1.5t-52 -3.5t-50 -4.5t-43 -5.5l-40 62q-12 -27 -22 -51.5t-19 -48.5t-18.5 -49.5t-19.5 -54.5l-160 -23q29 96 70.5 198t90 203t100.5 196.5t101 177.5l136 20q27 -92 48.5 -197t43.5 -207.5t47 -194t59 -154.5zM405 295
q-6 28 -11.5 56t-11.5 59t-13 66.5t-16 79.5q-35 -67 -67.5 -133.5t-65.5 -142.5q40 5 88.5 10t96.5 5zM368 874q0 -18 -7.5 -31.5t-18 -23t-22.5 -15t-23 -5.5q-10 0 -20 3t-18 10.5t-13 19t-5 27.5q0 18 7 31.5t17.5 22.5t23 14t23.5 6q9 0 19 -3t18.5 -10.5t13.5 -18.5
t5 -27zM563 874q0 -18 -7 -31.5t-17.5 -23t-23 -15t-22.5 -5.5t-20 3t-18.5 10.5t-13.5 19t-5 27.5q0 18 7 31.5t17.5 22.5t23 14t23.5 6q9 0 19 -3t18.5 -10.5t13.5 -18.5t5 -27z" />
    <glyph glyph-name="Agrave" unicode="&#xc0;" horiz-adv-x="662" 
d="M490 -20q-17 32 -32 79.5t-29 107.5q-23 0 -49 -1.5t-52 -3.5t-50 -4.5t-43 -5.5l-40 62q-12 -27 -22 -51.5t-19 -48.5t-18.5 -49.5t-19.5 -54.5l-160 -23q29 96 70.5 198t90 203t100.5 196.5t101 177.5l136 20q27 -92 48.5 -197t43.5 -207.5t47 -194t59 -154.5zM405 295
q-6 28 -11.5 56t-11.5 59t-13 66.5t-16 79.5q-35 -67 -67.5 -133.5t-65.5 -142.5q40 5 88.5 10t96.5 5zM370 831q-48 26 -83 76t-48 104l129 6q6 -20 15.5 -40.5t22 -40.5t27 -38t29.5 -32z" />
    <glyph glyph-name="Aring" unicode="&#xc5;" horiz-adv-x="662" 
d="M491 -20q-17 32 -32.5 79.5t-29.5 107.5q-23 0 -49 -1.5t-52 -3.5t-50 -4.5t-43 -5.5l-39 62q-12 -27 -22 -51.5t-19.5 -48.5t-19 -49.5t-19.5 -54.5l-160 -23q28 93 68.5 192t87 197t96.5 192t98 175q-23 11 -38 34.5t-15 52.5q0 33 13.5 57t36 40t51.5 24t60 8
q25 0 48.5 -6.5t42 -19t29.5 -32t11 -46.5q0 -39 -23 -69.5t-56 -41.5q24 -90 44 -190.5t41 -197t45 -182t56 -145.5zM405 295q-6 28 -11.5 56t-11.5 59t-13 66.5t-16 79.5q-35 -67 -67.5 -133.5t-65.5 -142.5q40 5 88.5 10t96.5 5zM448 853q0 20 -10.5 35t-32.5 15
q-23 0 -39.5 -20t-16.5 -54q0 -23 10 -37.5t33 -14.5q25 0 40.5 20.5t15.5 55.5z" />
    <glyph glyph-name="Atilde" unicode="&#xc3;" horiz-adv-x="662" 
d="M490 -20q-17 32 -32 79.5t-29 107.5q-23 0 -49 -1.5t-52 -3.5t-50 -4.5t-43 -5.5l-40 62q-12 -27 -22 -51.5t-19 -48.5t-18.5 -49.5t-19.5 -54.5l-160 -23q29 96 70.5 198t90 203t100.5 196.5t101 177.5l136 20q27 -92 48.5 -197t43.5 -207.5t47 -194t59 -154.5zM563 881
q-19 -20 -44 -32.5t-50 -12.5q-19 0 -36 7t-33.5 15t-33 15t-32.5 7q-20 0 -37.5 -11.5t-32.5 -25.5l-31 93q21 22 44.5 35t52.5 13q18 0 35 -7t34.5 -15t34.5 -15t34 -7q31 0 55 26zM405 295q-6 28 -11.5 56t-11.5 59t-13 66.5t-16 79.5q-35 -67 -67.5 -133.5t-65.5 -142.5
q40 5 88.5 10t96.5 5z" />
    <glyph glyph-name="Ccedilla" unicode="&#xc7;" horiz-adv-x="613" 
d="M492 559q-14 42 -40 69t-71 27q-32 0 -63 -23t-56 -65t-41 -101t-19 -130q-2 -50 6.5 -91t28 -70t50.5 -45t74 -16q24 0 50.5 5.5t52.5 15t50 22.5t43 28l9 -134q-55 -37 -125 -52t-148 -15q-63 0 -112 23.5t-82.5 66.5t-51.5 102.5t-18 130.5q0 107 30.5 193.5t82 147
t119 93.5t142.5 33q88 0 143 -32.5t72 -110.5zM428 -134q0 -30 -14.5 -51.5t-37 -36t-49.5 -21.5t-52 -7q-26 0 -55 4.5t-52 15.5l23 56q14 -6 31.5 -8.5t32.5 -2.5q9 0 19.5 2.5t19.5 8t14.5 13.5t5.5 19t-6 18.5t-15.5 11.5t-20.5 5.5t-20 1.5q-16 0 -31 -2.5t-30 -6.5
l4 53q25 8 51 13.5t53 5.5q25 0 48 -5t41 -16t29 -28.5t11 -42.5z" />
    <glyph glyph-name="Eacute" unicode="&#xc9;" horiz-adv-x="598" 
d="M577 653q-42 3 -81 1.5t-75.5 -6.5t-72.5 -11.5t-73 -12.5q-3 -46 -7.5 -88.5t-11.5 -91.5q22 2 53 5.5t66 7t71 6t69 4.5l5 -128q-29 -2 -62 -4.5t-65 -5.5t-62 -6t-53 -5l-35 36q-4 -28 -6.5 -54t-3.5 -52q-1 -34 5 -59t21 -41t39.5 -23.5t61.5 -7.5q27 0 57 5t58 13.5
t52 18.5t41 21l4 -143q-20 -10 -50 -19t-65 -15.5t-74.5 -10t-78.5 -3.5q-49 0 -92.5 11.5t-75.5 38t-50.5 68.5t-16.5 104q1 39 7 85t14 94.5t16 97.5t13 94q12 7 22 14q8 6 16 11.5t12 9.5q-8 -2 -21.5 -4t-28.5 -4.5t-30 -3.5t-25 -1q-3 27 -5 60.5t0 60.5q61 6 122 18
t121.5 22.5t122 16t123.5 -0.5zM442 960q-9 -26 -26 -52t-38.5 -49t-46 -41.5t-49.5 -30.5l-87 37q35 26 68 65.5t51 79.5z" />
    <glyph glyph-name="Ecircumflex" unicode="&#xca;" horiz-adv-x="598" 
d="M577 653q-42 3 -81 1.5t-75.5 -6.5t-72.5 -11.5t-73 -12.5q-3 -46 -7.5 -88.5t-11.5 -91.5q22 2 53 5.5t66 7t71 6t69 4.5l5 -128q-29 -2 -62 -4.5t-65 -5.5t-62 -6t-53 -5l-35 36q-4 -28 -6.5 -54t-3.5 -52q-1 -34 5 -59t21 -41t39.5 -23.5t61.5 -7.5q27 0 57 5t58 13.5
t52 18.5t41 21l4 -143q-20 -10 -50 -19t-65 -15.5t-74.5 -10t-78.5 -3.5q-49 0 -92.5 11.5t-75.5 38t-50.5 68.5t-16.5 104q1 39 7 85t14 94.5t16 97.5t13 94q12 7 22 14q8 6 16 11.5t12 9.5q-8 -2 -21.5 -4t-28.5 -4.5t-30 -3.5t-25 -1q-3 27 -5 60.5t0 60.5q61 6 122 18
t121.5 22.5t122 16t123.5 -0.5zM409 803q-39 36 -85 82q-25 -15 -50 -36.5t-48 -41.5l-71 48q32 35 64 65.5t62 51.5l110 7q9 -15 22 -33t28 -36t30.5 -34.5t29.5 -28.5z" />
    <glyph glyph-name="Edieresis" unicode="&#xcb;" horiz-adv-x="598" 
d="M577 653q-42 3 -81 1.5t-75.5 -6.5t-72.5 -11.5t-73 -12.5q-3 -46 -7.5 -88.5t-11.5 -91.5q22 2 53 5.5t66 7t71 6t69 4.5l5 -128q-29 -2 -62 -4.5t-65 -5.5t-62 -6t-53 -5l-35 36q-4 -28 -6.5 -54t-3.5 -52q-1 -34 5 -59t21 -41t39.5 -23.5t61.5 -7.5q27 0 57 5t58 13.5
t52 18.5t41 21l4 -143q-20 -10 -50 -19t-65 -15.5t-74.5 -10t-78.5 -3.5q-49 0 -92.5 11.5t-75.5 38t-50.5 68.5t-16.5 104q1 39 7 85t14 94.5t16 97.5t13 94q12 7 22 14q8 6 16 11.5t12 9.5q-8 -2 -21.5 -4t-28.5 -4.5t-30 -3.5t-25 -1q-3 27 -5 60.5t0 60.5q61 6 122 18
t121.5 22.5t122 16t123.5 -0.5zM280 884q0 -18 -7.5 -32.5t-18.5 -24t-24 -15t-24 -5.5q-10 0 -21 3t-19.5 10.5t-14 19.5t-5.5 29q0 18 7.5 32t19 23.5t24.5 14.5t25 6q10 0 20.5 -3.5t19 -11t13.5 -19t5 -27.5zM484 884q0 -18 -7.5 -32.5t-18.5 -24t-24 -15t-24 -5.5
q-10 0 -20.5 3t-19.5 10.5t-14 19.5t-5 29q0 18 7.5 32t18 23.5t23.5 14.5t25 6q10 0 20.5 -3.5t19 -11t14 -19t5.5 -27.5z" />
    <glyph glyph-name="Egrave" unicode="&#xc8;" horiz-adv-x="598" 
d="M577 653q-42 3 -81 1.5t-75.5 -6.5t-72.5 -11.5t-73 -12.5q-3 -46 -7.5 -88.5t-11.5 -91.5q22 2 53 5.5t66 7t71 6t69 4.5l5 -128q-29 -2 -62 -4.5t-65 -5.5t-62 -6t-53 -5l-35 36q-4 -28 -6.5 -54t-3.5 -52q-1 -34 5 -59t21 -41t39.5 -23.5t61.5 -7.5q27 0 57 5t58 13.5
t52 18.5t41 21l4 -143q-20 -10 -50 -19t-65 -15.5t-74.5 -10t-78.5 -3.5q-49 0 -92.5 11.5t-75.5 38t-50.5 68.5t-16.5 104q1 39 7 85t14 94.5t16 97.5t13 94q12 7 22 14q8 6 16 11.5t12 9.5q-8 -2 -21.5 -4t-28.5 -4.5t-30 -3.5t-25 -1q-3 27 -5 60.5t0 60.5q61 6 122 18
t121.5 22.5t122 16t123.5 -0.5zM294 805q-48 26 -83 76t-48 104l129 6q6 -20 15.5 -40.5t22 -40.5t27 -38t29.5 -32z" />
    <glyph glyph-name="Iacute" unicode="&#xcd;" horiz-adv-x="318" 
d="M278 771q0 -97 -11.5 -191t-23.5 -187.5t-20 -187.5t-2 -191l-157 -29q-9 97 -3.5 190.5t17.5 186.5t26 186t21 188zM350 973q-9 -26 -26 -52t-39 -49t-46.5 -41.5t-49.5 -30.5l-86 37q35 26 67.5 65.5t50.5 79.5z" />
    <glyph glyph-name="Icircumflex" unicode="&#xce;" horiz-adv-x="318" 
d="M278 771q0 -97 -11.5 -191t-23.5 -187.5t-20 -187.5t-2 -191l-157 -29q-9 97 -3.5 190.5t17.5 186.5t26 186t21 188zM284 818q-17 20 -36 40.5t-40 46.5q-23 -17 -45 -39.5t-42 -44.5l-64 52q29 37 57.5 69t55.5 55l98 8q8 -17 19.5 -36t25 -38t27 -36.5t26.5 -30.5z" />
    <glyph glyph-name="Idieresis" unicode="&#xcf;" horiz-adv-x="318" 
d="M278 771q0 -97 -11.5 -191t-23.5 -187.5t-20 -187.5t-2 -191l-157 -29q-9 97 -3.5 190.5t17.5 186.5t26 186t21 188zM375 882q-1 -20 -9.5 -35.5t-21.5 -26t-27.5 -16t-27.5 -5.5q-12 0 -24.5 3.5t-22 11.5t-15.5 21.5t-6 31.5q0 20 8.5 35t21 25t27.5 15.5t29 6.5
q11 0 23.5 -3.5t22.5 -12t16 -21t6 -30.5zM184 876q-1 -20 -9.5 -35.5t-21 -26t-27 -16.5t-27.5 -6q-12 0 -24.5 3.5t-22 11.5t-15.5 21t-6 31q0 20 8.5 35t21 25.5t27.5 16t29 6.5q11 0 23 -3.5t22 -11.5t16 -20.5t6 -30.5z" />
    <glyph glyph-name="Igrave" unicode="&#xcc;" horiz-adv-x="318" 
d="M278 771q0 -97 -11.5 -191t-23.5 -187.5t-20 -187.5t-2 -191l-157 -29q-9 97 -3.5 190.5t17.5 186.5t26 186t21 188zM201 814q-48 26 -83 76t-48 104l129 6q6 -20 15.5 -40.5t22 -40.5t27 -38t29.5 -32z" />
    <glyph glyph-name="Ntilde" unicode="&#xd1;" horiz-adv-x="774" 
d="M727 741q2 -91 -6.5 -182t-21.5 -182t-27 -181t-24 -178l-123 -39q-52 139 -127 273.5t-154 259.5q-28 -142 -44.5 -268.5t-15.5 -234.5q-3 -1 -18.5 -3.5t-36.5 -6.5t-44.5 -8t-42.5 -8q-3 99 8.5 193t28 187t35 186t30.5 189l129 31q23 -50 55.5 -108t69 -122
t74.5 -132t72 -138q20 150 30 275t11 220zM620 850q-20 -20 -48.5 -32t-55.5 -12q-21 0 -39.5 6.5t-36.5 15t-36 15t-36 6.5q-22 0 -41.5 -11t-36.5 -25l-34 90q23 21 49 33.5t58 12.5q19 0 38.5 -6.5t38.5 -14.5t37.5 -14.5t37.5 -6.5q17 0 32.5 7t28.5 18z" />
    <glyph glyph-name="Oacute" unicode="&#xd3;" horiz-adv-x="738" 
d="M710 455q0 -90 -25.5 -175t-76 -150.5t-125 -105.5t-172.5 -40q-75 0 -128.5 24t-87.5 67t-50 102t-16 129q0 91 25 175.5t75 149.5t124.5 104t173.5 39q73 0 126.5 -24t88.5 -66.5t51.5 -101t16.5 -127.5zM537 451q0 34 -5.5 71t-21 67.5t-42.5 50t-70 19.5
q-40 0 -70 -18t-52 -47t-36.5 -66.5t-23 -76.5t-12 -77t-3.5 -68q0 -32 5 -68t19 -66t39.5 -50t66.5 -20q43 0 75 17t54.5 44.5t37.5 64t23.5 75t12 77t3.5 71.5zM565 969q-9 -26 -26 -52t-38.5 -49t-46 -41.5t-49.5 -30.5l-87 37q35 26 68 65.5t51 79.5z" />
    <glyph glyph-name="Ocircumflex" unicode="&#xd4;" horiz-adv-x="738" 
d="M710 455q0 -90 -25.5 -175t-76 -150.5t-125 -105.5t-172.5 -40q-75 0 -128.5 24t-87.5 67t-50 102t-16 129q0 91 25 175.5t75 149.5t124.5 104t173.5 39q73 0 126.5 -24t88.5 -66.5t51.5 -101t16.5 -127.5zM537 451q0 34 -5.5 71t-21 67.5t-42.5 50t-70 19.5
q-40 0 -70 -18t-52 -47t-36.5 -66.5t-23 -76.5t-12 -77t-3.5 -68q0 -32 5 -68t19 -66t39.5 -50t66.5 -20q43 0 75 17t54.5 44.5t37.5 64t23.5 75t12 77t3.5 71.5zM519 796q-20 18 -40 38l-44 44q-25 -15 -50 -37t-48 -42l-71 49q32 35 64 65.5t62 51.5l110 7q9 -15 22 -33
t28 -36t30.5 -34.5t29.5 -28.5z" />
    <glyph glyph-name="Odieresis" unicode="&#xd6;" horiz-adv-x="738" 
d="M710 455q0 -90 -25.5 -175t-76 -150.5t-125 -105.5t-172.5 -40q-75 0 -128.5 24t-87.5 67t-50 102t-16 129q0 91 25 175.5t75 149.5t124.5 104t173.5 39q73 0 126.5 -24t88.5 -66.5t51.5 -101t16.5 -127.5zM537 451q0 34 -5.5 71t-21 67.5t-42.5 50t-70 19.5
q-40 0 -70 -18t-52 -47t-36.5 -66.5t-23 -76.5t-12 -77t-3.5 -68q0 -32 5 -68t19 -66t39.5 -50t66.5 -20q43 0 75 17t54.5 44.5t37.5 64t23.5 75t12 77t3.5 71.5zM616 875q0 -18 -7.5 -32.5t-18.5 -24t-24 -15t-24 -5.5q-10 0 -21 3.5t-19.5 11t-14 19.5t-5.5 29
q0 18 7.5 32t18 23.5t23.5 14.5t25 6q10 0 20.5 -3.5t19.5 -11t14.5 -19.5t5.5 -28zM412 875q0 -18 -7.5 -32.5t-19 -24t-24.5 -15t-24 -5.5q-10 0 -20.5 3.5t-19.5 11t-14 19.5t-5 29q0 18 7.5 32t18.5 23.5t24 14.5t25 6q10 0 20.5 -3.5t19 -11t14 -19.5t5.5 -28z" />
    <glyph glyph-name="Ograve" unicode="&#xd2;" horiz-adv-x="738" 
d="M710 455q0 -90 -25.5 -175t-76 -150.5t-125 -105.5t-172.5 -40q-75 0 -128.5 24t-87.5 67t-50 102t-16 129q0 91 25 175.5t75 149.5t124.5 104t173.5 39q73 0 126.5 -24t88.5 -66.5t51.5 -101t16.5 -127.5zM537 451q0 34 -5.5 71t-21 67.5t-42.5 50t-70 19.5
q-40 0 -70 -18t-52 -47t-36.5 -66.5t-23 -76.5t-12 -77t-3.5 -68q0 -32 5 -68t19 -66t39.5 -50t66.5 -20q43 0 75 17t54.5 44.5t37.5 64t23.5 75t12 77t3.5 71.5zM424 820q-48 26 -83 75.5t-48 103.5l129 7q6 -20 15.5 -40.5t22 -40.5t27 -38t29.5 -32z" />
    <glyph glyph-name="Otilde" unicode="&#xd5;" horiz-adv-x="738" 
d="M710 455q0 -90 -25.5 -175t-76 -150.5t-125 -105.5t-172.5 -40q-75 0 -128.5 24t-87.5 67t-50 102t-16 129q0 91 25 175.5t75 149.5t124.5 104t173.5 39q73 0 126.5 -24t88.5 -66.5t51.5 -101t16.5 -127.5zM537 451q0 34 -5.5 71t-21 67.5t-42.5 50t-70 19.5
q-40 0 -70 -18t-52 -47t-36.5 -66.5t-23 -76.5t-12 -77t-3.5 -68q0 -32 5 -68t19 -66t39.5 -50t66.5 -20q43 0 75 17t54.5 44.5t37.5 64t23.5 75t12 77t3.5 71.5zM626 860q-20 -20 -48.5 -32t-55.5 -12q-21 0 -39.5 6.5t-36.5 15t-36 15t-36 6.5q-22 0 -41.5 -11t-36.5 -25
l-34 90q23 21 49 33.5t58 12.5q19 0 38.5 -6.5t38.5 -14.5t37.5 -14.5t37.5 -6.5q17 0 32.5 7t28.5 18z" />
    <glyph glyph-name="Scaron" unicode="&#x160;" horiz-adv-x="438" 
d="M404 674q-89 -20 -135.5 -56t-47.5 -73q-1 -25 11.5 -50t31.5 -50t41 -51.5t41.5 -54.5t32 -59t12.5 -65q0 -63 -29.5 -109t-78 -77t-112 -47t-131.5 -18l-30 114q40 1 77.5 10t66.5 24.5t47 37t18 48.5q0 26 -12 50.5t-30 48.5t-39 49t-39.5 53t-30.5 60t-12 71
q0 47 21 88t59 73.5t89.5 56t113.5 35.5zM436 956q-31 -40 -62.5 -75t-60.5 -60l-107 -9q-9 18 -21.5 39t-27 42t-29.5 40t-29 33l90 50q19 -21 39 -44t43 -51q25 18 49 43t47 48z" />
    <glyph glyph-name="Uacute" unicode="&#xda;" horiz-adv-x="744" 
d="M707 771q-11 -61 -19 -126.5t-14 -130t-9.5 -123.5t-3.5 -106q0 -30 1.5 -66t6 -72.5t12 -70.5t18.5 -61l-158 -32q-3 8 -6 16.5t-6 20.5t-6 28t-6 40q-60 -57 -121.5 -80t-124.5 -23q-51 0 -91 16t-68 49t-41 84t-10 120q3 61 12.5 121t18.5 119.5t15 119.5t3 122
l156 34q4 -34 4 -71t-3 -73.5t-8 -72t-9 -67.5q-9 -64 -16.5 -120t-7.5 -113q0 -66 24.5 -105.5t83.5 -39.5q22 0 45 7.5t45 21t40.5 31t32.5 38.5q0 66 4 140t10.5 147t15.5 139.5t19 116.5zM568 953q-9 -26 -26 -52t-39 -49t-46.5 -41.5t-49.5 -30.5l-86 37q35 26 68 65.5
t51 79.5z" />
    <glyph glyph-name="Ucircumflex" unicode="&#xdb;" horiz-adv-x="744" 
d="M707 771q-11 -61 -19 -126.5t-14 -130t-9.5 -123.5t-3.5 -106q0 -30 1.5 -66t6 -72.5t12 -70.5t18.5 -61l-158 -32q-3 8 -6 16.5t-6 20.5t-6 28t-6 40q-60 -57 -121.5 -80t-124.5 -23q-51 0 -91 16t-68 49t-41 84t-10 120q3 61 12.5 121t18.5 119.5t15 119.5t3 122
l156 34q4 -34 4 -71t-3 -73.5t-8 -72t-9 -67.5q-9 -64 -16.5 -120t-7.5 -113q0 -66 24.5 -105.5t83.5 -39.5q22 0 45 7.5t45 21t40.5 31t32.5 38.5q0 66 4 140t10.5 147t15.5 139.5t19 116.5zM501 796q-20 18 -40 38l-44 44q-25 -15 -50 -37t-48 -42l-71 49q32 35 64 65.5
t62 51.5l110 7q9 -15 22 -33t27.5 -36t30 -34.5t29.5 -28.5z" />
    <glyph glyph-name="Udieresis" unicode="&#xdc;" horiz-adv-x="744" 
d="M707 771q-11 -61 -19 -126.5t-14 -130t-9.5 -123.5t-3.5 -106q0 -30 1.5 -66t6 -72.5t12 -70.5t18.5 -61l-158 -32q-3 8 -6 16.5t-6 20.5t-6 28t-6 40q-60 -57 -121.5 -80t-124.5 -23q-51 0 -91 16t-68 49t-41 84t-10 120q3 61 12.5 121t18.5 119.5t15 119.5t3 122
l156 34q4 -34 4 -71t-3 -73.5t-8 -72t-9 -67.5q-9 -64 -16.5 -120t-7.5 -113q0 -66 24.5 -105.5t83.5 -39.5q22 0 45 7.5t45 21t40.5 31t32.5 38.5q0 66 4 140t10.5 147t15.5 139.5t19 116.5zM587 875q0 -18 -7.5 -32.5t-18.5 -24t-24 -15t-24 -5.5q-10 0 -21 3.5t-19.5 11
t-14 19.5t-5.5 29q0 18 7.5 32t18 23.5t23.5 14.5t25 6q10 0 20.5 -3.5t19.5 -11t14.5 -19.5t5.5 -28zM383 875q0 -18 -7.5 -32.5t-19 -24t-24.5 -15t-24 -5.5q-10 0 -20.5 3.5t-19.5 11t-14 19.5t-5 29q0 18 7.5 32t18.5 23.5t24 14.5t25 6q10 0 20.5 -3.5t19 -11t14 -19.5
t5.5 -28z" />
    <glyph glyph-name="Ugrave" unicode="&#xd9;" horiz-adv-x="744" 
d="M707 771q-11 -61 -19 -126.5t-14 -130t-9.5 -123.5t-3.5 -106q0 -30 1.5 -66t6 -72.5t12 -70.5t18.5 -61l-158 -32q-3 8 -6 16.5t-6 20.5t-6 28t-6 40q-60 -57 -121.5 -80t-124.5 -23q-51 0 -91 16t-68 49t-41 84t-10 120q3 61 12.5 121t18.5 119.5t15 119.5t3 122
l156 34q4 -34 4 -71t-3 -73.5t-8 -72t-9 -67.5q-9 -64 -16.5 -120t-7.5 -113q0 -66 24.5 -105.5t83.5 -39.5q22 0 45 7.5t45 21t40.5 31t32.5 38.5q0 66 4 140t10.5 147t15.5 139.5t19 116.5zM416 805q-48 26 -83 75.5t-48 103.5l129 7q6 -20 15.5 -40.5t22 -40.5t27 -38
t29.5 -32z" />
    <glyph glyph-name="Yacute" unicode="&#xdd;" horiz-adv-x="610" 
d="M652 770q-15 -78 -41.5 -147t-59.5 -133t-71 -125t-76 -122.5t-75 -125t-67 -132.5l-157 15q30 75 67.5 142t78.5 130l-58 -6q-18 54 -42 109.5t-49.5 114t-50 120t-43.5 126.5l160 32q13 -44 32.5 -94t41 -101.5t43 -101.5t37.5 -95q27 43 52.5 90.5t46.5 94.5t36.5 93
t23.5 88zM512 960q-9 -26 -26 -52t-39 -49t-46.5 -41.5t-49.5 -30.5l-86 37q35 26 67.5 65.5t50.5 79.5z" />
    <glyph glyph-name="Ydieresis" unicode="&#x178;" horiz-adv-x="610" 
d="M652 770q-15 -78 -41.5 -147t-59.5 -133t-71 -125t-76 -122.5t-75 -125t-67 -132.5l-157 15q30 75 67.5 142t78.5 130l-58 -6q-18 54 -42 109.5t-49.5 114t-50 120t-43.5 126.5l160 32q13 -44 32.5 -94t41 -101.5t43 -101.5t37.5 -95q27 43 52.5 90.5t46.5 94.5t36.5 93
t23.5 88zM521 875q0 -18 -7.5 -32.5t-18.5 -24t-24 -15t-24 -5.5q-10 0 -21 3.5t-19.5 11t-14 19.5t-5.5 29q0 18 7.5 32t18 23.5t23.5 14.5t25 6q10 0 20.5 -3.5t19.5 -11t14.5 -19.5t5.5 -28zM316 875q0 -18 -7.5 -32.5t-18.5 -24t-24 -15t-24 -5.5q-10 0 -20.5 3.5
t-19.5 11t-14 19.5t-5 29q0 18 7.5 32t18.5 23.5t24 14.5t25 6q10 0 20.5 -3.5t19 -11t13.5 -19.5t5 -28z" />
    <glyph glyph-name="Zcaron" unicode="&#x17d;" horiz-adv-x="594" 
d="M598 650q-49 -78 -102 -145t-106 -130t-103 -124t-93 -127q43 -2 89 -1.5t92 3.5t90.5 8.5t83.5 13.5l17 -139q-54 -8 -127 -12.5t-149.5 -6t-149.5 -1t-128 3.5l-25 100q46 76 99 144.5t107 133t105 128t93 128.5q-44 2 -84.5 2.5t-79.5 -2t-78 -8t-81 -14.5l3 134
q61 11 121 15.5t119.5 4.5t119 -3t120.5 -7q14 -29 23.5 -50t23.5 -49zM509 930q-34 -38 -67.5 -72t-65.5 -58l-116 -8q-10 17 -23.5 37t-29 40t-32 38t-31.5 32l97 49q20 -20 41.5 -43t47.5 -49q26 17 53 41t51 47z" />
    <glyph glyph-name="aacute" unicode="&#xe1;" horiz-adv-x="551" 
d="M521 516q-6 -31 -13.5 -71.5t-14 -83.5t-12 -83t-7.5 -69q-5 -55 2.5 -105t36.5 -79l-134 -42q-12 12 -25 35t-20 50q-23 -25 -47.5 -45t-46.5 -33q-11 -3 -25 -4t-22 -1q-42 0 -74.5 15.5t-54 43t-32.5 65.5t-11 82q0 75 23.5 141.5t65 116.5t97.5 79t121 29
q49 0 97 -9.5t96 -31.5zM358 452q-9 5 -21 8.5t-23 3.5q-26 0 -49.5 -22t-41.5 -58t-28.5 -82t-10.5 -94q0 -54 16 -89t53 -35q21 0 39.5 14t27.5 31q0 35 3 76.5t8.5 84t12.5 84.5t14 78zM498 814q-10 -33 -28.5 -65.5t-42 -61t-50.5 -52t-54 -38.5l-94 46q19 16 38 37
t36 45t31 49.5t24 50.5z" />
    <glyph glyph-name="acircumflex" unicode="&#xe2;" horiz-adv-x="551" 
d="M521 516q-6 -31 -13.5 -71.5t-14 -83.5t-12 -83t-7.5 -69q-5 -55 2.5 -105t36.5 -79l-134 -42q-12 12 -25 35t-20 50q-23 -25 -47.5 -45t-46.5 -33q-11 -3 -25 -4t-22 -1q-42 0 -74.5 15.5t-54 43t-32.5 65.5t-11 82q0 75 23.5 141.5t65 116.5t97.5 79t121 29
q49 0 97 -9.5t96 -31.5zM358 452q-9 5 -21 8.5t-23 3.5q-26 0 -49.5 -22t-41.5 -58t-28.5 -82t-10.5 -94q0 -54 16 -89t53 -35q21 0 39.5 14t27.5 31q0 35 3 76.5t8.5 84t12.5 84.5t14 78zM432 592q-21 23 -43 48.5t-48 55.5q-27 -20 -53.5 -47t-51.5 -53l-77 62
q34 44 69 82.5t67 65.5l118 9q10 -20 24 -42.5t29.5 -45.5t32.5 -44t32 -36z" />
    <glyph glyph-name="adieresis" unicode="&#xe4;" horiz-adv-x="551" 
d="M521 516q-6 -31 -13.5 -71.5t-14 -83.5t-12 -83t-7.5 -69q-5 -55 2.5 -105t36.5 -79l-134 -42q-12 12 -25 35t-20 50q-23 -25 -47.5 -45t-46.5 -33q-11 -3 -25 -4t-22 -1q-42 0 -74.5 15.5t-54 43t-32.5 65.5t-11 82q0 75 23.5 141.5t65 116.5t97.5 79t121 29
q49 0 97 -9.5t96 -31.5zM358 452q-9 5 -21 8.5t-23 3.5q-26 0 -49.5 -22t-41.5 -58t-28.5 -82t-10.5 -94q0 -54 16 -89t53 -35q21 0 39.5 14t27.5 31q0 35 3 76.5t8.5 84t12.5 84.5t14 78zM306 709q0 -19 -8.5 -33.5t-20.5 -24.5t-26 -15.5t-26 -5.5q-11 0 -23 3.5t-21.5 11
t-15 20t-5.5 29.5q0 19 8 33t20 24t26.5 15t27.5 6q10 0 21.5 -3.5t21 -11t15.5 -20t6 -28.5zM529 709q0 -19 -8.5 -33.5t-20.5 -24.5t-26 -15.5t-26 -5.5q-11 0 -23 3.5t-21.5 11t-15 20t-5.5 29.5q0 19 8 33t20 24t26 15t27 6q10 0 22 -3.5t21.5 -11t15.5 -20t6 -28.5z
" />
    <glyph glyph-name="agrave" unicode="&#xe0;" horiz-adv-x="551" 
d="M521 516q-6 -31 -13.5 -71.5t-14 -83.5t-12 -83t-7.5 -69q-5 -55 2.5 -105t36.5 -79l-134 -42q-12 12 -25 35t-20 50q-23 -25 -47.5 -45t-46.5 -33q-11 -3 -25 -4t-22 -1q-42 0 -74.5 15.5t-54 43t-32.5 65.5t-11 82q0 75 23.5 141.5t65 116.5t97.5 79t121 29
q49 0 97 -9.5t96 -31.5zM358 452q-9 5 -21 8.5t-23 3.5q-26 0 -49.5 -22t-41.5 -58t-28.5 -82t-10.5 -94q0 -54 16 -89t53 -35q21 0 39.5 14t27.5 31q0 35 3 76.5t8.5 84t12.5 84.5t14 78zM335 596q-26 15 -49 39.5t-42 54t-32.5 62t-20.5 65.5l142 8q6 -24 16.5 -49.5
t24 -50t29.5 -46.5t33 -40z" />
    <glyph glyph-name="aring" unicode="&#xe5;" horiz-adv-x="551" 
d="M521 516q-6 -31 -13.5 -71.5t-14 -83.5t-12 -83t-7.5 -69q-5 -55 2.5 -105t36.5 -79l-134 -42q-12 12 -25 35t-20 50q-23 -25 -47.5 -45t-46.5 -33q-11 -3 -25 -4t-22 -1q-42 0 -74.5 15.5t-54 43t-32.5 65.5t-11 82q0 75 23.5 141.5t65 116.5t97.5 79t121 29
q49 0 97 -9.5t96 -31.5zM499 736q0 -34 -13.5 -58t-35.5 -39.5t-49.5 -22.5t-55.5 -7q-25 0 -48.5 5.5t-41.5 18t-29 32t-11 47.5q0 33 13.5 57t35 39.5t48.5 23t55 7.5q23 0 46.5 -6t42.5 -18.5t31 -32t12 -46.5zM358 452q-9 5 -21 8.5t-23 3.5q-26 0 -49.5 -22t-41.5 -58
t-28.5 -82t-10.5 -94q0 -54 16 -89t53 -35q21 0 39.5 14t27.5 31q0 35 3 76.5t8.5 84t12.5 84.5t14 78zM398 739q-1 20 -9.5 32t-25.5 12q-21 0 -36 -21t-13 -54q1 -20 10 -32.5t27 -12.5q24 0 36.5 23.5t10.5 52.5z" />
    <glyph glyph-name="atilde" unicode="&#xe3;" horiz-adv-x="551" 
d="M521 516q-6 -31 -13.5 -71.5t-14 -83.5t-12 -83t-7.5 -69q-5 -55 2.5 -105t36.5 -79l-134 -42q-12 12 -25 35t-20 50q-23 -25 -47.5 -45t-46.5 -33q-11 -3 -25 -4t-22 -1q-42 0 -74.5 15.5t-54 43t-32.5 65.5t-11 82q0 75 23.5 141.5t65 116.5t97.5 79t121 29
q49 0 97 -9.5t96 -31.5zM358 452q-9 5 -21 8.5t-23 3.5q-26 0 -49.5 -22t-41.5 -58t-28.5 -82t-10.5 -94q0 -54 16 -89t53 -35q21 0 39.5 14t27.5 31q0 35 3 76.5t8.5 84t12.5 84.5t14 78zM514 679q-20 -20 -48.5 -32t-55.5 -12q-21 0 -39.5 6.5t-36.5 15t-36 15t-36 6.5
q-22 0 -41.5 -11t-36.5 -25l-34 90q23 21 49 33.5t58 12.5q19 0 38.5 -6.5t38.5 -14.5t37.5 -14.5t37.5 -6.5q17 0 32.5 7t28.5 18z" />
    <glyph glyph-name="ccedilla" unicode="&#xe7;" horiz-adv-x="475" 
d="M355 381q-2 11 -5.5 23.5t-10.5 23t-17.5 17.5t-26.5 7q-21 0 -40.5 -15.5t-34.5 -44.5t-24.5 -70.5t-9.5 -93.5q0 -57 26 -89.5t80 -32.5q15 0 31.5 3.5t33 9.5t31.5 13.5t27 15.5l21 -112q-41 -27 -94 -39.5t-107 -12.5q-103 0 -157.5 56.5t-54.5 156.5q0 78 22 144
t60 114t89.5 75t112.5 27q32 0 61 -6t51.5 -19.5t36.5 -36t17 -55.5zM341 -134q0 -30 -14.5 -51.5t-37 -36t-49.5 -21.5t-52 -7q-26 0 -55 4.5t-52 15.5l23 56q14 -6 31.5 -8.5t32.5 -2.5q9 0 19.5 2.5t19.5 8t14.5 13.5t5.5 19t-6 18.5t-15.5 11.5t-20.5 5.5t-20 1.5
q-16 0 -31 -2.5t-30 -6.5l4 53q25 8 51 13.5t53 5.5q25 0 48 -5t41 -16t29 -28.5t11 -42.5z" />
    <glyph glyph-name="eacute" unicode="&#xe9;" horiz-adv-x="498" 
d="M476 414q0 -45 -19.5 -82.5t-51.5 -65t-72.5 -43t-81.5 -15.5q-5 0 -10.5 0.5t-7.5 0.5q-4 2 -11 7t-14.5 11t-14.5 11.5t-10 8.5q-6 -72 19 -111.5t73 -39.5q35 0 74 17t68 40l19 -113q-21 -15 -46.5 -25.5t-53 -17t-55 -10t-52.5 -3.5q-94 0 -150.5 56t-56.5 163
q0 72 22.5 136t60.5 112.5t89.5 77t110.5 28.5q34 0 65 -7.5t54.5 -24.5t37.5 -44.5t14 -66.5zM471 814q-10 -33 -28.5 -65.5t-42 -61t-50.5 -52t-54 -38.5l-94 46q19 16 38 37t36 45t31 49.5t24 50.5zM330 417q0 22 -10.5 38t-31.5 16t-38.5 -17.5t-30.5 -44.5t-21.5 -59
t-11.5 -61q24 -2 49.5 7.5t46.5 26.5t34.5 41t13.5 53z" />
    <glyph glyph-name="ecircumflex" unicode="&#xea;" horiz-adv-x="498" 
d="M476 414q0 -45 -19.5 -82.5t-51.5 -65t-72.5 -43t-81.5 -15.5q-5 0 -10.5 0.5t-7.5 0.5q-4 2 -11 7t-14.5 11t-14.5 11.5t-10 8.5q-6 -72 19 -111.5t73 -39.5q35 0 74 17t68 40l19 -113q-21 -15 -46.5 -25.5t-53 -17t-55 -10t-52.5 -3.5q-94 0 -150.5 56t-56.5 163
q0 72 22.5 136t60.5 112.5t89.5 77t110.5 28.5q34 0 65 -7.5t54.5 -24.5t37.5 -44.5t14 -66.5zM397 592q-21 23 -43 48.5t-48 55.5q-27 -20 -53.5 -47t-51.5 -53l-77 62q34 44 69 82.5t67 65.5l118 9q10 -20 24 -42.5t29.5 -45.5t32.5 -44t32 -36zM330 417q0 22 -10.5 38
t-31.5 16t-38.5 -17.5t-30.5 -44.5t-21.5 -59t-11.5 -61q24 -2 49.5 7.5t46.5 26.5t34.5 41t13.5 53z" />
    <glyph glyph-name="edieresis" unicode="&#xeb;" horiz-adv-x="498" 
d="M476 414q0 -45 -19.5 -82.5t-51.5 -65t-72.5 -43t-81.5 -15.5q-5 0 -10.5 0.5t-7.5 0.5q-4 2 -11 7t-14.5 11t-14.5 11.5t-10 8.5q-6 -72 19 -111.5t73 -39.5q35 0 74 17t68 40l19 -113q-21 -15 -46.5 -25.5t-53 -17t-55 -10t-52.5 -3.5q-94 0 -150.5 56t-56.5 163
q0 72 22.5 136t60.5 112.5t89.5 77t110.5 28.5q34 0 65 -7.5t54.5 -24.5t37.5 -44.5t14 -66.5zM330 417q0 22 -10.5 38t-31.5 16t-38.5 -17.5t-30.5 -44.5t-21.5 -59t-11.5 -61q24 -2 49.5 7.5t46.5 26.5t34.5 41t13.5 53zM477 717q0 -20 -7.5 -34.5t-18.5 -25t-24 -16
t-24 -5.5q-21 -1 -41 14.5t-19 50.5q0 19 7.5 34t18 25t23.5 15.5t25 6.5q10 0 20.5 -3.5t19.5 -11.5t14.5 -20.5t5.5 -29.5zM271 717q0 -20 -7.5 -34.5t-18.5 -25t-24 -16t-24 -5.5q-21 -1 -41 14.5t-19 50.5q0 19 7.5 34t18.5 25t24 15.5t25 6.5q10 0 20.5 -3.5t19 -11.5
t14 -20.5t5.5 -29.5z" />
    <glyph glyph-name="egrave" unicode="&#xe8;" horiz-adv-x="498" 
d="M476 414q0 -45 -19.5 -82.5t-51.5 -65t-72.5 -43t-81.5 -15.5q-5 0 -10.5 0.5t-7.5 0.5q-4 2 -11 7t-14.5 11t-14.5 11.5t-10 8.5q-6 -72 19 -111.5t73 -39.5q35 0 74 17t68 40l19 -113q-21 -15 -46.5 -25.5t-53 -17t-55 -10t-52.5 -3.5q-94 0 -150.5 56t-56.5 163
q0 72 22.5 136t60.5 112.5t89.5 77t110.5 28.5q34 0 65 -7.5t54.5 -24.5t37.5 -44.5t14 -66.5zM311 596q-26 15 -49 39.5t-42 54t-32.5 62t-20.5 65.5l142 8q6 -24 16.5 -49.5t24 -50t29.5 -46.5t33 -40zM330 417q0 22 -10.5 38t-31.5 16t-38.5 -17.5t-30.5 -44.5t-21.5 -59
t-11.5 -61q24 -2 49.5 7.5t46.5 26.5t34.5 41t13.5 53z" />
    <glyph glyph-name="iacute" unicode="&#xed;" horiz-adv-x="288" 
d="M241 557q3 -47 -1 -96t-10 -98t-12.5 -97t-9.5 -92q-3 -48 -3 -89t7 -74l-156 -27q-8 31 -9.5 69.5t0.5 78.5q2 46 9 98t13.5 104.5t10.5 103.5t1 96zM277 803q-9 -33 -25 -65.5t-36.5 -61t-44 -51.5t-47.5 -38l-82 46q33 32 64.5 81.5t48.5 99.5z" />
    <glyph glyph-name="icircumflex" unicode="&#xee;" horiz-adv-x="288" 
d="M241 557q3 -47 -1 -96t-10 -98t-12.5 -97t-9.5 -92q-3 -48 -3 -89t7 -74l-156 -27q-8 31 -9.5 69.5t0.5 78.5q2 46 9 98t13.5 104.5t10.5 103.5t1 96zM240 590q-16 23 -32 48t-36 55q-20 -20 -40 -46.5t-39 -52.5l-58 61q26 44 52 82t50 65l89 9q7 -20 17.5 -42.5
t22.5 -45t24 -43.5t24 -36z" />
    <glyph glyph-name="idieresis" unicode="&#xef;" horiz-adv-x="288" 
d="M240 557q3 -47 -1 -96t-10 -98t-12.5 -97t-9.5 -92q-3 -48 -2.5 -89t7.5 -74l-157 -27q-8 31 -9.5 69.5t0.5 78.5q2 46 9 98t13.5 104.5t10.5 103.5t1 96zM319 715q0 -24 -7.5 -42t-19 -30.5t-24.5 -19t-24 -7.5q-11 0 -21.5 4t-19.5 14t-14 25t-5 37q0 24 7.5 42
t18.5 30t24 18.5t25 7.5q10 1 20.5 -3.5t19.5 -14.5t14.5 -25t5.5 -36zM158 715q0 -24 -7.5 -42t-19 -30.5t-24.5 -19t-24 -7.5q-11 0 -21.5 4t-19.5 13.5t-14 24.5t-5 37q0 24 7.5 42t18.5 30.5t24 19t25 7.5q10 1 20.5 -3.5t19.5 -14.5t14.5 -25t5.5 -36z" />
    <glyph glyph-name="igrave" unicode="&#xec;" horiz-adv-x="288" 
d="M241 557q3 -47 -1 -96t-10 -98t-12.5 -97t-9.5 -92q-3 -48 -3 -89t7 -74l-156 -27q-8 31 -9.5 69.5t0.5 78.5q2 46 9 98t13.5 104.5t10.5 103.5t1 96zM167 582q-23 15 -43.5 39t-37.5 52.5t-29 61t-18 64.5l126 8q11 -48 36.5 -98t55.5 -85z" />
    <glyph glyph-name="ntilde" unicode="&#xf1;" horiz-adv-x="546" 
d="M506 384q-5 -37 -15 -83.5t-16 -97.5q-2 -21 -3 -45t1 -47.5t7.5 -45.5t16.5 -38l-148 -41q-16 19 -23.5 45.5t-9 56t1 61t7.5 61.5l24 155q7 47 -2.5 65.5t-25.5 18.5q-18 0 -36 -19t-33.5 -52.5t-28.5 -79t-20 -99.5l-26 -199l-156 -4q10 58 20.5 131.5t18.5 147.5
t12 141t0 114l142 28q5 -21 6.5 -57t-0.5 -71q29 39 62.5 70.5t71.5 54.5q7 1 13 1h13q69 0 103 -47t23 -125zM490 679q-20 -20 -48.5 -32t-55.5 -12q-21 0 -39.5 6.5t-36.5 15t-36 15t-36 6.5q-22 0 -41.5 -11t-36.5 -25l-34 90q23 21 49 33.5t58 12.5q19 0 38.5 -6.5
t38.5 -14.5t37.5 -14.5t37.5 -6.5q17 0 32.5 7t28.5 18z" />
    <glyph glyph-name="oacute" unicode="&#xf3;" horiz-adv-x="534" 
d="M513 348q0 -71 -19.5 -137t-57.5 -116.5t-96 -80.5t-134 -30q-93 0 -139 55.5t-46 148.5q0 68 18.5 134.5t56 118.5t93.5 84t131 32q94 0 143.5 -57t49.5 -152zM351 343q0 62 -15.5 93t-50.5 31q-21 0 -39.5 -20t-32 -55t-21.5 -84.5t-8 -107.5q0 -59 13.5 -91t51.5 -32
q24 0 43 19.5t32 54.5t20 84t7 108zM475 814q-10 -33 -28.5 -65.5t-42 -61t-50.5 -52t-54 -38.5l-94 46q19 16 38 37t36 45t31 49.5t24 50.5z" />
    <glyph glyph-name="ocircumflex" unicode="&#xf4;" horiz-adv-x="534" 
d="M513 348q0 -71 -19.5 -137t-57.5 -116.5t-96 -80.5t-134 -30q-93 0 -139 55.5t-46 148.5q0 68 18.5 134.5t56 118.5t93.5 84t131 32q94 0 143.5 -57t49.5 -152zM351 343q0 62 -15.5 93t-50.5 31q-21 0 -39.5 -20t-32 -55t-21.5 -84.5t-8 -107.5q0 -59 13.5 -91t51.5 -32
q24 0 43 19.5t32 54.5t20 84t7 108zM407 592q-21 23 -43 48.5t-48 55.5q-27 -20 -53.5 -47t-51.5 -53l-77 62q34 44 69 82.5t67 65.5l118 9q10 -20 24 -42.5t29.5 -45.5t32.5 -44t32 -36z" />
    <glyph glyph-name="odieresis" unicode="&#xf6;" horiz-adv-x="534" 
d="M513 348q0 -71 -19.5 -137t-57.5 -116.5t-96 -80.5t-134 -30q-93 0 -139 55.5t-46 148.5q0 68 18.5 134.5t56 118.5t93.5 84t131 32q94 0 143.5 -57t49.5 -152zM351 343q0 62 -15.5 93t-50.5 31q-21 0 -39.5 -20t-32 -55t-21.5 -84.5t-8 -107.5q0 -59 13.5 -91t51.5 -32
q24 0 43 19.5t32 54.5t20 84t7 108zM289 710q0 -19 -8.5 -33.5t-20.5 -24.5t-26 -15.5t-26 -5.5q-11 0 -23 3.5t-21.5 11t-15 20t-5.5 29.5q0 19 8 33t20 24t26.5 15t27.5 6q10 0 21.5 -3.5t21 -11t15.5 -20t6 -28.5zM512 710q0 -19 -8.5 -33.5t-20.5 -24.5t-26 -15.5
t-26 -5.5q-11 0 -23 3.5t-21.5 11t-15 20t-5.5 29.5q0 19 8 33t20 24t26 15t27 6q10 0 22 -3.5t21.5 -11t15.5 -20t6 -28.5z" />
    <glyph glyph-name="ograve" unicode="&#xf2;" horiz-adv-x="534" 
d="M513 348q0 -71 -19.5 -137t-57.5 -116.5t-96 -80.5t-134 -30q-93 0 -139 55.5t-46 148.5q0 68 18.5 134.5t56 118.5t93.5 84t131 32q94 0 143.5 -57t49.5 -152zM351 343q0 62 -15.5 93t-50.5 31q-21 0 -39.5 -20t-32 -55t-21.5 -84.5t-8 -107.5q0 -59 13.5 -91t51.5 -32
q24 0 43 19.5t32 54.5t20 84t7 108zM366 596q-26 15 -49 39.5t-42 54t-32.5 62t-20.5 65.5l142 8q6 -24 16.5 -49.5t24 -50t29.5 -46.5t33 -40z" />
    <glyph glyph-name="otilde" unicode="&#xf5;" horiz-adv-x="534" 
d="M513 348q0 -71 -19.5 -137t-57.5 -116.5t-96 -80.5t-134 -30q-93 0 -139 55.5t-46 148.5q0 68 18.5 134.5t56 118.5t93.5 84t131 32q94 0 143.5 -57t49.5 -152zM351 343q0 62 -15.5 93t-50.5 31q-21 0 -39.5 -20t-32 -55t-21.5 -84.5t-8 -107.5q0 -59 13.5 -91t51.5 -32
q24 0 43 19.5t32 54.5t20 84t7 108zM500 679q-20 -20 -48.5 -32t-55.5 -12q-21 0 -39.5 6.5t-36.5 15t-36 15t-36 6.5q-22 0 -41.5 -11t-36.5 -25l-34 90q23 21 49 33.5t58 12.5q19 0 38.5 -6.5t38.5 -14.5t37.5 -14.5t37.5 -6.5q17 0 32.5 7t28.5 18z" />
    <glyph glyph-name="scaron" unicode="&#x161;" horiz-adv-x="352" 
d="M338 483q-74 -19 -105 -45.5t-32 -48.5q-2 -24 15.5 -49t39.5 -53.5t40 -60.5t18 -70q0 -42 -20.5 -76t-57 -58.5t-87 -39.5t-110.5 -20l-43 102q80 5 119 28.5t40 55.5q0 27 -18 51t-40 50t-40 57t-18 72q0 36 18.5 67.5t49.5 57t72 45t86 31.5zM377 771
q-27 -45 -54.5 -84t-53.5 -66l-95 -9q-8 20 -19 43t-23.5 46.5t-26 44.5t-25.5 36l79 55q17 -23 35 -48.5t38 -56.5q22 20 43 47.5t41 53.5z" />
    <glyph glyph-name="uacute" unicode="&#xfa;" horiz-adv-x="558" 
d="M528 557q-7 -39 -13.5 -83.5t-13 -90t-12 -90.5t-10.5 -85q-6 -51 -3 -106t17 -94l-154 -23q-5 19 -8 47t-5 57q-27 -31 -59 -57.5t-61 -43.5q-8 -2 -19.5 -2.5t-23.5 -0.5q-125 0 -119 151q2 44 10.5 94.5t14.5 104.5q5 48 6 96.5t-10 92.5l149 34q11 -38 12.5 -88.5
t-2.5 -110.5q-2 -23 -5 -52.5t-6.5 -58t-6.5 -53.5t-4 -40q-2 -29 5 -48.5t31 -19.5q19 0 35 18t29 49.5t22.5 73.5t16.5 91l31 218zM471 814q-10 -33 -28.5 -65.5t-42 -61t-50.5 -52t-54 -38.5l-94 46q19 16 38 37t36 45t31 49.5t24 50.5z" />
    <glyph glyph-name="ucircumflex" unicode="&#xfb;" horiz-adv-x="558" 
d="M528 557q-7 -39 -13.5 -83.5t-13 -90t-12 -90.5t-10.5 -85q-6 -51 -3 -106t17 -94l-154 -23q-5 19 -8 47t-5 57q-27 -31 -59 -57.5t-61 -43.5q-8 -2 -19.5 -2.5t-23.5 -0.5q-125 0 -119 151q2 44 10.5 94.5t14.5 104.5q5 48 6 96.5t-10 92.5l149 34q11 -38 12.5 -88.5
t-2.5 -110.5q-2 -23 -5 -52.5t-6.5 -58t-6.5 -53.5t-4 -40q-2 -29 5 -48.5t31 -19.5q19 0 35 18t29 49.5t22.5 73.5t16.5 91l31 218zM408 592q-21 23 -43 48.5t-48 55.5q-27 -20 -53.5 -47t-51.5 -53l-77 62q34 44 69 82.5t67 65.5l118 9q10 -20 24 -42.5t29.5 -45.5
t32.5 -44t32 -36z" />
    <glyph glyph-name="udieresis" unicode="&#xfc;" horiz-adv-x="558" 
d="M528 557q-7 -39 -13.5 -83.5t-13 -90t-12 -90.5t-10.5 -85q-6 -51 -3 -106t17 -94l-154 -23q-5 19 -8 47t-5 57q-27 -31 -59 -57.5t-61 -43.5q-8 -2 -19.5 -2.5t-23.5 -0.5q-125 0 -119 151q2 44 10.5 94.5t14.5 104.5q5 48 6 96.5t-10 92.5l149 34q11 -38 12.5 -88.5
t-2.5 -110.5q-2 -23 -5 -52.5t-6.5 -58t-6.5 -53.5t-4 -40q-2 -29 5 -48.5t31 -19.5q19 0 35 18t29 49.5t22.5 73.5t16.5 91l31 218zM287 710q0 -19 -8.5 -33.5t-20.5 -24.5t-26 -15.5t-26 -5.5q-11 0 -23 3.5t-21.5 11t-15 20t-5.5 29.5q0 19 8 33t20 24t26.5 15t27.5 6
q10 0 21.5 -3.5t21 -11t15.5 -20t6 -28.5zM510 710q0 -19 -8.5 -33.5t-20.5 -24.5t-26 -15.5t-26 -5.5q-11 0 -23 3.5t-21.5 11t-15 20t-5.5 29.5q0 19 8 33t20 24t26 15t27 6q10 0 22 -3.5t21.5 -11t15.5 -20t6 -28.5z" />
    <glyph glyph-name="ugrave" unicode="&#xf9;" horiz-adv-x="558" 
d="M528 557q-7 -39 -13.5 -83.5t-13 -90t-12 -90.5t-10.5 -85q-6 -51 -3 -106t17 -94l-154 -23q-5 19 -8 47t-5 57q-27 -31 -59 -57.5t-61 -43.5q-8 -2 -19.5 -2.5t-23.5 -0.5q-125 0 -119 151q2 44 10.5 94.5t14.5 104.5q5 48 6 96.5t-10 92.5l149 34q11 -38 12.5 -88.5
t-2.5 -110.5q-2 -23 -5 -52.5t-6.5 -58t-6.5 -53.5t-4 -40q-2 -29 5 -48.5t31 -19.5q19 0 35 18t29 49.5t22.5 73.5t16.5 91l31 218zM328 596q-26 15 -49 39.5t-42 54t-32.5 62t-20.5 65.5l142 8q6 -24 16.5 -49.5t24 -50t29.5 -46.5t33 -40z" />
    <glyph glyph-name="yacute" unicode="&#xfd;" horiz-adv-x="535" 
d="M542 557q-4 -71 -22 -136t-44.5 -126.5t-58 -121t-62 -119.5t-56.5 -121.5t-41 -126.5l-143 -20q7 50 25.5 107t38.5 99q-5 1 -16 2.5t-22 2.5q-13 1 -29 2q-19 31 -28 71.5t-12.5 86t-4 95t-1.5 97.5t-5 93.5t-16 83.5l151 31q18 -61 21.5 -128t2.5 -130.5t-1.5 -118
t10.5 -89.5q20 40 45.5 97.5t48.5 118.5t40 119.5t20 102.5zM476 814q-10 -33 -28.5 -65.5t-42 -61t-50.5 -52t-54 -38.5l-94 46q19 16 38 37t36 45t31 49.5t24 50.5z" />
    <glyph glyph-name="ydieresis" unicode="&#xff;" horiz-adv-x="535" 
d="M542 557q-4 -71 -22 -136t-44.5 -126.5t-58 -121t-62 -119.5t-56.5 -121.5t-41 -126.5l-143 -20q7 50 25.5 107t38.5 99q-5 1 -16 2.5t-22 2.5q-13 1 -29 2q-19 31 -28 71.5t-12.5 86t-4 95t-1.5 97.5t-5 93.5t-16 83.5l151 31q18 -61 21.5 -128t2.5 -130.5t-1.5 -118
t10.5 -89.5q20 40 45.5 97.5t48.5 118.5t40 119.5t20 102.5zM281 708q0 -19 -8.5 -33.5t-20.5 -24.5t-26 -15.5t-26 -5.5q-11 0 -23 3.5t-21.5 11t-15 20t-5.5 29.5q0 19 8 33t20 24t26.5 15t27.5 6q10 0 21.5 -3.5t21 -11t15.5 -20t6 -28.5zM504 708q0 -19 -8.5 -33.5
t-20.5 -24.5t-26 -15.5t-26 -5.5q-11 0 -23 3.5t-21.5 11t-15 20t-5.5 29.5q0 19 8 33t20 24t26 15t27 6q10 0 22 -3.5t21.5 -11t15.5 -20t6 -28.5z" />
    <glyph glyph-name="zcaron" unicode="&#x17e;" horiz-adv-x="461" 
d="M452 449q-32 -44 -67 -85.5t-70.5 -82t-70 -80t-65.5 -80.5q51 -5 110.5 -0.5t112.5 17.5l14 -127q-42 -9 -95.5 -13.5t-108 -5t-106.5 2t-91 7.5l-21 90q30 45 63.5 86t68 81t69 79t65.5 80q-51 2 -101 0.5t-107 -12.5l2 122q91 16 180.5 14.5t181.5 -7.5
q5 -11 11 -24.5t11 -26t8.5 -22t5.5 -13.5zM431 745q-34 -44 -69 -82.5t-67 -65.5l-118 -9q-10 19 -24 42t-30 46t-32.5 44t-31.5 36l99 55q21 -23 43 -48.5t48 -55.5q27 20 53.5 47t51.5 53z" />
    <glyph glyph-name="Dcroat.001" horiz-adv-x="556" 
d="M755 433q1 -92 -29.5 -174.5t-87 -144.5t-136 -98.5t-176.5 -36.5q-18 0 -42 1.5t-43 4.5l-42 47l-147 -50q14 88 27.5 174t24.5 174h-82l10 82h81q6 53 11.5 106t10.5 108l-58 -13q-4 30 -6 61t0 57q79 21 159 32t158 11q83 0 150 -22t115 -65.5t74 -107t28 -146.5z
M587 420q-2 115 -65 175.5t-181 60.5q-9 0 -21.5 -0.5t-26.5 -2t-28 -3.5t-26 -5q4 -3 10.5 -9t13.5 -13t13.5 -14t10.5 -11q-4 -48 -8.5 -94t-9.5 -92h155l-10 -82h-155q-8 -55 -16.5 -110.5t-19.5 -115.5q21 -6 42.5 -8.5t40.5 -2.5q69 0 121.5 28t88.5 74t54 104.5
t17 120.5z" />
    <glyph glyph-name="Eng" unicode="&#x14a;" horiz-adv-x="690" 
 />
    <glyph glyph-name="Hbar" unicode="&#x126;" horiz-adv-x="701" 
 />
    <glyph glyph-name="Tbar" unicode="&#x166;" horiz-adv-x="548" 
 />
    <glyph glyph-name="uni021C" unicode="&#x21c;" horiz-adv-x="537" 
 />
    <glyph glyph-name="dcroat" unicode="&#x111;" horiz-adv-x="554" 
d="M535 741q1 -19 0.5 -36.5t-1.5 -34.5h51v-75h-57l-11 -102q-8 -72 -17.5 -141.5t-14.5 -124.5q-5 -63 2.5 -115t29.5 -84l-140 -44q-11 14 -22.5 36t-19.5 45q-24 -23 -50.5 -43.5t-47.5 -32.5q-8 -2 -20.5 -3.5t-20.5 -1.5q-43 0 -75.5 16t-54.5 43.5t-33 64t-12 77.5
q-1 79 23 147t65.5 118t96.5 78.5t115 28.5q24 0 51 -8l4 46h-68v75h73v50zM360 452q-7 5 -18 9t-24 4q-26 0 -50 -20t-42.5 -55t-30 -83t-11.5 -104q0 -53 17 -86t52 -33q16 0 39 11t36 32q-3 58 7.5 144t24.5 181z" />
    <glyph glyph-name="eng" unicode="&#x14b;" horiz-adv-x="586" 
 />
    <glyph glyph-name="hbar" unicode="&#x127;" horiz-adv-x="586" 
 />
    <glyph glyph-name="kgreenlandic" unicode="&#x138;" horiz-adv-x="542" 
 />
    <glyph glyph-name="napostrophe" unicode="&#x149;" horiz-adv-x="586" 
 />
    <glyph glyph-name="tbar" unicode="&#x167;" horiz-adv-x="367" 
 />
    <glyph glyph-name="uni021D" unicode="&#x21d;" horiz-adv-x="474" 
 />
    <glyph glyph-name="IJ" unicode="&#x132;" horiz-adv-x="696" 
 />
    <glyph glyph-name="f_f" unicode="&#xfb00;" horiz-adv-x="926" 
d="M467 619q-20 7 -38.5 11.5t-39.5 4.5q-49 0 -78 -30t-37 -77h183l-11 -108h-184q-5 -62 -9 -125.5t-12 -129.5q-7 -63 -21 -121t-35.5 -108t-52.5 -90t-72 -67l-113 52q61 56 92.5 139t45.5 183q9 68 13.5 134.5t10.5 132.5h-79l21 100l24 4q22 3 43 5q15 106 80.5 166
t174.5 60q55 0 111 -17zM942 619q-20 7 -38.5 11.5t-39.5 4.5q-49 0 -78 -30t-37 -77h183l-11 -108h-184q-5 -62 -9 -125.5t-12 -129.5q-7 -63 -21 -121t-35.5 -108t-52.5 -90t-72 -67l-113 52q61 56 92.5 139t45.5 183q9 68 13.5 134.5t10.5 132.5h-79l21 100l24 4
q22 3 43 5q15 106 80.5 166t174.5 60q55 0 111 -17z" />
    <glyph glyph-name="f_f_i" unicode="&#xfb03;" horiz-adv-x="1192" 
d="M467 619q-20 7 -38.5 11.5t-39.5 4.5q-49 0 -78 -30t-37 -77h183l-11 -108h-184q-5 -62 -9 -125.5t-12 -129.5q-7 -63 -21 -121t-35.5 -108t-52.5 -90t-72 -67l-113 52q61 56 92.5 139t45.5 183q9 68 13.5 134.5t10.5 132.5h-79l21 100l24 4q22 3 43 5q15 106 80.5 166
t174.5 60q55 0 111 -17zM942 619q-20 7 -38.5 11.5t-39.5 4.5q-49 0 -78 -30t-37 -77h183l-11 -108h-184q-5 -62 -9 -125.5t-12 -129.5q-7 -63 -21 -121t-35.5 -108t-52.5 -90t-72 -67l-113 52q61 56 92.5 139t45.5 183q9 68 13.5 134.5t10.5 132.5h-79l21 100l24 4
q22 3 43 5q15 106 80.5 166t174.5 60q55 0 111 -17zM1154 557q3 -47 -1 -96t-10 -98t-12.5 -97t-9.5 -92q-3 -48 -3 -89t7 -74l-156 -27q-8 31 -9.5 69.5t0.5 78.5q2 46 9 98t13.5 104.5t10.5 103.5t1 96zM1192 713q0 -21 -9.5 -38t-24.5 -29.5t-34 -19t-38 -6.5
q-16 0 -31.5 4.5t-28 13.5t-20 23t-7.5 33q0 22 9.5 38.5t25 27.5t34.5 17t39 6q15 0 30 -4t27.5 -13t20 -22t7.5 -31z" />
    <glyph glyph-name="f_f_j" unicode="&#xe003;" horiz-adv-x="1232" 
d="M467 619q-20 7 -38.5 11.5t-39.5 4.5q-49 0 -78 -30t-37 -77h183l-11 -108h-184q-5 -62 -9 -125.5t-12 -129.5q-7 -63 -21 -121t-35.5 -108t-52.5 -90t-72 -67l-113 52q61 56 92.5 139t45.5 183q9 68 13.5 134.5t10.5 132.5h-79l21 100l24 4q22 3 43 5q15 106 80.5 166
t174.5 60q55 0 111 -17zM942 619q-20 7 -38.5 11.5t-39.5 4.5q-49 0 -78 -30t-37 -77h183l-11 -108h-184q-5 -62 -9 -125.5t-12 -129.5q-7 -63 -21 -121t-35.5 -108t-52.5 -90t-72 -67l-113 52q61 56 92.5 139t45.5 183q9 68 13.5 134.5t10.5 132.5h-79l21 100l24 4
q22 3 43 5q15 106 80.5 166t174.5 60q55 0 111 -17zM1191 557q-1 -60 -4.5 -132t-12 -147.5t-23 -150t-37 -141t-54 -120t-74.5 -85.5l-125 47q36 34 62.5 83.5t45.5 108t30.5 124t19 132.5t11 132.5t5.5 124.5zM1217 713q0 -21 -9 -38t-24 -29.5t-34 -19t-38 -6.5
q-16 0 -31.5 4.5t-28 13.5t-20 23t-7.5 33q0 22 9.5 38.5t24.5 27.5t34 17t39 6q15 0 30 -4t27.5 -13t20 -22t7.5 -31z" />
    <glyph glyph-name="f_f_l" unicode="&#xfb04;" horiz-adv-x="1201" 
d="M467 619q-20 7 -38.5 11.5t-39.5 4.5q-49 0 -78 -30t-37 -77h183l-11 -108h-184q-5 -62 -9 -125.5t-12 -129.5q-7 -63 -21 -121t-35.5 -108t-52.5 -90t-72 -67l-113 52q61 56 92.5 139t45.5 183q9 68 13.5 134.5t10.5 132.5h-79l21 100l24 4q22 3 43 5q15 106 80.5 166
t174.5 60q55 0 111 -17zM942 619q-20 7 -38.5 11.5t-39.5 4.5q-49 0 -78 -30t-37 -77h183l-11 -108h-184q-5 -62 -9 -125.5t-12 -129.5q-7 -63 -21 -121t-35.5 -108t-52.5 -90t-72 -67l-113 52q61 56 92.5 139t45.5 183q9 68 13.5 134.5t10.5 132.5h-79l21 100l24 4
q22 3 43 5q15 106 80.5 166t174.5 60q55 0 111 -17zM1161 741q3 -49 -0.5 -103.5t-10 -111.5t-13.5 -114t-11 -109q-2 -34 -5 -74.5t-4 -81t0.5 -79t7.5 -68.5l-150 -14q-6 25 -8.5 58t-2.5 70.5t2.5 78t5.5 79.5q4 55 11.5 113t14 116.5t10 115t0.5 109.5z" />
    <glyph glyph-name="f_i" unicode="&#xfb01;" horiz-adv-x="725" 
d="M445 619q-20 7 -38.5 11.5t-39.5 4.5q-49 0 -78 -30t-37 -77h183l-11 -108h-184q-5 -62 -9 -125.5t-12 -129.5q-7 -63 -21 -121t-35.5 -108t-52.5 -90t-72 -67l-113 52q61 56 92.5 139t45.5 183q9 68 13.5 134.5t10.5 132.5h-79l21 100l24 4q22 3 43 5q15 106 80.5 166
t174.5 60q55 0 111 -17zM657 557q3 -47 -1 -96t-10 -98t-12.5 -97t-9.5 -92q-3 -48 -3 -89t7 -74l-156 -27q-8 31 -9.5 69.5t0.5 78.5q2 46 9 98t13.5 104.5t10.5 103.5t1 96zM695 713q0 -21 -9.5 -38t-24.5 -29.5t-34 -19t-38 -6.5q-16 0 -31.5 4.5t-28 13.5t-20 23
t-7.5 33q0 22 9.5 38.5t25 27.5t34.5 17t39 6q15 0 30 -4t27.5 -13t20 -22t7.5 -31z" />
    <glyph glyph-name="f_j" unicode="&#xe004;" horiz-adv-x="732" 
d="M438 619q-20 7 -38.5 11.5t-39.5 4.5q-49 0 -78 -30t-37 -77h183l-11 -108h-184q-5 -62 -9 -125.5t-12 -129.5q-7 -63 -21 -121t-35.5 -108t-52.5 -90t-72 -67l-113 52q61 56 92.5 139t45.5 183q9 68 13.5 134.5t10.5 132.5h-79l21 100l24 4q22 3 43 5q15 106 80.5 166
t174.5 60q55 0 111 -17zM687 557q-1 -60 -4.5 -132t-12 -147.5t-23 -150t-37 -141t-54 -120t-74.5 -85.5l-125 47q36 34 62.5 83.5t45.5 108t30.5 124t19 132.5t11 132.5t5.5 124.5zM713 713q0 -21 -9 -38t-24 -29.5t-34 -19t-38 -6.5q-16 0 -31.5 4.5t-28 13.5t-20 23
t-7.5 33q0 22 9.5 38.5t24.5 27.5t34 17t39 6q15 0 30 -4t27.5 -13t20 -22t7.5 -31z" />
    <glyph glyph-name="f_l" unicode="&#xfb02;" horiz-adv-x="704" 
d="M433 619q-20 7 -38.5 11.5t-39.5 4.5q-49 0 -78 -30t-37 -77h183l-11 -108h-184q-5 -62 -9 -125.5t-12 -129.5q-7 -63 -21 -121t-35.5 -108t-52.5 -90t-72 -67l-113 52q61 56 92.5 139t45.5 183q9 68 13.5 134.5t10.5 132.5h-79l21 100l24 4q22 3 43 5q15 106 80.5 166
t174.5 60q55 0 111 -17zM652 741q3 -49 -0.5 -103.5t-10 -111.5t-13.5 -114t-11 -109q-2 -34 -5 -74.5t-4 -81t0.5 -79t7.5 -68.5l-150 -14q-6 25 -8.5 58t-2.5 70.5t2.5 78t5.5 79.5q4 55 11.5 113t14 116.5t10 115t0.5 109.5z" />
    <glyph glyph-name="ij" unicode="&#x133;" horiz-adv-x="565" 
 />
    <glyph glyph-name="zero.slash" unicode="&#xf638;" horiz-adv-x="555" 
 />
    <glyph glyph-name="Euro" unicode="&#x20ac;" horiz-adv-x="592" 
d="M558 430q-29 13 -70.5 21.5t-79.5 7.5q-49 -1 -86 -22t-55 -60h254l-8 -67h-263q-3 -13 -5 -30.5t-2 -31.5h277l-8 -67h-268q7 -38 37.5 -64t87.5 -27q21 0 44.5 3t45.5 8t41 11.5t31 12.5l13 -100q-39 -21 -93 -31t-109 -10q-58 0 -102.5 15t-75.5 41.5t-49.5 62.5
t-23.5 78h-75l8 67h64q1 14 3.5 31.5t5.5 30.5h-65l8 67h78q35 83 111 131.5t180 48.5q44 0 84.5 -4.5t86.5 -20.5z" />
    <glyph glyph-name="afii61352" unicode="&#x2116;" horiz-adv-x="969" 
 />
    <glyph glyph-name="estimated" unicode="&#x212e;" horiz-adv-x="817" 
 />
    <glyph glyph-name="zero.oldstyle" unicode="&#xf730;" horiz-adv-x="561" 
 />
    <glyph glyph-name="one.oldstyle" unicode="&#xf731;" horiz-adv-x="412" 
 />
    <glyph glyph-name="two.oldstyle" unicode="&#xf732;" horiz-adv-x="476" 
 />
    <glyph glyph-name="three.oldstyle" unicode="&#xf733;" horiz-adv-x="471" 
 />
    <glyph glyph-name="four.oldstyle" unicode="&#xf734;" horiz-adv-x="546" 
 />
    <glyph glyph-name="five.oldstyle" unicode="&#xf735;" horiz-adv-x="466" 
 />
    <glyph glyph-name="six.oldstyle" unicode="&#xf736;" horiz-adv-x="550" 
 />
    <glyph glyph-name="seven.oldstyle" unicode="&#xf737;" horiz-adv-x="476" 
 />
    <glyph glyph-name="eight.oldstyle" unicode="&#xf738;" horiz-adv-x="552" 
 />
    <glyph glyph-name="nine.oldstyle" unicode="&#xf739;" horiz-adv-x="550" 
 />
    <glyph glyph-name="percent.oldstyle" unicode="&#xf642;" horiz-adv-x="891" 
 />
    <glyph glyph-name="zero.fitted" unicode="&#xf639;" horiz-adv-x="555" 
 />
    <glyph glyph-name="one.fitted" unicode="&#xf6dc;" horiz-adv-x="381" 
 />
    <glyph glyph-name="two.fitted" unicode="&#xf63a;" horiz-adv-x="493" 
 />
    <glyph glyph-name="three.fitted" unicode="&#xf63b;" horiz-adv-x="498" 
 />
    <glyph glyph-name="four.fitted" unicode="&#xf63c;" horiz-adv-x="546" 
 />
    <glyph glyph-name="five.fitted" unicode="&#xf63d;" horiz-adv-x="506" 
 />
    <glyph glyph-name="six.fitted" unicode="&#xf63e;" horiz-adv-x="556" 
 />
    <glyph glyph-name="seven.fitted" unicode="&#xf63f;" horiz-adv-x="463" 
 />
    <glyph glyph-name="eight.fitted" unicode="&#xf640;" horiz-adv-x="555" 
 />
    <glyph glyph-name="nine.fitted" unicode="&#xf641;" horiz-adv-x="556" 
 />
    <glyph glyph-name="zero.slashfitted" unicode="&#xe008;" horiz-adv-x="555" 
 />
    <glyph glyph-name="zero.taboldstyle" unicode="&#xf643;" horiz-adv-x="561" 
 />
    <glyph glyph-name="one.taboldstyle" unicode="&#xf644;" horiz-adv-x="561" 
 />
    <glyph glyph-name="two.taboldstyle" unicode="&#xf645;" horiz-adv-x="561" 
 />
    <glyph glyph-name="three.taboldstyle" unicode="&#xf646;" horiz-adv-x="561" 
 />
    <glyph glyph-name="four.taboldstyle" unicode="&#xf647;" horiz-adv-x="561" 
 />
    <glyph glyph-name="five.taboldstyle" unicode="&#xf648;" horiz-adv-x="561" 
 />
    <glyph glyph-name="six.taboldstyle" unicode="&#xf649;" horiz-adv-x="561" 
 />
    <glyph glyph-name="seven.taboldstyle" unicode="&#xf64a;" horiz-adv-x="561" 
 />
    <glyph glyph-name="eight.taboldstyle" unicode="&#xf64b;" horiz-adv-x="561" 
 />
    <glyph glyph-name="nine.taboldstyle" unicode="&#xf64c;" horiz-adv-x="561" 
 />
    <glyph glyph-name="dollar.taboldstyle" unicode="&#xf653;" horiz-adv-x="561" 
 />
    <glyph glyph-name="cent.taboldstyle" unicode="&#xf654;" horiz-adv-x="561" 
 />
    <glyph glyph-name="Euro.taboldstyle" unicode="&#xf64e;" horiz-adv-x="561" 
 />
    <glyph glyph-name="florin.taboldstyle" unicode="&#xf64f;" horiz-adv-x="561" 
 />
    <glyph glyph-name="sterling.taboldstyle" unicode="&#xf651;" horiz-adv-x="561" 
 />
    <glyph glyph-name="yen.taboldstyle" unicode="&#xf652;" horiz-adv-x="561" 
 />
    <glyph glyph-name="numbersign.taboldstyle" unicode="&#xf650;" horiz-adv-x="561" 
 />
    <glyph glyph-name="zero.superior" unicode="&#x2070;" horiz-adv-x="378" 
 />
    <glyph glyph-name="one.superior.001" horiz-adv-x="312" 
d="M128 593h-96v48q21 0 41 2t36 9t25.5 20t10.5 36h49v-428h-66v313z" />
    <glyph glyph-name="two.superior.001" horiz-adv-x="312" 
d="M21 280q0 30 8.5 55t22.5 46.5t32 39.5t37 34l37 30q29 23 45.5 45.5t16.5 57.5q0 26 -15 43t-51 17q-21 0 -33.5 -8.5t-19 -20.5t-8 -25t-1.5 -22h-72q0 29 7 54t23.5 43t43 28.5t65.5 10.5q58 0 95.5 -28.5t37.5 -85.5q0 -25 -5.5 -44t-15.5 -35.5t-25.5 -31.5
t-34.5 -30l-62 -50q-20 -16 -31 -32t-16 -31h180v-60h-261z" />
    <glyph glyph-name="three.superior.001" horiz-adv-x="312" 
d="M116 528h24q36 0 54 20t18 49q0 23 -13.5 40t-41.5 17q-21 0 -33.5 -7.5t-18.5 -18.5t-8 -22.5t-2 -20.5h-72q0 55 31 89t105 34q39 0 63 -10.5t38 -27t19 -36t5 -37.5q0 -32 -21 -58t-63 -34v-2q43 -7 69.5 -30.5t26.5 -68.5q0 -59 -33 -95t-103 -36q-50 0 -78.5 16
t-43 36t-18.5 39.5t-4 26.5v5h72q0 -12 4 -24t12.5 -22t21.5 -16.5t32 -6.5q10 0 21.5 3.5t21.5 11.5t16.5 22.5t6.5 35.5q0 34 -19.5 54t-60.5 20h-28v54z" />
    <glyph glyph-name="four.superior" unicode="&#x2074;" horiz-adv-x="393" 
 />
    <glyph glyph-name="five.superior" unicode="&#x2075;" horiz-adv-x="348" 
 />
    <glyph glyph-name="six.superior" unicode="&#x2076;" horiz-adv-x="363" 
 />
    <glyph glyph-name="seven.superior" unicode="&#x2077;" horiz-adv-x="333" 
 />
    <glyph glyph-name="eight.superior" unicode="&#x2078;" horiz-adv-x="361" 
 />
    <glyph glyph-name="nine.superior" unicode="&#x2079;" horiz-adv-x="358" 
 />
    <glyph glyph-name="period.superior" unicode="&#xf6e8;" horiz-adv-x="172" 
 />
    <glyph glyph-name="comma.superior" unicode="&#xf6e2;" horiz-adv-x="172" 
 />
    <glyph glyph-name="dollar.superior" unicode="&#xf6e4;" horiz-adv-x="353" 
 />
    <glyph glyph-name="cent.superior" unicode="&#xf6e0;" horiz-adv-x="330" 
 />
    <glyph glyph-name="hyphen.superior" unicode="&#xf6e6;" horiz-adv-x="206" 
 />
    <glyph glyph-name="parenleft.superior" unicode="&#x207d;" horiz-adv-x="204" 
 />
    <glyph glyph-name="parenright.superior" unicode="&#x207e;" horiz-adv-x="204" 
 />
    <glyph glyph-name="zero.inferior" unicode="&#x2080;" horiz-adv-x="378" 
 />
    <glyph glyph-name="one.inferior" unicode="&#x2081;" 
 />
    <glyph glyph-name="two.inferior" unicode="&#x2082;" horiz-adv-x="352" 
 />
    <glyph glyph-name="three.inferior" unicode="&#x2083;" horiz-adv-x="347" 
 />
    <glyph glyph-name="four.inferior" unicode="&#x2084;" horiz-adv-x="393" 
 />
    <glyph glyph-name="five.inferior" unicode="&#x2085;" horiz-adv-x="348" 
 />
    <glyph glyph-name="six.inferior" unicode="&#x2086;" horiz-adv-x="363" 
 />
    <glyph glyph-name="seven.inferior" unicode="&#x2087;" horiz-adv-x="333" 
 />
    <glyph glyph-name="eight.inferior" unicode="&#x2088;" horiz-adv-x="361" 
 />
    <glyph glyph-name="nine.inferior" unicode="&#x2089;" horiz-adv-x="358" 
 />
    <glyph glyph-name="period.inferior" unicode="&#xf6e7;" horiz-adv-x="172" 
 />
    <glyph glyph-name="comma.inferior" unicode="&#xf6e1;" horiz-adv-x="172" 
 />
    <glyph glyph-name="dollar.inferior" unicode="&#xf6e3;" horiz-adv-x="353" 
 />
    <glyph glyph-name="cent.inferior" unicode="&#xf6df;" horiz-adv-x="330" 
 />
    <glyph glyph-name="hyphen.inferior" unicode="&#xf6e5;" horiz-adv-x="206" 
 />
    <glyph glyph-name="parenleft.inferior" unicode="&#x208d;" horiz-adv-x="204" 
 />
    <glyph glyph-name="parenright.inferior" unicode="&#x208e;" horiz-adv-x="204" 
 />
    <glyph glyph-name="zero.numerator" unicode="&#xf661;" horiz-adv-x="378" 
 />
    <glyph glyph-name="one.numerator" unicode="&#xf662;" 
 />
    <glyph glyph-name="two.numerator" unicode="&#xf663;" horiz-adv-x="352" 
 />
    <glyph glyph-name="three.numerator" unicode="&#xf664;" horiz-adv-x="347" 
 />
    <glyph glyph-name="four.numerator" unicode="&#xf665;" horiz-adv-x="393" 
 />
    <glyph glyph-name="five.numerator" unicode="&#xf666;" horiz-adv-x="348" 
 />
    <glyph glyph-name="six.numerator" unicode="&#xf667;" horiz-adv-x="363" 
 />
    <glyph glyph-name="seven.numerator" unicode="&#xf668;" horiz-adv-x="333" 
 />
    <glyph glyph-name="eight.numerator" unicode="&#xf669;" horiz-adv-x="361" 
 />
    <glyph glyph-name="nine.numerator" unicode="&#xf66a;" horiz-adv-x="358" 
 />
    <glyph glyph-name="period.numerator" unicode="&#xf66c;" horiz-adv-x="172" 
 />
    <glyph glyph-name="comma.numerator" unicode="&#xf66b;" horiz-adv-x="172" 
 />
    <glyph glyph-name="dollar.numerator" unicode="&#xf62f;" horiz-adv-x="353" 
 />
    <glyph glyph-name="cent.numerator" unicode="&#xf62e;" horiz-adv-x="330" 
 />
    <glyph glyph-name="hyphen.numerator" unicode="&#xf630;" horiz-adv-x="206" 
 />
    <glyph glyph-name="parenleft.numerator" unicode="&#xf631;" horiz-adv-x="204" 
 />
    <glyph glyph-name="parenright.numerator" unicode="&#xf632;" horiz-adv-x="204" 
 />
    <glyph glyph-name="zero.denominator" unicode="&#xf655;" horiz-adv-x="378" 
 />
    <glyph glyph-name="one.denominator" unicode="&#xf656;" 
 />
    <glyph glyph-name="two.denominator" unicode="&#xf657;" horiz-adv-x="352" 
 />
    <glyph glyph-name="three.denominator" unicode="&#xf658;" horiz-adv-x="347" 
 />
    <glyph glyph-name="four.denominator" unicode="&#xf659;" horiz-adv-x="393" 
 />
    <glyph glyph-name="five.denominator" unicode="&#xf65a;" horiz-adv-x="348" 
 />
    <glyph glyph-name="six.denominator" unicode="&#xf65b;" horiz-adv-x="363" 
 />
    <glyph glyph-name="seven.denominator" unicode="&#xf65c;" horiz-adv-x="333" 
 />
    <glyph glyph-name="eight.denominator" unicode="&#xf65d;" horiz-adv-x="361" 
 />
    <glyph glyph-name="nine.denominator" unicode="&#xf65e;" horiz-adv-x="358" 
 />
    <glyph glyph-name="period.denominator" unicode="&#xf660;" horiz-adv-x="172" 
 />
    <glyph glyph-name="comma.denominator" unicode="&#xf65f;" horiz-adv-x="172" 
 />
    <glyph glyph-name="dollar.denominator" unicode="&#xf62a;" horiz-adv-x="353" 
 />
    <glyph glyph-name="cent.denominator" unicode="&#xf629;" horiz-adv-x="330" 
 />
    <glyph glyph-name="hyphen.denominator" unicode="&#xf62b;" horiz-adv-x="206" 
 />
    <glyph glyph-name="parenleft.denominator" unicode="&#xf62c;" horiz-adv-x="204" 
 />
    <glyph glyph-name="parenright.denominator" unicode="&#xf62d;" horiz-adv-x="204" 
 />
    <glyph glyph-name="at.cap" unicode="&#xf633;" horiz-adv-x="770" 
 />
    <glyph glyph-name="emdash.cap" unicode="&#xf6bc;" horiz-adv-x="1000" 
 />
    <glyph glyph-name="endash.cap" unicode="&#xf6bb;" horiz-adv-x="500" 
 />
    <glyph glyph-name="exclamdown.cap" unicode="&#xf6b4;" horiz-adv-x="268" 
 />
    <glyph glyph-name="guillemotleft.cap" unicode="&#xf6b6;" horiz-adv-x="465" 
 />
    <glyph glyph-name="guillemotright.cap" unicode="&#xf6b7;" horiz-adv-x="465" 
 />
    <glyph glyph-name="guilsinglleft.cap" unicode="&#xf6b8;" horiz-adv-x="270" 
 />
    <glyph glyph-name="guilsinglright.cap" unicode="&#xf6b9;" horiz-adv-x="270" 
 />
    <glyph glyph-name="hyphen.cap" unicode="&#xf6ba;" horiz-adv-x="322" 
 />
    <glyph glyph-name="questiondown.cap" unicode="&#xf6b5;" horiz-adv-x="445" 
 />
    <glyph glyph-name="braceleft.cap" unicode="&#xf6b2;" horiz-adv-x="314" 
 />
    <glyph glyph-name="braceright.cap" unicode="&#xf6b3;" horiz-adv-x="314" 
 />
    <glyph glyph-name="bracketleft.cap" unicode="&#xf6b0;" horiz-adv-x="314" 
 />
    <glyph glyph-name="bracketright.cap" unicode="&#xf6b1;" horiz-adv-x="314" 
 />
    <glyph glyph-name="parenleft.cap" unicode="&#xf6ae;" horiz-adv-x="314" 
 />
    <glyph glyph-name="parenright.cap" unicode="&#xf6af;" horiz-adv-x="314" 
 />
    <glyph glyph-name="periodcentered.cap" unicode="&#xf6bd;" horiz-adv-x="260" 
 />
    <glyph glyph-name="lessequal" unicode="&#x2264;" horiz-adv-x="596" 
 />
    <glyph glyph-name="greaterequal" unicode="&#x2265;" horiz-adv-x="596" 
 />
    <glyph glyph-name="approxequal" unicode="&#x2248;" horiz-adv-x="596" 
 />
    <glyph glyph-name="notequal" unicode="&#x2260;" horiz-adv-x="596" 
 />
    <glyph glyph-name="infinity" unicode="&#x221e;" horiz-adv-x="752" 
 />
    <glyph glyph-name="lozenge" unicode="&#x25ca;" horiz-adv-x="574" 
 />
    <glyph glyph-name="integral" unicode="&#x222b;" horiz-adv-x="358" 
 />
    <glyph glyph-name="partialdiff" unicode="&#x2202;" horiz-adv-x="375" 
 />
    <glyph glyph-name="product" unicode="&#x220f;" horiz-adv-x="663" 
 />
    <glyph glyph-name="radical" unicode="&#x221a;" horiz-adv-x="589" 
 />
    <glyph glyph-name="summation" unicode="&#x2211;" horiz-adv-x="543" 
 />
    <glyph glyph-name="Delta" unicode="&#x2206;" horiz-adv-x="631" 
 />
    <glyph glyph-name="Omega" unicode="&#x2126;" horiz-adv-x="744" 
 />
    <glyph glyph-name="pi" unicode="&#x3c0;" horiz-adv-x="600" 
 />
    <glyph glyph-name="afii61289" unicode="&#x2113;" horiz-adv-x="555" 
 />
    <glyph glyph-name="Amacron" unicode="&#x100;" horiz-adv-x="656" 
 />
    <glyph glyph-name="Aogonek" unicode="&#x104;" horiz-adv-x="656" 
 />
    <glyph glyph-name="uni01FA" unicode="&#x1fa;" horiz-adv-x="656" 
 />
    <glyph glyph-name="Cacute" unicode="&#x106;" horiz-adv-x="595" 
 />
    <glyph glyph-name="Ccaron" unicode="&#x10c;" horiz-adv-x="595" 
 />
    <glyph glyph-name="Ccircumflex" unicode="&#x108;" horiz-adv-x="595" 
 />
    <glyph glyph-name="Cdotaccent" unicode="&#x10a;" horiz-adv-x="595" 
 />
    <glyph glyph-name="Dcaron" unicode="&#x10e;" horiz-adv-x="696" 
 />
    <glyph glyph-name="Ebreve" unicode="&#x114;" horiz-adv-x="534" 
 />
    <glyph glyph-name="Ecaron" unicode="&#x11a;" horiz-adv-x="534" 
 />
    <glyph glyph-name="Edotaccent" unicode="&#x116;" horiz-adv-x="534" 
 />
    <glyph glyph-name="Emacron" unicode="&#x112;" horiz-adv-x="534" 
 />
    <glyph glyph-name="Eogonek" unicode="&#x118;" horiz-adv-x="534" 
 />
    <glyph glyph-name="Gbreve" unicode="&#x11e;" horiz-adv-x="682" 
 />
    <glyph glyph-name="Gcircumflex" unicode="&#x11c;" horiz-adv-x="682" 
 />
    <glyph glyph-name="Gcommaaccent" unicode="&#x122;" horiz-adv-x="682" 
 />
    <glyph glyph-name="Gdotaccent" unicode="&#x120;" horiz-adv-x="682" 
 />
    <glyph glyph-name="G_tildecomb" unicode="&#xe000;" horiz-adv-x="682" 
 />
    <glyph glyph-name="Hcircumflex" unicode="&#x124;" horiz-adv-x="689" 
 />
    <glyph glyph-name="Ibreve" unicode="&#x12c;" horiz-adv-x="285" 
 />
    <glyph glyph-name="Idotaccent" unicode="&#x130;" horiz-adv-x="285" 
 />
    <glyph glyph-name="Imacron" unicode="&#x12a;" horiz-adv-x="285" 
 />
    <glyph glyph-name="Iogonek" unicode="&#x12e;" horiz-adv-x="285" 
 />
    <glyph glyph-name="Itilde" unicode="&#x128;" horiz-adv-x="318" 
d="M278 771q0 -97 -11.5 -191t-23.5 -187.5t-20 -187.5t-2 -191l-157 -29q-9 97 -3.5 190.5t17.5 186.5t26 186t21 188zM393 864q-20 -20 -48.5 -32t-55.5 -12q-21 0 -39.5 6.5t-36.5 15t-36 15t-36 6.5q-22 0 -41.5 -11t-36.5 -25l-34 90q23 21 49 33.5t58 12.5
q19 0 38.5 -6.5t38.5 -14.5t37.5 -14.5t37.5 -6.5q17 0 32.5 7t28.5 18z" />
    <glyph glyph-name="Jcircumflex" unicode="&#x134;" horiz-adv-x="411" 
 />
    <glyph glyph-name="Kcommaaccent" unicode="&#x136;" horiz-adv-x="614" 
 />
    <glyph glyph-name="Lacute" unicode="&#x139;" horiz-adv-x="511" 
 />
    <glyph glyph-name="Lcaron" unicode="&#x13d;" horiz-adv-x="511" 
 />
    <glyph glyph-name="Lcommaaccent" unicode="&#x13b;" horiz-adv-x="511" 
 />
    <glyph glyph-name="Ldot" unicode="&#x13f;" horiz-adv-x="511" 
 />
    <glyph glyph-name="M_uni0302" unicode="&#xe001;" horiz-adv-x="846" 
 />
    <glyph glyph-name="Nacute" unicode="&#x143;" horiz-adv-x="690" 
 />
    <glyph glyph-name="Ncaron" unicode="&#x147;" horiz-adv-x="690" 
 />
    <glyph glyph-name="N_uni0302" unicode="&#xe002;" horiz-adv-x="690" 
 />
    <glyph glyph-name="Ncommaaccent" unicode="&#x145;" horiz-adv-x="690" 
 />
    <glyph glyph-name="Obreve" unicode="&#x14e;" horiz-adv-x="717" 
 />
    <glyph glyph-name="Ohungarumlaut" unicode="&#x150;" horiz-adv-x="717" 
 />
    <glyph glyph-name="Omacron" unicode="&#x14c;" horiz-adv-x="717" 
 />
    <glyph glyph-name="Oslashacute" unicode="&#x1fe;" horiz-adv-x="717" 
 />
    <glyph glyph-name="Racute" unicode="&#x154;" horiz-adv-x="593" 
 />
    <glyph glyph-name="Rcaron" unicode="&#x158;" horiz-adv-x="593" 
 />
    <glyph glyph-name="Rcommaaccent" unicode="&#x156;" horiz-adv-x="593" 
 />
    <glyph glyph-name="Sacute" unicode="&#x15a;" horiz-adv-x="540" 
 />
    <glyph glyph-name="Scedilla" unicode="&#x15e;" horiz-adv-x="540" 
 />
    <glyph glyph-name="Scircumflex" unicode="&#x15c;" horiz-adv-x="540" 
 />
    <glyph glyph-name="Scommaaccent" unicode="&#x218;" horiz-adv-x="540" 
 />
    <glyph glyph-name="Tcaron" unicode="&#x164;" horiz-adv-x="548" 
 />
    <glyph glyph-name="Tcommaaccent" unicode="&#x162;" horiz-adv-x="548" 
 />
    <glyph glyph-name="Ubreve" unicode="&#x16c;" horiz-adv-x="682" 
 />
    <glyph glyph-name="Uhungarumlaut" unicode="&#x170;" horiz-adv-x="682" 
 />
    <glyph glyph-name="Umacron" unicode="&#x16a;" horiz-adv-x="682" 
 />
    <glyph glyph-name="Uogonek" unicode="&#x172;" horiz-adv-x="682" 
 />
    <glyph glyph-name="Uring" unicode="&#x16e;" horiz-adv-x="682" 
 />
    <glyph glyph-name="Utilde" unicode="&#x168;" horiz-adv-x="744" 
d="M595 860q-20 -20 -48.5 -32t-55.5 -12q-21 0 -39.5 6.5t-36.5 15t-36 15t-36 6.5q-22 0 -41.5 -11t-36.5 -25l-34 90q23 21 49 33.5t58 12.5q19 0 38.5 -6.5t38.5 -14.5t37.5 -14.5t37.5 -6.5q17 0 32.5 7t28.5 18zM707 771q-11 -61 -19 -126.5t-14 -130t-9.5 -123.5
t-3.5 -106q0 -30 1.5 -66t6 -72.5t12 -70.5t18.5 -61l-158 -32q-3 8 -6 16.5t-6 20.5t-6 28t-6 40q-60 -57 -121.5 -80t-124.5 -23q-51 0 -91 16t-68 49t-41 84t-10 120q3 61 12.5 121t18.5 119.5t15 119.5t3 122l156 34q4 -34 4 -71t-3 -73.5t-8 -72t-9 -67.5
q-9 -64 -16.5 -120t-7.5 -113q0 -66 24.5 -105.5t83.5 -39.5q22 0 45 7.5t45 21t40.5 31t32.5 38.5q0 66 4 140t10.5 147t15.5 139.5t19 116.5z" />
    <glyph glyph-name="Wacute" unicode="&#x1e82;" horiz-adv-x="888" 
 />
    <glyph glyph-name="Wcircumflex" unicode="&#x174;" horiz-adv-x="888" 
 />
    <glyph glyph-name="Wdieresis" unicode="&#x1e84;" horiz-adv-x="888" 
 />
    <glyph glyph-name="Wgrave" unicode="&#x1e80;" horiz-adv-x="888" 
 />
    <glyph glyph-name="Ycircumflex" unicode="&#x176;" horiz-adv-x="603" 
 />
    <glyph glyph-name="Ygrave" unicode="&#x1ef2;" horiz-adv-x="610" 
d="M652 770q-15 -78 -41.5 -147t-59.5 -133t-71 -125t-76 -122.5t-75 -125t-67 -132.5l-157 15q30 75 67.5 142t78.5 130l-58 -6q-18 54 -42 109.5t-49.5 114t-50 120t-43.5 126.5l160 32q13 -44 32.5 -94t41 -101.5t43 -101.5t37.5 -95q27 43 52.5 90.5t46.5 94.5t36.5 93
t23.5 88zM349 790q-26 15 -49 39.5t-42 54t-32.5 62t-20.5 65.5l142 8q6 -24 16.5 -49.5t24 -50t29.5 -46.5t33 -40z" />
    <glyph glyph-name="uni0232" unicode="&#x232;" horiz-adv-x="603" 
 />
    <glyph glyph-name="Zacute" unicode="&#x179;" horiz-adv-x="577" 
 />
    <glyph glyph-name="Zdotaccent" unicode="&#x17b;" horiz-adv-x="577" 
 />
    <glyph glyph-name="AEacute" unicode="&#x1fc;" horiz-adv-x="868" 
 />
    <glyph glyph-name="abreve" unicode="&#x103;" horiz-adv-x="551" 
d="M521 516q-6 -31 -13.5 -71.5t-14 -83.5t-12 -83t-7.5 -69q-5 -55 2.5 -105t36.5 -79l-134 -42q-12 12 -25 35t-20 50q-23 -25 -47.5 -45t-46.5 -33q-11 -3 -25 -4t-22 -1q-42 0 -74.5 15.5t-54 43t-32.5 65.5t-11 82q0 75 23.5 141.5t65 116.5t97.5 79t121 29
q49 0 97 -9.5t96 -31.5zM358 452q-9 5 -21 8.5t-23 3.5q-26 0 -49.5 -22t-41.5 -58t-28.5 -82t-10.5 -94q0 -54 16 -89t53 -35q21 0 39.5 14t27.5 31q0 35 3 76.5t8.5 84t12.5 84.5t14 78zM541 781q-6 -41 -24.5 -71.5t-46 -50.5t-62 -30t-73.5 -10q-66 1 -113.5 37
t-67.5 94l90 52q17 -35 44 -54t55 -19q31 0 55.5 17t36.5 59z" />
    <glyph glyph-name="amacron" unicode="&#x101;" horiz-adv-x="528" 
 />
    <glyph glyph-name="aogonek" unicode="&#x105;" horiz-adv-x="528" 
 />
    <glyph glyph-name="uni01FB" unicode="&#x1fb;" horiz-adv-x="528" 
 />
    <glyph glyph-name="cacute" unicode="&#x107;" horiz-adv-x="451" 
 />
    <glyph glyph-name="ccaron" unicode="&#x10d;" horiz-adv-x="451" 
 />
    <glyph glyph-name="ccircumflex" unicode="&#x109;" horiz-adv-x="451" 
 />
    <glyph glyph-name="cdotaccent" unicode="&#x10b;" horiz-adv-x="451" 
 />
    <glyph glyph-name="dcaron" unicode="&#x10f;" horiz-adv-x="606" 
 />
    <glyph glyph-name="ebreve" unicode="&#x115;" horiz-adv-x="528" 
 />
    <glyph glyph-name="ecaron" unicode="&#x11b;" horiz-adv-x="528" 
 />
    <glyph glyph-name="edotaccent" unicode="&#x117;" horiz-adv-x="528" 
 />
    <glyph glyph-name="emacron" unicode="&#x113;" horiz-adv-x="528" 
 />
    <glyph glyph-name="eogonek" unicode="&#x119;" horiz-adv-x="528" 
 />
    <glyph glyph-name="gbreve" unicode="&#x11f;" horiz-adv-x="585" 
 />
    <glyph glyph-name="gcircumflex" unicode="&#x11d;" horiz-adv-x="585" 
 />
    <glyph glyph-name="gcommaaccent" unicode="&#x123;" horiz-adv-x="585" 
 />
    <glyph glyph-name="gdotaccent" unicode="&#x121;" horiz-adv-x="585" 
 />
    <glyph glyph-name="g_tildecomb" unicode="&#xe005;" horiz-adv-x="585" 
 />
    <glyph glyph-name="hcircumflex" unicode="&#x125;" horiz-adv-x="586" 
 />
    <glyph glyph-name="ibreve" unicode="&#x12d;" horiz-adv-x="274" 
 />
    <glyph glyph-name="imacron" unicode="&#x12b;" horiz-adv-x="274" 
 />
    <glyph glyph-name="iogonek" unicode="&#x12f;" horiz-adv-x="274" 
 />
    <glyph glyph-name="itilde" unicode="&#x129;" horiz-adv-x="288" 
d="M241 557q3 -47 -1 -96t-10 -98t-12.5 -97t-9.5 -92q-3 -48 -3 -89t7 -74l-156 -27q-8 31 -9.5 69.5t0.5 78.5q2 46 9 98t13.5 104.5t10.5 103.5t1 96zM349 679q-20 -20 -48.5 -32t-55.5 -12q-21 0 -39.5 6.5t-36.5 15t-36 15t-36 6.5q-22 0 -41.5 -11t-36.5 -25l-34 90
q23 21 49 33.5t58 12.5q19 0 38.5 -6.5t38.5 -14.5t37.5 -14.5t37.5 -6.5q17 0 32.5 7t28.5 18z" />
    <glyph glyph-name="jcircumflex" unicode="&#x135;" horiz-adv-x="291" 
 />
    <glyph glyph-name="kcommaaccent" unicode="&#x137;" horiz-adv-x="542" 
 />
    <glyph glyph-name="lacute" unicode="&#x13a;" horiz-adv-x="275" 
 />
    <glyph glyph-name="lcaron" unicode="&#x13e;" horiz-adv-x="285" 
 />
    <glyph glyph-name="lcommaaccent" unicode="&#x13c;" horiz-adv-x="275" 
 />
    <glyph glyph-name="ldot" unicode="&#x140;" horiz-adv-x="354" 
 />
    <glyph glyph-name="m_uni0302" unicode="&#xe006;" horiz-adv-x="860" 
 />
    <glyph glyph-name="nacute" unicode="&#x144;" horiz-adv-x="586" 
 />
    <glyph glyph-name="ncaron" unicode="&#x148;" horiz-adv-x="586" 
 />
    <glyph glyph-name="n_uni0302" unicode="&#xe007;" horiz-adv-x="586" 
 />
    <glyph glyph-name="ncommaaccent" unicode="&#x146;" horiz-adv-x="586" 
 />
    <glyph glyph-name="obreve" unicode="&#x14f;" horiz-adv-x="577" 
 />
    <glyph glyph-name="ohungarumlaut" unicode="&#x151;" horiz-adv-x="577" 
 />
    <glyph glyph-name="omacron" unicode="&#x14d;" horiz-adv-x="577" 
 />
    <glyph glyph-name="oslashacute" unicode="&#x1ff;" horiz-adv-x="577" 
 />
    <glyph glyph-name="racute" unicode="&#x155;" horiz-adv-x="380" 
 />
    <glyph glyph-name="rcaron" unicode="&#x159;" horiz-adv-x="380" 
 />
    <glyph glyph-name="rcommaaccent" unicode="&#x157;" horiz-adv-x="380" 
 />
    <glyph glyph-name="sacute" unicode="&#x15b;" horiz-adv-x="434" 
 />
    <glyph glyph-name="scedilla" unicode="&#x15f;" horiz-adv-x="434" 
 />
    <glyph glyph-name="scircumflex" unicode="&#x15d;" horiz-adv-x="434" 
 />
    <glyph glyph-name="scommaaccent" unicode="&#x219;" horiz-adv-x="434" 
 />
    <glyph glyph-name="tcaron" unicode="&#x165;" horiz-adv-x="371" 
 />
    <glyph glyph-name="tcommaaccent" unicode="&#x163;" horiz-adv-x="367" 
 />
    <glyph glyph-name="ubreve" unicode="&#x16d;" horiz-adv-x="583" 
 />
    <glyph glyph-name="uhungarumlaut" unicode="&#x171;" horiz-adv-x="583" 
 />
    <glyph glyph-name="umacron" unicode="&#x16b;" horiz-adv-x="583" 
 />
    <glyph glyph-name="uogonek" unicode="&#x173;" horiz-adv-x="583" 
 />
    <glyph glyph-name="uring" unicode="&#x16f;" horiz-adv-x="583" 
 />
    <glyph glyph-name="utilde" unicode="&#x169;" horiz-adv-x="558" 
d="M491 679q-20 -20 -48.5 -32t-55.5 -12q-21 0 -39.5 6.5t-36.5 15t-36 15t-36 6.5q-22 0 -41.5 -11t-36.5 -25l-34 90q23 21 49 33.5t58 12.5q19 0 38.5 -6.5t38.5 -14.5t37.5 -14.5t37.5 -6.5q17 0 32.5 7t28.5 18zM528 557q-7 -39 -13.5 -83.5t-13 -90t-12 -90.5
t-10.5 -85q-6 -51 -3 -106t17 -94l-154 -23q-5 19 -8 47t-5 57q-27 -31 -59 -57.5t-61 -43.5q-8 -2 -19.5 -2.5t-23.5 -0.5q-125 0 -119 151q2 44 10.5 94.5t14.5 104.5q5 48 6 96.5t-10 92.5l149 34q11 -38 12.5 -88.5t-2.5 -110.5q-2 -23 -5 -52.5t-6.5 -58t-6.5 -53.5
t-4 -40q-2 -29 5 -48.5t31 -19.5q19 0 35 18t29 49.5t22.5 73.5t16.5 91l31 218z" />
    <glyph glyph-name="wacute" unicode="&#x1e83;" horiz-adv-x="759" 
 />
    <glyph glyph-name="wcircumflex" unicode="&#x175;" horiz-adv-x="759" 
 />
    <glyph glyph-name="wdieresis" unicode="&#x1e85;" horiz-adv-x="759" 
 />
    <glyph glyph-name="wgrave" unicode="&#x1e81;" horiz-adv-x="759" 
 />
    <glyph glyph-name="ycircumflex" unicode="&#x177;" horiz-adv-x="523" 
 />
    <glyph glyph-name="ygrave" unicode="&#x1ef3;" horiz-adv-x="535" 
d="M315 596q-26 15 -49 39.5t-42 54t-32.5 62t-20.5 65.5l142 8q6 -24 16.5 -49.5t24 -50t29.5 -46.5t33 -40zM542 557q-4 -71 -22 -136t-44.5 -126.5t-58 -121t-62 -119.5t-56.5 -121.5t-41 -126.5l-143 -20q7 50 25.5 107t38.5 99q-5 1 -16 2.5t-22 2.5q-13 1 -29 2
q-19 31 -28 71.5t-12.5 86t-4 95t-1.5 97.5t-5 93.5t-16 83.5l151 31q18 -61 21.5 -128t2.5 -130.5t-1.5 -118t10.5 -89.5q20 40 45.5 97.5t48.5 118.5t40 119.5t20 102.5z" />
    <glyph glyph-name="uni0233" unicode="&#x233;" horiz-adv-x="523" 
 />
    <glyph glyph-name="zacute" unicode="&#x17a;" horiz-adv-x="469" 
 />
    <glyph glyph-name="zdotaccent" unicode="&#x17c;" horiz-adv-x="469" 
 />
    <glyph glyph-name="aeacute" unicode="&#x1fd;" horiz-adv-x="803" 
 />
    <glyph glyph-name="space_uni0326" unicode="&#xf6c3;" 
 />
    <glyph glyph-name="acute.cap" unicode="&#xf6c9;" 
 />
    <glyph glyph-name="breve.cap" unicode="&#xefee;" 
 />
    <glyph glyph-name="caron.cap" unicode="&#xf6ca;" 
 />
    <glyph glyph-name="cedilla.cap" unicode="&#xeff2;" 
 />
    <glyph glyph-name="circumflex.cap" unicode="&#xeff7;" 
 />
    <glyph glyph-name="space_uni0326.cap" unicode="&#xf634;" 
 />
    <glyph glyph-name="dieresis.cap" unicode="&#xf6cb;" 
 />
    <glyph glyph-name="dotaccent.cap" unicode="&#xefed;" 
 />
    <glyph glyph-name="grave.cap" unicode="&#xf6ce;" 
 />
    <glyph glyph-name="hungarumlaut.cap" unicode="&#xf6cf;" 
 />
    <glyph glyph-name="macron.cap" unicode="&#xf6d0;" 
 />
    <glyph glyph-name="ogonek.cap" unicode="&#xeff1;" 
 />
    <glyph glyph-name="ring.cap" unicode="&#xeff3;" horiz-adv-x="400" 
 />
    <glyph glyph-name="tilde.cap" unicode="&#xeff5;" 
 />
    <glyph glyph-name="Alpha" unicode="&#x391;" horiz-adv-x="656" 
 />
    <glyph glyph-name="Beta" unicode="&#x392;" horiz-adv-x="604" 
 />
    <glyph glyph-name="Gamma" unicode="&#x393;" horiz-adv-x="482" 
 />
    <glyph glyph-name="uni0394" unicode="&#x394;" horiz-adv-x="648" 
 />
    <glyph glyph-name="Epsilon" unicode="&#x395;" horiz-adv-x="534" 
 />
    <glyph glyph-name="Zeta" unicode="&#x396;" horiz-adv-x="577" 
 />
    <glyph glyph-name="Eta" unicode="&#x397;" horiz-adv-x="689" 
 />
    <glyph glyph-name="Theta" unicode="&#x398;" horiz-adv-x="719" 
 />
    <glyph glyph-name="Iota" unicode="&#x399;" horiz-adv-x="285" 
 />
    <glyph glyph-name="Kappa" unicode="&#x39a;" horiz-adv-x="614" 
 />
    <glyph glyph-name="Lambda" unicode="&#x39b;" horiz-adv-x="648" 
 />
    <glyph glyph-name="Mu" unicode="&#x39c;" horiz-adv-x="846" 
 />
    <glyph glyph-name="Nu" unicode="&#x39d;" horiz-adv-x="690" 
 />
    <glyph glyph-name="Xi" unicode="&#x39e;" horiz-adv-x="574" 
 />
    <glyph glyph-name="Omicron" unicode="&#x39f;" horiz-adv-x="717" 
 />
    <glyph glyph-name="Pi" unicode="&#x3a0;" horiz-adv-x="667" 
 />
    <glyph glyph-name="Rho" unicode="&#x3a1;" horiz-adv-x="581" 
 />
    <glyph glyph-name="Sigma" unicode="&#x3a3;" horiz-adv-x="578" 
 />
    <glyph glyph-name="Tau" unicode="&#x3a4;" horiz-adv-x="548" 
 />
    <glyph glyph-name="Upsilon" unicode="&#x3a5;" horiz-adv-x="625" 
 />
    <glyph glyph-name="Phi" unicode="&#x3a6;" horiz-adv-x="785" 
 />
    <glyph glyph-name="Chi" unicode="&#x3a7;" horiz-adv-x="613" 
 />
    <glyph glyph-name="Psi" unicode="&#x3a8;" horiz-adv-x="742" 
 />
    <glyph glyph-name="uni03A9" unicode="&#x3a9;" horiz-adv-x="744" 
 />
    <glyph glyph-name="Alphatonos" unicode="&#x386;" horiz-adv-x="664" 
 />
    <glyph glyph-name="Epsilontonos" unicode="&#x388;" horiz-adv-x="642" 
 />
    <glyph glyph-name="Etatonos" unicode="&#x389;" horiz-adv-x="797" 
 />
    <glyph glyph-name="Iotatonos" unicode="&#x38a;" horiz-adv-x="393" 
 />
    <glyph glyph-name="Iotadieresis" unicode="&#x3aa;" horiz-adv-x="285" 
 />
    <glyph glyph-name="Omicrontonos" unicode="&#x38c;" horiz-adv-x="792" 
 />
    <glyph glyph-name="Upsilontonos" unicode="&#x38e;" horiz-adv-x="779" 
 />
    <glyph glyph-name="Upsilondieresis" unicode="&#x3ab;" horiz-adv-x="625" 
 />
    <glyph glyph-name="Omegatonos" unicode="&#x38f;" horiz-adv-x="814" 
 />
    <glyph glyph-name="alpha" unicode="&#x3b1;" horiz-adv-x="583" 
 />
    <glyph glyph-name="beta" unicode="&#x3b2;" horiz-adv-x="587" 
 />
    <glyph glyph-name="gamma" unicode="&#x3b3;" horiz-adv-x="515" 
 />
    <glyph glyph-name="delta" unicode="&#x3b4;" horiz-adv-x="576" 
 />
    <glyph glyph-name="epsilon" unicode="&#x3b5;" horiz-adv-x="468" 
 />
    <glyph glyph-name="zeta" unicode="&#x3b6;" horiz-adv-x="441" 
 />
    <glyph glyph-name="eta" unicode="&#x3b7;" horiz-adv-x="586" 
 />
    <glyph glyph-name="theta" unicode="&#x3b8;" horiz-adv-x="570" 
 />
    <glyph glyph-name="iota" unicode="&#x3b9;" horiz-adv-x="280" 
 />
    <glyph glyph-name="kappa" unicode="&#x3ba;" horiz-adv-x="548" 
 />
    <glyph glyph-name="lambda" unicode="&#x3bb;" horiz-adv-x="518" 
 />
    <glyph glyph-name="uni03BC.001" horiz-adv-x="463" 
d="M408 0h-80v63h-2q-17 -37 -54 -57t-76 -20q-17 0 -31.5 3t-25.5 11v-176h-84v712h84v-370q0 -15 1.5 -34t9.5 -35.5t23.5 -27.5t44.5 -11q17 0 35.5 6t34.5 19t26 33.5t10 49.5v370h84v-536z" />
    <glyph glyph-name="nu" unicode="&#x3bd;" horiz-adv-x="510" 
 />
    <glyph glyph-name="xi" unicode="&#x3be;" horiz-adv-x="472" 
 />
    <glyph glyph-name="omicron" unicode="&#x3bf;" horiz-adv-x="577" 
 />
    <glyph glyph-name="rho" unicode="&#x3c1;" horiz-adv-x="591" 
 />
    <glyph glyph-name="sigma" unicode="&#x3c3;" horiz-adv-x="594" 
 />
    <glyph glyph-name="tau" unicode="&#x3c4;" horiz-adv-x="452" 
 />
    <glyph glyph-name="upsilon" unicode="&#x3c5;" horiz-adv-x="558" 
 />
    <glyph glyph-name="phi" unicode="&#x3c6;" horiz-adv-x="711" 
 />
    <glyph glyph-name="chi" unicode="&#x3c7;" horiz-adv-x="504" 
 />
    <glyph glyph-name="psi" unicode="&#x3c8;" horiz-adv-x="726" 
 />
    <glyph glyph-name="omega" unicode="&#x3c9;" horiz-adv-x="733" 
 />
    <glyph glyph-name="uni03C2" unicode="&#x3c2;" horiz-adv-x="458" 
 />
    <glyph glyph-name="alphatonos" unicode="&#x3ac;" horiz-adv-x="583" 
 />
    <glyph glyph-name="epsilontonos" unicode="&#x3ad;" horiz-adv-x="468" 
 />
    <glyph glyph-name="etatonos" unicode="&#x3ae;" horiz-adv-x="586" 
 />
    <glyph glyph-name="iotatonos" unicode="&#x3af;" horiz-adv-x="280" 
 />
    <glyph glyph-name="iotadieresis" unicode="&#x3ca;" horiz-adv-x="280" 
 />
    <glyph glyph-name="omicrontonos" unicode="&#x3cc;" horiz-adv-x="577" 
 />
    <glyph glyph-name="upsilontonos" unicode="&#x3cd;" horiz-adv-x="558" 
 />
    <glyph glyph-name="upsilondieresis" unicode="&#x3cb;" horiz-adv-x="558" 
 />
    <glyph glyph-name="omegatonos" unicode="&#x3ce;" horiz-adv-x="733" 
 />
    <glyph glyph-name="iotadieresistonos" unicode="&#x390;" horiz-adv-x="280" 
 />
    <glyph glyph-name="upsilondieresistonos" unicode="&#x3b0;" horiz-adv-x="558" 
 />
    <glyph glyph-name="uni037E" unicode="&#x37e;" horiz-adv-x="277" 
 />
    <glyph glyph-name="anoteleia" unicode="&#x387;" horiz-adv-x="277" 
 />
    <glyph glyph-name="tonos" unicode="&#x384;" horiz-adv-x="303" 
 />
    <glyph glyph-name="dieresistonos" unicode="&#x385;" horiz-adv-x="435" 
 />
    <glyph glyph-name="dieresis_acutecomb" unicode="&#xf6d7;" horiz-adv-x="301" 
 />
    <glyph glyph-name="dieresis_gravecomb" unicode="&#xf6d8;" horiz-adv-x="301" 
 />
    <glyph glyph-name="space_uni030F" unicode="&#xf6d6;" 
 />
    <glyph glyph-name="dieresis_acutecomb.cap" unicode="&#xf6cc;" horiz-adv-x="301" 
 />
    <glyph glyph-name="dieresis_gravecomb.cap" unicode="&#xf6cd;" horiz-adv-x="301" 
 />
    <glyph glyph-name="space_uni030F.cap" unicode="&#xf6d3;" 
 />
    <glyph glyph-name="afii10017" unicode="&#x410;" horiz-adv-x="656" 
 />
    <glyph glyph-name="afii10018" unicode="&#x411;" horiz-adv-x="603" 
 />
    <glyph glyph-name="afii10019" unicode="&#x412;" horiz-adv-x="604" 
 />
    <glyph glyph-name="afii10020" unicode="&#x413;" horiz-adv-x="489" 
 />
    <glyph glyph-name="afii10050" unicode="&#x490;" horiz-adv-x="492" 
 />
    <glyph glyph-name="afii10021" unicode="&#x414;" horiz-adv-x="688" 
 />
    <glyph glyph-name="afii10022" unicode="&#x415;" horiz-adv-x="534" 
 />
    <glyph glyph-name="afii10024" unicode="&#x416;" horiz-adv-x="875" 
 />
    <glyph glyph-name="afii10025" unicode="&#x417;" horiz-adv-x="544" 
 />
    <glyph glyph-name="afii10026" unicode="&#x418;" horiz-adv-x="690" 
 />
    <glyph glyph-name="afii10027" unicode="&#x419;" horiz-adv-x="690" 
 />
    <glyph glyph-name="afii10028" unicode="&#x41a;" horiz-adv-x="605" 
 />
    <glyph glyph-name="afii10029" unicode="&#x41b;" horiz-adv-x="645" 
 />
    <glyph glyph-name="afii10030" unicode="&#x41c;" horiz-adv-x="846" 
 />
    <glyph glyph-name="afii10031" unicode="&#x41d;" horiz-adv-x="689" 
 />
    <glyph glyph-name="afii10032" unicode="&#x41e;" horiz-adv-x="717" 
 />
    <glyph glyph-name="afii10033" unicode="&#x41f;" horiz-adv-x="677" 
 />
    <glyph glyph-name="afii10034" unicode="&#x420;" horiz-adv-x="581" 
 />
    <glyph glyph-name="afii10035" unicode="&#x421;" horiz-adv-x="595" 
 />
    <glyph glyph-name="afii10036" unicode="&#x422;" horiz-adv-x="548" 
 />
    <glyph glyph-name="afii10037" unicode="&#x423;" horiz-adv-x="588" 
 />
    <glyph glyph-name="afii10038" unicode="&#x424;" horiz-adv-x="789" 
 />
    <glyph glyph-name="afii10039" unicode="&#x425;" horiz-adv-x="613" 
 />
    <glyph glyph-name="afii10040" unicode="&#x426;" horiz-adv-x="694" 
 />
    <glyph glyph-name="afii10041" unicode="&#x427;" horiz-adv-x="642" 
 />
    <glyph glyph-name="afii10042" unicode="&#x428;" horiz-adv-x="913" 
 />
    <glyph glyph-name="afii10043" unicode="&#x429;" horiz-adv-x="934" 
 />
    <glyph glyph-name="afii10044" unicode="&#x42a;" horiz-adv-x="706" 
 />
    <glyph glyph-name="afii10045" unicode="&#x42b;" horiz-adv-x="852" 
 />
    <glyph glyph-name="afii10046" unicode="&#x42c;" horiz-adv-x="603" 
 />
    <glyph glyph-name="afii10047" unicode="&#x42d;" horiz-adv-x="587" 
 />
    <glyph glyph-name="afii10048" unicode="&#x42e;" horiz-adv-x="921" 
 />
    <glyph glyph-name="afii10049" unicode="&#x42f;" horiz-adv-x="600" 
 />
    <glyph glyph-name="afii10023" unicode="&#x401;" horiz-adv-x="534" 
 />
    <glyph glyph-name="afii10051" unicode="&#x402;" horiz-adv-x="722" 
 />
    <glyph glyph-name="afii10052" unicode="&#x403;" horiz-adv-x="489" 
 />
    <glyph glyph-name="afii10053" unicode="&#x404;" horiz-adv-x="595" 
 />
    <glyph glyph-name="afii10054" unicode="&#x405;" horiz-adv-x="540" 
 />
    <glyph glyph-name="afii10055" unicode="&#x406;" horiz-adv-x="285" 
 />
    <glyph glyph-name="afii10056" unicode="&#x407;" horiz-adv-x="285" 
 />
    <glyph glyph-name="afii10057" unicode="&#x408;" horiz-adv-x="411" 
 />
    <glyph glyph-name="afii10058" unicode="&#x409;" horiz-adv-x="945" 
 />
    <glyph glyph-name="afii10059" unicode="&#x40a;" horiz-adv-x="954" 
 />
    <glyph glyph-name="afii10060" unicode="&#x40b;" horiz-adv-x="730" 
 />
    <glyph glyph-name="afii10061" unicode="&#x40c;" horiz-adv-x="605" 
 />
    <glyph glyph-name="afii10062" unicode="&#x40e;" horiz-adv-x="588" 
 />
    <glyph glyph-name="afii10145" unicode="&#x40f;" horiz-adv-x="674" 
 />
    <glyph glyph-name="afii10065" unicode="&#x430;" horiz-adv-x="528" 
 />
    <glyph glyph-name="afii10066" unicode="&#x431;" horiz-adv-x="577" 
 />
    <glyph glyph-name="afii10067" unicode="&#x432;" horiz-adv-x="552" 
 />
    <glyph glyph-name="afii10068" unicode="&#x433;" horiz-adv-x="416" 
 />
    <glyph glyph-name="afii10098" unicode="&#x491;" horiz-adv-x="431" 
 />
    <glyph glyph-name="afii10069" unicode="&#x434;" horiz-adv-x="590" 
 />
    <glyph glyph-name="afii10070" unicode="&#x435;" horiz-adv-x="528" 
 />
    <glyph glyph-name="afii10072" unicode="&#x436;" horiz-adv-x="737" 
 />
    <glyph glyph-name="afii10073" unicode="&#x437;" horiz-adv-x="487" 
 />
    <glyph glyph-name="afii10074" unicode="&#x438;" horiz-adv-x="597" 
 />
    <glyph glyph-name="afii10075" unicode="&#x439;" horiz-adv-x="597" 
 />
    <glyph glyph-name="afii10076" unicode="&#x43a;" horiz-adv-x="530" 
 />
    <glyph glyph-name="afii10077" unicode="&#x43b;" horiz-adv-x="546" 
 />
    <glyph glyph-name="afii10078" unicode="&#x43c;" horiz-adv-x="718" 
 />
    <glyph glyph-name="afii10079" unicode="&#x43d;" horiz-adv-x="579" 
 />
    <glyph glyph-name="afii10080" unicode="&#x43e;" horiz-adv-x="577" 
 />
    <glyph glyph-name="afii10081" unicode="&#x43f;" horiz-adv-x="576" 
 />
    <glyph glyph-name="afii10082" unicode="&#x440;" horiz-adv-x="598" 
 />
    <glyph glyph-name="afii10083" unicode="&#x441;" horiz-adv-x="451" 
 />
    <glyph glyph-name="afii10084" unicode="&#x442;" horiz-adv-x="461" 
 />
    <glyph glyph-name="afii10085" unicode="&#x443;" horiz-adv-x="523" 
 />
    <glyph glyph-name="afii10086" unicode="&#x444;" horiz-adv-x="720" 
 />
    <glyph glyph-name="afii10087" unicode="&#x445;" horiz-adv-x="519" 
 />
    <glyph glyph-name="afii10088" unicode="&#x446;" horiz-adv-x="589" 
 />
    <glyph glyph-name="afii10089" unicode="&#x447;" horiz-adv-x="558" 
 />
    <glyph glyph-name="afii10090" unicode="&#x448;" horiz-adv-x="813" 
 />
    <glyph glyph-name="afii10091" unicode="&#x449;" horiz-adv-x="826" 
 />
    <glyph glyph-name="afii10092" unicode="&#x44a;" horiz-adv-x="650" 
 />
    <glyph glyph-name="afii10093" unicode="&#x44b;" horiz-adv-x="777" 
 />
    <glyph glyph-name="afii10094" unicode="&#x44c;" horiz-adv-x="554" 
 />
    <glyph glyph-name="afii10095" unicode="&#x44d;" horiz-adv-x="485" 
 />
    <glyph glyph-name="afii10096" unicode="&#x44e;" horiz-adv-x="771" 
 />
    <glyph glyph-name="afii10097" unicode="&#x44f;" horiz-adv-x="553" 
 />
    <glyph glyph-name="afii10071" unicode="&#x451;" horiz-adv-x="528" 
 />
    <glyph glyph-name="afii10099" unicode="&#x452;" horiz-adv-x="586" 
 />
    <glyph glyph-name="afii10100" unicode="&#x453;" horiz-adv-x="416" 
 />
    <glyph glyph-name="afii10101" unicode="&#x454;" horiz-adv-x="472" 
 />
    <glyph glyph-name="afii10102" unicode="&#x455;" horiz-adv-x="434" 
 />
    <glyph glyph-name="afii10103" unicode="&#x456;" horiz-adv-x="274" 
 />
    <glyph glyph-name="afii10104" unicode="&#x457;" horiz-adv-x="274" 
 />
    <glyph glyph-name="afii10105" unicode="&#x458;" horiz-adv-x="291" 
 />
    <glyph glyph-name="afii10106" unicode="&#x459;" horiz-adv-x="824" 
 />
    <glyph glyph-name="afii10107" unicode="&#x45a;" horiz-adv-x="840" 
 />
    <glyph glyph-name="afii10108" unicode="&#x45b;" horiz-adv-x="598" 
 />
    <glyph glyph-name="afii10109" unicode="&#x45c;" horiz-adv-x="530" 
 />
    <glyph glyph-name="afii10110" unicode="&#x45e;" horiz-adv-x="523" 
 />
    <glyph glyph-name="afii10193" unicode="&#x45f;" horiz-adv-x="576" 
 />
    <glyph glyph-name="afii10846" unicode="&#x4d9;" horiz-adv-x="328" 
 />
    <glyph glyph-name="breve.cyrcap" unicode="&#xf6d1;" 
 />
    <glyph glyph-name="circumflex.cyrcap" unicode="&#xf6d2;" 
 />
    <glyph glyph-name="breve.cyr" unicode="&#xf6d4;" 
 />
    <glyph glyph-name="circumflex.cyr" unicode="&#xf6d5;" 
 />
    <glyph glyph-name="Ohorn" unicode="&#x1a0;" horiz-adv-x="738" 
d="M710 455q0 -90 -25.5 -175t-76 -150.5t-125 -105.5t-172.5 -40q-75 0 -128.5 24t-87.5 67t-50 102t-16 129q0 91 25 175.5t75 149.5t124.5 104t173.5 39q92 0 152.5 -37t92.5 -100q17 20 21 45.5t-11 60.5l96 50q21 -35 25.5 -72.5t-4.5 -71.5t-30.5 -63t-53.5 -48
l-11 -6q6 -38 6 -77zM537 451q0 34 -5.5 71t-21 67.5t-42.5 50t-70 19.5q-40 0 -70 -18t-52 -47t-36.5 -66.5t-23 -76.5t-12 -77t-3.5 -68q0 -32 5 -68t19 -66t39.5 -50t66.5 -20q43 0 75 17t54.5 44.5t37.5 64t23.5 75t12 77t3.5 71.5z" />
    <glyph glyph-name="Uhorn" unicode="&#x1af;" horiz-adv-x="744" 
d="M707 771q-3 -18 -6.5 -36.5t-5.5 -37.5l7 5q24 20 32 49.5t-9 67.5l98 50q21 -35 26 -71t-3.5 -70.5t-30 -64.5t-52.5 -52q-24 -17 -45 -27t-39 -12q-8 -80 -13 -154.5t-5 -132.5q0 -30 1.5 -66t6 -72.5t12 -70.5t18.5 -61l-158 -32q-3 8 -6 16.5t-6 20.5t-6 28t-6 40
q-60 -57 -121.5 -80t-124.5 -23q-51 0 -91 16t-68 49t-41 84t-10 120q3 61 12.5 121t18.5 119.5t15 119.5t3 122l156 34q4 -34 4 -71t-3 -73.5t-8 -72t-9 -67.5q-9 -64 -16.5 -120t-7.5 -113q0 -66 24.5 -105.5t83.5 -39.5q22 0 45 7.5t45 21t40.5 31t32.5 38.5q0 66 4 140
t10.5 147t15.5 139.5t19 116.5l161 22v0z" />
    <glyph glyph-name="ohorn" unicode="&#x1a1;" horiz-adv-x="534" 
d="M513 348q0 -71 -19.5 -137t-57.5 -116.5t-96 -80.5t-134 -30q-93 0 -139 55.5t-46 148.5q0 68 18.5 134.5t56 118.5t93.5 84t131 32q49 0 86 -16.5t62 -46.5q12 13 8.5 30.5t-16.5 25.5l87 47q18 -30 22.5 -58t-1.5 -54.5t-21 -51.5t-36 -47q1 -9 1.5 -18.5t0.5 -19.5z
M351 343q0 62 -15.5 93t-50.5 31q-21 0 -39.5 -20t-32 -55t-21.5 -84.5t-8 -107.5q0 -59 13.5 -91t51.5 -32q24 0 43 19.5t32 54.5t20 84t7 108z" />
    <glyph glyph-name="uhorn" unicode="&#x1b0;" horiz-adv-x="558" 
d="M568 685q27 -31 35.5 -64t1.5 -63.5t-28.5 -57.5t-55.5 -47l-11 -6q-9 -61 -16.5 -122.5t-14.5 -116.5q-6 -51 -3 -106t17 -94l-154 -23q-5 19 -8 47t-5 57q-27 -31 -59 -57.5t-61 -43.5q-8 -2 -19.5 -2.5t-23.5 -0.5q-125 0 -119 151q2 44 10.5 94.5t14.5 104.5
q5 48 6 96.5t-10 92.5l149 34q11 -38 12.5 -88.5t-2.5 -110.5q-2 -23 -5 -52.5t-6.5 -58t-6.5 -53.5t-4 -40q-2 -29 5 -48.5t31 -19.5q19 0 35 18t29 49.5t22.5 73.5t16.5 91l31 218l155 20q0 19 -8.5 37t-25.5 31l75 60v0z" />
    <glyph glyph-name="dong" unicode="&#x20ab;" horiz-adv-x="555" 
 />
    <glyph glyph-name="dong.alt" unicode="&#xe184;" horiz-adv-x="555" 
 />
    <glyph glyph-name="uni1EA0" unicode="&#x1ea0;" horiz-adv-x="662" 
d="M490 -20q-17 32 -32 79.5t-29 107.5q-23 0 -49 -1.5t-52 -3.5t-50 -4.5t-43 -5.5l-40 62q-12 -27 -22 -51.5t-19 -48.5t-18.5 -49.5t-19.5 -54.5l-160 -23q29 96 70.5 198t90 203t100.5 196.5t101 177.5l136 20q27 -92 48.5 -197t43.5 -207.5t47 -194t59 -154.5zM405 295
q-6 28 -11.5 56t-11.5 59t-13 66.5t-16 79.5q-35 -67 -67.5 -133.5t-65.5 -142.5q40 5 88.5 10t96.5 5zM381 -119q0 -20 -9 -36t-23 -27.5t-32 -18t-37 -6.5q-15 0 -29.5 4t-26 13t-19 22t-7.5 31q0 21 9 36.5t23.5 26.5t33 16.5t36.5 5.5q14 0 28.5 -4t26 -12.5t19 -21
t7.5 -29.5z" />
    <glyph glyph-name="uni1EA2" unicode="&#x1ea2;" horiz-adv-x="662" 
d="M490 -20q-17 32 -32 79.5t-29 107.5q-23 0 -49 -1.5t-52 -3.5t-50 -4.5t-43 -5.5l-40 62q-12 -27 -22 -51.5t-19 -48.5t-18.5 -49.5t-19.5 -54.5l-160 -23q29 96 70.5 198t90 203t100.5 196.5t101 177.5l136 20q27 -92 48.5 -197t43.5 -207.5t47 -194t59 -154.5zM405 295
q-6 28 -11.5 56t-11.5 59t-13 66.5t-16 79.5q-35 -67 -67.5 -133.5t-65.5 -142.5q40 5 88.5 10t96.5 5zM517 1005q0 -32 -14 -62t-36 -54.5t-48 -42t-49 -26.5l-54 76q20 9 38 21t30.5 26t18.5 29t2 30t-14 20t-21 4.5t-20 -4.5t-12 -7l-41 68q21 21 58 30t72.5 1t62 -34.5
t27.5 -74.5z" />
    <glyph glyph-name="uni1EA4" unicode="&#x1ea4;" horiz-adv-x="662" 
d="M756 1110q-9 -30 -25.5 -59.5t-37.5 -55t-45.5 -47t-48.5 -34.5l-84 42q34 28 66 73t50 91zM490 -20q-17 32 -32 79.5t-29 107.5q-23 0 -49 -1.5t-52 -3.5t-50 -4.5t-43 -5.5l-40 62q-12 -27 -22 -51.5t-19 -48.5t-18.5 -49.5t-19.5 -54.5l-160 -23q29 96 70.5 198
t90 203t100.5 196.5t101 177.5l136 20q27 -92 48.5 -197t43.5 -207.5t47 -194t59 -154.5zM476 796q-20 18 -40 38l-44 44q-25 -15 -50 -37t-48 -42l-72 49q32 35 64.5 65.5t62.5 51.5l109 7q9 -15 22 -33t28 -36t30.5 -34.5t29.5 -28.5zM405 295q-6 28 -11.5 56t-11.5 59
t-13 66.5t-16 79.5q-35 -67 -67.5 -133.5t-65.5 -142.5q40 5 88.5 10t96.5 5z" />
    <glyph glyph-name="uni1EA6" unicode="&#x1ea6;" horiz-adv-x="662" 
d="M622 879q-25 14 -47 36t-40 49t-31 56.5t-20 59.5l137 7q6 -22 16 -45t23 -45t28 -42.5t32 -36.5zM490 -20q-17 32 -32 79.5t-29 107.5q-23 0 -49 -1.5t-52 -3.5t-50 -4.5t-43 -5.5l-40 62q-12 -27 -22 -51.5t-19 -48.5t-18.5 -49.5t-19.5 -54.5l-160 -23q29 96 70.5 198
t90 203t100.5 196.5t101 177.5l136 20q27 -92 48.5 -197t43.5 -207.5t47 -194t59 -154.5zM476 796q-20 18 -40 38l-44 44q-25 -15 -50 -37t-48 -42l-72 49q32 35 64.5 65.5t62.5 51.5l109 7q9 -15 22 -33t28 -36t30.5 -34.5t29.5 -28.5zM405 295q-6 28 -11.5 56t-11.5 59
t-13 66.5t-16 79.5q-35 -67 -67.5 -133.5t-65.5 -142.5q40 5 88.5 10t96.5 5z" />
    <glyph glyph-name="uni1EA8" unicode="&#x1ea8;" horiz-adv-x="662" 
d="M701 1060q0 -30 -13 -57.5t-33.5 -50t-44.5 -39t-45 -24.5l-50 70q19 9 35.5 20t28 23.5t17 26.5t2.5 28q-4 14 -13 19t-19.5 4.5t-19 -4.5t-10.5 -7l-38 63q19 20 53.5 28t67.5 1t57.5 -31.5t24.5 -69.5zM490 -20q-17 32 -32 79.5t-29 107.5q-23 0 -49 -1.5t-52 -3.5
t-50 -4.5t-43 -5.5l-40 62q-12 -27 -22 -51.5t-19 -48.5t-18.5 -49.5t-19.5 -54.5l-160 -23q29 96 70.5 198t90 203t100.5 196.5t101 177.5l136 20q27 -92 48.5 -197t43.5 -207.5t47 -194t59 -154.5zM476 796q-20 18 -40 38l-44 44q-25 -15 -50 -37t-48 -42l-72 49
q32 35 64.5 65.5t62.5 51.5l109 7q9 -15 22 -33t28 -36t30.5 -34.5t29.5 -28.5zM405 295q-6 28 -11.5 56t-11.5 59t-13 66.5t-16 79.5q-35 -67 -67.5 -133.5t-65.5 -142.5q40 5 88.5 10t96.5 5z" />
    <glyph glyph-name="uni1EAA" unicode="&#x1eaa;" horiz-adv-x="662" 
d="M562 1040q-18 -17 -43 -27.5t-49 -10.5q-18 0 -35 6t-33 13t-32 13t-32 6q-19 0 -36.5 -9.5t-32.5 -22.5l-30 79q20 19 43 30t52 11q17 0 34 -6t34 -12.5t33.5 -12.5t33.5 -6q30 0 54 22zM490 -20q-17 32 -32 79.5t-29 107.5q-23 0 -49 -1.5t-52 -3.5t-50 -4.5t-43 -5.5
l-40 62q-12 -27 -22 -51.5t-19 -48.5t-18.5 -49.5t-19.5 -54.5l-160 -23q29 96 70.5 198t90 203t100.5 196.5t101 177.5l136 20q27 -92 48.5 -197t43.5 -207.5t47 -194t59 -154.5zM476 796q-20 18 -40 38l-44 44q-25 -15 -50 -37t-48 -42l-72 49q32 35 64.5 65.5t62.5 51.5
l109 7q9 -15 22 -33t28 -36t30.5 -34.5t29.5 -28.5zM405 295q-6 28 -11.5 56t-11.5 59t-13 66.5t-16 79.5q-35 -67 -67.5 -133.5t-65.5 -142.5q40 5 88.5 10t96.5 5z" />
    <glyph glyph-name="uni1EAC" unicode="&#x1eac;" horiz-adv-x="662" 
d="M372 -119q0 -20 -9 -36t-23 -27.5t-32 -18t-37 -6.5q-15 0 -29.5 4t-26 13t-19 22t-7.5 31q0 21 9 36.5t23.5 26.5t33 16.5t36.5 5.5q14 0 28.5 -4t26 -12.5t19 -21t7.5 -29.5zM490 -20q-17 32 -32 79.5t-29 107.5q-23 0 -49 -1.5t-52 -3.5t-50 -4.5t-43 -5.5l-40 62
q-12 -27 -22 -51.5t-19 -48.5t-18.5 -49.5t-19.5 -54.5l-160 -23q29 96 70.5 198t90 203t100.5 196.5t101 177.5l136 20q27 -92 48.5 -197t43.5 -207.5t47 -194t59 -154.5zM476 796q-20 18 -40 38l-44 44q-25 -15 -50 -37t-48 -42l-72 49q32 35 64.5 65.5t62.5 51.5l109 7
q9 -15 22 -33t28 -36t30.5 -34.5t29.5 -28.5zM405 295q-6 28 -11.5 56t-11.5 59t-13 66.5t-16 79.5q-35 -67 -67.5 -133.5t-65.5 -142.5q40 5 88.5 10t96.5 5z" />
    <glyph glyph-name="uni1EAE" unicode="&#x1eae;" horiz-adv-x="662" 
d="M546 1213q-9 -30 -25.5 -59.5t-37.5 -55t-45.5 -47t-48.5 -34.5l-84 42q34 28 66 73t50 91zM581 980q-6 -41 -24.5 -71.5t-46 -50.5t-62 -30t-73.5 -10q-66 1 -113.5 37t-67.5 94l90 52q17 -35 44 -54t55 -19q31 0 55.5 17t36.5 59zM490 -20q-17 32 -32 79.5t-29 107.5
q-23 0 -49 -1.5t-52 -3.5t-50 -4.5t-43 -5.5l-40 62q-12 -27 -22 -51.5t-19 -48.5t-18.5 -49.5t-19.5 -54.5l-160 -23q29 96 70.5 198t90 203t100.5 196.5t101 177.5l136 20q27 -92 48.5 -197t43.5 -207.5t47 -194t59 -154.5zM405 295q-6 28 -11.5 56t-11.5 59t-13 66.5
t-16 79.5q-35 -67 -67.5 -133.5t-65.5 -142.5q40 5 88.5 10t96.5 5z" />
    <glyph glyph-name="uni1EB0" unicode="&#x1eb0;" horiz-adv-x="662" 
d="M395 1014q-25 14 -47 36t-40 49t-31 56.5t-20 59.5l137 7q6 -22 16 -45t23 -45t28 -42.5t32 -36.5zM581 980q-6 -41 -24.5 -71.5t-46 -50.5t-62 -30t-73.5 -10q-66 1 -113.5 37t-67.5 94l90 52q17 -35 44 -54t55 -19q31 0 55.5 17t36.5 59zM490 -20q-17 32 -32 79.5
t-29 107.5q-23 0 -49 -1.5t-52 -3.5t-50 -4.5t-43 -5.5l-40 62q-12 -27 -22 -51.5t-19 -48.5t-18.5 -49.5t-19.5 -54.5l-160 -23q29 96 70.5 198t90 203t100.5 196.5t101 177.5l136 20q27 -92 48.5 -197t43.5 -207.5t47 -194t59 -154.5zM405 295q-6 28 -11.5 56t-11.5 59
t-13 66.5t-16 79.5q-35 -67 -67.5 -133.5t-65.5 -142.5q40 5 88.5 10t96.5 5z" />
    <glyph glyph-name="uni1EB2" unicode="&#x1eb2;" horiz-adv-x="662" 
d="M525 1164q0 -30 -13 -57.5t-33.5 -50t-44.5 -39t-45 -24.5l-50 70q19 9 35.5 20t28 23.5t17 26.5t2.5 28q-4 14 -13 19t-19.5 4.5t-19 -4.5t-10.5 -7l-38 63q19 20 53.5 28t67.5 1t57.5 -31.5t24.5 -69.5zM581 980q-6 -41 -24.5 -71.5t-46 -50.5t-62 -30t-73.5 -10
q-66 1 -113.5 37t-67.5 94l90 52q17 -35 44 -54t55 -19q31 0 55.5 17t36.5 59zM490 -20q-17 32 -32 79.5t-29 107.5q-23 0 -49 -1.5t-52 -3.5t-50 -4.5t-43 -5.5l-40 62q-12 -27 -22 -51.5t-19 -48.5t-18.5 -49.5t-19.5 -54.5l-160 -23q29 96 70.5 198t90 203t100.5 196.5
t101 177.5l136 20q27 -92 48.5 -197t43.5 -207.5t47 -194t59 -154.5zM405 295q-6 28 -11.5 56t-11.5 59t-13 66.5t-16 79.5q-35 -67 -67.5 -133.5t-65.5 -142.5q40 5 88.5 10t96.5 5z" />
    <glyph glyph-name="uni1EB6" unicode="&#x1eb6;" horiz-adv-x="662" 
d="M392 -119q0 -20 -9 -36t-23 -27.5t-32 -18t-37 -6.5q-15 0 -29.5 4t-26 13t-19 22t-7.5 31q0 21 9 36.5t23.5 26.5t33 16.5t36.5 5.5q14 0 28.5 -4t26 -12.5t19 -21t7.5 -29.5zM581 980q-6 -41 -24.5 -71.5t-46 -50.5t-62 -30t-73.5 -10q-66 1 -113.5 37t-67.5 94l90 52
q17 -35 44 -54t55 -19q31 0 55.5 17t36.5 59zM490 -20q-17 32 -32 79.5t-29 107.5q-23 0 -49 -1.5t-52 -3.5t-50 -4.5t-43 -5.5l-40 62q-12 -27 -22 -51.5t-19 -48.5t-18.5 -49.5t-19.5 -54.5l-160 -23q29 96 70.5 198t90 203t100.5 196.5t101 177.5l136 20
q27 -92 48.5 -197t43.5 -207.5t47 -194t59 -154.5zM405 295q-6 28 -11.5 56t-11.5 59t-13 66.5t-16 79.5q-35 -67 -67.5 -133.5t-65.5 -142.5q40 5 88.5 10t96.5 5z" />
    <glyph glyph-name="uni1EB8" unicode="&#x1eb8;" horiz-adv-x="598" 
d="M577 653q-42 3 -81 1.5t-75.5 -6.5t-72.5 -11.5t-73 -12.5q-3 -46 -7.5 -88.5t-11.5 -91.5q22 2 53 5.5t66 7t71 6t69 4.5l5 -128q-29 -2 -62 -4.5t-65 -5.5t-62 -6t-53 -5l-35 36q-4 -28 -6.5 -54t-3.5 -52q-1 -34 5 -59t21 -41t39.5 -23.5t61.5 -7.5q27 0 57 5t58 13.5
t52 18.5t41 21l4 -143q-20 -10 -50 -19t-65 -15.5t-74.5 -10t-78.5 -3.5q-49 0 -92.5 11.5t-75.5 38t-50.5 68.5t-16.5 104q1 39 7 85t14 94.5t16 97.5t13 94q12 7 22 14q8 6 16 11.5t12 9.5q-8 -2 -21.5 -4t-28.5 -4.5t-30 -3.5t-25 -1q-3 27 -5 60.5t0 60.5q61 6 122 18
t121.5 22.5t122 16t123.5 -0.5zM397 -136q0 -20 -9 -36t-23 -27.5t-32 -18t-37 -6.5q-15 0 -29.5 4t-26 13t-19 22t-7.5 31q0 21 9 36.5t23.5 26.5t33 16.5t36.5 5.5q14 0 28.5 -4t26 -12.5t19 -21t7.5 -29.5z" />
    <glyph glyph-name="uni1EBA" unicode="&#x1eba;" horiz-adv-x="598" 
d="M577 653q-42 3 -81 1.5t-75.5 -6.5t-72.5 -11.5t-73 -12.5q-3 -46 -7.5 -88.5t-11.5 -91.5q22 2 53 5.5t66 7t71 6t69 4.5l5 -128q-29 -2 -62 -4.5t-65 -5.5t-62 -6t-53 -5l-35 36q-4 -28 -6.5 -54t-3.5 -52q-1 -34 5 -59t21 -41t39.5 -23.5t61.5 -7.5q27 0 57 5t58 13.5
t52 18.5t41 21l4 -143q-20 -10 -50 -19t-65 -15.5t-74.5 -10t-78.5 -3.5q-49 0 -92.5 11.5t-75.5 38t-50.5 68.5t-16.5 104q1 39 7 85t14 94.5t16 97.5t13 94q12 7 22 14q8 6 16 11.5t12 9.5q-8 -2 -21.5 -4t-28.5 -4.5t-30 -3.5t-25 -1q-3 27 -5 60.5t0 60.5q61 6 122 18
t121.5 22.5t122 16t123.5 -0.5zM453 991q0 -32 -14 -62t-36 -54.5t-48 -42t-49 -26.5l-54 76q20 9 38 21t30.5 26t18.5 29t2 30t-14 20t-21 4.5t-20 -4.5t-12 -7l-41 68q21 21 58 30t72.5 1t62 -34.5t27.5 -74.5z" />
    <glyph glyph-name="uni1EBC" unicode="&#x1ebc;" horiz-adv-x="598" 
d="M577 653q-42 3 -81 1.5t-75.5 -6.5t-72.5 -11.5t-73 -12.5q-3 -46 -7.5 -88.5t-11.5 -91.5q22 2 53 5.5t66 7t71 6t69 4.5l5 -128q-29 -2 -62 -4.5t-65 -5.5t-62 -6t-53 -5l-35 36q-4 -28 -6.5 -54t-3.5 -52q-1 -34 5 -59t21 -41t39.5 -23.5t61.5 -7.5q27 0 57 5t58 13.5
t52 18.5t41 21l4 -143q-20 -10 -50 -19t-65 -15.5t-74.5 -10t-78.5 -3.5q-49 0 -92.5 11.5t-75.5 38t-50.5 68.5t-16.5 104q1 39 7 85t14 94.5t16 97.5t13 94q12 7 22 14q8 6 16 11.5t12 9.5q-8 -2 -21.5 -4t-28.5 -4.5t-30 -3.5t-25 -1q-3 27 -5 60.5t0 60.5q61 6 122 18
t121.5 22.5t122 16t123.5 -0.5zM540 876q-20 -20 -48.5 -32t-55.5 -12q-21 0 -39.5 6.5t-36.5 15t-36 15t-36 6.5q-22 0 -41.5 -11t-36.5 -25l-34 90q23 21 49 33.5t58 12.5q19 0 38.5 -6.5t38.5 -14.5t37.5 -14.5t37.5 -6.5q17 0 32.5 7t28.5 18z" />
    <glyph glyph-name="uni1EBE" unicode="&#x1ebe;" horiz-adv-x="598" 
d="M694 1126q-9 -30 -25.5 -59.5t-37.5 -55t-45.5 -47t-48.5 -34.5l-84 42q34 28 66 73t50 91zM577 653q-42 3 -81 1.5t-75.5 -6.5t-72.5 -11.5t-73 -12.5q-3 -46 -7.5 -88.5t-11.5 -91.5q22 2 53 5.5t66 7t71 6t69 4.5l5 -128q-29 -2 -62 -4.5t-65 -5.5t-62 -6t-53 -5
l-35 36q-4 -28 -6.5 -54t-3.5 -52q-1 -34 5 -59t21 -41t39.5 -23.5t61.5 -7.5q27 0 57 5t58 13.5t52 18.5t41 21l4 -143q-20 -10 -50 -19t-65 -15.5t-74.5 -10t-78.5 -3.5q-49 0 -92.5 11.5t-75.5 38t-50.5 68.5t-16.5 104q1 39 7 85t14 94.5t16 97.5t13 94q12 7 22 14
q8 6 16 11.5t12 9.5q-8 -2 -21.5 -4t-28.5 -4.5t-30 -3.5t-25 -1q-3 27 -5 60.5t0 60.5q61 6 122 18t121.5 22.5t122 16t123.5 -0.5zM409 803q-39 36 -85 82q-25 -15 -50 -36.5t-48 -41.5l-71 48q32 35 64 65.5t62 51.5l110 7q9 -15 22 -33t28 -36t30.5 -34.5t29.5 -28.5z
" />
    <glyph glyph-name="uni1EC0" unicode="&#x1ec0;" horiz-adv-x="598" 
d="M562 893q-25 14 -47 36t-40 49t-31 56.5t-20 59.5l137 7q6 -22 16 -45t23 -45t28 -42.5t32 -36.5zM577 653q-42 3 -81 1.5t-75.5 -6.5t-72.5 -11.5t-73 -12.5q-3 -46 -7.5 -88.5t-11.5 -91.5q22 2 53 5.5t66 7t71 6t69 4.5l5 -128q-29 -2 -62 -4.5t-65 -5.5t-62 -6
t-53 -5l-35 36q-4 -28 -6.5 -54t-3.5 -52q-1 -34 5 -59t21 -41t39.5 -23.5t61.5 -7.5q27 0 57 5t58 13.5t52 18.5t41 21l4 -143q-20 -10 -50 -19t-65 -15.5t-74.5 -10t-78.5 -3.5q-49 0 -92.5 11.5t-75.5 38t-50.5 68.5t-16.5 104q1 39 7 85t14 94.5t16 97.5t13 94
q12 7 22 14q8 6 16 11.5t12 9.5q-8 -2 -21.5 -4t-28.5 -4.5t-30 -3.5t-25 -1q-3 27 -5 60.5t0 60.5q61 6 122 18t121.5 22.5t122 16t123.5 -0.5zM409 803q-39 36 -85 82q-25 -15 -50 -36.5t-48 -41.5l-71 48q32 35 64 65.5t62 51.5l110 7q9 -15 22 -33t28 -36t30.5 -34.5
t29.5 -28.5z" />
    <glyph glyph-name="uni1EC2" unicode="&#x1ec2;" horiz-adv-x="598" 
d="M649 1067q0 -30 -13 -57.5t-33.5 -50t-44.5 -39t-45 -24.5l-50 70q19 9 35.5 20t28 23.5t17 26.5t2.5 28q-4 14 -13 19t-19.5 4.5t-19 -4.5t-10.5 -7l-38 63q19 20 53.5 28t67.5 1t57.5 -31.5t24.5 -69.5zM577 653q-42 3 -81 1.5t-75.5 -6.5t-72.5 -11.5t-73 -12.5
q-3 -46 -7.5 -88.5t-11.5 -91.5q22 2 53 5.5t66 7t71 6t69 4.5l5 -128q-29 -2 -62 -4.5t-65 -5.5t-62 -6t-53 -5l-35 36q-4 -28 -6.5 -54t-3.5 -52q-1 -34 5 -59t21 -41t39.5 -23.5t61.5 -7.5q27 0 57 5t58 13.5t52 18.5t41 21l4 -143q-20 -10 -50 -19t-65 -15.5t-74.5 -10
t-78.5 -3.5q-49 0 -92.5 11.5t-75.5 38t-50.5 68.5t-16.5 104q1 39 7 85t14 94.5t16 97.5t13 94q12 7 22 14q8 6 16 11.5t12 9.5q-8 -2 -21.5 -4t-28.5 -4.5t-30 -3.5t-25 -1q-3 27 -5 60.5t0 60.5q61 6 122 18t121.5 22.5t122 16t123.5 -0.5zM409 803q-39 36 -85 82
q-25 -15 -50 -36.5t-48 -41.5l-71 48q32 35 64 65.5t62 51.5l110 7q9 -15 22 -33t28 -36t30.5 -34.5t29.5 -28.5z" />
    <glyph glyph-name="uni1EC4" unicode="&#x1ec4;" horiz-adv-x="598" 
d="M496 1061q-18 -17 -43 -27.5t-49 -10.5q-18 0 -35 6t-33 13t-32 13t-32 6q-19 0 -36.5 -9.5t-32.5 -22.5l-30 79q20 19 43 30t52 11q17 0 34 -6t34 -12.5t33.5 -12.5t33.5 -6q30 0 54 22zM577 653q-42 3 -81 1.5t-75.5 -6.5t-72.5 -11.5t-73 -12.5q-3 -46 -7.5 -88.5
t-11.5 -91.5q22 2 53 5.5t66 7t71 6t69 4.5l5 -128q-29 -2 -62 -4.5t-65 -5.5t-62 -6t-53 -5l-35 36q-4 -28 -6.5 -54t-3.5 -52q-1 -34 5 -59t21 -41t39.5 -23.5t61.5 -7.5q27 0 57 5t58 13.5t52 18.5t41 21l4 -143q-20 -10 -50 -19t-65 -15.5t-74.5 -10t-78.5 -3.5
q-49 0 -92.5 11.5t-75.5 38t-50.5 68.5t-16.5 104q1 39 7 85t14 94.5t16 97.5t13 94q12 7 22 14q8 6 16 11.5t12 9.5q-8 -2 -21.5 -4t-28.5 -4.5t-30 -3.5t-25 -1q-3 27 -5 60.5t0 60.5q61 6 122 18t121.5 22.5t122 16t123.5 -0.5zM409 803q-39 36 -85 82q-25 -15 -50 -36.5
t-48 -41.5l-71 48q32 35 64 65.5t62 51.5l110 7q9 -15 22 -33t28 -36t30.5 -34.5t29.5 -28.5z" />
    <glyph glyph-name="uni1EC6" unicode="&#x1ec6;" horiz-adv-x="598" 
d="M390 -129q0 -20 -9 -36t-23 -27.5t-32 -18t-37 -6.5q-15 0 -29.5 4t-26 13t-19 22t-7.5 31q0 21 9 36.5t23.5 26.5t33 16.5t36.5 5.5q14 0 28.5 -4t26 -12.5t19 -21t7.5 -29.5zM577 653q-42 3 -81 1.5t-75.5 -6.5t-72.5 -11.5t-73 -12.5q-3 -46 -7.5 -88.5t-11.5 -91.5
q22 2 53 5.5t66 7t71 6t69 4.5l5 -128q-29 -2 -62 -4.5t-65 -5.5t-62 -6t-53 -5l-35 36q-4 -28 -6.5 -54t-3.5 -52q-1 -34 5 -59t21 -41t39.5 -23.5t61.5 -7.5q27 0 57 5t58 13.5t52 18.5t41 21l4 -143q-20 -10 -50 -19t-65 -15.5t-74.5 -10t-78.5 -3.5q-49 0 -92.5 11.5
t-75.5 38t-50.5 68.5t-16.5 104q1 39 7 85t14 94.5t16 97.5t13 94q12 7 22 14q8 6 16 11.5t12 9.5q-8 -2 -21.5 -4t-28.5 -4.5t-30 -3.5t-25 -1q-3 27 -5 60.5t0 60.5q61 6 122 18t121.5 22.5t122 16t123.5 -0.5zM409 803q-39 36 -85 82q-25 -15 -50 -36.5t-48 -41.5l-71 48
q32 35 64 65.5t62 51.5l110 7q9 -15 22 -33t28 -36t30.5 -34.5t29.5 -28.5z" />
    <glyph glyph-name="uni1EC8" unicode="&#x1ec8;" horiz-adv-x="318" 
d="M278 771q0 -97 -11.5 -191t-23.5 -187.5t-20 -187.5t-2 -191l-157 -29q-9 97 -3.5 190.5t17.5 186.5t26 186t21 188zM337 987q0 -32 -14 -62t-36 -54.5t-48 -42t-49 -26.5l-54 76q20 9 38 21t30.5 26t18.5 29t2 30t-14 20t-21 4.5t-20 -4.5t-12 -7l-41 68q21 21 58 30
t72.5 1t62 -34.5t27.5 -74.5z" />
    <glyph glyph-name="uni1ECA" unicode="&#x1eca;" horiz-adv-x="318" 
d="M323 771q0 -97 -11.5 -191t-23.5 -187.5t-20 -187.5t-2 -191l-157 -29q-9 97 -3.5 190.5t17.5 186.5t26 186t21 188zM267 -129q0 -20 -9 -36t-23 -27.5t-32 -18t-37 -6.5q-15 0 -29.5 4t-26 13t-19 22t-7.5 31q0 21 9 36.5t23.5 26.5t33 16.5t36.5 5.5q14 0 28.5 -4
t26 -12.5t19 -21t7.5 -29.5z" />
    <glyph glyph-name="uni1ECC" unicode="&#x1ecc;" horiz-adv-x="738" 
d="M710 455q0 -90 -25.5 -175t-76 -150.5t-125 -105.5t-172.5 -40q-75 0 -128.5 24t-87.5 67t-50 102t-16 129q0 91 25 175.5t75 149.5t124.5 104t173.5 39q73 0 126.5 -24t88.5 -66.5t51.5 -101t16.5 -127.5zM537 451q0 34 -5.5 71t-21 67.5t-42.5 50t-70 19.5
q-40 0 -70 -18t-52 -47t-36.5 -66.5t-23 -76.5t-12 -77t-3.5 -68q0 -32 5 -68t19 -66t39.5 -50t66.5 -20q43 0 75 17t54.5 44.5t37.5 64t23.5 75t12 77t3.5 71.5zM390 -124q0 -20 -9 -36t-23 -27.5t-32 -18t-37 -6.5q-15 0 -29.5 4t-26 13t-19 22t-7.5 31q0 21 9 36.5
t23.5 26.5t33 16.5t36.5 5.5q14 0 28.5 -4t26 -12.5t19 -21t7.5 -29.5z" />
    <glyph glyph-name="uni1ECE" unicode="&#x1ece;" horiz-adv-x="738" 
d="M574 984q0 -32 -14 -62t-36 -54.5t-48 -42t-49 -26.5l-54 76q20 9 38 21t30.5 26t18.5 29t2 30t-14 20t-21 4.5t-20 -4.5t-12 -7l-41 68q21 21 58 30t72.5 1t62 -34.5t27.5 -74.5zM710 455q0 -90 -25.5 -175t-76 -150.5t-125 -105.5t-172.5 -40q-75 0 -128.5 24t-87.5 67
t-50 102t-16 129q0 91 25 175.5t75 149.5t124.5 104t173.5 39q73 0 126.5 -24t88.5 -66.5t51.5 -101t16.5 -127.5zM537 451q0 34 -5.5 71t-21 67.5t-42.5 50t-70 19.5q-40 0 -70 -18t-52 -47t-36.5 -66.5t-23 -76.5t-12 -77t-3.5 -68q0 -32 5 -68t19 -66t39.5 -50t66.5 -20
q43 0 75 17t54.5 44.5t37.5 64t23.5 75t12 77t3.5 71.5z" />
    <glyph glyph-name="uni1ED0" unicode="&#x1ed0;" horiz-adv-x="738" 
d="M808 1100q-9 -30 -25.5 -59.5t-37.5 -55t-45.5 -47t-48.5 -34.5l-84 42q34 28 66 73t50 91zM710 455q0 -90 -25.5 -175t-76 -150.5t-125 -105.5t-172.5 -40q-75 0 -128.5 24t-87.5 67t-50 102t-16 129q0 91 25 175.5t75 149.5t124.5 104t173.5 39q73 0 126.5 -24
t88.5 -66.5t51.5 -101t16.5 -127.5zM537 451q0 34 -5.5 71t-21 67.5t-42.5 50t-70 19.5q-40 0 -70 -18t-52 -47t-36.5 -66.5t-23 -76.5t-12 -77t-3.5 -68q0 -32 5 -68t19 -66t39.5 -50t66.5 -20q43 0 75 17t54.5 44.5t37.5 64t23.5 75t12 77t3.5 71.5zM519 796
q-20 18 -40 38l-44 44q-25 -15 -50 -37t-48 -42l-71 49q32 35 64 65.5t62 51.5l110 7q9 -15 22 -33t28 -36t30.5 -34.5t29.5 -28.5z" />
    <glyph glyph-name="uni1ED2" unicode="&#x1ed2;" horiz-adv-x="738" 
d="M656 888q-25 14 -47 36t-40 49t-31 56.5t-20 59.5l137 7q6 -22 16 -45t23 -45t28 -42.5t32 -36.5zM710 455q0 -90 -25.5 -175t-76 -150.5t-125 -105.5t-172.5 -40q-75 0 -128.5 24t-87.5 67t-50 102t-16 129q0 91 25 175.5t75 149.5t124.5 104t173.5 39q73 0 126.5 -24
t88.5 -66.5t51.5 -101t16.5 -127.5zM537 451q0 34 -5.5 71t-21 67.5t-42.5 50t-70 19.5q-40 0 -70 -18t-52 -47t-36.5 -66.5t-23 -76.5t-12 -77t-3.5 -68q0 -32 5 -68t19 -66t39.5 -50t66.5 -20q43 0 75 17t54.5 44.5t37.5 64t23.5 75t12 77t3.5 71.5zM519 796
q-20 18 -40 38l-44 44q-25 -15 -50 -37t-48 -42l-71 49q32 35 64 65.5t62 51.5l110 7q9 -15 22 -33t28 -36t30.5 -34.5t29.5 -28.5z" />
    <glyph glyph-name="uni1ED4" unicode="&#x1ed4;" horiz-adv-x="738" 
d="M764 1051q0 -30 -13 -57.5t-33.5 -50t-44.5 -39t-45 -24.5l-50 70q19 9 35.5 20t28 23.5t17 26.5t2.5 28q-4 14 -13 19t-19.5 4.5t-19 -4.5t-10.5 -7l-38 63q19 20 53.5 28t67.5 1t57.5 -31.5t24.5 -69.5zM710 455q0 -90 -25.5 -175t-76 -150.5t-125 -105.5t-172.5 -40
q-75 0 -128.5 24t-87.5 67t-50 102t-16 129q0 91 25 175.5t75 149.5t124.5 104t173.5 39q73 0 126.5 -24t88.5 -66.5t51.5 -101t16.5 -127.5zM537 451q0 34 -5.5 71t-21 67.5t-42.5 50t-70 19.5q-40 0 -70 -18t-52 -47t-36.5 -66.5t-23 -76.5t-12 -77t-3.5 -68q0 -32 5 -68
t19 -66t39.5 -50t66.5 -20q43 0 75 17t54.5 44.5t37.5 64t23.5 75t12 77t3.5 71.5zM519 796q-20 18 -40 38l-44 44q-25 -15 -50 -37t-48 -42l-71 49q32 35 64 65.5t62 51.5l110 7q9 -15 22 -33t28 -36t30.5 -34.5t29.5 -28.5z" />
    <glyph glyph-name="uni1ED6" unicode="&#x1ed6;" horiz-adv-x="738" 
d="M614 1064q-18 -17 -43 -27.5t-49 -10.5q-18 0 -35 6t-33 13t-32 13t-32 6q-19 0 -36.5 -9.5t-32.5 -22.5l-30 79q20 19 43 30t52 11q17 0 34 -6t34 -12.5t33.5 -12.5t33.5 -6q30 0 54 22zM710 455q0 -90 -25.5 -175t-76 -150.5t-125 -105.5t-172.5 -40q-75 0 -128.5 24
t-87.5 67t-50 102t-16 129q0 91 25 175.5t75 149.5t124.5 104t173.5 39q73 0 126.5 -24t88.5 -66.5t51.5 -101t16.5 -127.5zM537 451q0 34 -5.5 71t-21 67.5t-42.5 50t-70 19.5q-40 0 -70 -18t-52 -47t-36.5 -66.5t-23 -76.5t-12 -77t-3.5 -68q0 -32 5 -68t19 -66t39.5 -50
t66.5 -20q43 0 75 17t54.5 44.5t37.5 64t23.5 75t12 77t3.5 71.5zM519 796q-20 18 -40 38l-44 44q-25 -15 -50 -37t-48 -42l-71 49q32 35 64 65.5t62 51.5l110 7q9 -15 22 -33t28 -36t30.5 -34.5t29.5 -28.5z" />
    <glyph glyph-name="uni1ED8" unicode="&#x1ed8;" horiz-adv-x="738" 
d="M394 -119q0 -20 -9 -36t-23 -27.5t-32 -18t-37 -6.5q-15 0 -29.5 4t-26 13t-19 22t-7.5 31q0 21 9 36.5t23.5 26.5t33 16.5t36.5 5.5q14 0 28.5 -4t26 -12.5t19 -21t7.5 -29.5zM710 455q0 -90 -25.5 -175t-76 -150.5t-125 -105.5t-172.5 -40q-75 0 -128.5 24t-87.5 67
t-50 102t-16 129q0 91 25 175.5t75 149.5t124.5 104t173.5 39q73 0 126.5 -24t88.5 -66.5t51.5 -101t16.5 -127.5zM537 451q0 34 -5.5 71t-21 67.5t-42.5 50t-70 19.5q-40 0 -70 -18t-52 -47t-36.5 -66.5t-23 -76.5t-12 -77t-3.5 -68q0 -32 5 -68t19 -66t39.5 -50t66.5 -20
q43 0 75 17t54.5 44.5t37.5 64t23.5 75t12 77t3.5 71.5zM519 796q-20 18 -40 38l-44 44q-25 -15 -50 -37t-48 -42l-71 49q32 35 64 65.5t62 51.5l110 7q9 -15 22 -33t28 -36t30.5 -34.5t29.5 -28.5z" />
    <glyph glyph-name="uni1EDA" unicode="&#x1eda;" horiz-adv-x="738" 
d="M645 1035q-10 -33 -28.5 -65.5t-42 -61t-50.5 -52t-54 -38.5l-94 46q19 16 38 37t36 45t31 49.5t24 50.5zM710 455q0 -90 -25.5 -175t-76 -150.5t-125 -105.5t-172.5 -40q-75 0 -128.5 24t-87.5 67t-50 102t-16 129q0 91 25 175.5t75 149.5t124.5 104t173.5 39
q92 0 152.5 -37t92.5 -100q17 20 21 45.5t-11 60.5l96 50q21 -35 25.5 -72.5t-4.5 -71.5t-30.5 -63t-53.5 -48l-11 -6q6 -38 6 -77zM537 451q0 34 -5.5 71t-21 67.5t-42.5 50t-70 19.5q-40 0 -70 -18t-52 -47t-36.5 -66.5t-23 -76.5t-12 -77t-3.5 -68q0 -32 5 -68t19 -66
t39.5 -50t66.5 -20q43 0 75 17t54.5 44.5t37.5 64t23.5 75t12 77t3.5 71.5z" />
    <glyph glyph-name="uni1EDC" unicode="&#x1edc;" horiz-adv-x="738" 
d="M471 824q-26 15 -49 39.5t-42 54t-32.5 62t-20.5 65.5l142 8q6 -24 16.5 -49.5t24 -50t29.5 -46.5t33 -40zM710 455q0 -90 -25.5 -175t-76 -150.5t-125 -105.5t-172.5 -40q-75 0 -128.5 24t-87.5 67t-50 102t-16 129q0 91 25 175.5t75 149.5t124.5 104t173.5 39
q92 0 152.5 -37t92.5 -100q17 20 21 45.5t-11 60.5l96 50q21 -35 25.5 -72.5t-4.5 -71.5t-30.5 -63t-53.5 -48l-11 -6q6 -38 6 -77zM537 451q0 34 -5.5 71t-21 67.5t-42.5 50t-70 19.5q-40 0 -70 -18t-52 -47t-36.5 -66.5t-23 -76.5t-12 -77t-3.5 -68q0 -32 5 -68t19 -66
t39.5 -50t66.5 -20q43 0 75 17t54.5 44.5t37.5 64t23.5 75t12 77t3.5 71.5z" />
    <glyph glyph-name="uni1EDE" unicode="&#x1ede;" horiz-adv-x="738" 
d="M597 991q0 -32 -14 -62t-36 -54.5t-48 -42t-49 -26.5l-54 76q20 9 38 21t30.5 26t18.5 29t2 30t-14 20t-21 4.5t-20 -4.5t-12 -7l-41 68q21 21 58 30t72.5 1t62 -34.5t27.5 -74.5zM710 455q0 -90 -25.5 -175t-76 -150.5t-125 -105.5t-172.5 -40q-75 0 -128.5 24t-87.5 67
t-50 102t-16 129q0 91 25 175.5t75 149.5t124.5 104t173.5 39q92 0 152.5 -37t92.5 -100q17 20 21 45.5t-11 60.5l96 50q21 -35 25.5 -72.5t-4.5 -71.5t-30.5 -63t-53.5 -48l-11 -6q6 -38 6 -77zM537 451q0 34 -5.5 71t-21 67.5t-42.5 50t-70 19.5q-40 0 -70 -18t-52 -47
t-36.5 -66.5t-23 -76.5t-12 -77t-3.5 -68q0 -32 5 -68t19 -66t39.5 -50t66.5 -20q43 0 75 17t54.5 44.5t37.5 64t23.5 75t12 77t3.5 71.5z" />
    <glyph glyph-name="uni1EE0" unicode="&#x1ee0;" horiz-adv-x="738" 
d="M650 881q-20 -20 -48.5 -32t-55.5 -12q-21 0 -39.5 6.5t-36.5 15t-36 15t-36 6.5q-22 0 -41.5 -11t-36.5 -25l-34 90q23 21 49 33.5t58 12.5q19 0 38.5 -6.5t38.5 -14.5t37.5 -14.5t37.5 -6.5q17 0 32.5 7t28.5 18zM710 455q0 -90 -25.5 -175t-76 -150.5t-125 -105.5
t-172.5 -40q-75 0 -128.5 24t-87.5 67t-50 102t-16 129q0 91 25 175.5t75 149.5t124.5 104t173.5 39q92 0 152.5 -37t92.5 -100q17 20 21 45.5t-11 60.5l96 50q21 -35 25.5 -72.5t-4.5 -71.5t-30.5 -63t-53.5 -48l-11 -6q6 -38 6 -77zM537 451q0 34 -5.5 71t-21 67.5
t-42.5 50t-70 19.5q-40 0 -70 -18t-52 -47t-36.5 -66.5t-23 -76.5t-12 -77t-3.5 -68q0 -32 5 -68t19 -66t39.5 -50t66.5 -20q43 0 75 17t54.5 44.5t37.5 64t23.5 75t12 77t3.5 71.5z" />
    <glyph glyph-name="uni1EE2" unicode="&#x1ee2;" horiz-adv-x="738" 
d="M378 -133q0 -20 -9 -36t-23 -27.5t-32 -18t-37 -6.5q-15 0 -29.5 4t-26 13t-19 22t-7.5 31q0 21 9 36.5t23.5 26.5t33 16.5t36.5 5.5q14 0 28.5 -4t26 -12.5t19 -21t7.5 -29.5zM710 455q0 -90 -25.5 -175t-76 -150.5t-125 -105.5t-172.5 -40q-75 0 -128.5 24t-87.5 67
t-50 102t-16 129q0 91 25 175.5t75 149.5t124.5 104t173.5 39q92 0 152.5 -37t92.5 -100q17 20 21 45.5t-11 60.5l96 50q21 -35 25.5 -72.5t-4.5 -71.5t-30.5 -63t-53.5 -48l-11 -6q6 -38 6 -77zM537 451q0 34 -5.5 71t-21 67.5t-42.5 50t-70 19.5q-40 0 -70 -18t-52 -47
t-36.5 -66.5t-23 -76.5t-12 -77t-3.5 -68q0 -32 5 -68t19 -66t39.5 -50t66.5 -20q43 0 75 17t54.5 44.5t37.5 64t23.5 75t12 77t3.5 71.5z" />
    <glyph glyph-name="uni1EE4" unicode="&#x1ee4;" horiz-adv-x="744" 
d="M707 771q-11 -61 -19 -126.5t-14 -130t-9.5 -123.5t-3.5 -106q0 -30 1.5 -66t6 -72.5t12 -70.5t18.5 -61l-158 -32q-3 8 -6 16.5t-6 20.5t-6 28t-6 40q-60 -57 -121.5 -80t-124.5 -23q-51 0 -91 16t-68 49t-41 84t-10 120q3 61 12.5 121t18.5 119.5t15 119.5t3 122
l156 34q4 -34 4 -71t-3 -73.5t-8 -72t-9 -67.5q-9 -64 -16.5 -120t-7.5 -113q0 -66 24.5 -105.5t83.5 -39.5q22 0 45 7.5t45 21t40.5 31t32.5 38.5q0 66 4 140t10.5 147t15.5 139.5t19 116.5zM437 -136q0 -20 -9 -36t-23 -27.5t-32 -18t-37 -6.5q-15 0 -29.5 4t-26 13
t-19 22t-7.5 31q0 21 9 36.5t23.5 26.5t33 16.5t36.5 5.5q14 0 28.5 -4t26 -12.5t19 -21t7.5 -29.5z" />
    <glyph glyph-name="uni1EE6" unicode="&#x1ee6;" horiz-adv-x="744" 
d="M707 771q-11 -61 -19 -126.5t-14 -130t-9.5 -123.5t-3.5 -106q0 -30 1.5 -66t6 -72.5t12 -70.5t18.5 -61l-158 -32q-3 8 -6 16.5t-6 20.5t-6 28t-6 40q-60 -57 -121.5 -80t-124.5 -23q-51 0 -91 16t-68 49t-41 84t-10 120q3 61 12.5 121t18.5 119.5t15 119.5t3 122
l156 34q4 -34 4 -71t-3 -73.5t-8 -72t-9 -67.5q-9 -64 -16.5 -120t-7.5 -113q0 -66 24.5 -105.5t83.5 -39.5q22 0 45 7.5t45 21t40.5 31t32.5 38.5q0 66 4 140t10.5 147t15.5 139.5t19 116.5zM550 950q0 -32 -14 -62t-36 -54.5t-48 -42t-49 -26.5l-54 76q20 9 38 21t30.5 26
t18.5 29t2 30t-14 20t-21 4.5t-20 -4.5t-12 -7l-41 68q21 21 58 30t72.5 1t62 -34.5t27.5 -74.5z" />
    <glyph glyph-name="uni1EE8" unicode="&#x1ee8;" horiz-adv-x="744" 
d="M587 1001q-10 -33 -28.5 -65.5t-42 -61t-50.5 -52t-54 -38.5l-94 46q19 16 38 37t36 45t31 49.5t24 50.5zM707 771q-3 -18 -6.5 -36.5t-5.5 -37.5l7 5q24 20 32 49.5t-9 67.5l98 50q21 -35 26 -71t-3.5 -70.5t-30 -64.5t-52.5 -52q-24 -17 -45 -27t-39 -12
q-8 -80 -13 -154.5t-5 -132.5q0 -30 1.5 -66t6 -72.5t12 -70.5t18.5 -61l-158 -32q-3 8 -6 16.5t-6 20.5t-6 28t-6 40q-60 -57 -121.5 -80t-124.5 -23q-51 0 -91 16t-68 49t-41 84t-10 120q3 61 12.5 121t18.5 119.5t15 119.5t3 122l156 34q4 -34 4 -71t-3 -73.5t-8 -72
t-9 -67.5q-9 -64 -16.5 -120t-7.5 -113q0 -66 24.5 -105.5t83.5 -39.5q22 0 45 7.5t45 21t40.5 31t32.5 38.5q0 66 4 140t10.5 147t15.5 139.5t19 116.5z" />
    <glyph glyph-name="uni1EEA" unicode="&#x1eea;" horiz-adv-x="744" 
d="M442 793q-26 15 -49 39.5t-42 54t-32.5 62t-20.5 65.5l142 8q6 -24 16.5 -49.5t24 -50t29.5 -46.5t33 -40zM707 771q-3 -18 -6.5 -36.5t-5.5 -37.5l7 5q24 20 32 49.5t-9 67.5l98 50q21 -35 26 -71t-3.5 -70.5t-30 -64.5t-52.5 -52q-24 -17 -45 -27t-39 -12
q-8 -80 -13 -154.5t-5 -132.5q0 -30 1.5 -66t6 -72.5t12 -70.5t18.5 -61l-158 -32q-3 8 -6 16.5t-6 20.5t-6 28t-6 40q-60 -57 -121.5 -80t-124.5 -23q-51 0 -91 16t-68 49t-41 84t-10 120q3 61 12.5 121t18.5 119.5t15 119.5t3 122l156 34q4 -34 4 -71t-3 -73.5t-8 -72
t-9 -67.5q-9 -64 -16.5 -120t-7.5 -113q0 -66 24.5 -105.5t83.5 -39.5q22 0 45 7.5t45 21t40.5 31t32.5 38.5q0 66 4 140t10.5 147t15.5 139.5t19 116.5z" />
    <glyph glyph-name="uni1EEC" unicode="&#x1eec;" horiz-adv-x="744" 
d="M550 972q0 -32 -14 -62t-36 -54.5t-48 -42t-49 -26.5l-54 76q20 9 38 21t30.5 26t18.5 29t2 30t-14 20t-21 4.5t-20 -4.5t-12 -7l-41 68q21 21 58 30t72.5 1t62 -34.5t27.5 -74.5zM707 771q-3 -18 -6.5 -36.5t-5.5 -37.5l7 5q24 20 32 49.5t-9 67.5l98 50q21 -35 26 -71
t-3.5 -70.5t-30 -64.5t-52.5 -52q-24 -17 -45 -27t-39 -12q-8 -80 -13 -154.5t-5 -132.5q0 -30 1.5 -66t6 -72.5t12 -70.5t18.5 -61l-158 -32q-3 8 -6 16.5t-6 20.5t-6 28t-6 40q-60 -57 -121.5 -80t-124.5 -23q-51 0 -91 16t-68 49t-41 84t-10 120q3 61 12.5 121
t18.5 119.5t15 119.5t3 122l156 34q4 -34 4 -71t-3 -73.5t-8 -72t-9 -67.5q-9 -64 -16.5 -120t-7.5 -113q0 -66 24.5 -105.5t83.5 -39.5q22 0 45 7.5t45 21t40.5 31t32.5 38.5q0 66 4 140t10.5 147t15.5 139.5t19 116.5z" />
    <glyph glyph-name="uni1EEE" unicode="&#x1eee;" horiz-adv-x="744" 
d="M598 881q-20 -20 -48.5 -32t-55.5 -12q-21 0 -39.5 6.5t-36.5 15t-36 15t-36 6.5q-22 0 -41.5 -11t-36.5 -25l-34 90q23 21 49 33.5t58 12.5q19 0 38.5 -6.5t38.5 -14.5t37.5 -14.5t37.5 -6.5q17 0 32.5 7t28.5 18zM707 771q-3 -18 -6.5 -36.5t-5.5 -37.5l7 5
q24 20 32 49.5t-9 67.5l98 50q21 -35 26 -71t-3.5 -70.5t-30 -64.5t-52.5 -52q-24 -17 -45 -27t-39 -12q-8 -80 -13 -154.5t-5 -132.5q0 -30 1.5 -66t6 -72.5t12 -70.5t18.5 -61l-158 -32q-3 8 -6 16.5t-6 20.5t-6 28t-6 40q-60 -57 -121.5 -80t-124.5 -23q-51 0 -91 16
t-68 49t-41 84t-10 120q3 61 12.5 121t18.5 119.5t15 119.5t3 122l156 34q4 -34 4 -71t-3 -73.5t-8 -72t-9 -67.5q-9 -64 -16.5 -120t-7.5 -113q0 -66 24.5 -105.5t83.5 -39.5q22 0 45 7.5t45 21t40.5 31t32.5 38.5q0 66 4 140t10.5 147t15.5 139.5t19 116.5z" />
    <glyph glyph-name="uni1EF0" unicode="&#x1ef0;" horiz-adv-x="744" 
d="M421 -140q0 -20 -9 -36t-23 -27.5t-32 -18t-37 -6.5q-15 0 -29.5 4t-26 13t-19 22t-7.5 31q0 21 9 36.5t23.5 26.5t33 16.5t36.5 5.5q14 0 28.5 -4t26 -12.5t19 -21t7.5 -29.5zM707 771q-3 -18 -6.5 -36.5t-5.5 -37.5l7 5q24 20 32 49.5t-9 67.5l98 50q21 -35 26 -71
t-3.5 -70.5t-30 -64.5t-52.5 -52q-24 -17 -45 -27t-39 -12q-8 -80 -13 -154.5t-5 -132.5q0 -30 1.5 -66t6 -72.5t12 -70.5t18.5 -61l-158 -32q-3 8 -6 16.5t-6 20.5t-6 28t-6 40q-60 -57 -121.5 -80t-124.5 -23q-51 0 -91 16t-68 49t-41 84t-10 120q3 61 12.5 121
t18.5 119.5t15 119.5t3 122l156 34q4 -34 4 -71t-3 -73.5t-8 -72t-9 -67.5q-9 -64 -16.5 -120t-7.5 -113q0 -66 24.5 -105.5t83.5 -39.5q22 0 45 7.5t45 21t40.5 31t32.5 38.5q0 66 4 140t10.5 147t15.5 139.5t19 116.5z" />
    <glyph glyph-name="uni1EF4" unicode="&#x1ef4;" horiz-adv-x="610" 
d="M376 -119q0 -20 -9 -36t-23 -27.5t-32 -18t-37 -6.5q-15 0 -29.5 4t-26 13t-19 22t-7.5 31q0 21 9 36.5t23.5 26.5t33 16.5t36.5 5.5q14 0 28.5 -4t26 -12.5t19 -21t7.5 -29.5zM652 770q-15 -78 -41.5 -147t-59.5 -133t-71 -125t-76 -122.5t-75 -125t-67 -132.5l-157 15
q30 75 67.5 142t78.5 130l-58 -6q-18 54 -42 109.5t-49.5 114t-50 120t-43.5 126.5l160 32q13 -44 32.5 -94t41 -101.5t43 -101.5t37.5 -95q27 43 52.5 90.5t46.5 94.5t36.5 93t23.5 88z" />
    <glyph glyph-name="uni1EF6" unicode="&#x1ef6;" horiz-adv-x="610" 
d="M652 770q-15 -78 -41.5 -147t-59.5 -133t-71 -125t-76 -122.5t-75 -125t-67 -132.5l-157 15q30 75 67.5 142t78.5 130l-58 -6q-18 54 -42 109.5t-49.5 114t-50 120t-43.5 126.5l160 32q13 -44 32.5 -94t41 -101.5t43 -101.5t37.5 -95q27 43 52.5 90.5t46.5 94.5t36.5 93
t23.5 88zM472 945q0 -32 -14 -62t-36 -54.5t-48 -42t-49 -26.5l-54 76q20 9 38 21t30.5 26t18.5 29t2 30t-14 20t-21 4.5t-20 -4.5t-12 -7l-41 68q21 21 58 30t72.5 1t62 -34.5t27.5 -74.5z" />
    <glyph glyph-name="uni1EF8" unicode="&#x1ef8;" horiz-adv-x="610" 
d="M652 770q-15 -78 -41.5 -147t-59.5 -133t-71 -125t-76 -122.5t-75 -125t-67 -132.5l-157 15q30 75 67.5 142t78.5 130l-58 -6q-18 54 -42 109.5t-49.5 114t-50 120t-43.5 126.5l160 32q13 -44 32.5 -94t41 -101.5t43 -101.5t37.5 -95q27 43 52.5 90.5t46.5 94.5t36.5 93
t23.5 88zM517 883q-20 -20 -48.5 -32t-55.5 -12q-21 0 -39.5 6.5t-36.5 15t-36 15t-36 6.5q-22 0 -41.5 -11t-36.5 -25l-34 90q23 21 49 33.5t58 12.5q19 0 38.5 -6.5t38.5 -14.5t37.5 -14.5t37.5 -6.5q17 0 32.5 7t28.5 18z" />
    <glyph glyph-name="uni1EA1" unicode="&#x1ea1;" horiz-adv-x="551" 
d="M331 -136q0 -20 -9 -36t-23 -27.5t-32 -18t-37 -6.5q-15 0 -29.5 4t-26 13t-19 22t-7.5 31q0 21 9 36.5t23.5 26.5t33 16.5t36.5 5.5q14 0 28.5 -4t26 -12.5t19 -21t7.5 -29.5zM521 516q-6 -31 -13.5 -71.5t-14 -83.5t-12 -83t-7.5 -69q-5 -55 2.5 -105t36.5 -79
l-134 -42q-12 12 -25 35t-20 50q-23 -25 -47.5 -45t-46.5 -33q-11 -3 -25 -4t-22 -1q-42 0 -74.5 15.5t-54 43t-32.5 65.5t-11 82q0 75 23.5 141.5t65 116.5t97.5 79t121 29q49 0 97 -9.5t96 -31.5zM358 452q-9 5 -21 8.5t-23 3.5q-26 0 -49.5 -22t-41.5 -58t-28.5 -82
t-10.5 -94q0 -54 16 -89t53 -35q21 0 39.5 14t27.5 31q0 35 3 76.5t8.5 84t12.5 84.5t14 78z" />
    <glyph glyph-name="uni1EA3" unicode="&#x1ea3;" horiz-adv-x="551" 
d="M521 516q-6 -31 -13.5 -71.5t-14 -83.5t-12 -83t-7.5 -69q-5 -55 2.5 -105t36.5 -79l-134 -42q-12 12 -25 35t-20 50q-23 -25 -47.5 -45t-46.5 -33q-11 -3 -25 -4t-22 -1q-42 0 -74.5 15.5t-54 43t-32.5 65.5t-11 82q0 75 23.5 141.5t65 116.5t97.5 79t121 29
q49 0 97 -9.5t96 -31.5zM358 452q-9 5 -21 8.5t-23 3.5q-26 0 -49.5 -22t-41.5 -58t-28.5 -82t-10.5 -94q0 -54 16 -89t53 -35q21 0 39.5 14t27.5 31q0 35 3 76.5t8.5 84t12.5 84.5t14 78zM459 763q0 -32 -14 -62t-36 -54.5t-48 -42t-49 -26.5l-54 76q20 9 38 21t30.5 26
t18.5 29t2 30t-14 20t-21 4.5t-20 -4.5t-12 -7l-41 68q21 21 58 30t72.5 1t62 -34.5t27.5 -74.5z" />
    <glyph glyph-name="uni1EA5" unicode="&#x1ea5;" horiz-adv-x="551" 
d="M738 941q-9 -30 -25.5 -59.5t-37.5 -55t-45.5 -47t-48.5 -34.5l-84 42q34 28 66 73t50 91zM521 516q-6 -31 -13.5 -71.5t-14 -83.5t-12 -83t-7.5 -69q-5 -55 2.5 -105t36.5 -79l-134 -42q-12 12 -25 35t-20 50q-23 -25 -47.5 -45t-46.5 -33q-11 -3 -25 -4t-22 -1
q-42 0 -74.5 15.5t-54 43t-32.5 65.5t-11 82q0 75 23.5 141.5t65 116.5t97.5 79t121 29q49 0 97 -9.5t96 -31.5zM358 452q-9 5 -21 8.5t-23 3.5q-26 0 -49.5 -22t-41.5 -58t-28.5 -82t-10.5 -94q0 -54 16 -89t53 -35q21 0 39.5 14t27.5 31q0 35 3 76.5t8.5 84t12.5 84.5
t14 78zM432 592q-21 23 -43 48.5t-48 55.5q-27 -20 -53.5 -47t-51.5 -53l-77 62q34 44 69 82.5t67 65.5l118 9q10 -20 24 -42.5t29.5 -45.5t32.5 -44t32 -36z" />
    <glyph glyph-name="uni1EA7" unicode="&#x1ea7;" horiz-adv-x="551" 
d="M602 698q-25 14 -47 36t-40 49t-31 56.5t-20 59.5l137 7q6 -22 16 -45t23 -45t28 -42.5t32 -36.5zM521 516q-6 -31 -13.5 -71.5t-14 -83.5t-12 -83t-7.5 -69q-5 -55 2.5 -105t36.5 -79l-134 -42q-12 12 -25 35t-20 50q-23 -25 -47.5 -45t-46.5 -33q-11 -3 -25 -4t-22 -1
q-42 0 -74.5 15.5t-54 43t-32.5 65.5t-11 82q0 75 23.5 141.5t65 116.5t97.5 79t121 29q49 0 97 -9.5t96 -31.5zM358 452q-9 5 -21 8.5t-23 3.5q-26 0 -49.5 -22t-41.5 -58t-28.5 -82t-10.5 -94q0 -54 16 -89t53 -35q21 0 39.5 14t27.5 31q0 35 3 76.5t8.5 84t12.5 84.5
t14 78zM432 592q-21 23 -43 48.5t-48 55.5q-27 -20 -53.5 -47t-51.5 -53l-77 62q34 44 69 82.5t67 65.5l118 9q10 -20 24 -42.5t29.5 -45.5t32.5 -44t32 -36z" />
    <glyph glyph-name="uni1EA9" unicode="&#x1ea9;" horiz-adv-x="551" 
d="M682 887q0 -30 -13 -57.5t-33.5 -50t-44.5 -39t-45 -24.5l-50 70q19 9 35.5 20t28 23.5t17 26.5t2.5 28q-4 14 -13 19t-19.5 4.5t-19 -4.5t-10.5 -7l-38 63q19 20 53.5 28t67.5 1t57.5 -31.5t24.5 -69.5zM521 516q-6 -31 -13.5 -71.5t-14 -83.5t-12 -83t-7.5 -69
q-5 -55 2.5 -105t36.5 -79l-134 -42q-12 12 -25 35t-20 50q-23 -25 -47.5 -45t-46.5 -33q-11 -3 -25 -4t-22 -1q-42 0 -74.5 15.5t-54 43t-32.5 65.5t-11 82q0 75 23.5 141.5t65 116.5t97.5 79t121 29q49 0 97 -9.5t96 -31.5zM358 452q-9 5 -21 8.5t-23 3.5q-26 0 -49.5 -22
t-41.5 -58t-28.5 -82t-10.5 -94q0 -54 16 -89t53 -35q21 0 39.5 14t27.5 31q0 35 3 76.5t8.5 84t12.5 84.5t14 78zM432 592q-21 23 -43 48.5t-48 55.5q-27 -20 -53.5 -47t-51.5 -53l-77 62q34 44 69 82.5t67 65.5l118 9q10 -20 24 -42.5t29.5 -45.5t32.5 -44t32 -36z" />
    <glyph glyph-name="uni1EAB" unicode="&#x1eab;" horiz-adv-x="551" 
d="M522 897q-18 -17 -43 -27.5t-49 -10.5q-18 0 -35 6t-33 13t-32 13t-32 6q-19 0 -36.5 -9.5t-32.5 -22.5l-30 79q20 19 43 30t52 11q17 0 34 -6t34 -12.5t33.5 -12.5t33.5 -6q30 0 54 22zM521 516q-6 -31 -13.5 -71.5t-14 -83.5t-12 -83t-7.5 -69q-5 -55 2.5 -105
t36.5 -79l-134 -42q-12 12 -25 35t-20 50q-23 -25 -47.5 -45t-46.5 -33q-11 -3 -25 -4t-22 -1q-42 0 -74.5 15.5t-54 43t-32.5 65.5t-11 82q0 75 23.5 141.5t65 116.5t97.5 79t121 29q49 0 97 -9.5t96 -31.5zM358 452q-9 5 -21 8.5t-23 3.5q-26 0 -49.5 -22t-41.5 -58
t-28.5 -82t-10.5 -94q0 -54 16 -89t53 -35q21 0 39.5 14t27.5 31q0 35 3 76.5t8.5 84t12.5 84.5t14 78zM432 592q-21 23 -43 48.5t-48 55.5q-27 -20 -53.5 -47t-51.5 -53l-77 62q34 44 69 82.5t67 65.5l118 9q10 -20 24 -42.5t29.5 -45.5t32.5 -44t32 -36z" />
    <glyph glyph-name="uni1EAD" unicode="&#x1ead;" horiz-adv-x="551" 
d="M336 -130q0 -20 -9 -36t-23 -27.5t-32 -18t-37 -6.5q-15 0 -29.5 4t-26 13t-19 22t-7.5 31q0 21 9 36.5t23.5 26.5t33 16.5t36.5 5.5q14 0 28.5 -4t26 -12.5t19 -21t7.5 -29.5zM521 516q-6 -31 -13.5 -71.5t-14 -83.5t-12 -83t-7.5 -69q-5 -55 2.5 -105t36.5 -79
l-134 -42q-12 12 -25 35t-20 50q-23 -25 -47.5 -45t-46.5 -33q-11 -3 -25 -4t-22 -1q-42 0 -74.5 15.5t-54 43t-32.5 65.5t-11 82q0 75 23.5 141.5t65 116.5t97.5 79t121 29q49 0 97 -9.5t96 -31.5zM358 452q-9 5 -21 8.5t-23 3.5q-26 0 -49.5 -22t-41.5 -58t-28.5 -82
t-10.5 -94q0 -54 16 -89t53 -35q21 0 39.5 14t27.5 31q0 35 3 76.5t8.5 84t12.5 84.5t14 78zM432 592q-21 23 -43 48.5t-48 55.5q-27 -20 -53.5 -47t-51.5 -53l-77 62q34 44 69 82.5t67 65.5l118 9q10 -20 24 -42.5t29.5 -45.5t32.5 -44t32 -36z" />
    <glyph glyph-name="uni1EAF" unicode="&#x1eaf;" horiz-adv-x="551" 
d="M509 1026q-9 -30 -25.5 -59.5t-37.5 -55t-45.5 -47t-48.5 -34.5l-84 42q34 28 66 73t50 91zM521 516q-6 -31 -13.5 -71.5t-14 -83.5t-12 -83t-7.5 -69q-5 -55 2.5 -105t36.5 -79l-134 -42q-12 12 -25 35t-20 50q-23 -25 -47.5 -45t-46.5 -33q-11 -3 -25 -4t-22 -1
q-42 0 -74.5 15.5t-54 43t-32.5 65.5t-11 82q0 75 23.5 141.5t65 116.5t97.5 79t121 29q49 0 97 -9.5t96 -31.5zM358 452q-9 5 -21 8.5t-23 3.5q-26 0 -49.5 -22t-41.5 -58t-28.5 -82t-10.5 -94q0 -54 16 -89t53 -35q21 0 39.5 14t27.5 31q0 35 3 76.5t8.5 84t12.5 84.5
t14 78zM541 781q-6 -41 -24.5 -71.5t-46 -50.5t-62 -30t-73.5 -10q-66 1 -113.5 37t-67.5 94l90 52q17 -35 44 -54t55 -19q31 0 55.5 17t36.5 59z" />
    <glyph glyph-name="uni1EB1" unicode="&#x1eb1;" horiz-adv-x="551" 
d="M355 820q-25 14 -47 36t-40 49t-31 56.5t-20 59.5l137 7q6 -22 16 -45t23 -45t28 -42.5t32 -36.5zM521 516q-6 -31 -13.5 -71.5t-14 -83.5t-12 -83t-7.5 -69q-5 -55 2.5 -105t36.5 -79l-134 -42q-12 12 -25 35t-20 50q-23 -25 -47.5 -45t-46.5 -33q-11 -3 -25 -4t-22 -1
q-42 0 -74.5 15.5t-54 43t-32.5 65.5t-11 82q0 75 23.5 141.5t65 116.5t97.5 79t121 29q49 0 97 -9.5t96 -31.5zM358 452q-9 5 -21 8.5t-23 3.5q-26 0 -49.5 -22t-41.5 -58t-28.5 -82t-10.5 -94q0 -54 16 -89t53 -35q21 0 39.5 14t27.5 31q0 35 3 76.5t8.5 84t12.5 84.5
t14 78zM541 781q-6 -41 -24.5 -71.5t-46 -50.5t-62 -30t-73.5 -10q-66 1 -113.5 37t-67.5 94l90 52q17 -35 44 -54t55 -19q31 0 55.5 17t36.5 59z" />
    <glyph glyph-name="uni1EB3" unicode="&#x1eb3;" horiz-adv-x="551" 
d="M464 965q0 -30 -13 -57.5t-33.5 -50t-44.5 -39t-45 -24.5l-50 70q19 9 35.5 20t28 23.5t17 26.5t2.5 28q-4 14 -13 19t-19.5 4.5t-19 -4.5t-10.5 -7l-38 63q19 20 53.5 28t67.5 1t57.5 -31.5t24.5 -69.5zM521 516q-6 -31 -13.5 -71.5t-14 -83.5t-12 -83t-7.5 -69
q-5 -55 2.5 -105t36.5 -79l-134 -42q-12 12 -25 35t-20 50q-23 -25 -47.5 -45t-46.5 -33q-11 -3 -25 -4t-22 -1q-42 0 -74.5 15.5t-54 43t-32.5 65.5t-11 82q0 75 23.5 141.5t65 116.5t97.5 79t121 29q49 0 97 -9.5t96 -31.5zM358 452q-9 5 -21 8.5t-23 3.5q-26 0 -49.5 -22
t-41.5 -58t-28.5 -82t-10.5 -94q0 -54 16 -89t53 -35q21 0 39.5 14t27.5 31q0 35 3 76.5t8.5 84t12.5 84.5t14 78zM541 781q-6 -41 -24.5 -71.5t-46 -50.5t-62 -30t-73.5 -10q-66 1 -113.5 37t-67.5 94l90 52q17 -35 44 -54t55 -19q31 0 55.5 17t36.5 59z" />
    <glyph glyph-name="uni1EB5" unicode="&#x1eb5;" horiz-adv-x="551" 
d="M520 883q-18 -17 -43 -27.5t-49 -10.5q-18 0 -35 6t-33 13t-32 13t-32 6q-19 0 -36.5 -9.5t-32.5 -22.5l-30 79q20 19 43 30t52 11q17 0 34 -6t34 -12.5t33.5 -12.5t33.5 -6q30 0 54 22zM521 516q-6 -31 -13.5 -71.5t-14 -83.5t-12 -83t-7.5 -69q-5 -55 2.5 -105
t36.5 -79l-134 -42q-12 12 -25 35t-20 50q-23 -25 -47.5 -45t-46.5 -33q-11 -3 -25 -4t-22 -1q-42 0 -74.5 15.5t-54 43t-32.5 65.5t-11 82q0 75 23.5 141.5t65 116.5t97.5 79t121 29q49 0 97 -9.5t96 -31.5zM358 452q-9 5 -21 8.5t-23 3.5q-26 0 -49.5 -22t-41.5 -58
t-28.5 -82t-10.5 -94q0 -54 16 -89t53 -35q21 0 39.5 14t27.5 31q0 35 3 76.5t8.5 84t12.5 84.5t14 78zM541 781q-6 -41 -24.5 -71.5t-46 -50.5t-62 -30t-73.5 -10q-66 1 -113.5 37t-67.5 94l90 52q17 -35 44 -54t55 -19q31 0 55.5 17t36.5 59z" />
    <glyph glyph-name="uni1EB7" unicode="&#x1eb7;" horiz-adv-x="551" 
d="M339 -138q0 -20 -9 -36t-23 -27.5t-32 -18t-37 -6.5q-15 0 -29.5 4t-26 13t-19 22t-7.5 31q0 21 9 36.5t23.5 26.5t33 16.5t36.5 5.5q14 0 28.5 -4t26 -12.5t19 -21t7.5 -29.5zM521 516q-6 -31 -13.5 -71.5t-14 -83.5t-12 -83t-7.5 -69q-5 -55 2.5 -105t36.5 -79
l-134 -42q-12 12 -25 35t-20 50q-23 -25 -47.5 -45t-46.5 -33q-11 -3 -25 -4t-22 -1q-42 0 -74.5 15.5t-54 43t-32.5 65.5t-11 82q0 75 23.5 141.5t65 116.5t97.5 79t121 29q49 0 97 -9.5t96 -31.5zM358 452q-9 5 -21 8.5t-23 3.5q-26 0 -49.5 -22t-41.5 -58t-28.5 -82
t-10.5 -94q0 -54 16 -89t53 -35q21 0 39.5 14t27.5 31q0 35 3 76.5t8.5 84t12.5 84.5t14 78zM541 781q-6 -41 -24.5 -71.5t-46 -50.5t-62 -30t-73.5 -10q-66 1 -113.5 37t-67.5 94l90 52q17 -35 44 -54t55 -19q31 0 55.5 17t36.5 59z" />
    <glyph glyph-name="uni1EB9" unicode="&#x1eb9;" horiz-adv-x="498" 
d="M476 414q0 -45 -19.5 -82.5t-51.5 -65t-72.5 -43t-81.5 -15.5q-5 0 -10.5 0.5t-7.5 0.5q-4 2 -11 7t-14.5 11t-14.5 11.5t-10 8.5q-6 -72 19 -111.5t73 -39.5q35 0 74 17t68 40l19 -113q-21 -15 -46.5 -25.5t-53 -17t-55 -10t-52.5 -3.5q-94 0 -150.5 56t-56.5 163
q0 72 22.5 136t60.5 112.5t89.5 77t110.5 28.5q34 0 65 -7.5t54.5 -24.5t37.5 -44.5t14 -66.5zM330 417q0 22 -10.5 38t-31.5 16t-38.5 -17.5t-30.5 -44.5t-21.5 -59t-11.5 -61q24 -2 49.5 7.5t46.5 26.5t34.5 41t13.5 53zM319 -133q0 -20 -9 -36t-23 -27.5t-32 -18
t-37 -6.5q-15 0 -29.5 4t-26 13t-19 22t-7.5 31q0 21 9 36.5t23.5 26.5t33 16.5t36.5 5.5q14 0 28.5 -4t26 -12.5t19 -21t7.5 -29.5z" />
    <glyph glyph-name="uni1EBB" unicode="&#x1ebb;" horiz-adv-x="498" 
d="M476 414q0 -45 -19.5 -82.5t-51.5 -65t-72.5 -43t-81.5 -15.5q-5 0 -10.5 0.5t-7.5 0.5q-4 2 -11 7t-14.5 11t-14.5 11.5t-10 8.5q-6 -72 19 -111.5t73 -39.5q35 0 74 17t68 40l19 -113q-21 -15 -46.5 -25.5t-53 -17t-55 -10t-52.5 -3.5q-94 0 -150.5 56t-56.5 163
q0 72 22.5 136t60.5 112.5t89.5 77t110.5 28.5q34 0 65 -7.5t54.5 -24.5t37.5 -44.5t14 -66.5zM330 417q0 22 -10.5 38t-31.5 16t-38.5 -17.5t-30.5 -44.5t-21.5 -59t-11.5 -61q24 -2 49.5 7.5t46.5 26.5t34.5 41t13.5 53zM457 768q0 -32 -14 -62t-36 -54.5t-48 -42
t-49 -26.5l-54 76q20 9 38 21t30.5 26t18.5 29t2 30t-14 20t-21 4.5t-20 -4.5t-12 -7l-41 68q21 21 58 30t72.5 1t62 -34.5t27.5 -74.5z" />
    <glyph glyph-name="uni1EBD" unicode="&#x1ebd;" horiz-adv-x="498" 
d="M476 414q0 -45 -19.5 -82.5t-51.5 -65t-72.5 -43t-81.5 -15.5q-5 0 -10.5 0.5t-7.5 0.5q-4 2 -11 7t-14.5 11t-14.5 11.5t-10 8.5q-6 -72 19 -111.5t73 -39.5q35 0 74 17t68 40l19 -113q-21 -15 -46.5 -25.5t-53 -17t-55 -10t-52.5 -3.5q-94 0 -150.5 56t-56.5 163
q0 72 22.5 136t60.5 112.5t89.5 77t110.5 28.5q34 0 65 -7.5t54.5 -24.5t37.5 -44.5t14 -66.5zM330 417q0 22 -10.5 38t-31.5 16t-38.5 -17.5t-30.5 -44.5t-21.5 -59t-11.5 -61q24 -2 49.5 7.5t46.5 26.5t34.5 41t13.5 53zM491 679q-20 -20 -48.5 -32t-55.5 -12
q-21 0 -39.5 6.5t-36.5 15t-36 15t-36 6.5q-22 0 -41.5 -11t-36.5 -25l-34 90q23 21 49 33.5t58 12.5q19 0 38.5 -6.5t38.5 -14.5t37.5 -14.5t37.5 -6.5q17 0 32.5 7t28.5 18z" />
    <glyph glyph-name="uni1EBF" unicode="&#x1ebf;" horiz-adv-x="498" 
d="M687 931q-9 -30 -25.5 -59.5t-37.5 -55t-45.5 -47t-48.5 -34.5l-84 42q34 28 66 73t50 91zM476 414q0 -45 -19.5 -82.5t-51.5 -65t-72.5 -43t-81.5 -15.5q-5 0 -10.5 0.5t-7.5 0.5q-4 2 -11 7t-14.5 11t-14.5 11.5t-10 8.5q-6 -72 19 -111.5t73 -39.5q35 0 74 17t68 40
l19 -113q-21 -15 -46.5 -25.5t-53 -17t-55 -10t-52.5 -3.5q-94 0 -150.5 56t-56.5 163q0 72 22.5 136t60.5 112.5t89.5 77t110.5 28.5q34 0 65 -7.5t54.5 -24.5t37.5 -44.5t14 -66.5zM397 592q-21 23 -43 48.5t-48 55.5q-27 -20 -53.5 -47t-51.5 -53l-77 62q34 44 69 82.5
t67 65.5l118 9q10 -20 24 -42.5t29.5 -45.5t32.5 -44t32 -36zM330 417q0 22 -10.5 38t-31.5 16t-38.5 -17.5t-30.5 -44.5t-21.5 -59t-11.5 -61q24 -2 49.5 7.5t46.5 26.5t34.5 41t13.5 53z" />
    <glyph glyph-name="uni1EC1" unicode="&#x1ec1;" horiz-adv-x="498" 
d="M550 714q-25 14 -47 36t-40 49t-31 56.5t-20 59.5l137 7q6 -22 16 -45t23 -45t28 -42.5t32 -36.5zM476 414q0 -45 -19.5 -82.5t-51.5 -65t-72.5 -43t-81.5 -15.5q-5 0 -10.5 0.5t-7.5 0.5q-4 2 -11 7t-14.5 11t-14.5 11.5t-10 8.5q-6 -72 19 -111.5t73 -39.5q35 0 74 17
t68 40l19 -113q-21 -15 -46.5 -25.5t-53 -17t-55 -10t-52.5 -3.5q-94 0 -150.5 56t-56.5 163q0 72 22.5 136t60.5 112.5t89.5 77t110.5 28.5q34 0 65 -7.5t54.5 -24.5t37.5 -44.5t14 -66.5zM397 592q-21 23 -43 48.5t-48 55.5q-27 -20 -53.5 -47t-51.5 -53l-77 62
q34 44 69 82.5t67 65.5l118 9q10 -20 24 -42.5t29.5 -45.5t32.5 -44t32 -36zM330 417q0 22 -10.5 38t-31.5 16t-38.5 -17.5t-30.5 -44.5t-21.5 -59t-11.5 -61q24 -2 49.5 7.5t46.5 26.5t34.5 41t13.5 53z" />
    <glyph glyph-name="uni1EC3" unicode="&#x1ec3;" horiz-adv-x="498" 
d="M630 892q0 -30 -13 -57.5t-33.5 -50t-44.5 -39t-45 -24.5l-50 70q19 9 35.5 20t28 23.5t17 26.5t2.5 28q-4 14 -13 19t-19.5 4.5t-19 -4.5t-10.5 -7l-38 63q19 20 53.5 28t67.5 1t57.5 -31.5t24.5 -69.5zM476 414q0 -45 -19.5 -82.5t-51.5 -65t-72.5 -43t-81.5 -15.5
q-5 0 -10.5 0.5t-7.5 0.5q-4 2 -11 7t-14.5 11t-14.5 11.5t-10 8.5q-6 -72 19 -111.5t73 -39.5q35 0 74 17t68 40l19 -113q-21 -15 -46.5 -25.5t-53 -17t-55 -10t-52.5 -3.5q-94 0 -150.5 56t-56.5 163q0 72 22.5 136t60.5 112.5t89.5 77t110.5 28.5q34 0 65 -7.5
t54.5 -24.5t37.5 -44.5t14 -66.5zM397 592q-21 23 -43 48.5t-48 55.5q-27 -20 -53.5 -47t-51.5 -53l-77 62q34 44 69 82.5t67 65.5l118 9q10 -20 24 -42.5t29.5 -45.5t32.5 -44t32 -36zM330 417q0 22 -10.5 38t-31.5 16t-38.5 -17.5t-30.5 -44.5t-21.5 -59t-11.5 -61
q24 -2 49.5 7.5t46.5 26.5t34.5 41t13.5 53z" />
    <glyph glyph-name="uni1EC5" unicode="&#x1ec5;" horiz-adv-x="498" 
d="M489 890q-18 -17 -43 -27.5t-49 -10.5q-18 0 -35 6t-33 13t-32 13t-32 6q-19 0 -36.5 -9.5t-32.5 -22.5l-30 79q20 19 43 30t52 11q17 0 34 -6t34 -12.5t33.5 -12.5t33.5 -6q30 0 54 22zM476 414q0 -45 -19.5 -82.5t-51.5 -65t-72.5 -43t-81.5 -15.5q-5 0 -10.5 0.5
t-7.5 0.5q-4 2 -11 7t-14.5 11t-14.5 11.5t-10 8.5q-6 -72 19 -111.5t73 -39.5q35 0 74 17t68 40l19 -113q-21 -15 -46.5 -25.5t-53 -17t-55 -10t-52.5 -3.5q-94 0 -150.5 56t-56.5 163q0 72 22.5 136t60.5 112.5t89.5 77t110.5 28.5q34 0 65 -7.5t54.5 -24.5t37.5 -44.5
t14 -66.5zM397 592q-21 23 -43 48.5t-48 55.5q-27 -20 -53.5 -47t-51.5 -53l-77 62q34 44 69 82.5t67 65.5l118 9q10 -20 24 -42.5t29.5 -45.5t32.5 -44t32 -36zM330 417q0 22 -10.5 38t-31.5 16t-38.5 -17.5t-30.5 -44.5t-21.5 -59t-11.5 -61q24 -2 49.5 7.5t46.5 26.5
t34.5 41t13.5 53z" />
    <glyph glyph-name="uni1EC7" unicode="&#x1ec7;" horiz-adv-x="498" 
d="M314 -135q0 -20 -9 -36t-23 -27.5t-32 -18t-37 -6.5q-15 0 -29.5 4t-26 13t-19 22t-7.5 31q0 21 9 36.5t23.5 26.5t33 16.5t36.5 5.5q14 0 28.5 -4t26 -12.5t19 -21t7.5 -29.5zM476 414q0 -45 -19.5 -82.5t-51.5 -65t-72.5 -43t-81.5 -15.5q-5 0 -10.5 0.5t-7.5 0.5
q-4 2 -11 7t-14.5 11t-14.5 11.5t-10 8.5q-6 -72 19 -111.5t73 -39.5q35 0 74 17t68 40l19 -113q-21 -15 -46.5 -25.5t-53 -17t-55 -10t-52.5 -3.5q-94 0 -150.5 56t-56.5 163q0 72 22.5 136t60.5 112.5t89.5 77t110.5 28.5q34 0 65 -7.5t54.5 -24.5t37.5 -44.5t14 -66.5z
M397 592q-21 23 -43 48.5t-48 55.5q-27 -20 -53.5 -47t-51.5 -53l-77 62q34 44 69 82.5t67 65.5l118 9q10 -20 24 -42.5t29.5 -45.5t32.5 -44t32 -36zM330 417q0 22 -10.5 38t-31.5 16t-38.5 -17.5t-30.5 -44.5t-21.5 -59t-11.5 -61q24 -2 49.5 7.5t46.5 26.5t34.5 41
t13.5 53z" />
    <glyph glyph-name="uni1EC9" unicode="&#x1ec9;" horiz-adv-x="288" 
d="M258 557q3 -47 -1 -96t-10 -98t-12.5 -97t-9.5 -92q-3 -48 -3 -89t7 -74l-156 -27q-8 31 -9.5 69.5t0.5 78.5q2 46 9 98t13.5 104.5t10.5 103.5t1 96zM299 768q0 -32 -14 -62t-36 -54.5t-48 -42t-49 -26.5l-54 76q20 9 38 21t30.5 26t18.5 29t2 30t-14 20t-21 4.5
t-20 -4.5t-12 -7l-41 68q21 21 58 30t72.5 1t62 -34.5t27.5 -74.5z" />
    <glyph glyph-name="uni1ECB" unicode="&#x1ecb;" horiz-adv-x="288" 
d="M273 557q3 -47 -1 -96t-10 -98t-12.5 -97t-9.5 -92q-3 -48 -3 -89t7 -74l-156 -27q-8 31 -9.5 69.5t0.5 78.5q2 46 9 98t13.5 104.5t10.5 103.5t1 96zM311 713q0 -21 -9.5 -38t-24.5 -29.5t-34 -19t-38 -6.5q-16 0 -31.5 4.5t-28 13.5t-20 23t-7.5 33q0 22 9.5 38.5
t25 27.5t34.5 17t39 6q15 0 30 -4t27.5 -13t20 -22t7.5 -31zM240 -140q0 -20 -9 -36t-23 -27.5t-32 -18t-37 -6.5q-15 0 -29.5 4t-26 13t-19 22t-7.5 31q0 21 9 36.5t23.5 26.5t33 16.5t36.5 5.5q14 0 28.5 -4t26 -12.5t19 -21t7.5 -29.5z" />
    <glyph glyph-name="uni1ECD" unicode="&#x1ecd;" horiz-adv-x="534" 
d="M513 348q0 -71 -19.5 -137t-57.5 -116.5t-96 -80.5t-134 -30q-93 0 -139 55.5t-46 148.5q0 68 18.5 134.5t56 118.5t93.5 84t131 32q94 0 143.5 -57t49.5 -152zM351 343q0 62 -15.5 93t-50.5 31q-21 0 -39.5 -20t-32 -55t-21.5 -84.5t-8 -107.5q0 -59 13.5 -91t51.5 -32
q24 0 43 19.5t32 54.5t20 84t7 108zM303 -140q0 -20 -9 -36t-23 -27.5t-32 -18t-37 -6.5q-15 0 -29.5 4t-26 13t-19 22t-7.5 31q0 21 9 36.5t23.5 26.5t33 16.5t36.5 5.5q14 0 28.5 -4t26 -12.5t19 -21t7.5 -29.5z" />
    <glyph glyph-name="uni1ECF" unicode="&#x1ecf;" horiz-adv-x="534" 
d="M513 348q0 -71 -19.5 -137t-57.5 -116.5t-96 -80.5t-134 -30q-93 0 -139 55.5t-46 148.5q0 68 18.5 134.5t56 118.5t93.5 84t131 32q94 0 143.5 -57t49.5 -152zM351 343q0 62 -15.5 93t-50.5 31q-21 0 -39.5 -20t-32 -55t-21.5 -84.5t-8 -107.5q0 -59 13.5 -91t51.5 -32
q24 0 43 19.5t32 54.5t20 84t7 108zM455 765q0 -32 -14 -62t-36 -54.5t-48 -42t-49 -26.5l-54 76q20 9 38 21t30.5 26t18.5 29t2 30t-14 20t-21 4.5t-20 -4.5t-12 -7l-41 68q21 21 58 30t72.5 1t62 -34.5t27.5 -74.5z" />
    </font>
</defs>
</svg>
