<?xml version="1.0" encoding="utf-8"?>
<!-- Generator: Adobe Illustrator 25.0.0, SVG Export Plug-In . SVG Version: 6.00 Build 0)  -->
<svg version="1.1" id="Layer_1" xmlns="http://www.w3.org/2000/svg" xmlns:xlink="http://www.w3.org/1999/xlink" x="0px" y="0px"
	 viewBox="0 0 411 85" style="enable-background:new 0 0 411 85;" xml:space="preserve">
<style type="text/css">
	.st0{fill-rule:evenodd;clip-rule:evenodd;fill:#A50064;}
</style>
<g>
	<path class="st0" d="M70.2,0C63,0,56.4,2.4,51,6.4c-5.3-4-12-6.4-19.1-6.4C14.3,0,0,14.3,0,31.9V85h24.5V31.6c0-4,3.2-7.2,7.2-7.2
		s7.2,3.2,7.2,7.2V85h24.5V31.6c0-4,3.2-7.2,7.2-7.2s7.2,3.2,7.2,7.2V85h24.5V31.9C102.1,14.3,87.8,0,70.2,0z"/>
	<path class="st0" d="M281.8,0c-7.2,0-13.8,2.4-19.1,6.4c-5.3-4-12-6.4-19.1-6.4c-17.6,0-31.9,14.3-31.9,31.9V85h24.5V31.6
		c0-4,3.2-7.2,7.2-7.2s7.2,3.2,7.2,7.2V85h24.5V31.6c0-4,3.2-7.2,7.2-7.2c4,0,7.2,3.2,7.2,7.2V85h24.5V31.9
		C313.7,14.3,299.4,0,281.8,0z"/>
	<path class="st0" d="M156.8,0c-23.5,0-42.5,19-42.5,42.5s19,42.5,42.5,42.5c23.5,0,42.5-19,42.5-42.5S180.3,0,156.8,0z M156.8,60.6
		c-10,0-18.1-8.1-18.1-18.1c0-10,8.1-18.1,18.1-18.1c10,0,18.1,8.1,18.1,18.1C174.9,52.5,166.8,60.6,156.8,60.6z"/>
	<path class="st0" d="M368.5,0c-23.5,0-42.5,19-42.5,42.5S345,85,368.5,85C392,85,411,66,411,42.5S392,0,368.5,0z M368.5,60.6
		c-10,0-18.1-8.1-18.1-18.1c0-10,8.1-18.1,18.1-18.1c10,0,18.1,8.1,18.1,18.1C386.5,52.5,378.4,60.6,368.5,60.6z"/>
</g>
</svg>
